<?xml version="1.0" encoding="UTF-8"?>
<!DOCTYPE svg PUBLIC "-//W3C//DTD SVG 1.1//EN" "http://www.w3.org/Graphics/SVG/1.1/DTD/svg11.dtd">
<!-- Creator: CorelDRAW -->
<svg xmlns="http://www.w3.org/2000/svg" xml:space="preserve" width="4.2332mm" height="6.9426mm" version="1.1" style="shape-rendering:geometricPrecision; text-rendering:geometricPrecision; image-rendering:optimizeQuality; fill-rule:evenodd; clip-rule:evenodd"
viewBox="0 0 423320 694260"
 xmlns:xlink="http://www.w3.org/1999/xlink"
 xmlns:xodm="http://www.corel.com/coreldraw/odm/2003">
 <defs>
  <style type="text/css">
   <![CDATA[
    .fil40 {fill:#004E2B}
    .fil41 {fill:#009964}
    .fil43 {fill:#00E2AB}
    .fil42 {fill:#09B28A}
    .fil32 {fill:#2D83CB}
    .fil34 {fill:#2E6D99}
    .fil28 {fill:#2E8228}
    .fil27 {fill:#2FB22C}
    .fil38 {fill:#3377A7}
    .fil19 {fill:#353535}
    .fil36 {fill:#367EAE}
    .fil29 {fill:#36982E}
    .fil20 {fill:#373737}
    .fil18 {fill:#3D3D3D}
    .fil15 {fill:#3F3F3F}
    .fil31 {fill:#41CB36}
    .fil17 {fill:#454545}
    .fil33 {fill:#4596D0}
    .fil37 {fill:#59A1D5}
    .fil44 {fill:#64D0E7}
    .fil13 {fill:#6A6A6A}
    .fil14 {fill:#6D6D6D}
    .fil12 {fill:#7B7B7B}
    .fil11 {fill:#8C8C8C}
    .fil3 {fill:#9A2E40}
    .fil8 {fill:#9B672F}
    .fil2 {fill:#B0364A}
    .fil9 {fill:#B57837}
    .fil23 {fill:#C1A32D}
    .fil1 {fill:#CA2B3E}
    .fil7 {fill:#CB8429}
    .fil6 {fill:#CF8F42}
    .fil0 {fill:#D04458}
    .fil5 {fill:#D4586D}
    .fil10 {fill:#D49858}
    .fil21 {fill:#DBDBDB}
    .fil16 {fill:#F0F0F0}
    .fil22 {fill:#F2F2F2}
    .fil30 {fill:#F6F6F6}
    .fil24 {fill:#FADD57}
    .fil46 {fill:#FD8F14}
    .fil45 {fill:#FEE801}
    .fil39 {fill:#FEFEF7}
    .fil4 {fill:#FEFEFE}
    .fil35 {fill:#FEFEFF}
    .fil47 {fill:#FFB801}
    .fil25 {fill:#FFD326}
    .fil26 {fill:#FFFFFE}
   ]]>
  </style>
 </defs>
 <g id="圖層_x0020_2" visibility="hidden">
  <metadata id="CorelCorpID_0Corel-Layer"/>
  <image id="marker-icon-2x-red.png" x="0" y="0" width="423320" height="694260" xlink:href="marker-icon-2x-s-1-railway_Images\marker-icon-2x-s-1-railway_ImgID1.png"/>
  <g id="_2130769147744">
   <path class="fil0" d="M27980 190890l-7410 43860c1830,78600 78060,191180 107770,256290 23280,3690 840,-28850 -7130,-45410 -27390,-56960 -56600,-118280 -68720,-183470l57640 1440c16600,48610 68550,78740 130070,64490 63510,-14720 73140,-49530 89990,-113610l44980 0c-40,45810 -10640,77090 -23520,113340l-32250 77060c-6370,30260 -7830,15070 4510,28960 24480,-49100 79270,-140110 78840,-199090l-4510 -44190c-15680,-9070 -10360,-6160 -21530,-24540 -131430,-216180 -329880,-76230 -346480,49100l-2250 -24230z"/>
   <path class="fil1" d="M128340 491040c19770,39700 57770,127210 83320,153790 21360,-23180 94450,-170960 112250,-210990 -12340,-13890 -10880,1300 -4510,-28960l32250 -77060c12880,-36250 23480,-67530 23520,-113340l-44980 0c-16850,64080 -26480,98890 -89990,113610 -61520,14250 -113470,-15880 -130070,-64490l-57640 -1440c12120,65190 41330,126510 68720,183470 7970,16560 30410,49100 7130,45410z"/>
   <path class="fil2" d="M189110 136780c-9300,1750 -43320,31670 -48170,37430 -39610,47080 -6850,151980 89550,134580 114460,-20660 77150,-194340 -41380,-172010z"/>
   <path class="fil3" d="M423320 234750l-20570 0c430,58980 -54360,149990 -78840,199090 -17800,40030 -90890,187810 -112250,210990 -25550,-26580 -63550,-114090 -83320,-153790 -29710,-65110 -105940,-177690 -107770,-256290l-20570 0c1610,79990 103260,251160 149570,343800 17440,34870 34570,87080 62090,107240 26490,-19410 43730,-70530 59260,-101600 19050,-38080 36320,-72330 56410,-112920 29120,-58800 94460,-160440 95990,-236520z"/>
   <path class="fil4" d="M189310 159990c-37950,15740 -56500,44030 -40160,88000 11110,29870 49330,52320 91730,36080 68270,-26140 35670,-160250 -51570,-124080z"/>
   <path class="fil2" d="M0 234750l20570 0 7410 -43860c4820,-85000 90090,-161390 183670,-162030 96790,-660 172240,76990 186590,161700l4510 44190 20570 0c0,-85150 -31200,-140390 -86670,-181950 -146040,-109410 -336650,450 -336650,181950z"/>
   <path class="fil5" d="M27980 190890l2250 24230c16600,-125330 215050,-265280 346480,-49100 11170,18380 5850,15470 21530,24540 -14350,-84710 -89800,-162360 -186590,-161700 -93580,640 -178850,77030 -183670,162030z"/>
  </g>
 </g>
 <g id="圖層_x0020_3" visibility="hidden">
  <metadata id="CorelCorpID_1Corel-Layer"/>
  <image id="marker-icon-2x-orange.png" x="0" y="0" width="423320" height="694260" xlink:href="marker-icon-2x-s-1-railway_Images\marker-icon-2x-s-1-railway_ImgID2.png"/>
  <g id="_2130769149808">
   <path class="fil6" d="M22520 248400l1650 13620c9700,55710 162500,351970 187490,380980 23860,-28690 167350,-308100 179900,-357000 -11690,-9430 -10080,20180 -8460,-26230 -26390,26370 -113980,278790 -151510,333090 -17290,25020 -4140,8620 -19930,21620 -27030,-22150 -33270,-49440 -49620,-84860 -35770,-77520 -102180,-207790 -111760,-282950l51320 150c22820,106940 197820,136760 228590,-31780l45510 0 1150 38740c76690,-43000 -125900,-322040 -290770,-142020 -13550,14800 -30810,31510 -39880,53680 -11440,27980 -7910,60670 -23680,82960z"/>
   <path class="fil7" d="M383100 259770l-6250 -5990 -1150 -38740 -45510 0c-30770,168540 -205770,138720 -228590,31780l-51320 -150c9580,75160 75990,205430 111760,282950 16350,35420 22590,62710 49620,84860 15790,-13000 2640,3400 19930,-21620 37530,-54300 125120,-306720 151510,-333090z"/>
   <path class="fil8" d="M194230 142580c-41930,10180 -73740,49570 -63600,100170 8170,40760 54150,75080 104950,61750 100190,-26310 66840,-188180 -41350,-161920z"/>
   <path class="fil8" d="M414850 177800c-3290,17430 1750,22080 -660,42350 -4250,35590 2550,21880 -17400,41870l-5230 23980c-12550,48900 -156040,328310 -179900,357000 -24990,-29010 -177790,-325270 -187490,-380980 -29190,-36190 -8520,-51040 -15700,-84220 -4140,6530 -6870,14060 -8470,22220l0 44260c4220,29610 14910,59940 22840,80010 34950,88350 76750,154280 121090,242970 16340,32690 41070,99000 67730,118530 27300,-20000 105300,-195740 126890,-237170 32280,-61980 77130,-129430 84770,-201090l0 -32110 -8470 -37620z"/>
   <path class="fil4" d="M188540 159460c-34990,14790 -56720,43000 -39850,88770 11220,30440 49420,52660 92520,36340 73110,-27680 34990,-162170 -52670,-125110z"/>
   <path class="fil9" d="M8470 177800c7180,33180 -13490,48030 15700,84220l-1650 -13620c-9580,-297190 413090,-281200 374270,13620 19950,-19990 13150,-6280 17400,-41870 2410,-20270 -2630,-24920 660,-42350 -1050,-47270 -36020,-89810 -68790,-117480 -153660,-129770 -335350,16550 -337590,117480z"/>
   <path class="fil10" d="M22520 248400c15770,-22290 12240,-54980 23680,-82960 9070,-22170 26330,-38880 39880,-53680 164870,-180020 367460,99020 290770,142020l6250 5990c-1620,46410 -3230,16800 8460,26230l5230 -23980c38820,-294820 -383850,-310810 -374270,-13620z"/>
  </g>
 </g>
 <g id="圖層_x0020_4">
  <metadata id="CorelCorpID_2Corel-Layer"/>
  <g id="_2130782748688">
   <path class="fil11" d="M191740 139860c51850,-11410 95820,22820 103930,64190 24330,124150 -146710,139660 -166370,39350 -10920,-55650 27670,-95890 62440,-103540zm-79160 325930c29080,-12660 3720,-16760 -33860,-112220 -17480,-44400 -29490,-81090 -33410,-133440l47820 0c13430,23870 20620,109570 118780,110170 83660,520 90820,-50330 118280,-110170l48680 0c-5610,71950 -35820,138230 -66180,201870 -37130,77830 -22920,50380 -13390,63070 25340,-75500 106820,-176590 105680,-272810 -2820,-239240 -363670,-250450 -385720,-14940 -10960,116990 87620,207440 93320,268470z"/>
   <path class="fil12" d="M112580 465790c17070,31150 36270,59690 51750,88790 15900,29900 23390,62670 47330,88630 40900,-47470 47160,-102350 87640,-158140 -9530,-12690 -23740,14760 13390,-63070 30360,-63640 60570,-129920 66180,-201870l-48680 0c-27460,59840 -34620,110690 -118280,110170 -98160,-600 -105350,-86300 -118780,-110170l-47820 0c3920,52350 15930,89040 33410,133440 37580,95460 62940,99560 33860,112220z"/>
   <path class="fil13" d="M299300 485070c-40480,55790 -46740,110670 -87640,158140 -23940,-25960 -31430,-58730 -47330,-88630 -15480,-29100 -34680,-57640 -51750,-88790 -5700,-61030 -104280,-151480 -93320,-268470 22050,-235510 382900,-224300 385720,14940 1140,96220 -80340,197310 -105680,272810zm-299300 -264940c0,89760 55950,180010 95840,251290 20440,36510 34750,69170 53730,107130 17440,34870 34570,87080 62090,107240 26490,-19410 43730,-70530 59260,-101600 19050,-38080 36320,-72330 56410,-112920 38900,-78550 95990,-156330 95990,-251140 0,-278430 -423320,-276190 -423320,0z"/>
   <path class="fil4" d="M188990 159760c-90890,38050 -31020,156840 52360,124300 73200,-28570 33910,-160420 -52360,-124300z"/>
   <path class="fil14" d="M188990 159760c86270,-36120 125560,95730 52360,124300 -83380,32540 -143250,-86250 -52360,-124300zm2750 -19900c-34770,7650 -73360,47890 -62440,103540 19660,100310 190700,84800 166370,-39350 -8110,-41370 -52080,-75600 -103930,-64190z"/>
  </g>
 </g>
 <g id="圖層_x0020_5" visibility="hidden">
  <metadata id="CorelCorpID_3Corel-Layer"/>
  <g id="_2130782746096">
   <path class="fil15" d="M203620 160100c78900,-18520 100500,110630 23010,125250 -81760,15420 -119880,-102510 -23010,-125250zm-203620 60030c0,89760 55950,180010 95840,251290 20440,36510 34750,69170 53730,107130 17440,34870 34570,87080 62090,107240 26490,-19410 43730,-70530 59260,-101600 19050,-38080 36320,-72330 56410,-112920 38900,-78550 95990,-156330 95990,-251140 0,-278430 -423320,-276190 -423320,0z"/>
   <path class="fil16" d="M203620 160100c-96870,22740 -58750,140670 23010,125250 77490,-14620 55890,-143770 -23010,-125250z"/>
  </g>
  <g id="_2131046673024">
   <path class="fil17" d="M269170 493170c-4450,23290 -11980,35540 -21870,57740l-20530 40580c-1390,1890 -3250,3900 -4620,5600l-33070 -16820 -36330 -86050c-22800,-19460 -52640,-92540 -65890,-123300 -20520,-47630 -36360,-94570 -40320,-149740l52940 0c23480,122480 113520,127820 173470,94750 37650,-20770 24520,-24830 48770,-54520l49740 0c-7000,35420 -61620,182860 -87670,216580 -8880,11500 -4860,7040 -14620,15180zm-82950 -346230c52170,-22560 133870,23210 104710,110060 -9160,27270 -13390,33640 -40910,45080 -105870,44000 -183570,-103340 -63800,-155140zm25440 492050c59010,-102860 113390,-210130 169070,-325630 72560,-150480 -29630,-288950 -169080,-288520 -140860,440 -238830,136940 -169230,288760l169240 325390z"/>
   <path class="fil18" d="M152750 494220c6160,-11970 -10710,-15280 58980,-15250 1160,0 32750,2010 32990,2070 26090,6050 7770,-5090 24450,12130 9760,-8140 5740,-3680 14620,-15180 26050,-33720 80670,-181160 87670,-216580l-49740 0c-24250,29690 -11120,33750 -48770,54520 -59950,33070 -149990,27730 -173470,-94750l-52940 0c3960,55170 19800,102110 40320,149740 13250,30760 43090,103840 65890,123300z"/>
   <path class="fil19" d="M42420 313600c-69600,-151820 28370,-288320 169230,-288760 139450,-430 241640,138040 169080,288520 -55680,115500 -110060,222770 -169070,325630l-169240 -325390zm-42420 -93470c0,89760 55950,180010 95840,251290 20440,36510 34750,69170 53730,107130 17440,34870 34570,87080 62090,107240 26490,-19410 43730,-70530 59260,-101600 19050,-38080 36320,-72330 56410,-112920 38900,-78550 95990,-156330 95990,-251140 0,-278430 -423320,-276190 -423320,0z"/>
   <path class="fil20" d="M202170 158550c84080,-18870 106530,113280 24950,128170 -86980,15880 -119840,-106870 -24950,-128170zm-15950 -11610c-119770,51800 -42070,199140 63800,155140 27520,-11440 31750,-17810 40910,-45080 29160,-86850 -52540,-132620 -104710,-110060z"/>
   <path class="fil21" d="M169330 194000c53380,-27290 105690,-10300 78390,62200 -28130,12310 -45200,12350 -74690,2190 -11990,-30850 -11580,-26010 -3700,-64390zm32840 -35450c-94890,21300 -62030,144050 24950,128170 81580,-14890 59130,-147040 -24950,-128170z"/>
   <path class="fil22" d="M169330 194000c-7880,38380 -8290,33540 3700,64390 29490,10160 46560,10120 74690,-2190 27300,-72500 -25010,-89490 -78390,-62200z"/>
  </g>
 </g>
 <g id="圖層_x0020_6" visibility="hidden">
  <metadata id="CorelCorpID_4Corel-Layer"/>
  <image id="marker-icon-2x-gold.png" x="-4230" y="-4230" width="431780" height="702720" xlink:href="marker-icon-2x-s-1-railway_Images\marker-icon-2x-s-1-railway_ImgID3.png"/>
  <g id="_2131046669232">
   <path class="fil23" d="M-4230 190500c0,117180 58890,171210 98020,266030 17040,41290 95780,214210 122100,233490l101570 -220160c71620,-141880 101620,-168330 101620,-287830 0,-99110 -97470,-181450 -204010,-186260l-19190 0c-46600,2030 -93910,19330 -134700,56940 -28600,26370 -65410,85670 -65410,137790z"/>
   <path class="fil24" d="M206930 630080c27870,-28770 134870,-269090 163750,-327100 67890,-136340 -17640,-282140 -163250,-281090 -146740,1050 -224300,143490 -160630,277860 51410,108490 106100,226360 160130,330330z"/>
   <path class="fil25" d="M208360 594750c25630,-35350 114430,-236650 146940,-298030 66870,-126300 -16020,-261010 -147920,-258890 -127330,2040 -208740,124530 -145370,256110 47480,98580 96660,208870 146350,300810z"/>
   <path class="fil24" d="M177830 59780c-220800,54530 -128830,365100 85340,299960 172220,-52400 120970,-350880 -85340,-299960z"/>
   <path class="fil23" d="M174220 137920c-104660,52340 -30180,194970 71810,150400 94770,-41410 33160,-202880 -71810,-150400z"/>
   <path class="fil26" d="M192000 145890c-99130,27880 -51640,156290 36620,134220 84460,-21130 56400,-160380 -36620,-134220z"/>
  </g>
 </g>
 <g id="圖層_x0020_7" visibility="hidden">
  <metadata id="CorelCorpID_5Corel-Layer"/>
  <g id="_2131046663424">
   <path class="fil27" d="M302400 209750c-5560,66390 -41400,112460 -109540,97310 -88430,-19670 -64960,-81950 -56630,-129980 -27150,-2940 -3110,21750 -18910,-10470 31090,-31000 53420,-68920 127490,-49460 46040,12100 67290,49080 70250,106720 -5620,-6630 -9620,-600 -12660,-14120zm-282950 14120l2530 39520c13720,60170 165990,354220 189680,380310 24110,-27790 175830,-321770 189930,-380310l2280 -39520c-39000,-31640 -8690,-52760 -71830,-115320 -28370,-28120 -66980,-52210 -120700,-52320 -51380,-100 -92170,25690 -119750,52050 -51320,49070 -38940,88820 -72140,115590z"/>
   <path class="fil28" d="M423320 226690c-17210,13040 -6590,12880 -21730,36700 -14100,58540 -165820,352520 -189930,380310 -23690,-26090 -175960,-320140 -189680,-380310 -16010,-24230 -4620,-23500 -21980,-36700 0,88500 100400,253500 149570,351860 17440,34870 34570,87080 62090,107240 26490,-19410 43730,-70530 59260,-101600 47160,-94310 152400,-272940 152400,-357500z"/>
   <path class="fil29" d="M0 226690c17360,13200 5970,12470 21980,36700l-2530 -39520c40020,-222160 230520,-231680 325020,-136540 40600,40870 47080,66800 59400,136540l-2280 39520c15140,-23820 4520,-23660 21730,-36700 0,-73640 -24210,-111820 -59870,-149890 -136300,-145520 -363450,-36930 -363450,149890z"/>
   <path class="fil30" d="M190750 161640c-95720,41290 -25140,153570 50130,121540 70000,-29800 34360,-157980 -50130,-121540z"/>
   <path class="fil31" d="M19450 223870c33200,-26770 20820,-66520 72140,-115590 27580,-26360 68370,-52150 119750,-52050 53720,110 92330,24200 120700,52320 63140,62560 32830,83680 71830,115320 -12320,-69740 -18800,-95670 -59400,-136540 -94500,-95140 -285000,-85620 -325020,136540z"/>
   <path class="fil29" d="M190750 161640c84490,-36440 120130,91740 50130,121540 -75270,32030 -145850,-80250 -50130,-121540zm-54520 15440c-8330,48030 -31800,110310 56630,129980 68140,15150 103980,-30920 109540,-97310 -11750,-39870 -32270,-68220 -74590,-74520 -45780,-6820 -72550,10390 -91580,41850z"/>
   <path class="fil31" d="M136230 177080c19030,-31460 45800,-48670 91580,-41850 42320,6300 62840,34650 74590,74520 3040,13520 7040,7490 12660,14120 -2960,-57640 -24210,-94620 -70250,-106720 -74070,-19460 -96400,18460 -127490,49460 15800,32220 -8240,7530 18910,10470z"/>
  </g>
 </g>
 <g id="圖層_x0020_8" visibility="hidden">
  <metadata id="CorelCorpID_6Corel-Layer"/>
  <image id="marker-icon-2x.png" x="0" y="0" width="423320" height="694260" xlink:href="marker-icon-2x-s-1-railway_Images\marker-icon-2x-s-1-railway_ImgID4.png"/>
  <g id="_2131046659776">
   <path class="fil32" d="M119370 472780c14300,34180 72470,150660 92290,171740 19530,-20770 95570,-171290 113100,-211210 -12150,-13920 -10350,1150 -3750,-27560 90,-390 12390,-27270 13220,-29080 33220,-72300 45090,-114200 38420,-194050l-51420 -1720c6790,80030 -13190,142600 -100700,147790 -92190,5470 -125040,-56320 -116990,-148320l-52780 4260c-8100,94770 36040,218480 78800,281030 -2270,11120 11240,12430 -10190,7120z"/>
   <path class="fil33" d="M191370 139690c113610,-25690 150410,142690 39240,168200 -51290,11770 -94020,-23050 -101900,-64350 -9060,-47490 21560,-94550 62660,-103850zm-156160 22200c-17190,24850 -13130,46380 -12980,80870 430,62410 71310,176600 97140,230020 21430,5310 7920,4000 10190,-7120 -42760,-62550 -86900,-186260 -78800,-281030l52780 -4260c-8050,92000 24800,153790 116990,148320 87510,-5190 107490,-67760 100700,-147790l51420 1720c6670,79850 -5200,121750 -38420,194050 -830,1810 -13130,28690 -13220,29080 -6600,28710 -8400,13640 3750,27560 23150,-50780 76270,-133820 76330,-190550 150,-34740 4230,-55650 -12460,-81350 -17260,14560 -2380,12720 -16530,-6040 -7260,-9610 -6240,-13230 -12670,-22660 -50460,-74150 -167070,-112180 -256720,-38290 -70870,58400 -48150,94400 -67500,67470z"/>
   <path class="fil34" d="M0 257240c58660,165550 75840,173820 152400,326950 15530,31070 32770,82190 59260,101600 17550,-12850 143170,-257980 165800,-308320 20030,-44550 29740,-75110 45860,-119920 -9130,-9710 -7100,-5840 -22230,-14790 -60,56730 -53180,139770 -76330,190550 -17530,39920 -93570,190440 -113100,211210 -19820,-21080 -77990,-137560 -92290,-171740 -25830,-53420 -96710,-167610 -97140,-230020 -15200,8900 -12980,5010 -22230,14480z"/>
   <path class="fil35" d="M144490 228600c4590,83960 145880,83080 135100,-16330 -8610,-79320 -140480,-82050 -135100,16330z"/>
   <path class="fil36" d="M0 257240c9250,-9470 7030,-5580 22230,-14480 -150,-34490 -4210,-56020 12980,-80870 12690,-65980 90660,-132430 176430,-132760 85560,-320 163240,66820 176990,132280 16690,25700 12610,46610 12460,81350 15130,8950 13100,5080 22230,14790 0,-91920 -9250,-121110 -51960,-171730 -16140,-19120 -8340,-12100 -29950,-29310 -91310,-72700 -199810,-62490 -284490,25810 -47400,49420 -56920,81290 -56920,174920z"/>
   <path class="fil37" d="M35210 161890c19350,26930 -3370,-9070 67500,-67470 89650,-73890 206260,-35860 256720,38290 6430,9430 5410,13050 12670,22660 14150,18760 -730,20600 16530,6040 -13750,-65460 -91430,-132600 -176990,-132280 -85770,330 -163740,66780 -176430,132760z"/>
   <path class="fil38" d="M144490 228600c-5380,-98380 126490,-95650 135100,-16330 10780,99410 -130510,100290 -135100,16330zm46880 -88910c-41100,9300 -71720,56360 -62660,103850 7880,41300 50610,76120 101900,64350 111170,-25510 74370,-193890 -39240,-168200z"/>
  </g>
 </g>
 <g id="圖層_x0020_9">
  <metadata id="CorelCorpID_7Corel-Layer"/>
 </g>
 <g id="圖層_x0020_1">
  <metadata id="CorelCorpID_8Corel-Layer"/>
  <g id="_2135150297520">
   <path class="fil39" d="M137230 342370l-840 0 0 4260 -840 0 0 2560 -840 0 0 850 -5850 0 0 850 -32640 0 0 -850 -30960 0 0 -850 -840 0 0 -12790 -840 0 0 -39210 840 0 0 -5970 840 0 0 -1700 64430 0 0 850 5020 0 0 1700 840 0 0 5120 840 0 0 5960 840 0 0 7680 830 0 0 23010 -830 0 0 8530zm-74480 -143220l830 0 0 -3410 840 0 0 -850 840 0 0 -850 830 0 0 -850 1680 0 0 -860 3340 0 0 -850 6700 0 0 -850 6690 0 0 -850 35150 0 0 850 4190 0 0 850 2510 0 0 850 1670 0 0 860 1670 0 0 850 1680 0 0 850 1670 0 0 850 840 0 0 860 830 0 0 850 840 0 0 1700 840 0 0 2560 840 0 0 3410 830 0 0 3410 840 0 0 5120 840 0 0 12780 -840 0 0 11080 -840 0 0 3420 -830 0 0 1700 -840 0 0 1710 -840 0 0 850 -840 0 0 850 -1670 0 0 850 -2510 0 0 850 -3350 0 0 860 -4180 0 0 850 -3350 0 0 850 -44350 0 0 -850 -2510 0 0 -850 -1680 0 0 -860 -830 0 0 -850 -1680 0 0 -850 -830 0 0 -850 -840 0 0 -2560 -840 0 0 -5120 -830 0 0 -3400 -840 0 0 -8530 -840 0 0 -9380 -830 0 0 -17050zm44350 -108260l-840 0 0 850 -830 0 0 860 -840 0 0 850 -840 0 0 1700 -840 0 0 860 -830 0 0 1700 -840 0 0 1710 -840 0 0 1700 -830 0 0 1710 -840 0 0 1700 -840 0 0 2560 -830 0 0 1700 -840 0 0 1710 -840 0 0 1700 -830 0 0 1710 -840 0 0 1700 -840 0 0 2560 -830 0 0 1710 -840 0 0 850 -840 0 0 1700 -840 0 0 2560 -830 0 0 1700 -840 0 0 1710 -840 0 0 1710 -830 0 0 1700 -840 0 0 1700 -840 0 0 1710 -830 0 0 1700 -840 0 0 1710 -840 0 0 1700 -830 0 0 1710 -840 0 0 1700 -840 0 0 1710 -830 0 0 1700 -840 0 0 1710 -840 0 0 1700 -840 0 0 1710 -830 0 0 1700 -840 0 0 1710 -840 0 0 1700 -830 0 0 1710 -840 0 0 1700 -840 0 0 1710 -830 0 0 1700 -840 0 0 1710 -840 0 0 1700 -830 0 0 1710 -840 0 0 1700 -840 0 0 1710 -830 0 0 1700 -840 0 0 1710 -840 0 0 1700 -830 0 0 1710 -840 0 0 850 -840 0 0 1700 -830 0 0 1710 -840 0 0 1710 -840 0 0 1700 -840 0 0 1700 -830 0 0 1710 -840 0 0 1700 -840 0 0 1710 -830 0 0 1700 -840 0 0 2560 -840 0 0 1710 -830 0 0 2550 -840 0 0 1710 -840 0 0 2560 -830 0 0 1700 -840 0 0 850 -840 0 0 1710 -830 0 0 1700 -840 0 0 860 -840 0 0 850 -830 0 0 850 -840 0 0 850 -840 0 0 860 -840 0 0 850 -830 0 0 850 -840 0 0 850 -840 0 0 860 -830 0 0 850 -1680 0 0 4260 -830 0 0 3410 -840 0 0 7670 -840 0 0 132130 840 0 0 6820 5020 0 0 860 49370 0 0 850 78670 0 0 -1710 830 0 0 -4260 840 0 0 -96330 -840 0 0 -13640 -830 0 0 -11080 -840 0 0 -16190 -840 0 0 -5120 -830 0 0 -3410 -840 0 0 -1700 -840 0 0 -1710 -830 0 0 -1700 -840 0 0 -1710 -840 0 0 -1700 -830 0 0 -1710 -840 0 0 -2560 -840 0 0 -1700 -830 0 0 -1710 -840 0 0 -1700 -840 0 0 -1710 -830 0 0 -850 -840 0 0 -1700 -840 0 0 -1710 -840 0 0 -1700 -830 0 0 -1710 -840 0 0 -1700 -840 0 0 -1710 -830 0 0 -2560 -840 0 0 -1700 -840 0 0 -1710 -830 0 0 -1700 -840 0 0 -1700 -840 0 0 -1710 -830 0 0 -1710 -840 0 0 -1700 -840 0 0 -1710 -830 0 0 -1700 -840 0 0 -2560 -840 0 0 -1700 -830 0 0 -1710 -840 0 0 -2550 -840 0 0 -1710 -830 0 0 -2560 -840 0 0 -1700 -840 0 0 -1710 -840 0 0 -1700 -830 0 0 -1710 -840 0 0 -1700 -840 0 0 -1710 -830 0 0 -2550 -840 0 0 -1710 -840 0 0 -850 -830 0 0 -1710 -840 0 0 -2550 -840 0 0 -1710 -830 0 0 -2560 -840 0 0 -1700 -840 0 0 -2560 -830 0 0 -1700 -840 0 0 -1710 -840 0 0 -2550 -840 0 0 -1710 -830 0 0 -1710 -840 0 0 -2550 -840 0 0 -1710 -830 0 0 -2550 -840 0 0 -1710 -840 0 0 -2560 -830 0 0 -2550 -840 0 0 -3410 -840 0 0 -2560 -830 0 0 -2560 -840 0 0 -3410 -840 0 0 -1700 -830 0 0 -2560 -840 0 0 -2560 -840 0 0 -3410 -830 0 0 -850 -840 0 0 850z"/>
   <path class="fil39" d="M280330 302300l830 0 0 -10230 840 0 0 -1700 1670 0 0 -850 56910 0 0 850 9200 0 0 850 2510 0 0 850 840 0 0 1710 840 0 0 2560 840 0 0 6810 830 0 0 46040 -830 0 0 850 -4190 0 0 850 -5020 0 0 860 -27620 0 0 -860 -16730 0 0 -850 -18410 0 0 -850 -1680 0 0 -7670 -830 0 0 -39220zm-2510 -98030l830 0 0 -1710 840 0 0 -1700 840 0 0 -3410 830 0 0 -1710 840 0 0 -3410 1670 0 0 -850 5020 0 0 -850 8370 0 0 -850 11720 0 0 -860 12550 0 0 -850 13390 0 0 850 4180 0 0 860 3350 0 0 850 2510 0 0 850 1680 0 0 850 1670 0 0 860 1670 0 0 850 840 0 0 850 840 0 0 850 830 0 0 860 840 0 0 1700 840 0 0 3410 840 0 0 34100 -840 0 0 4260 -840 0 0 3410 -840 0 0 860 -830 0 0 850 -840 0 0 850 -1670 0 0 850 -1680 0 0 850 -2510 0 0 860 -2510 0 0 850 -5020 0 0 850 -5860 0 0 850 -36820 0 0 -850 -5020 0 0 -850 -1670 0 0 -850 -840 0 0 -860 -840 0 0 -850 -830 0 0 -850 -840 0 0 -1700 -840 0 0 -1710 -830 0 0 -850 -840 0 0 -2560 -840 0 0 -3410 -830 0 0 -5110 -840 0 0 -7680 -840 0 0 -3410 -830 0 0 -15340zm43510 -116790l-840 0 0 2560 -830 0 0 1700 -840 0 0 1710 -840 0 0 1700 -830 0 0 1710 -840 0 0 1700 -840 0 0 1710 -830 0 0 2560 -840 0 0 1700 -840 0 0 2560 -830 0 0 1700 -840 0 0 2560 -840 0 0 1710 -830 0 0 1700 -840 0 0 1710 -840 0 0 1700 -840 0 0 1710 -830 0 0 1700 -840 0 0 1700 -840 0 0 1710 -830 0 0 1700 -840 0 0 1710 -840 0 0 2560 -830 0 0 1700 -840 0 0 1710 -840 0 0 1700 -830 0 0 1710 -840 0 0 1700 -840 0 0 1710 -830 0 0 1700 -840 0 0 1710 -840 0 0 1700 -840 0 0 1710 -830 0 0 1700 -840 0 0 1710 -840 0 0 1700 -830 0 0 1710 -840 0 0 1700 -840 0 0 1710 -830 0 0 2550 -840 0 0 1710 -840 0 0 1700 -830 0 0 1710 -840 0 0 1700 -840 0 0 1710 -830 0 0 1700 -840 0 0 1710 -840 0 0 1700 -830 0 0 1710 -840 0 0 1700 -840 0 0 1710 -830 0 0 1700 -840 0 0 1710 -840 0 0 1700 -840 0 0 1710 -830 0 0 1700 -840 0 0 2560 -840 0 0 1700 -830 0 0 2560 -840 0 0 1710 -840 0 0 1700 -830 0 0 1710 -840 0 0 1700 -840 0 0 1710 -830 0 0 1700 -840 0 0 1710 -840 0 0 1700 -830 0 0 1710 -840 0 0 850 -840 0 0 1700 -830 0 0 1710 -840 0 0 1700 -840 0 0 1710 -840 0 0 1700 -830 0 0 1710 -840 0 0 1700 -840 0 0 2560 -830 0 0 4260 -840 0 0 9380 -840 0 0 46890 -830 0 0 65640 -840 0 0 25570 840 0 0 850 126360 0 0 -850 5020 0 0 -1710 840 0 0 -104000 -840 0 0 -37500 -840 0 0 -8530 -830 0 0 -1700 -840 0 0 -860 -840 0 0 -1700 -830 0 0 -850 -840 0 0 -1710 -840 0 0 -850 -830 0 0 -1710 -840 0 0 -1700 -840 0 0 -850 -830 0 0 -1710 -840 0 0 -1700 -840 0 0 -1710 -830 0 0 -1700 -840 0 0 -1710 -840 0 0 -850 -840 0 0 -1710 -830 0 0 -1700 -840 0 0 -1710 -840 0 0 -1700 -830 0 0 -1710 -840 0 0 -1700 -840 0 0 -1710 -830 0 0 -1700 -840 0 0 -1710 -840 0 0 -1700 -830 0 0 -1700 -840 0 0 -1710 -840 0 0 -1710 -830 0 0 -1700 -840 0 0 -1710 -840 0 0 -1700 -830 0 0 -1700 -840 0 0 -860 -840 0 0 -2550 -830 0 0 -1710 -840 0 0 -1700 -840 0 0 -1710 -840 0 0 -2560 -830 0 0 -1700 -840 0 0 -1710 -840 0 0 -2550 -830 0 0 -1710 -840 0 0 -1700 -840 0 0 -2560 -830 0 0 -1710 -840 0 0 -1700 -840 0 0 -1710 -830 0 0 -1700 -840 0 0 -1710 -840 0 0 -2550 -830 0 0 -1710 -840 0 0 -2560 -840 0 0 -1700 -840 0 0 -1710 -830 0 0 -2550 -840 0 0 -1710 -840 0 0 -1700 -830 0 0 -1710 -840 0 0 -2560 -840 0 0 -1700 -830 0 0 -1700 -840 0 0 -3410 -840 0 0 -2560 -830 0 0 -2560 -840 0 0 -2560 -840 0 0 -3410 -830 0 0 -2550 -840 0 0 -2560 -840 0 0 -2560 -840 0 0 -2560 -830 0 0 -2550 -840 0 0 -2560 -840 0 0 -1710 -830 0 0 -1700 -840 0 0 850z"/>
   <path class="fil40" d="M384930 377320l-5020 0 0 850 -126360 0 0 -850 -840 0 0 -25570 840 0 0 -65640 830 0 0 -46890 840 0 0 -9380 840 0 0 -4260 830 0 0 -2560 840 0 0 -1700 840 0 0 -1710 830 0 0 -1700 840 0 0 -1710 840 0 0 -1700 840 0 0 -1710 830 0 0 -1700 840 0 0 -850 840 0 0 -1710 830 0 0 -1700 840 0 0 -1710 840 0 0 -1700 830 0 0 -1710 840 0 0 -1700 840 0 0 -1710 830 0 0 -1700 840 0 0 -1710 840 0 0 -2560 830 0 0 -1700 840 0 0 -2560 840 0 0 -1700 830 0 0 -1710 840 0 0 -1700 840 0 0 -1710 840 0 0 -1700 830 0 0 -1710 840 0 0 -1700 840 0 0 -1710 830 0 0 -1700 840 0 0 -1710 840 0 0 -1700 830 0 0 -1710 840 0 0 -1700 840 0 0 -1710 830 0 0 -1700 840 0 0 -1710 840 0 0 -2550 830 0 0 -1710 840 0 0 -1700 840 0 0 -1710 830 0 0 -1700 840 0 0 -1710 840 0 0 -1700 830 0 0 -1710 840 0 0 -1700 840 0 0 -1710 840 0 0 -1700 830 0 0 -1710 840 0 0 -1700 840 0 0 -1710 830 0 0 -1700 840 0 0 -1710 840 0 0 -1700 830 0 0 -2560 840 0 0 -1710 840 0 0 -1700 830 0 0 -1710 840 0 0 -1700 840 0 0 -1700 830 0 0 -1710 840 0 0 -1700 840 0 0 -1710 840 0 0 -1700 830 0 0 -1710 840 0 0 -2560 840 0 0 -1700 830 0 0 -2560 840 0 0 -1700 840 0 0 -2560 830 0 0 -1710 840 0 0 -1700 840 0 0 -1710 830 0 0 -1700 840 0 0 -1710 840 0 0 -1700 830 0 0 -2560 840 0 0 -850 840 0 0 1700 830 0 0 1710 840 0 0 2560 840 0 0 2550 830 0 0 2560 840 0 0 2560 840 0 0 2560 840 0 0 2550 830 0 0 3410 840 0 0 2560 840 0 0 2560 830 0 0 2560 840 0 0 3410 840 0 0 1700 830 0 0 1700 840 0 0 2560 840 0 0 1710 830 0 0 1700 840 0 0 1710 840 0 0 2550 830 0 0 1710 840 0 0 1700 840 0 0 2560 840 0 0 1710 830 0 0 2550 840 0 0 1710 840 0 0 1700 830 0 0 1710 840 0 0 1700 840 0 0 1710 830 0 0 2560 840 0 0 1700 840 0 0 1710 830 0 0 2550 840 0 0 1710 840 0 0 1700 830 0 0 2560 840 0 0 1710 840 0 0 1700 840 0 0 1710 830 0 0 2550 840 0 0 860 840 0 0 1700 830 0 0 1700 840 0 0 1710 840 0 0 1700 830 0 0 1710 840 0 0 1710 840 0 0 1700 830 0 0 1700 840 0 0 1710 840 0 0 1700 830 0 0 1710 840 0 0 1700 840 0 0 1710 830 0 0 1700 840 0 0 1710 840 0 0 1700 830 0 0 1710 840 0 0 850 840 0 0 1710 840 0 0 1700 830 0 0 1710 840 0 0 1700 840 0 0 1710 830 0 0 850 840 0 0 1700 840 0 0 1710 830 0 0 850 840 0 0 1710 840 0 0 850 830 0 0 1700 840 0 0 860 840 0 0 1700 830 0 0 8530 840 0 0 37500 840 0 0 104000 -840 0 0 1710zm-350640 -140660l840 0 0 -7670 840 0 0 -3410 830 0 0 -4260 1680 0 0 -850 830 0 0 -860 840 0 0 -850 840 0 0 -850 830 0 0 -850 840 0 0 -860 840 0 0 -850 840 0 0 -850 830 0 0 -850 840 0 0 -860 840 0 0 -1700 830 0 0 -1710 840 0 0 -850 840 0 0 -1700 830 0 0 -2560 840 0 0 -1710 840 0 0 -2550 830 0 0 -1710 840 0 0 -2560 840 0 0 -1700 830 0 0 -1710 840 0 0 -1700 840 0 0 -1710 830 0 0 -1700 840 0 0 -1700 840 0 0 -1710 840 0 0 -1710 830 0 0 -1700 840 0 0 -850 840 0 0 -1710 830 0 0 -1700 840 0 0 -1710 840 0 0 -1700 830 0 0 -1710 840 0 0 -1700 840 0 0 -1710 830 0 0 -1700 840 0 0 -1710 840 0 0 -1700 830 0 0 -1710 840 0 0 -1700 840 0 0 -1710 830 0 0 -1700 840 0 0 -1710 840 0 0 -1700 830 0 0 -1710 840 0 0 -1700 840 0 0 -1710 840 0 0 -1700 830 0 0 -1710 840 0 0 -1700 840 0 0 -1710 830 0 0 -1700 840 0 0 -1710 840 0 0 -1700 830 0 0 -1710 840 0 0 -1700 840 0 0 -1700 830 0 0 -1710 840 0 0 -1710 840 0 0 -1700 830 0 0 -2560 840 0 0 -1700 840 0 0 -850 840 0 0 -1710 830 0 0 -2560 840 0 0 -1700 840 0 0 -1710 830 0 0 -1700 840 0 0 -1710 840 0 0 -1700 830 0 0 -2560 840 0 0 -1700 840 0 0 -1710 830 0 0 -1700 840 0 0 -1710 840 0 0 -1700 830 0 0 -860 840 0 0 -1700 840 0 0 -850 840 0 0 -860 830 0 0 -850 840 0 0 -850 840 0 0 850 830 0 0 3410 840 0 0 2560 840 0 0 2560 830 0 0 1700 840 0 0 3410 840 0 0 2560 830 0 0 2560 840 0 0 3410 840 0 0 2550 830 0 0 2560 840 0 0 1710 840 0 0 2550 830 0 0 1710 840 0 0 2550 840 0 0 1710 830 0 0 1710 840 0 0 2550 840 0 0 1710 840 0 0 1700 830 0 0 2560 840 0 0 1700 840 0 0 2560 830 0 0 1710 840 0 0 2550 840 0 0 1710 830 0 0 850 840 0 0 1710 840 0 0 2550 830 0 0 1710 840 0 0 1700 840 0 0 1710 830 0 0 1700 840 0 0 1710 840 0 0 1700 840 0 0 2560 830 0 0 1710 840 0 0 2550 840 0 0 1710 830 0 0 1700 840 0 0 2560 840 0 0 1700 830 0 0 1710 840 0 0 1700 840 0 0 1710 830 0 0 1710 840 0 0 1700 840 0 0 1700 830 0 0 1710 840 0 0 1700 840 0 0 2560 830 0 0 1710 840 0 0 1700 840 0 0 1710 830 0 0 1700 840 0 0 1710 840 0 0 1700 840 0 0 850 830 0 0 1710 840 0 0 1700 840 0 0 1710 830 0 0 1700 840 0 0 2560 840 0 0 1710 830 0 0 1700 840 0 0 1710 840 0 0 1700 830 0 0 1710 840 0 0 1700 840 0 0 3410 830 0 0 5120 840 0 0 16190 840 0 0 11080 830 0 0 13640 840 0 0 96330 -840 0 0 4260 -830 0 0 1710 -78670 0 0 -850 -49370 0 0 -860 -5020 0 0 -6820 -840 0 0 -132130zm283690 -210560l840 0 0 1710 840 0 0 1700 830 0 0 860 840 0 0 1700 840 0 0 850 830 0 0 1710 840 0 0 1700 840 0 0 1710 830 0 0 1700 840 0 0 1710 840 0 0 1700 840 0 0 1710 830 0 0 1700 840 0 0 1710 840 0 0 2560 830 0 0 1700 840 0 0 1710 840 0 0 1700 830 0 0 2560 840 0 0 1700 840 0 0 1710 830 0 0 1700 840 0 0 2560 840 0 0 1700 830 0 0 1710 840 0 0 1700 840 0 0 1710 840 0 0 1700 830 0 0 1710 840 0 0 1700 840 0 0 2560 830 0 0 1710 840 0 0 1700 840 0 0 1710 830 0 0 1700 840 0 0 2560 840 0 0 1700 830 0 0 1710 840 0 0 1700 840 0 0 2560 830 0 0 1710 840 0 0 1700 840 0 0 1710 840 0 0 1700 830 0 0 1710 840 0 0 2550 840 0 0 1710 830 0 0 2560 840 0 0 1700 840 0 0 2560 830 0 0 2560 840 0 0 1700 840 0 0 1700 830 0 0 2560 840 0 0 1710 840 0 0 2560 830 0 0 1700 840 0 0 1700 840 0 0 2560 830 0 0 1710 840 0 0 1700 840 0 0 2560 830 0 0 1700 840 0 0 1710 840 0 0 2560 840 0 0 1700 830 0 0 2560 840 0 0 1700 840 0 0 1710 830 0 0 2560 840 0 0 1700 840 0 0 2560 830 0 0 1700 840 0 0 2560 840 0 0 1710 830 0 0 2550 840 0 0 2560 840 0 0 2560 830 0 0 4260 840 0 0 3410 840 0 0 15340 -840 0 0 2560 -840 0 0 2560 -830 0 0 1700 -840 0 0 2560 -840 0 0 1710 -830 0 0 850 -1680 0 0 -1710 -830 0 0 -1700 -840 0 0 -2560 -840 0 0 -1700 -830 0 0 -860 -840 0 0 -1700 -840 0 0 -2560 -830 0 0 -1700 -840 0 0 -1710 -840 0 0 -1700 -840 0 0 -1710 -830 0 0 -1700 -840 0 0 -2560 -840 0 0 -1700 -830 0 0 -1710 -840 0 0 -1710 -840 0 0 -1700 -830 0 0 -1710 -840 0 0 -1700 -840 0 0 -850 -830 0 0 -1710 -840 0 0 -1700 -840 0 0 -1710 -830 0 0 -1700 -840 0 0 -1710 -840 0 0 -1700 -830 0 0 -2560 -840 0 0 -1700 -840 0 0 -2560 -830 0 0 -1710 -840 0 0 -2550 -840 0 0 -1710 -840 0 0 -1700 -830 0 0 -1710 -840 0 0 -2560 -840 0 0 -1700 -830 0 0 -1710 -840 0 0 -1700 -840 0 0 -1710 -830 0 0 -1700 -840 0 0 -2560 -840 0 0 -1700 -830 0 0 -1710 -840 0 0 -2550 -840 0 0 -1710 -830 0 0 -1710 -840 0 0 -2550 -840 0 0 -1710 -840 0 0 -1700 -830 0 0 -1710 -840 0 0 -2550 -840 0 0 -1710 -830 0 0 -1700 -840 0 0 -2560 -840 0 0 -1710 -830 0 0 -1700 -840 0 0 -2560 -840 0 0 -1700 -830 0 0 -2560 -840 0 0 -2560 -840 0 0 -2560 -830 0 0 -1700 -840 0 0 -1710 -840 0 0 -2550 -840 0 0 -1710 -830 0 0 -1700 -840 0 0 -860 -840 0 0 -1700 -830 0 0 -1710 -840 0 0 -1700 -840 0 0 -2560 -830 0 0 -6820 -840 0 0 6820 -840 0 0 3410 -830 0 0 1710 -840 0 0 2550 -840 0 0 1710 -830 0 0 1700 -840 0 0 1710 -840 0 0 850 -830 0 0 1710 -840 0 0 1700 -840 0 0 1710 -830 0 0 1700 -840 0 0 1710 -840 0 0 2550 -840 0 0 1710 -830 0 0 1700 -840 0 0 1710 -840 0 0 1700 -830 0 0 1710 -840 0 0 1700 -840 0 0 1710 -830 0 0 2560 -840 0 0 1700 -840 0 0 1710 -830 0 0 1700 -840 0 0 1700 -840 0 0 1710 -830 0 0 1700 -840 0 0 1710 -840 0 0 1710 -840 0 0 1700 -830 0 0 1700 -840 0 0 1710 -840 0 0 1700 -830 0 0 1710 -840 0 0 1700 -840 0 0 1710 -830 0 0 1700 -840 0 0 1710 -840 0 0 1700 -830 0 0 1710 -840 0 0 1700 -840 0 0 2560 -830 0 0 850 -840 0 0 2560 -840 0 0 1710 -830 0 0 1700 -840 0 0 1710 -840 0 0 2550 -830 0 0 1710 -840 0 0 1700 -840 0 0 1710 -840 0 0 1700 -830 0 0 2560 -840 0 0 1710 -840 0 0 1700 -830 0 0 1700 -840 0 0 1710 -840 0 0 1700 -830 0 0 1710 -840 0 0 2560 -840 0 0 1700 -830 0 0 1710 -840 0 0 1700 -840 0 0 2560 -830 0 0 1700 -840 0 0 1710 -840 0 0 1700 -830 0 0 1710 -840 0 0 1700 -840 0 0 1710 -840 0 0 1700 -830 0 0 1710 -840 0 0 1700 -840 0 0 1710 -830 0 0 850 -840 0 0 2560 -840 0 0 850 -830 0 0 1710 -840 0 0 850 -840 0 0 1700 -830 0 0 1710 -840 0 0 1700 -840 0 0 1710 -830 0 0 850 -840 0 0 850 -840 0 0 860 -2510 0 0 850 -2510 0 0 850 -3350 0 0 850 -4180 0 0 860 -3350 0 0 850 -9200 0 0 850 -18410 0 0 -850 -8370 0 0 -850 -5020 0 0 -860 -3350 0 0 -850 -3350 0 0 850 2510 0 0 860 840 0 0 850 5020 0 0 850 5020 0 0 850 4180 0 0 860 5860 0 0 850 15070 0 0 -850 6690 0 0 -860 4190 0 0 -850 4180 0 0 -850 3350 0 0 -850 1670 0 0 -860 1670 0 0 -850 2510 0 0 -850 1680 0 0 -850 2510 0 0 -860 2510 0 0 -850 840 0 0 20460 -840 0 0 22160 -840 0 0 20460 -5860 0 0 -850 -25100 0 0 850 -29290 0 0 860 -11720 0 0 850 -6690 0 0 -850 -840 0 0 -5120 -830 0 0 -11080 -840 0 0 -6820 -840 0 0 -11940 -840 0 0 -11930 -830 0 0 -12790 -840 0 0 -1700 -840 0 0 -2560 840 0 0 -850 1670 0 0 850 1680 0 0 -850 840 0 0 850 1670 0 0 -850 -1670 0 0 -850 -840 0 0 -860 -840 0 0 -1700 -840 0 0 -1710 -830 0 0 -1700 -840 0 0 -850 -840 0 0 -1710 -830 0 0 -1700 -840 0 0 -1710 -840 0 0 -1700 -830 0 0 -1710 -840 0 0 -1700 -840 0 0 -1710 -830 0 0 -1700 -840 0 0 -1710 -840 0 0 -1700 -830 0 0 -1710 -840 0 0 -1700 -840 0 0 -2560 -830 0 0 -1710 -840 0 0 -1700 -840 0 0 -1710 -840 0 0 -2550 -830 0 0 -1710 -840 0 0 -1700 -840 0 0 -1710 -830 0 0 -2560 -840 0 0 -1700 -840 0 0 -1700 -830 0 0 -1710 -840 0 0 -1700 -840 0 0 -1710 -830 0 0 -1700 -840 0 0 -2560 -840 0 0 -1710 -830 0 0 -1700 -840 0 0 -1710 -840 0 0 -1700 -830 0 0 -2560 -840 0 0 -1700 -840 0 0 -1710 -830 0 0 -1700 -840 0 0 -2560 -840 0 0 -1710 -840 0 0 -1700 -830 0 0 -1710 -840 0 0 -1700 -840 0 0 -1710 -830 0 0 -1700 -840 0 0 -1710 -840 0 0 -2550 -830 0 0 -1710 -840 0 0 -1700 -840 0 0 -2560 -830 0 0 -1710 -840 0 0 -1700 -840 0 0 -2560 -830 0 0 -1700 -840 0 0 -1710 -840 0 0 -1700 -840 0 0 -1710 -830 0 0 -1700 -840 0 0 -1710 -840 0 0 -1700 -830 0 0 -1710 -840 0 0 -1700 -840 0 0 -2560 -830 0 0 -2560 -840 0 0 -1700 -840 0 0 -1710 -830 0 0 -2550 -840 0 0 -1710 -840 0 0 -1700 -830 0 0 -2560 -840 0 0 -2560 -840 0 0 -1700 -830 0 0 -1710 -840 0 0 -2560 -840 0 0 -1700 -830 0 0 -2560 -840 0 0 -5110 -840 0 0 -860 -840 0 0 5970 -830 0 0 2560 -840 0 0 1700 -840 0 0 1710 -830 0 0 1700 -840 0 0 1710 -840 0 0 2560 -830 0 0 1700 -840 0 0 1710 -840 0 0 1700 -830 0 0 1710 -840 0 0 1700 -840 0 0 1710 -830 0 0 1700 -840 0 0 1710 -840 0 0 2550 -840 0 0 1710 -830 0 0 1700 -840 0 0 1710 -840 0 0 1700 -830 0 0 1710 -840 0 0 1700 -840 0 0 1710 -830 0 0 1700 -840 0 0 1710 -840 0 0 1700 -830 0 0 1710 -840 0 0 1700 -840 0 0 2560 -830 0 0 850 -840 0 0 1710 -840 0 0 2550 -840 0 0 1710 -830 0 0 850 -840 0 0 1710 -840 0 0 1700 -830 0 0 1710 -840 0 0 1700 -840 0 0 1710 -830 0 0 1700 -840 0 0 1710 -840 0 0 1700 -830 0 0 1710 -840 0 0 1700 -840 0 0 1710 -830 0 0 1700 -840 0 0 1710 -840 0 0 1700 -830 0 0 1710 -840 0 0 1700 -840 0 0 1710 -830 0 0 1700 -840 0 0 1710 -840 0 0 1700 -840 0 0 1710 -830 0 0 1700 -840 0 0 1710 -840 0 0 2550 -830 0 0 1710 -840 0 0 1700 -840 0 0 1710 -830 0 0 1700 -840 0 0 2560 -840 0 0 1700 -830 0 0 1710 -840 0 0 1700 -840 0 0 1710 -830 0 0 1700 -840 0 0 1710 -840 0 0 1700 -830 0 0 1710 -840 0 0 850 -840 0 0 1710 -840 0 0 850 -830 0 0 1700 -840 0 0 860 -840 0 0 1700 -830 0 0 850 -840 0 0 860 -840 0 0 850 -830 0 0 850 -840 0 0 1710 -840 0 0 -8530 -830 0 0 -9380 830 0 0 -6820 840 0 0 -4260 840 0 0 -3410 830 0 0 -4260 840 0 0 -3410 840 0 0 -3410 830 0 0 -1700 840 0 0 -2560 840 0 0 -2560 830 0 0 -1700 840 0 0 -1710 840 0 0 -1700 840 0 0 -2560 830 0 0 -1710 840 0 0 -1700 840 0 0 -1710 830 0 0 -1700 840 0 0 -1710 840 0 0 -1700 830 0 0 -1710 840 0 0 -1700 840 0 0 -1710 830 0 0 -1700 840 0 0 -1710 840 0 0 -1700 830 0 0 -1710 840 0 0 -1700 840 0 0 -1700 830 0 0 -1710 840 0 0 -1710 840 0 0 -2550 840 0 0 -1710 830 0 0 -1700 840 0 0 -1710 840 0 0 -2550 830 0 0 -1710 840 0 0 -1700 840 0 0 -1710 830 0 0 -2560 840 0 0 -1700 840 0 0 -1710 830 0 0 -1700 840 0 0 -1710 840 0 0 -1700 830 0 0 -1710 840 0 0 -1700 840 0 0 -1710 830 0 0 -1700 840 0 0 -1710 840 0 0 -1700 830 0 0 -1710 840 0 0 -2550 840 0 0 -860 840 0 0 -1700 830 0 0 -1710 840 0 0 -850 840 0 0 -1700 830 0 0 -1710 840 0 0 -1700 840 0 0 -1710 830 0 0 -850 840 0 0 -1710 840 0 0 -850 830 0 0 -1700 840 0 0 -1710 840 0 0 -1700 830 0 0 -1710 840 0 0 -2550 840 0 0 -5120 -840 0 0 4260 -840 0 0 2560 -830 0 0 1700 -840 0 0 1710 -840 0 0 1700 -830 0 0 860 -840 0 0 1700 -840 0 0 1710 -830 0 0 850 -840 0 0 1700 -840 0 0 1710 -830 0 0 1700 -840 0 0 860 -840 0 0 1700 -830 0 0 1710 -840 0 0 1700 -840 0 0 850 -840 0 0 1710 -830 0 0 1700 -840 0 0 1710 -840 0 0 1700 -830 0 0 1710 -840 0 0 1700 -840 0 0 1710 -830 0 0 850 -840 0 0 1710 -840 0 0 1700 -830 0 0 1710 -840 0 0 1700 -840 0 0 1710 -830 0 0 850 -840 0 0 1700 -840 0 0 1710 -830 0 0 1700 -840 0 0 1710 -840 0 0 1700 -830 0 0 860 -840 0 0 1700 -840 0 0 2560 -840 0 0 1700 -830 0 0 1710 -840 0 0 1700 -840 0 0 1710 -830 0 0 1700 -840 0 0 1710 -840 0 0 1700 -830 0 0 1710 -840 0 0 1700 -840 0 0 850 -830 0 0 1710 -840 0 0 850 -840 0 0 1710 -830 0 0 1700 -840 0 0 850 -840 0 0 1710 -830 0 0 850 -840 0 0 1710 -840 0 0 850 -840 0 0 850 -830 0 0 850 -840 0 0 860 -840 0 0 850 -830 0 0 850 -840 0 0 2560 840 0 0 -850 830 0 0 -860 840 0 0 -850 840 0 0 -850 1670 0 0 -850 840 0 0 -860 840 0 0 1710 -840 0 0 2560 -840 0 0 1700 -840 0 0 1710 -830 0 0 1700 -840 0 0 2560 -840 0 0 850 -830 0 0 2560 -840 0 0 4260 -840 0 0 3410 -830 0 0 2560 -840 0 0 2550 -840 0 0 2560 -830 0 0 2560 -1680 0 0 -2560 -830 0 0 -6820 -840 0 0 -28980 -840 0 0 -60530 840 0 0 -49440 840 0 0 -16200 830 0 0 -850 840 0 0 -850 20080 0 0 850 128040 0 0 850 66110 0 0 -850 23430 0 0 -850 14230 0 0 -850 10040 0 0 -860 14230 0 0 -850 78660 0 0 850 840 0 0 6820 840 0 0 14500 830 0 0 135540 -830 0 0 3410 -840 0 0 850 -840 0 0 -850 -840 0 0 -850 -830 0 0 -2560 -840 0 0 -2560 -840 0 0 -1700 -830 0 0 -1710 -840 0 0 -2560 -840 0 0 -1700 -830 0 0 -2560 -840 0 0 -1700 -840 0 0 -1710 -830 0 0 -1700 -840 0 0 -2560 -840 0 0 -1710 -830 0 0 -1700 -840 0 0 -1710 -840 0 0 -2550 -830 0 0 -2560 -840 0 0 -1710 -840 0 0 -1700 -840 0 0 -3410 -830 0 0 -1710 -840 0 0 -1700 -840 0 0 -2560 -830 0 0 -1700 -840 0 0 -2560 -840 0 0 -1710 -830 0 0 -1700 -840 0 0 -2560 -840 0 0 -1700 -830 0 0 -1710 -840 0 0 -1700 -840 0 0 -2560 -830 0 0 -1700 -840 0 0 -1710 -840 0 0 -1700 -830 0 0 -1710 -840 0 0 -2560 -840 0 0 -1700 -830 0 0 -2560 -840 0 0 -1700 -840 0 0 -1710 -840 0 0 -1700 -830 0 0 -2560 -840 0 0 -1710 -840 0 0 -1700 -830 0 0 -2560 -840 0 0 -1700 -840 0 0 -1710 -830 0 0 -2560 -840 0 0 -1700 -840 0 0 -1710 -830 0 0 -1700 -840 0 0 -2560 -840 0 0 -1700 -830 0 0 -1710 -840 0 0 -1700 -840 0 0 -1710 -840 0 0 -1700 -830 0 0 -1710 -840 0 0 -1700 -840 0 0 -1710 -830 0 0 -1700 -840 0 0 -1710 -840 0 0 -1700 -830 0 0 -1710 -840 0 0 -850 -840 0 0 -1700 -830 0 0 -1710 -840 0 0 -1700 -840 0 0 -1710 -830 0 0 -850 -840 0 0 -2560 -840 0 0 -1700 -840 0 0 -1710 -830 0 0 -3410 -840 0 0 -1700 -840 0 0 -4270 -830 0 0 -1700 -840 0 0 -3410 -840 0 0 -850 -830 0 0 -860 -4190 0 0 1710 840 0 0 1700 840 0 0 1710 830 0 0 1700zm36830 -14490l-56910 0 0 850 -269470 0 0 23020 -830 0 0 108260 830 0 0 99740 -830 0 0 86950 830 0 0 47740 840 0 0 5120 96240 0 0 -860 123020 0 0 860 136400 0 0 -860 5020 0 0 -850 840 0 0 -850 840 0 0 -167080 -840 0 0 -22170 840 0 0 -34100 830 0 0 -133830 -830 0 0 -9380 -840 0 0 -2560 -3350 0 0 -850 -32630 0 0 850z"/>
   <polygon class="fil41" points="179900,31220 179900,32070 179070,32070 179070,32920 178230,32920 178230,34630 177390,34630 177390,37190 176560,37190 176560,105380 177390,105380 177390,118170 178230,118170 178230,124140 179070,124140 179070,127550 179900,127550 179900,132660 180740,132660 180740,136920 181580,136920 181580,142040 182410,142040 182410,144600 183250,144600 183250,148010 184090,148010 184090,152270 184930,152270 184930,156530 185760,156530 185760,159940 186600,159940 186600,161650 187440,161650 187440,165060 188270,165060 188270,168470 189110,168470 189110,172730 189950,172730 189950,177840 189110,177840 189110,178690 188270,178690 188270,179550 187440,179550 187440,180400 186600,180400 186600,184660 185760,184660 185760,185520 184930,185520 184930,186370 184090,186370 184090,188920 183250,188920 183250,190630 182410,190630 182410,189780 180740,189780 180740,188070 179900,188070 179900,187220 178230,187220 178230,186370 177390,186370 177390,184660 176560,184660 176560,182960 175720,182960 175720,181250 174880,181250 174880,180400 174050,180400 174050,178690 173210,178690 173210,176140 172370,176140 172370,174430 171540,174430 171540,172730 170700,172730 170700,171020 169860,171020 169860,168470 169020,168470 169020,166760 168190,166760 168190,165060 167350,165060 167350,163350 166510,163350 166510,161650 165680,161650 165680,159940 164840,159940 164840,158240 164000,158240 164000,157380 163170,157380 163170,153970 162330,153970 162330,152270 161490,152270 161490,150560 160660,150560 160660,148010 159820,148010 159820,147150 158980,147150 158980,144600 158150,144600 158150,143740 157310,143740 157310,141190 156470,141190 156470,139480 155640,139480 155640,137780 154800,137780 154800,136070 153960,136070 153960,133510 153120,133510 153120,131810 152290,131810 152290,130110 151450,130110 151450,128400 150610,128400 150610,126690 149780,126690 149780,124990 148940,124990 148940,122430 148100,122430 148100,120730 147270,120730 147270,119020 146430,119020 146430,117320 145590,117320 145590,114760 144760,114760 144760,113060 143920,113060 143920,110500 143080,110500 143080,109650 142250,109650 142250,107090 141410,107090 141410,105380 140570,105380 140570,103680 139740,103680 139740,101970 138900,101970 138900,99420 138060,99420 138060,97710 137230,97710 137230,96010 136390,96010 136390,94300 135550,94300 135550,92600 134710,92600 134710,90890 133880,90890 133880,89190 133040,89190 133040,87480 132200,87480 132200,85780 131370,85780 131370,84070 130530,84070 130530,82370 129690,82370 129690,79810 128860,79810 128860,78100 128020,78100 128020,76400 127180,76400 127180,74690 126350,74690 126350,72990 125510,72990 125510,71280 124670,71280 124670,69580 123840,69580 123840,67870 123000,67870 123000,66170 122160,66170 122160,64460 121320,64460 121320,63610 120490,63610 120490,61910 119650,61910 119650,60200 118810,60200 118810,59350 117980,59350 117980,58500 117140,58500 117140,56790 116300,56790 116300,55090 115470,55090 115470,54240 114630,54240 114630,53380 113790,53380 113790,52530 112960,52530 112960,51680 112120,51680 112120,50830 111280,50830 111280,49970 110450,49970 110450,49120 109610,49120 109610,48270 108770,48270 108770,47420 107940,47420 107940,46560 107100,46560 107100,45710 106260,45710 106260,46560 107100,46560 107100,47420 107940,47420 107940,48270 108770,48270 108770,49120 109610,49120 109610,50830 110450,50830 110450,51680 111280,51680 111280,52530 112120,52530 112120,53380 112960,53380 112960,54240 113790,54240 113790,55940 114630,55940 114630,56790 115470,56790 115470,57650 116300,57650 116300,59350 117140,59350 117140,60200 117980,60200 117980,61910 118810,61910 118810,63610 119650,63610 119650,65320 120490,65320 120490,67020 121320,67020 121320,68730 122160,68730 122160,70430 123000,70430 123000,72140 123840,72140 123840,73840 124670,73840 124670,74690 125510,74690 125510,76400 126350,76400 126350,78100 127180,78100 127180,79810 128020,79810 128020,81510 128860,81510 128860,83220 129690,83220 129690,84920 130530,84920 130530,87480 131370,87480 131370,89190 132200,89190 132200,90890 133040,90890 133040,92600 133880,92600 133880,95150 134710,95150 134710,96860 135550,96860 135550,98560 136390,98560 136390,101120 137230,101120 137230,102830 138060,102830 138060,104530 138900,104530 138900,106240 139740,106240 139740,107940 140570,107940 140570,109650 141410,109650 141410,111350 142250,111350 142250,113060 143080,113060 143080,115610 143920,115610 143920,117320 144760,117320 144760,119020 145590,119020 145590,120730 146430,120730 146430,123280 147270,123280 147270,124990 148100,124990 148100,127550 148940,127550 148940,129250 149780,129250 149780,131810 150610,131810 150610,133510 151450,133510 151450,135220 152290,135220 152290,137780 153120,137780 153120,139480 153960,139480 153960,141190 154800,141190 154800,142890 155640,142890 155640,144600 156470,144600 156470,146300 157310,146300 157310,148010 158150,148010 158150,149710 158980,149710 158980,152270 159820,152270 159820,153970 160660,153970 160660,155680 161490,155680 161490,157380 162330,157380 162330,159090 163170,159090 163170,160790 164000,160790 164000,162500 164840,162500 164840,163350 165680,163350 165680,165060 166510,165060 166510,167610 167350,167610 167350,169320 168190,169320 168190,171020 169020,171020 169020,172730 169860,172730 169860,175290 170700,175290 170700,176990 171540,176990 171540,178690 172370,178690 172370,180400 173210,180400 173210,182100 174050,182100 174050,183810 174880,183810 174880,185520 175720,185520 175720,187220 176560,187220 176560,188920 177390,188920 177390,190630 178230,190630 178230,191480 179070,191480 179070,193190 179900,193190 179900,194040 180740,194040 180740,195740 181580,195740 181580,196600 182410,196600 182410,198300 183250,198300 183250,199150 184090,199150 184090,200010 184930,200010 184930,200860 185760,200860 185760,201710 186600,201710 186600,202560 187440,202560 187440,203420 188270,203420 188270,204270 189110,204270 189110,205120 189950,205120 189950,205970 190780,205970 190780,206830 191620,206830 191620,207680 193290,207680 193290,208530 194970,208530 194970,209380 196640,209380 196640,210240 199990,210240 199990,211090 205010,211090 205010,211940 219240,211940 219240,211090 225090,211090 225090,210240 229280,210240 229280,209380 232630,209380 232630,208530 234300,208530 234300,207680 235140,207680 235140,206830 235970,206830 235970,205970 236810,205970 236810,205120 237650,205120 237650,203420 238480,203420 238480,202560 239320,202560 239320,200860 240160,200860 240160,199150 240990,199150 240990,198300 241830,198300 241830,196600 242670,196600 242670,194890 243500,194890 243500,193190 244340,193190 244340,191480 245180,191480 245180,190630 246010,190630 246010,188920 246850,188920 246850,187220 247690,187220 247690,185520 248530,185520 248530,183810 249360,183810 249360,182100 250200,182100 250200,180400 251040,180400 251040,178690 251870,178690 251870,176990 252710,176990 252710,175290 253550,175290 253550,173580 254380,173580 254380,171880 255220,171880 255220,169320 256060,169320 256060,168470 256890,168470 256890,165910 257730,165910 257730,164200 258570,164200 258570,162500 259400,162500 259400,160790 260240,160790 260240,159090 261080,159090 261080,157380 261920,157380 261920,155680 262750,155680 262750,153970 263590,153970 263590,152270 264430,152270 264430,150560 265260,150560 265260,148860 266100,148860 266100,147150 266940,147150 266940,144600 267770,144600 267770,142890 268610,142890 268610,141190 269450,141190 269450,140330 270280,140330 270280,137780 271120,137780 271120,136920 271960,136920 271960,135220 272790,135220 272790,133510 273630,133510 273630,130960 274470,130960 274470,130110 275300,130110 275300,127550 276140,127550 276140,125840 276980,125840 276980,124140 277820,124140 277820,121580 278650,121580 278650,119880 279490,119880 279490,118170 280330,118170 280330,115610 281160,115610 281160,113910 282000,113910 282000,112200 282840,112200 282840,110500 283670,110500 283670,107940 284510,107940 284510,106240 285350,106240 285350,104530 286180,104530 286180,102830 287020,102830 287020,101120 287860,101120 287860,98560 288690,98560 288690,97710 289530,97710 289530,95150 290370,95150 290370,92600 291200,92600 291200,90890 292040,90890 292040,89190 292880,89190 292880,86630 293710,86630 293710,84920 294550,84920 294550,83220 295390,83220 295390,81510 296230,81510 296230,78960 297060,78960 297060,77250 297900,77250 297900,75550 298740,75550 298740,73840 299570,73840 299570,72140 300410,72140 300410,70430 301250,70430 301250,67870 302080,67870 302080,66170 302920,66170 302920,64460 303760,64460 303760,61910 304590,61910 304590,60200 305430,60200 305430,58500 306270,58500 306270,55940 307100,55940 307100,54240 307940,54240 307940,51680 308780,51680 308780,49120 309620,49120 309620,47420 310450,47420 310450,44860 311290,44860 311290,41450 312130,41450 312130,38890 312960,38890 312960,37190 313800,37190 313800,35480 314640,35480 314640,34630 315470,34630 315470,33780 316310,33780 316310,32920 317980,32920 317980,32070 318820,32070 318820,31220 321330,31220 321330,30370 320490,30370 320490,29510 319660,29510 319660,27810 318820,27810 318820,26100 317980,26100 317980,27810 311290,27810 311290,26960 307940,26960 307940,27810 302920,27810 302920,28660 292880,28660 292880,29510 248530,29510 248530,30370 182410,30370 182410,31220 "/>
   <polygon class="fil42" points="179900,31220 178230,31220 178230,32070 177390,32070 177390,32920 176560,32920 176560,34630 175720,34630 175720,100270 176560,100270 176560,37190 177390,37190 177390,34630 178230,34630 178230,32920 179070,32920 179070,32070 179900,32070 179900,31220 182410,31220 182410,30370 248530,30370 248530,29510 292880,29510 292880,28660 302920,28660 302920,27810 307940,27810 307940,26960 311290,26960 311290,27810 317980,27810 317980,24400 317150,24400 317150,22690 316310,22690 316310,20990 315470,20990 315470,19280 319660,19280 319660,20140 320490,20140 320490,19280 321330,19280 321330,18430 323000,18430 323000,19280 323840,19280 323840,18430 326350,18430 326350,17580 328860,17580 328860,16730 348950,16730 348950,15870 357320,15870 357320,15020 308780,15020 308780,15870 294550,15870 294550,16730 284510,16730 284510,17580 270280,17580 270280,18430 246850,18430 246850,19280 180740,19280 180740,18430 52700,18430 52700,17580 32620,17580 32620,18430 31780,18430 31780,19280 30950,19280 30950,35480 30110,35480 30110,84920 29270,84920 29270,145450 30110,145450 30110,174430 30950,174430 30950,181250 31780,181250 31780,183810 33460,183810 33460,181250 34290,181250 34290,178690 35130,178690 35130,176140 35970,176140 35970,173580 36800,173580 36800,170170 37640,170170 37640,165910 38480,165910 38480,163350 39310,163350 39310,162500 40150,162500 40150,159940 40990,159940 40990,158240 41820,158240 41820,156530 42660,156530 42660,154830 43500,154830 43500,152270 44340,152270 44340,150560 43500,150560 43500,151420 42660,151420 42660,152270 40990,152270 40990,153120 40150,153120 40150,153970 39310,153970 39310,154830 38480,154830 38480,155680 37640,155680 37640,153120 38480,153120 38480,152270 39310,152270 39310,151420 40150,151420 40150,150560 40990,150560 40990,149710 41820,149710 41820,148860 42660,148860 42660,148010 43500,148010 43500,146300 44340,146300 44340,145450 45170,145450 45170,143740 46010,143740 46010,142890 46850,142890 46850,141190 47680,141190 47680,139480 48520,139480 48520,138630 49360,138630 49360,136920 50190,136920 50190,136070 51030,136070 51030,134370 51870,134370 51870,132660 52700,132660 52700,130960 53540,130960 53540,129250 54380,129250 54380,127550 55210,127550 55210,125840 56050,125840 56050,124140 56890,124140 56890,122430 57720,122430 57720,120730 58560,120730 58560,118170 59400,118170 59400,116470 60240,116470 60240,115610 61070,115610 61070,113910 61910,113910 61910,112200 62750,112200 62750,110500 63580,110500 63580,108790 64420,108790 64420,107090 65260,107090 65260,106240 66090,106240 66090,104530 66930,104530 66930,102830 67770,102830 67770,101120 68600,101120 68600,99420 69440,99420 69440,97710 70280,97710 70280,96860 71110,96860 71110,95150 71950,95150 71950,93450 72790,93450 72790,91740 73620,91740 73620,90040 74460,90040 74460,88330 75300,88330 75300,86630 76130,86630 76130,84920 76970,84920 76970,84070 77810,84070 77810,82370 78650,82370 78650,80660 79480,80660 79480,78960 80320,78960 80320,78100 81160,78100 81160,76400 81990,76400 81990,74690 82830,74690 82830,72990 83670,72990 83670,72140 84500,72140 84500,70430 85340,70430 85340,68730 86180,68730 86180,67870 87010,67870 87010,66170 87850,66170 87850,64460 88690,64460 88690,62760 89520,62760 89520,60200 90360,60200 90360,55090 89520,55090 89520,53380 88690,53380 88690,52530 87850,52530 87850,51680 87010,51680 87010,49970 86180,49970 86180,49120 85340,49120 85340,48270 84500,48270 84500,47420 83670,47420 83670,46560 82830,46560 82830,45710 81990,45710 81990,44860 81160,44860 81160,44010 80320,44010 80320,43150 79480,43150 79480,42300 78650,42300 78650,41450 77810,41450 77810,40600 76970,40600 76970,39740 76130,39740 76130,38890 75300,38890 75300,38040 74460,38040 74460,37190 72790,37190 72790,36330 71950,36330 71950,35480 70280,35480 70280,34630 69440,34630 69440,33780 67770,33780 67770,32920 66930,32920 66930,32070 65260,32070 65260,31220 63580,31220 63580,30370 61070,30370 61070,29510 59400,29510 59400,28660 56050,28660 56050,27810 54380,27810 54380,26960 53540,26960 53540,25250 54380,25250 54380,24400 52700,24400 52700,23550 55210,23550 55210,21840 56050,21840 56050,20140 55210,20140 55210,19280 125510,19280 125510,20140 200820,20140 200820,20990 222580,20990 222580,21840 221750,21840 221750,22690 228440,22690 228440,23550 225930,23550 225930,24400 229280,24400 229280,25250 227600,25250 227600,26100 230120,26100 230120,27810 229280,27810 229280,28660 236810,28660 236810,29510 181580,29510 181580,30370 179900,30370 "/>
   <polygon class="fil43" points="327190,41450 328030,41450 328030,42300 328860,42300 328860,44010 329700,44010 329700,45710 330540,45710 330540,47420 331370,47420 331370,49120 332210,49120 332210,49970 333050,49970 333050,51680 333880,51680 333880,53380 334720,53380 334720,55090 335560,55090 335560,56790 336390,56790 336390,58500 337230,58500 337230,60200 338070,60200 338070,61910 338900,61910 338900,63610 339740,63610 339740,65320 340580,65320 340580,67020 341420,67020 341420,68730 342250,68730 342250,70430 343090,70430 343090,72990 343930,72990 343930,74690 344760,74690 344760,76400 345600,76400 345600,78100 346440,78100 346440,80660 347270,80660 347270,82370 348110,82370 348110,84070 348950,84070 348950,86630 349780,86630 349780,88330 350620,88330 350620,90040 351460,90040 351460,92600 352290,92600 352290,94300 353130,94300 353130,96010 353970,96010 353970,97710 354810,97710 354810,100270 355640,100270 355640,101970 356480,101970 356480,104530 357320,104530 357320,106240 358150,106240 358150,107940 358990,107940 358990,109650 359830,109650 359830,111350 360660,111350 360660,113910 361500,113910 361500,115610 362340,115610 362340,117320 363170,117320 363170,119020 364010,119020 364010,121580 364850,121580 364850,123280 365680,123280 365680,124990 366520,124990 366520,127550 367360,127550 367360,129250 368190,129250 368190,131810 369030,131810 369030,133510 369870,133510 369870,135220 370700,135220 370700,138630 371540,138630 371540,140330 372380,140330 372380,142040 373220,142040 373220,144600 374050,144600 374050,147150 374890,147150 374890,148860 375730,148860 375730,150560 376560,150560 376560,152270 377400,152270 377400,154830 378240,154830 378240,156530 379070,156530 379070,158240 379910,158240 379910,159940 380750,159940 380750,162500 381580,162500 381580,164200 382420,164200 382420,166760 383260,166760 383260,168470 384090,168470 384090,170170 384930,170170 384930,172730 385770,172730 385770,175290 386600,175290 386600,176140 387440,176140 387440,176990 388280,176990 388280,176140 389120,176140 389120,172730 389950,172730 389950,37190 389120,37190 389120,22690 388280,22690 388280,15870 387440,15870 387440,15020 357320,15020 357320,15870 348950,15870 348950,16730 328860,16730 328860,17580 326350,17580 326350,18430 323840,18430 323840,19280 323000,19280 323000,18430 321330,18430 321330,19280 320490,19280 320490,20990 321330,20990 321330,24400 322170,24400 322170,26100 323000,26100 323000,30370 323840,30370 323840,32070 324680,32070 324680,35480 325510,35480 325510,37190 326350,37190 326350,38890 327190,38890 "/>
   <polygon class="fil41" points="183250,228990 181580,228990 181580,228140 179070,228140 179070,227290 176560,227290 176560,226430 174880,226430 174880,225580 171540,225580 171540,224730 170700,224730 170700,225580 169020,225580 169020,224730 167350,224730 167350,225580 166510,225580 166510,228140 167350,228140 167350,229840 168190,229840 168190,242630 169020,242630 169020,254560 169860,254560 169860,266500 170700,266500 170700,273320 171540,273320 171540,284400 172370,284400 172370,289520 173210,289520 173210,290370 179900,290370 179900,289520 191620,289520 191620,288660 220910,288660 220910,287810 246010,287810 246010,288660 251870,288660 251870,268200 252710,268200 252710,246040 253550,246040 253550,225580 252710,225580 252710,226430 250200,226430 250200,227290 247690,227290 247690,228140 246010,228140 246010,228990 243500,228990 243500,229840 241830,229840 241830,230700 240160,230700 240160,231550 236810,231550 236810,232400 232630,232400 232630,233250 228440,233250 228440,234110 221750,234110 221750,234960 206680,234960 206680,234110 200820,234110 200820,233250 196640,233250 196640,232400 191620,232400 191620,231550 186600,231550 186600,230700 185760,230700 185760,229840 183250,229840 "/>
   <polygon class="fil44" points="283670,290370 282000,290370 282000,292070 281160,292070 281160,302300 280330,302300 280330,341520 281160,341520 281160,349190 282840,349190 282840,350040 301250,350040 301250,350890 317980,350890 317980,351750 345600,351750 345600,350890 350620,350890 350620,350040 354810,350040 354810,349190 355640,349190 355640,303150 354810,303150 354810,296340 353970,296340 353970,293780 353130,293780 353130,292070 352290,292070 352290,291220 349780,291220 349780,290370 340580,290370 340580,289520 283670,289520 "/>
   <polygon class="fil44" points="65260,291220 64420,291220 64420,297190 63580,297190 63580,336400 64420,336400 64420,349190 65260,349190 65260,350040 96220,350040 96220,350890 128860,350890 128860,350040 134710,350040 134710,349190 135550,349190 135550,346630 136390,346630 136390,342370 137230,342370 137230,333840 138060,333840 138060,310830 137230,310830 137230,303150 136390,303150 136390,297190 135550,297190 135550,292070 134710,292070 134710,290370 129690,290370 129690,289520 65260,289520 "/>
   <polygon class="fil44" points="321330,188920 308780,188920 308780,189780 297060,189780 297060,190630 288690,190630 288690,191480 283670,191480 283670,192330 282000,192330 282000,195740 281160,195740 281160,197450 280330,197450 280330,200860 279490,200860 279490,202560 278650,202560 278650,204270 277820,204270 277820,219610 278650,219610 278650,223020 279490,223020 279490,230700 280330,230700 280330,235810 281160,235810 281160,239220 282000,239220 282000,241780 282840,241780 282840,242630 283670,242630 283670,244340 284510,244340 284510,246040 285350,246040 285350,246890 286180,246890 286180,247740 287020,247740 287020,248600 287860,248600 287860,249450 289530,249450 289530,250300 294550,250300 294550,251150 331370,251150 331370,250300 337230,250300 337230,249450 342250,249450 342250,248600 344760,248600 344760,247740 347270,247740 347270,246890 348950,246890 348950,246040 350620,246040 350620,245190 351460,245190 351460,244340 352290,244340 352290,243480 353130,243480 353130,240070 353970,240070 353970,235810 354810,235810 354810,201710 353970,201710 353970,198300 353130,198300 353130,196600 352290,196600 352290,195740 351460,195740 351460,194890 350620,194890 350620,194040 349780,194040 349780,193190 348110,193190 348110,192330 346440,192330 346440,191480 344760,191480 344760,190630 342250,190630 342250,189780 338900,189780 338900,188920 334720,188920 334720,188070 321330,188070 "/>
   <polygon class="fil43" points="117140,57650 117140,58500 117980,58500 117980,59350 118810,59350 118810,60200 119650,60200 119650,61910 120490,61910 120490,63610 121320,63610 121320,64460 122160,64460 122160,66170 123000,66170 123000,67870 123840,67870 123840,69580 124670,69580 124670,71280 125510,71280 125510,72990 126350,72990 126350,74690 127180,74690 127180,76400 128020,76400 128020,78100 128860,78100 128860,79810 129690,79810 129690,82370 130530,82370 130530,84070 131370,84070 131370,85780 132200,85780 132200,87480 133040,87480 133040,89190 133880,89190 133880,90890 134710,90890 134710,92600 135550,92600 135550,94300 136390,94300 136390,96010 137230,96010 137230,97710 138060,97710 138060,99420 138900,99420 138900,101970 139740,101970 139740,103680 140570,103680 140570,105380 141410,105380 141410,107090 142250,107090 142250,109650 143080,109650 143080,110500 143920,110500 143920,113060 144760,113060 144760,114760 145590,114760 145590,115610 146430,115610 146430,116470 147270,116470 147270,118170 148100,118170 148100,119880 148940,119880 148940,122430 149780,122430 149780,123280 150610,123280 150610,125840 153120,125840 153120,126690 153960,126690 153960,129250 154800,129250 154800,130960 155640,130960 155640,131810 156470,131810 156470,133510 157310,133510 157310,134370 158150,134370 158150,135220 159820,135220 159820,136070 161490,136070 161490,136920 164000,136920 164000,137780 165680,137780 165680,136920 168190,136920 168190,136070 174880,136070 174880,136920 179900,136920 179900,127550 179070,127550 179070,124140 178230,124140 178230,118170 177390,118170 177390,105380 176560,105380 176560,100270 175720,100270 175720,34630 176560,34630 176560,32920 177390,32920 177390,32070 178230,32070 178230,31220 179900,31220 179900,30370 181580,30370 181580,29510 236810,29510 236810,28660 229280,28660 229280,27810 230120,27810 230120,26100 227600,26100 227600,25250 229280,25250 229280,24400 225930,24400 225930,23550 228440,23550 228440,22690 221750,22690 221750,21840 222580,21840 222580,20990 200820,20990 200820,20140 169860,20140 169860,20990 177390,20990 177390,21840 179070,21840 179070,22690 180740,22690 180740,26100 179900,26100 179900,27810 179070,27810 179070,28660 178230,28660 178230,29510 177390,29510 177390,30370 174880,30370 174880,31220 173210,31220 173210,32070 171540,32070 171540,32920 170700,32920 170700,33780 169860,33780 169860,34630 168190,34630 168190,35480 167350,35480 167350,36330 166510,36330 166510,37190 164840,37190 164840,38040 160660,38040 160660,38890 158150,38890 158150,39740 155640,39740 155640,40600 153120,40600 153120,41450 151450,41450 151450,42300 149780,42300 149780,43150 148100,43150 148100,44010 146430,44010 146430,44860 145590,44860 145590,45710 144760,45710 144760,46560 143080,46560 143080,47420 141410,47420 141410,48270 140570,48270 140570,49120 138900,49120 138900,49970 137230,49970 137230,50830 135550,50830 135550,51680 122160,51680 122160,52530 121320,52530 121320,53380 120490,53380 120490,54240 119650,54240 119650,55090 118810,55090 118810,56790 117980,56790 117980,57650 "/>
   <polygon class="fil44" points="84500,190630 77810,190630 77810,191480 71110,191480 71110,192330 67770,192330 67770,193190 66090,193190 66090,194040 65260,194040 65260,194890 64420,194890 64420,195740 63580,195740 63580,199150 62750,199150 62750,216200 63580,216200 63580,225580 64420,225580 64420,234110 65260,234110 65260,237510 66090,237510 66090,242630 66930,242630 66930,245190 67770,245190 67770,246040 68600,246040 68600,246890 70280,246890 70280,247740 71110,247740 71110,248600 72790,248600 72790,249450 75300,249450 75300,250300 119650,250300 119650,249450 123000,249450 123000,248600 127180,248600 127180,247740 130530,247740 130530,246890 133040,246890 133040,246040 134710,246040 134710,245190 135550,245190 135550,244340 136390,244340 136390,242630 137230,242630 137230,240930 138060,240930 138060,237510 138900,237510 138900,226430 139740,226430 139740,213650 138900,213650 138900,208530 138060,208530 138060,205120 137230,205120 137230,201710 136390,201710 136390,199150 135550,199150 135550,197450 134710,197450 134710,196600 133880,196600 133880,195740 133040,195740 133040,194890 131370,194890 131370,194040 129690,194040 129690,193190 128020,193190 128020,192330 126350,192330 126350,191480 123840,191480 123840,190630 119650,190630 119650,189780 84500,189780 "/>
   <polygon class="fil45" points="182410,197450 181580,197450 181580,196600 180740,196600 180740,195740 179900,195740 179900,196600 179070,196600 179070,194890 179900,194890 179900,194040 179070,194040 179070,192330 178230,192330 178230,191480 177390,191480 177390,189780 176560,189780 176560,188920 175720,188920 175720,187220 174880,187220 174880,188920 175720,188920 175720,189780 176560,189780 176560,191480 177390,191480 177390,192330 178230,192330 178230,194040 179070,194040 179070,194890 177390,194890 177390,194040 176560,194040 176560,192330 175720,192330 175720,191480 174880,191480 174880,189780 173210,189780 173210,188920 172370,188920 172370,188070 171540,188070 171540,187220 169860,187220 169860,192330 168190,192330 168190,193190 162330,193190 162330,194040 161490,194040 161490,194890 160660,194890 160660,195740 159820,195740 159820,196600 160660,196600 160660,197450 158980,197450 158980,196600 158150,196600 158150,195740 157310,195740 157310,196600 158150,196600 158150,200010 158980,200010 158980,201710 159820,201710 159820,203420 160660,203420 160660,205120 161490,205120 161490,206830 162330,206830 162330,208530 163170,208530 163170,210240 164000,210240 164000,211940 164840,211940 164840,213650 165680,213650 165680,215350 166510,215350 166510,217060 167350,217060 167350,217910 168190,217910 168190,219610 169020,219610 169020,221320 169860,221320 169860,223020 170700,223020 170700,223880 171540,223880 171540,224730 173210,224730 173210,225580 174880,225580 174880,226430 176560,226430 176560,227290 179070,227290 179070,228140 181580,228140 181580,228990 186600,228990 186600,229840 189950,229840 189950,230700 194970,230700 194970,231550 203340,231550 203340,232400 221750,232400 221750,231550 230950,231550 230950,230700 234300,230700 234300,229840 238480,229840 238480,228990 241830,228990 241830,228140 244340,228140 244340,227290 246850,227290 246850,226430 247690,226430 247690,225580 248530,225580 248530,224730 249360,224730 249360,223020 250200,223020 250200,221320 251040,221320 251040,219610 251870,219610 251870,217910 252710,217910 252710,217060 253550,217060 253550,215350 254380,215350 254380,214500 255220,214500 255220,211940 256060,211940 256060,211090 256890,211090 256890,209380 257730,209380 257730,207680 258570,207680 258570,205970 259400,205970 259400,204270 260240,204270 260240,202560 261080,202560 261080,200860 261920,200860 261920,199150 262750,199150 262750,197450 263590,197450 263590,195740 264430,195740 264430,194040 265260,194040 265260,191480 266100,191480 266100,189780 266940,189780 266940,188070 267770,188070 267770,186370 268610,186370 268610,183810 269450,183810 269450,182100 270280,182100 270280,180400 271120,180400 271120,178690 271960,178690 271960,176990 272790,176990 272790,175290 273630,175290 273630,173580 274470,173580 274470,171020 275300,171020 275300,169320 276140,169320 276140,167610 276980,167610 276980,165910 277820,165910 277820,164200 278650,164200 278650,161650 279490,161650 279490,159940 280330,159940 280330,158240 281160,158240 281160,156530 282000,156530 282000,153970 282840,153970 282840,153120 283670,153120 283670,150560 284510,150560 284510,148860 285350,148860 285350,146300 286180,146300 286180,145450 285350,145450 285350,146300 284510,146300 284510,147150 283670,147150 283670,146300 284510,146300 284510,144600 283670,144600 283670,143740 282840,143740 282840,144600 281160,144600 281160,146300 280330,146300 280330,145450 279490,145450 279490,147150 278650,147150 278650,146300 276980,146300 276980,145450 276140,145450 276140,143740 274470,143740 274470,142040 273630,142040 273630,142890 272790,142890 272790,143740 271960,143740 271960,144600 271120,144600 271120,142890 270280,142890 270280,144600 268610,144600 268610,143740 269450,143740 269450,142890 268610,142890 268610,143740 267770,143740 267770,144600 266940,144600 266940,147150 266100,147150 266100,148860 265260,148860 265260,150560 264430,150560 264430,152270 263590,152270 263590,153970 262750,153970 262750,155680 261920,155680 261920,157380 261080,157380 261080,159090 260240,159090 260240,160790 259400,160790 259400,162500 258570,162500 258570,164200 257730,164200 257730,165910 256890,165910 256890,168470 256060,168470 256060,169320 255220,169320 255220,171880 254380,171880 254380,173580 253550,173580 253550,175290 252710,175290 252710,176990 251870,176990 251870,178690 251040,178690 251040,180400 250200,180400 250200,182100 249360,182100 249360,183810 248530,183810 248530,185520 247690,185520 247690,187220 246850,187220 246850,188920 246010,188920 246010,190630 245180,190630 245180,191480 244340,191480 244340,193190 243500,193190 243500,194890 242670,194890 242670,196600 241830,196600 241830,198300 240990,198300 240990,199150 240160,199150 240160,200860 239320,200860 239320,202560 238480,202560 238480,203420 237650,203420 237650,205120 236810,205120 236810,205970 235970,205970 235970,206830 235140,206830 235140,207680 234300,207680 234300,208530 232630,208530 232630,209380 229280,209380 229280,210240 225090,210240 225090,211090 219240,211090 219240,211940 205010,211940 205010,211090 199990,211090 199990,210240 196640,210240 196640,209380 194970,209380 194970,208530 193290,208530 193290,207680 191620,207680 191620,206830 189950,206830 189950,205970 189110,205970 189110,205120 188270,205120 188270,204270 187440,204270 187440,203420 186600,203420 186600,202560 185760,202560 185760,203420 184930,203420 184930,202560 184090,202560 184090,201710 184930,201710 184930,202560 185760,202560 185760,201710 184930,201710 184930,200860 184090,200860 184090,201710 183250,201710 183250,200860 182410,200860 182410,200010 181580,200010 181580,199150 180740,199150 180740,197450 179900,197450 179900,196600 180740,196600 180740,197450 181580,197450 181580,199150 182410,199150 182410,200010 183250,200010 183250,200860 184090,200860 184090,200010 183250,200010 183250,199150 182410,199150 "/>
   <polygon class="fil39" points="89520,54240 90360,54240 90360,48270 91200,48270 91200,47420 92040,47420 92040,44860 92870,44860 92870,40600 92040,40600 92040,38040 91200,38040 91200,37190 90360,37190 90360,36330 88690,36330 88690,35480 87010,35480 87010,34630 84500,34630 84500,33780 83670,33780 83670,32920 86180,32920 86180,33780 87850,33780 87850,34630 89520,34630 89520,35480 91200,35480 91200,36330 92870,36330 92870,37190 95380,37190 95380,38040 97060,38040 97060,38890 97890,38890 97890,39740 99570,39740 99570,40600 101240,40600 101240,41450 102080,41450 102080,42300 103750,42300 103750,43150 104590,43150 104590,44010 105430,44010 105430,44860 106260,44860 106260,45710 107940,45710 107940,46560 108770,46560 108770,47420 109610,47420 109610,48270 110450,48270 110450,49120 111280,49120 111280,49970 112120,49970 112120,50830 112960,50830 112960,52530 113790,52530 113790,53380 114630,53380 114630,54240 115470,54240 115470,55090 116300,55090 116300,56790 117140,56790 117140,57650 117980,57650 117980,56790 118810,56790 118810,55090 119650,55090 119650,54240 120490,54240 120490,53380 121320,53380 121320,52530 122160,52530 122160,51680 135550,51680 135550,50830 137230,50830 137230,49970 138900,49970 138900,49120 140570,49120 140570,48270 141410,48270 141410,47420 143080,47420 143080,46560 144760,46560 144760,45710 145590,45710 145590,44860 146430,44860 146430,44010 148100,44010 148100,43150 149780,43150 149780,42300 151450,42300 151450,41450 153120,41450 153120,40600 155640,40600 155640,39740 158150,39740 158150,38890 160660,38890 160660,38040 164840,38040 164840,37190 166510,37190 166510,36330 167350,36330 167350,35480 168190,35480 168190,34630 169860,34630 169860,33780 170700,33780 170700,32920 171540,32920 171540,32070 173210,32070 173210,31220 174880,31220 174880,30370 177390,30370 177390,29510 178230,29510 178230,28660 179070,28660 179070,27810 179900,27810 179900,26100 180740,26100 180740,22690 179070,22690 179070,21840 177390,21840 177390,20990 169860,20990 169860,20140 125510,20140 125510,19280 55210,19280 55210,20140 56050,20140 56050,21840 55210,21840 55210,23550 52700,23550 52700,24400 54380,24400 54380,25250 53540,25250 53540,26960 54380,26960 54380,27810 56050,27810 56050,28660 59400,28660 59400,29510 61070,29510 61070,30370 63580,30370 63580,31220 65260,31220 65260,32070 66930,32070 66930,32920 67770,32920 67770,33780 69440,33780 69440,34630 70280,34630 70280,35480 71950,35480 71950,36330 72790,36330 72790,37190 74460,37190 74460,38040 75300,38040 75300,38890 76130,38890 76130,39740 76970,39740 76970,40600 77810,40600 77810,41450 78650,41450 78650,42300 79480,42300 79480,43150 80320,43150 80320,44010 81160,44010 81160,44860 81990,44860 81990,45710 82830,45710 82830,46560 83670,46560 83670,47420 84500,47420 84500,48270 85340,48270 85340,49120 86180,49120 86180,49970 87010,49970 87010,51680 87850,51680 87850,52530 88690,52530 88690,53380 89520,53380 "/>
   <path class="fil46" d="M152290 136920l0 -1700 -840 0 0 -1710 -840 0 0 -1700 -830 0 0 -2560 -840 0 0 -1700 -840 0 0 -2560 -830 0 0 -1710 -840 0 0 -2550 -840 0 0 -1710 -830 0 0 -1700 -840 0 0 -1710 -840 0 0 -2550 -830 0 0 -1710 -840 0 0 -1700 -840 0 0 -1710 -830 0 0 -1700 -840 0 0 -1710 -840 0 0 -1700 -830 0 0 -1710 -840 0 0 -2560 -840 0 0 -1700 -840 0 0 -1710 -830 0 0 -2550 -840 0 0 -1710 -840 0 0 -1700 -830 0 0 -1710 -840 0 0 -2560 -840 0 0 -1700 -830 0 0 -1710 -840 0 0 -1700 -840 0 0 -1710 -830 0 0 -1700 -840 0 0 -1710 -840 0 0 -850 -830 0 0 -1700 -840 0 0 -1710 -840 0 0 -1700 -840 0 0 -1710 -830 0 0 -1700 -840 0 0 -1710 -840 0 0 -1700 -830 0 0 -1710 -840 0 0 -850 -840 0 0 -1700 -830 0 0 -860 -840 0 0 -850 -840 0 0 -1700 -830 0 0 -860 -840 0 0 -850 -840 0 0 -850 -830 0 0 -850 -840 0 0 -1710 -840 0 0 -850 -830 0 0 -850 -840 0 0 -860 -840 0 0 -1700 -830 0 0 -850 -840 0 0 -860 -840 0 0 -850 -1670 0 0 -850 -840 0 0 -850 -1670 0 0 -860 -1680 0 0 -850 -830 0 0 -850 -1680 0 0 -850 -2510 0 0 -860 -1670 0 0 -850 -1680 0 0 -850 -1670 0 0 -850 -1670 0 0 -860 -2510 0 0 860 830 0 0 850 2510 0 0 850 1680 0 0 850 1670 0 0 860 840 0 0 850 840 0 0 2560 830 0 0 4260 -830 0 0 2560 -840 0 0 850 -840 0 0 5970 -840 0 0 850 840 0 0 850 840 0 0 5120 -840 0 0 2550 -840 0 0 1710 -830 0 0 1700 -840 0 0 1710 -840 0 0 1700 -830 0 0 850 -840 0 0 1710 -840 0 0 850 -830 0 0 1710 -840 0 0 1700 -840 0 0 1710 -830 0 0 1700 -840 0 0 850 -840 0 0 1710 -830 0 0 1700 -840 0 0 860 -840 0 0 2550 -840 0 0 1710 -830 0 0 1700 -840 0 0 1710 -840 0 0 1700 -830 0 0 1710 -840 0 0 1700 -840 0 0 1710 -830 0 0 850 830 0 0 -850 840 0 0 -850 840 0 0 -860 830 0 0 -850 840 0 0 -1700 840 0 0 -1710 830 0 0 -1700 840 0 0 -1710 840 0 0 -850 840 0 0 850 830 0 0 -850 840 0 0 -850 2510 0 0 -860 1670 0 0 860 840 0 0 1700 840 0 0 850 1670 0 0 860 840 0 0 1700 -840 0 0 850 840 0 0 -850 2510 0 0 850 840 0 0 860 830 0 0 -1710 840 0 0 1710 840 0 0 -1710 830 0 0 -1700 840 0 0 -1710 840 0 0 -1700 830 0 0 -2560 840 0 0 -1710 840 0 0 -1700 830 0 0 -1710 840 0 0 -1700 840 0 0 -2560 830 0 0 -5970 840 0 0 860 840 0 0 5110 840 0 0 2560 830 0 0 1700 840 0 0 2560 840 0 0 1710 830 0 0 1700 840 0 0 2560 840 0 0 2560 830 0 0 1700 840 0 0 1710 840 0 0 2550 830 0 0 1710 840 0 0 1700 840 0 0 2560 830 0 0 2560 840 0 0 1700 840 0 0 1710 830 0 0 1700 840 0 0 1710 840 0 0 1700 830 0 0 1710 840 0 0 1700 840 0 0 1710 840 0 0 1700 830 0 0 2560 840 0 0 1700 840 0 0 1710 830 0 0 2560 840 0 0 1700 840 0 0 1710 830 0 0 2550 840 0 0 1710 840 0 0 -1710 -840 0 0 -850 840 0 0 850 830 0 0 860 1680 0 0 -860 830 0 0 -850 1680 0 0 -850 840 0 0 -1710 8360 0 0 860 1680 0 0 850 830 0 0 850 840 0 0 850 840 0 0 1710 830 0 0 850 840 0 0 -2560 840 0zm-39330 -85240l0 -850 -840 0 0 -860 -840 0 0 -850 -830 0 0 -850 -840 0 0 -850 -840 0 0 -860 -830 0 0 -850 -840 0 0 850 840 0 0 860 830 0 0 850 840 0 0 850 840 0 0 850 830 0 0 860 840 0 0 850 840 0zm41000 88650l0 -850 -840 0 0 850 -830 0 0 -850 -840 0 0 1710 1670 0 0 -860 840 0z"/>
   <path class="fil46" d="M313800 88330l840 0 0 -1700 830 0 0 -1710 840 0 0 -2550 840 0 0 -1710 830 0 0 -3410 840 0 0 -6820 840 0 0 6820 830 0 0 2560 840 0 0 1700 840 0 0 1710 830 0 0 1700 840 0 0 860 840 0 0 1700 830 0 0 1710 840 0 0 2550 840 0 0 1710 840 0 0 1700 830 0 0 2560 840 0 0 2560 840 0 0 2560 830 0 0 1700 840 0 0 2560 840 0 0 1700 830 0 0 1710 2510 0 0 1700 840 0 0 -1700 840 0 0 -850 830 0 0 -860 840 0 0 -1700 840 0 0 -850 840 0 0 -860 5850 0 0 -850 840 0 0 850 1670 0 0 860 1680 0 0 1700 830 0 0 850 840 0 0 1710 840 0 0 850 840 0 0 850 830 0 0 1710 840 0 0 850 840 0 0 1710 830 0 0 -860 840 0 0 860 840 0 0 -1710 -840 0 0 -1700 -840 0 0 -2560 -830 0 0 -1710 -840 0 0 -2550 -840 0 0 -1710 -830 0 0 -1700 -840 0 0 -1710 -840 0 0 -1700 -840 0 0 -1710 -830 0 0 -2560 -840 0 0 -1700 -840 0 0 -1710 -830 0 0 -1700 -840 0 0 -2560 -840 0 0 -1700 -830 0 0 -1710 -840 0 0 -1700 -840 0 0 -1710 -830 0 0 -2560 -840 0 0 -1700 -840 0 0 -1710 -830 0 0 -1700 -840 0 0 -1710 -840 0 0 -1700 -840 0 0 -1710 -830 0 0 -1700 -840 0 0 -2560 -840 0 0 -1700 -830 0 0 -1710 -840 0 0 -1700 -840 0 0 -2560 -830 0 0 -1700 -840 0 0 -1710 -840 0 0 -1700 -830 0 0 -2560 -840 0 0 -1710 -840 0 0 -1700 -830 0 0 -1710 -840 0 0 -1700 -840 0 0 -1710 -840 0 0 -1700 -830 0 0 -1710 -840 0 0 -1700 -840 0 0 -1710 -830 0 0 -850 -840 0 0 -850 -2510 0 0 850 -840 0 0 850 -1670 0 0 860 -840 0 0 850 -830 0 0 850 -840 0 0 1710 -840 0 0 1700 -830 0 0 2560 -840 0 0 3410 -840 0 0 2560 -830 0 0 1700 -840 0 0 2560 -840 0 0 2560 -840 0 0 1700 -830 0 0 2560 -840 0 0 1700 -840 0 0 1710 -830 0 0 2550 -840 0 0 1710 -840 0 0 1700 -830 0 0 2560 -840 0 0 1710 -840 0 0 1700 -830 0 0 1710 -840 0 0 1700 -840 0 0 1710 -830 0 0 2550 -840 0 0 1710 -840 0 0 1700 -840 0 0 1710 -830 0 0 850 830 0 0 -850 840 0 0 850 840 0 0 -850 840 0 0 850 -840 0 0 850 1670 0 0 -850 1680 0 0 -850 1670 0 0 850 840 0 0 850 830 0 0 860 840 0 0 850 1670 0 0 850 840 0 0 -850 840 0 0 1700 830 0 0 1710 840 0 0 -1710 1680 0 0 860 -840 0 0 1700 -1680 0 0 850 840 0 0 860 -840 0 0 1700 840 0 0 -1700 840 0 0 -1710 840 0 0 -1700 830 0 0 -860 840 0 0 -1700 840 0 0 -1710 830 0 0 -850 840 0 0 850zm-1670 3410l-840 0 0 860 840 0 0 -860z"/>
   <path class="fil47" d="M186600 202560l0 860 840 0 0 850 830 0 0 850 840 0 0 850 840 0 0 860 830 0 0 -860 -830 0 0 -850 -840 0 0 -850 -840 0 0 -850 -830 0 0 -860 -840 0 0 -850 -840 0 0 -850 -830 0 0 -850 -840 0 0 -860 -840 0 0 -850 -840 0 0 850 840 0 0 860 840 0 0 850 -840 0 0 -850 -840 0 0 -860 -830 0 0 -1700 -840 0 0 -850 -840 0 0 850 840 0 0 1700 840 0 0 860 830 0 0 850 840 0 0 850 840 0 0 -850 840 0 0 850 830 0 0 850 -830 0 0 -850 -840 0 0 850 840 0 0 860 830 0 0 -860 840 0zm-4190 -5110l0 -850 -830 0 0 -860 -840 0 0 -1700 -840 0 0 -850 -830 0 0 850 830 0 0 850 -830 0 0 1710 830 0 0 -860 840 0 0 860 840 0 0 850 830 0zm-5020 -7670l0 -860 -830 0 0 -1700 -840 0 0 -1700 -840 0 0 -1710 -830 0 0 -1710 -840 0 0 -1700 -840 0 0 -1710 -830 0 0 -1700 -840 0 0 -1700 -840 0 0 -2560 -840 0 0 -1710 -830 0 0 -1700 -840 0 0 -1710 -840 0 0 -2550 -830 0 0 -1710 -840 0 0 -850 -840 0 0 -1710 -830 0 0 -1700 -840 0 0 -1710 -840 0 0 -1700 -830 0 0 -1710 -840 0 0 -1700 -840 0 0 -2560 -830 0 0 -1700 -840 0 0 -1710 -840 0 0 -1700 -830 0 0 -1710 -840 0 0 -1700 -840 0 0 -860 -840 0 0 860 -1670 0 0 -1710 840 0 0 850 830 0 0 -2550 -830 0 0 -860 -840 0 0 2560 -840 0 0 -850 -830 0 0 -1710 -840 0 0 -850 -840 0 0 -850 -830 0 0 -850 -1680 0 0 -860 -8360 0 0 1710 -840 0 0 850 -1680 0 0 850 -830 0 0 860 -1680 0 0 -860 -830 0 0 -850 -840 0 0 850 840 0 0 3410 830 0 0 1710 840 0 0 1700 840 0 0 1710 830 0 0 1700 840 0 0 1710 840 0 0 2560 840 0 0 1700 830 0 0 1710 840 0 0 1700 840 0 0 2560 830 0 0 1700 840 0 0 1710 840 0 0 1700 830 0 0 1710 840 0 0 2560 840 0 0 1700 830 0 0 1710 840 0 0 1700 840 0 0 1710 830 0 0 1700 840 0 0 1700 840 0 0 2560 830 0 0 1710 840 0 0 1700 840 0 0 1710 830 0 0 2550 840 0 0 1710 840 0 0 1700 840 0 0 1710 830 0 0 2560 840 0 0 1700 840 0 0 -1700 -840 0 0 -860 840 0 0 860 830 0 0 850 1680 0 0 -850 -840 0 0 -860 840 0 0 -850 830 0 0 -850 840 0 0 -850 5860 0 0 -860 1670 0 0 -5110 1680 0 0 850 830 0 0 850 840 0 0 860 1670 0 0 1700 840 0 0 850 840 0 0 1710 830 0 0 850 1680 0 0 -850 -840 0 0 -1710 -840 0 0 -850 -830 0 0 -1700 -840 0 0 -860 -840 0 0 -1700 840 0 0 1700 840 0 0 860 830 0zm1680 2550l0 -850 -840 0 0 -850 -840 0 0 850 840 0 0 850 840 0z"/>
   <polygon class="fil45" points="369870,140330 369030,140330 369030,139480 368190,139480 368190,138630 367360,138630 367360,139480 368190,139480 368190,141190 367360,141190 367360,140330 366520,140330 366520,139480 365680,139480 365680,138630 362340,138630 362340,139480 358990,139480 358990,140330 354810,140330 354810,141190 351460,141190 351460,142890 350620,142890 350620,143740 349780,143740 349780,142040 348950,142040 348950,145450 349780,145450 349780,147150 350620,147150 350620,149710 351460,149710 351460,151420 352290,151420 352290,153120 353130,153120 353130,154830 353970,154830 353970,157380 354810,157380 354810,159090 355640,159090 355640,161650 356480,161650 356480,163350 357320,163350 357320,165910 358150,165910 358150,167610 358990,167610 358990,169320 359830,169320 359830,171020 360660,171020 360660,172730 361500,172730 361500,174430 362340,174430 362340,176140 363170,176140 363170,176990 364010,176990 364010,178690 364850,178690 364850,180400 365680,180400 365680,182100 366520,182100 366520,183810 367360,183810 367360,185520 368190,185520 368190,187220 369030,187220 369030,189780 369870,189780 369870,191480 370700,191480 370700,193190 371540,193190 371540,194890 372380,194890 372380,196600 373220,196600 373220,198300 374050,198300 374050,200860 374890,200860 374890,202560 375730,202560 375730,203420 376560,203420 376560,205120 377400,205120 377400,207680 378240,207680 378240,209380 379070,209380 379070,211090 380750,211090 380750,210240 381580,210240 381580,208530 382420,208530 382420,205970 383260,205970 383260,204270 384090,204270 384090,201710 384930,201710 384930,199150 385770,199150 385770,183810 384930,183810 384930,180400 384090,180400 384090,176140 383260,176140 383260,173580 382420,173580 382420,171020 381580,171020 381580,168470 380750,168470 380750,166760 379910,166760 379910,164200 379070,164200 379070,162500 378240,162500 378240,159940 377400,159940 377400,158240 376560,158240 376560,155680 375730,155680 375730,153970 374890,153970 374890,152270 374050,152270 374050,149710 373220,149710 373220,148010 372380,148010 372380,145450 371540,145450 371540,143740 370700,143740 370700,142040 369870,142040 "/>
   <path class="fil47" d="M312130 91740l0 -850 830 0 0 -850 840 0 0 -2560 -840 0 0 850 -830 0 0 1710 -840 0 0 1700 -840 0 0 860 -830 0 0 1700 -840 0 0 1710 -840 0 0 1700 -840 0 0 -1700 840 0 0 -860 -840 0 0 -850 1680 0 0 -1700 840 0 0 -860 -1680 0 0 1710 -840 0 0 -1710 -830 0 0 -1700 -840 0 0 850 -840 0 0 -850 -1670 0 0 -850 -840 0 0 -860 -830 0 0 -850 -840 0 0 -850 -1670 0 0 850 -1680 0 0 850 -1670 0 0 -850 840 0 0 -850 -840 0 0 850 -840 0 0 -850 -840 0 0 850 -830 0 0 1710 -840 0 0 1700 -840 0 0 1710 -830 0 0 2550 -840 0 0 2560 -840 0 0 850 -830 0 0 2560 -840 0 0 1710 -840 0 0 1700 -830 0 0 1710 -840 0 0 1700 -840 0 0 2560 -830 0 0 1700 -840 0 0 1710 -840 0 0 1700 -830 0 0 2560 -840 0 0 1710 -840 0 0 1700 -830 0 0 2560 -840 0 0 1700 -840 0 0 1710 -840 0 0 2560 -830 0 0 850 -840 0 0 2550 -840 0 0 1710 -830 0 0 1700 -840 0 0 860 -840 0 0 2550 -830 0 0 860 -840 0 0 1700 -840 0 0 850 840 0 0 -850 840 0 0 850 -840 0 0 860 1670 0 0 -1710 840 0 0 1710 840 0 0 -860 830 0 0 -850 840 0 0 -850 840 0 0 1700 1670 0 0 1710 840 0 0 850 1670 0 0 850 840 0 0 -1700 840 0 0 850 830 0 0 -1700 1680 0 0 -860 830 0 0 860 840 0 0 1700 -840 0 0 850 840 0 0 -850 840 0 0 -850 1670 0 0 -1710 840 0 0 -1700 830 0 0 -1710 840 0 0 -1700 840 0 0 -1710 830 0 0 -1700 840 0 0 -1710 840 0 0 -1700 830 0 0 -1700 840 0 0 -1710 840 0 0 -1710 840 0 0 -1700 830 0 0 -1710 840 0 0 -1700 840 0 0 -1700 830 0 0 -1710 840 0 0 -1700 840 0 0 -2560 830 0 0 -1710 840 0 0 -1700 840 0 0 -1710 830 0 0 -1700 840 0 0 -1710 840 0 0 -1700 830 0 0 -1710 840 0 0 -2550 840 0 0 -1710 840 0 0 -1700 830 0 0 -1710 840 0 0 -2560 840 0zm-25950 54560l-830 0 0 850 830 0 0 -850z"/>
   <path class="fil47" d="M71110 100270l0 850 -830 0 0 850 -840 0 0 1710 -840 0 0 1700 -830 0 0 1710 -840 0 0 1700 -840 0 0 2560 -830 0 0 1710 -840 0 0 1700 -840 0 0 1710 -830 0 0 2550 -840 0 0 1710 -840 0 0 1700 -830 0 0 1710 -840 0 0 2550 -840 0 0 1710 -840 0 0 1710 -830 0 0 1700 -840 0 0 1700 -840 0 0 1710 -830 0 0 1700 -840 0 0 1710 -840 0 0 1700 -830 0 0 860 830 0 0 2550 -830 0 0 860 830 0 0 -860 840 0 0 -1700 840 0 0 1700 830 0 0 860 2510 0 0 850 1680 0 0 1700 840 0 0 860 1670 0 0 -860 840 0 0 -1700 5850 0 0 -1710 840 0 0 -850 840 0 0 -850 830 0 0 -850 840 0 0 -1710 1670 0 0 -1700 840 0 0 -1710 840 0 0 -850 830 0 0 -1710 840 0 0 -2550 840 0 0 -1710 840 0 0 -850 830 0 0 -2560 840 0 0 -1700 840 0 0 -1710 830 0 0 -1700 840 0 0 -1710 840 0 0 -1700 830 0 0 -1710 840 0 0 -1700 840 0 0 -1710 830 0 0 -1700 840 0 0 -1710 840 0 0 -1700 830 0 0 -1710 840 0 0 -2550 840 0 0 -1710 840 0 0 -1700 830 0 0 -1710 840 0 0 -3410 -840 0 0 1710 -830 0 0 -860 -840 0 0 -850 -2510 0 0 850 -840 0 0 -850 840 0 0 -1700 -840 0 0 -860 -1670 0 0 -850 -840 0 0 -1700 -840 0 0 -860 -1670 0 0 860 -2510 0 0 850 -840 0 0 850 -830 0 0 -850 -840 0 0 850 -840 0 0 1710 -840 0 0 1700 -830 0 0 1710 -840 0 0 1700 -840 0 0 850 -830 0 0 860 -840 0 0 850 -840 0zm840 41770l-840 0 0 850 840 0 0 -850z"/>
   <polygon class="fil45" points="51870,141190 51870,142040 51030,142040 51030,143740 50190,143740 50190,145450 49360,145450 49360,147150 48520,147150 48520,148860 47680,148860 47680,150560 46850,150560 46850,152270 46010,152270 46010,153970 45170,153970 45170,155680 44340,155680 44340,158240 43500,158240 43500,159940 42660,159940 42660,161650 41820,161650 41820,163350 40990,163350 40990,165910 40150,165910 40150,168470 39310,168470 39310,170170 38480,170170 38480,173580 37640,173580 37640,176990 36800,176990 36800,181250 35970,181250 35970,184660 35130,184660 35130,188920 34290,188920 34290,195740 33460,195740 33460,205120 34290,205120 34290,213650 35130,213650 35130,211940 35970,211940 35970,211090 36800,211090 36800,210240 37640,210240 37640,209380 38480,209380 38480,208530 39310,208530 39310,206830 40150,206830 40150,205970 40990,205970 40990,204270 41820,204270 41820,203420 42660,203420 42660,201710 43500,201710 43500,200860 44340,200860 44340,199150 45170,199150 45170,197450 46010,197450 46010,195740 46850,195740 46850,194040 47680,194040 47680,192330 48520,192330 48520,190630 49360,190630 49360,188920 50190,188920 50190,187220 51030,187220 51030,184660 51870,184660 51870,182960 52700,182960 52700,181250 53540,181250 53540,179550 54380,179550 54380,177840 55210,177840 55210,175290 56050,175290 56050,173580 56890,173580 56890,171880 57720,171880 57720,170170 58560,170170 58560,168470 59400,168470 59400,166760 60240,166760 60240,165060 61070,165060 61070,163350 61910,163350 61910,161650 62750,161650 62750,159940 63580,159940 63580,158240 64420,158240 64420,156530 65260,156530 65260,154830 66090,154830 66090,153120 66930,153120 66930,151420 67770,151420 67770,149710 68600,149710 68600,148010 69440,148010 69440,146300 70280,146300 70280,144600 71110,144600 71110,142040 71950,142040 71950,141190 72790,141190 72790,139480 71950,139480 71950,141190 71110,141190 71110,142040 70280,142040 70280,142890 69440,142890 69440,143740 68600,143740 68600,145450 62750,145450 62750,147150 61910,147150 61910,148010 60240,148010 60240,147150 59400,147150 59400,145450 57720,145450 57720,144600 55210,144600 55210,143740 54380,143740 54380,142040 53540,142040 53540,143740 52700,143740 52700,144600 51870,144600 51870,143740 52700,143740 52700,141190 "/>
   <polygon class="fil42" points="179900,132660 179900,136920 174880,136920 174880,136070 168190,136070 168190,136920 165680,136920 165680,137780 164000,137780 164000,136920 161490,136920 161490,136070 159820,136070 159820,135220 158150,135220 158150,134370 157310,134370 157310,133510 156470,133510 156470,131810 155640,131810 155640,130960 154800,130960 154800,129250 153960,129250 153960,126690 153120,126690 153120,125840 150610,125840 150610,123280 149780,123280 149780,122430 148940,122430 148940,119880 148100,119880 148100,118170 147270,118170 147270,116470 146430,116470 146430,115610 145590,115610 145590,117320 146430,117320 146430,119020 147270,119020 147270,120730 148100,120730 148100,122430 148940,122430 148940,124990 149780,124990 149780,126690 150610,126690 150610,128400 151450,128400 151450,130110 152290,130110 152290,131810 153120,131810 153120,133510 153960,133510 153960,136070 154800,136070 154800,137780 155640,137780 155640,139480 156470,139480 156470,141190 157310,141190 157310,143740 158150,143740 158150,144600 158980,144600 158980,147150 159820,147150 159820,148010 160660,148010 160660,150560 161490,150560 161490,152270 162330,152270 162330,153970 163170,153970 163170,157380 164000,157380 164000,158240 164840,158240 164840,159940 165680,159940 165680,161650 166510,161650 166510,163350 167350,163350 167350,165060 168190,165060 168190,166760 169020,166760 169020,168470 169860,168470 169860,171020 170700,171020 170700,172730 171540,172730 171540,174430 172370,174430 172370,176140 173210,176140 173210,178690 174050,178690 174050,180400 174880,180400 174880,181250 175720,181250 175720,182960 176560,182960 176560,184660 177390,184660 177390,186370 178230,186370 178230,187220 179900,187220 179900,188070 180740,188070 180740,189780 182410,189780 182410,190630 183250,190630 183250,188920 184090,188920 184090,186370 184930,186370 184930,185520 185760,185520 185760,184660 186600,184660 186600,180400 187440,180400 187440,179550 188270,179550 188270,178690 189110,178690 189110,177840 189950,177840 189950,172730 189110,172730 189110,168470 188270,168470 188270,165060 187440,165060 187440,161650 186600,161650 186600,159940 185760,159940 185760,156530 184930,156530 184930,152270 184090,152270 184090,148010 183250,148010 183250,144600 182410,144600 182410,142040 181580,142040 181580,136920 180740,136920 180740,132660 "/>
   <polygon class="fil47" points="369030,139480 369030,140330 369870,140330 369870,139480 369030,139480 369030,137780 368190,137780 368190,136070 367360,136070 367360,133510 366520,133510 366520,131810 365680,131810 365680,130110 364850,130110 364850,127550 364010,127550 364010,125840 363170,125840 363170,123280 362340,123280 362340,121580 361500,121580 361500,119880 360660,119880 360660,117320 359830,117320 359830,116470 358990,116470 358990,115610 358150,115610 358150,116470 357320,116470 357320,114760 356480,114760 356480,113910 355640,113910 355640,112200 354810,112200 354810,111350 353970,111350 353970,110500 353130,110500 353130,108790 352290,108790 352290,107940 351460,107940 351460,106240 349780,106240 349780,105380 348110,105380 348110,104530 347270,104530 347270,105380 341420,105380 341420,106240 340580,106240 340580,107090 339740,107090 339740,108790 338900,108790 338900,109650 338070,109650 338070,110500 337230,110500 337230,112200 336390,112200 336390,110500 334720,110500 334720,113060 335560,113060 335560,114760 336390,114760 336390,116470 337230,116470 337230,119020 338070,119020 338070,120730 338900,120730 338900,122430 339740,122430 339740,124140 340580,124140 340580,126690 341420,126690 341420,128400 342250,128400 342250,130110 343090,130110 343090,132660 343930,132660 343930,134370 344760,134370 344760,136070 345600,136070 345600,138630 346440,138630 346440,140330 347270,140330 347270,142040 348110,142040 348110,143740 348950,143740 348950,142040 349780,142040 349780,143740 350620,143740 350620,142890 351460,142890 351460,141190 354810,141190 354810,140330 358990,140330 358990,139480 362340,139480 362340,138630 365680,138630 365680,139480 366520,139480 366520,140330 367360,140330 367360,141190 368190,141190 368190,139480 367360,139480 367360,138630 368190,138630 368190,139480 "/>
  </g>
 </g>
</svg>
