<?xml version="1.0" encoding="UTF-8"?>
<svg id="_圖層_1" data-name="圖層_1" xmlns="http://www.w3.org/2000/svg" version="1.1" xmlns:xodm="http://www.corel.com/coreldraw/odm/2003" viewBox="0 0 12 19.68">
  <!-- Generator: Adobe Illustrator 29.6.1, SVG Export Plug-In . SVG Version: 2.1.1 Build 9)  -->
  <defs>
    <style>
      .st0 {
        fill: #d04458;
      }

      .st0, .st1, .st2, .st3, .st4, .st5, .st6, .st7, .st8, .st9, .st10, .st11, .st12, .st13, .st14, .st15, .st16, .st17, .st18, .st19, .st20, .st21, .st22, .st23, .st24, .st25, .st26, .st27, .st28, .st29, .st30, .st31, .st32, .st33, .st34, .st35, .st36, .st37, .st38, .st39, .st40, .st41, .st42, .st43, .st44, .st45, .st46, .st47, .st48 {
        fill-rule: evenodd;
      }

      .st0, .st1, .st2, .st3, .st5, .st6, .st7, .st8, .st9, .st10, .st13, .st15, .st17, .st18, .st19, .st20, .st21, .st22, .st23, .st24, .st25, .st26, .st27, .st28, .st29, .st30, .st31, .st32, .st33, .st34, .st35, .st36, .st37, .st38, .st39, .st40, .st41, .st45, .st46, .st47, .st48 {
        display: none;
      }

      .st1 {
        fill: #fadd57;
      }

      .st2 {
        fill: #ca2b3e;
      }

      .st3 {
        fill: #d49858;
      }

      .st4 {
        fill: #f2f2f2;
      }

      .st5 {
        fill: #d4586d;
      }

      .st6 {
        fill: #367eae;
      }

      .st7 {
        fill: #3377a7;
      }

      .st8 {
        fill: #c1a32d;
      }

      .st9 {
        fill: #59a1d5;
      }

      .st10 {
        fill: #4596d0;
      }

      .st11 {
        fill: #f0f0f0;
      }

      .st12 {
        fill: #3d3d3d;
      }

      .st13 {
        fill: #cb8429;
      }

      .st14 {
        fill: #373737;
      }

      .st49 {
        fill: #fff;
      }

      .st15 {
        fill: #009964;
      }

      .st16 {
        fill: #454545;
      }

      .st17 {
        fill: #b57837;
      }

      .st18 {
        fill: #fbfafb;
      }

      .st19 {
        fill: #2e8228;
      }

      .st20 {
        fill: #2d83cb;
      }

      .st50 {
        fill: #b8101c;
      }

      .st21 {
        fill: #fefefe;
      }

      .st22 {
        fill: #2fb22c;
      }

      .st23 {
        fill: #00e2ab;
      }

      .st24 {
        fill: #09b28a;
      }

      .st51 {
        fill: #ec0202;
      }

      .st25 {
        fill: #fefeff;
      }

      .st26 {
        fill: #9b672f;
      }

      .st27 {
        fill: #2e6d99;
      }

      .st28 {
        fill: #fffffe;
      }

      .st29 {
        fill: #004e2b;
      }

      .st30 {
        fill: #b0364a;
      }

      .st31 {
        fill: #ffd326;
      }

      .st32 {
        fill: #6a6a6a;
      }

      .st33 {
        fill: #fefef7;
      }

      .st34 {
        fill: #f6f6f6;
      }

      .st35 {
        fill: #ffb801;
      }

      .st36 {
        fill: #8c8c8c;
      }

      .st37 {
        fill: #36982e;
      }

      .st38 {
        fill: #64d0e7;
      }

      .st39 {
        fill: #fd8f14;
      }

      .st40 {
        fill: #f50100;
      }

      .st52 {
        fill: #fbc32f;
      }

      .st41 {
        fill: #fee801;
      }

      .st42 {
        fill: #353535;
      }

      .st43 {
        fill: #dbdbdb;
      }

      .st44 {
        fill: #3f3f3f;
      }

      .st45 {
        fill: #cf8f42;
      }

      .st46 {
        fill: #9a2e40;
      }

      .st47 {
        fill: #41cb36;
      }

      .st48 {
        fill: #7b7b7b;
      }
    </style>
  </defs>
  <g id="_圖層_x5F_2" data-name="圖層_x5F_2">
    <g id="_2130947430576">
      <path class="st0" d="M.79,5.41l-.21,1.24c.05,2.23,2.21,5.42,3.05,7.26.66.1.02-.82-.2-1.29-.78-1.61-1.6-3.35-1.95-5.2l1.63.04c.47,1.38,1.94,2.23,3.69,1.83,1.8-.42,2.07-1.4,2.55-3.22h1.28c0,1.3-.3,2.19-.67,3.21l-.91,2.18c-.18.86-.22.43.13.82.69-1.39,2.25-3.97,2.23-5.64l-.13-1.25c-.44-.26-.29-.17-.61-.7C6.95-1.42,1.33,2.55.86,6.1l-.06-.69Z"/>
      <path class="st2" d="M3.64,13.92c.56,1.13,1.64,3.61,2.36,4.36.61-.66,2.68-4.85,3.18-5.98-.35-.39-.31.04-.13-.82l.91-2.18c.37-1.03.67-1.91.67-3.21h-1.28c-.48,1.82-.75,2.8-2.55,3.22-1.74.4-3.22-.45-3.69-1.83l-1.63-.04c.34,1.85,1.17,3.59,1.95,5.2.23.47.86,1.39.2,1.29Z"/>
      <path class="st30" d="M5.36,3.88c-.26.05-1.23.9-1.37,1.06-1.12,1.33-.19,4.31,2.54,3.81,3.24-.59,2.19-5.51-1.17-4.88Z"/>
      <path class="st46" d="M12,6.65h-.58c.01,1.67-1.54,4.25-2.23,5.64-.5,1.13-2.58,5.32-3.18,5.98-.72-.75-1.8-3.23-2.36-4.36-.84-1.85-3-5.04-3.05-7.26h-.58c.05,2.27,2.93,7.12,4.24,9.75.49.99.98,2.47,1.76,3.04.75-.55,1.24-2,1.68-2.88.54-1.08,1.03-2.05,1.6-3.2.83-1.67,2.68-4.55,2.72-6.7Z"/>
      <path class="st21" d="M5.37,4.54c-1.08.45-1.6,1.25-1.14,2.49.31.85,1.4,1.48,2.6,1.02,1.94-.74,1.01-4.54-1.46-3.52Z"/>
      <path class="st30" d="M0,6.65h.58l.21-1.24C.93,3,3.35.84,6,.82c2.74-.02,4.88,2.18,5.29,4.58l.13,1.25h.58c0-2.41-.88-3.98-2.46-5.16C5.4-1.6,0,1.51,0,6.65Z"/>
      <path class="st5" d="M.79,5.41l.06.69c.47-3.55,6.1-7.52,9.82-1.39.32.52.17.44.61.7-.41-2.4-2.55-4.6-5.29-4.58C3.35.84.93,3,.79,5.41Z"/>
    </g>
  </g>
  <g id="_圖層_x5F_3" data-name="圖層_x5F_3">
    <g id="_2130657452720">
      <path class="st45" d="M.64,7.04l.05.39c.27,1.58,4.61,9.98,5.31,10.8.68-.81,4.74-8.73,5.1-10.12-.33-.27-.29.57-.24-.74-.75.75-3.23,7.9-4.29,9.44-.49.71-.12.24-.56.61-.77-.63-.94-1.4-1.41-2.41-1.01-2.2-2.9-5.89-3.17-8.02h1.45c.65,3.04,5.61,3.88,6.48-.9h1.29l.03,1.1C12.86,5.97,7.11-1.93,2.44,3.17c-.38.42-.87.89-1.13,1.52-.32.79-.22,1.72-.67,2.35Z"/>
      <path class="st13" d="M10.86,7.36l-.18-.17-.03-1.1h-1.29c-.87,4.78-5.83,3.93-6.48.9h-1.45c.27,2.13,2.15,5.82,3.17,8.02.46,1,.64,1.78,1.41,2.41.45-.37.07.1.56-.61,1.06-1.54,3.55-8.69,4.29-9.44Z"/>
      <path class="st26" d="M5.51,4.04c-1.19.29-2.09,1.41-1.8,2.84.23,1.16,1.53,2.13,2.97,1.75,2.84-.75,1.89-5.33-1.17-4.59Z"/>
      <path class="st26" d="M11.76,5.04c-.09.49.05.63-.02,1.2-.12,1.01.07.62-.49,1.19l-.15.68c-.36,1.39-4.42,9.31-5.1,10.12-.71-.82-5.04-9.22-5.31-10.8-.83-1.03-.24-1.45-.45-2.39-.12.19-.19.4-.24.63v1.25c.12.84.42,1.7.65,2.27.99,2.5,2.18,4.37,3.43,6.89.46.93,1.16,2.81,1.92,3.36.77-.57,2.98-5.55,3.6-6.72.92-1.76,2.19-3.67,2.4-5.7v-.91l-.24-1.07Z"/>
      <path class="st21" d="M5.34,4.52c-.99.42-1.61,1.22-1.13,2.52.32.86,1.4,1.49,2.62,1.03,2.07-.78.99-4.6-1.49-3.55Z"/>
      <path class="st17" d="M.24,5.04c.2.94-.38,1.36.45,2.39l-.05-.39C.37-1.38,12.35-.93,11.25,7.43c.57-.57.37-.18.49-1.19.07-.57-.07-.71.02-1.2-.03-1.34-1.02-2.55-1.95-3.33C5.45-1.97.3,2.18.24,5.04Z"/>
      <path class="st3" d="M.64,7.04c.45-.63.35-1.56.67-2.35.26-.63.75-1.1,1.13-1.52C7.11-1.93,12.86,5.97,10.68,7.19l.18.17c-.05,1.32-.09.48.24.74l.15-.68C12.35-.93.37-1.38.64,7.04Z"/>
    </g>
  </g>
  <g id="_圖層_x5F_4" data-name="圖層_x5F_4">
    <g id="_2130883197264">
      <path class="st36" d="M3.19,13.2c.82-.36.11-.48-.96-3.18-.5-1.26-.84-2.3-.95-3.78h1.36c.38.68.58,3.11,3.37,3.12,2.37.01,2.57-1.43,3.35-3.12h1.38c-.16,2.04-1.02,3.92-1.88,5.72-1.05,2.21-.65,1.43-.38,1.79.72-2.14,3.03-5.01,3-7.73C11.4-.76,1.17-1.08.55,5.59c-.31,3.32,2.48,5.88,2.65,7.61Z"/>
      <path class="st48" d="M3.19,13.2c.48.88,1.03,1.69,1.47,2.52.45.85.66,1.78,1.34,2.51,1.16-1.35,1.34-2.9,2.48-4.48-.27-.36-.67.42.38-1.79.86-1.8,1.72-3.68,1.88-5.72h-1.38c-.78,1.7-.98,3.14-3.35,3.12-2.78-.02-2.99-2.45-3.37-3.12h-1.36c.11,1.48.45,2.52.95,3.78,1.07,2.71,1.78,2.82.96,3.18Z"/>
      <path class="st32" d="M8.48,13.75c-1.15,1.58-1.32,3.14-2.48,4.48-.68-.74-.89-1.66-1.34-2.51-.44-.82-.98-1.63-1.47-2.52-.16-1.73-2.96-4.29-2.65-7.61.63-6.68,10.85-6.36,10.93.42.03,2.73-2.28,5.59-3,7.73ZM0,6.24c0,2.54,1.59,5.1,2.72,7.12.58,1.03.99,1.96,1.52,3.04.49.99.98,2.47,1.76,3.04.75-.55,1.24-2,1.68-2.88.54-1.08,1.03-2.05,1.6-3.2,1.1-2.23,2.72-4.43,2.72-7.12C12-1.65,0-1.59,0,6.24Z"/>
    </g>
  </g>
  <g id="_圖層_x5F_5" data-name="圖層_x5F_5">
    <g id="_2130613875232">
      <path class="st44" d="M5.77,4.54c2.24-.52,2.85,3.14.65,3.55-2.32.44-3.4-2.91-.65-3.55ZM0,6.24c0,2.54,1.59,5.1,2.72,7.12.58,1.03.99,1.96,1.52,3.04.49.99.98,2.47,1.76,3.04.75-.55,1.24-2,1.68-2.88.54-1.08,1.03-2.05,1.6-3.2,1.1-2.23,2.72-4.43,2.72-7.12C12-1.65,0-1.59,0,6.24Z"/>
      <path class="st11" d="M5.77,4.54c-2.75.64-1.67,3.99.65,3.55,2.2-.41,1.58-4.08-.65-3.55Z"/>
    </g>
    <g id="_2130789140416">
      <path class="st16" d="M7.63,13.98c-.13.66-.34,1.01-.62,1.64l-.58,1.15c-.04.05-.09.11-.13.16l-.94-.48-1.03-2.44c-.65-.55-1.49-2.62-1.87-3.5-.58-1.35-1.03-2.68-1.14-4.24h1.5c.67,3.47,3.22,3.62,4.92,2.69,1.07-.59.7-.7,1.38-1.55h1.41c-.2,1-1.75,5.18-2.49,6.14-.25.33-.14.2-.41.43ZM5.28,4.17c1.48-.64,3.79.66,2.97,3.12-.26.77-.38.95-1.16,1.28-3,1.25-5.2-2.93-1.81-4.4ZM6,18.11c1.67-2.92,3.21-5.96,4.79-9.23C12.85,4.62,9.95.69,6,.7c-3.99.01-6.77,3.88-4.8,8.19l4.8,9.22Z"/>
      <path class="st12" d="M4.33,14.01c.17-.34-.3-.43,1.67-.43.03,0,.93.06.94.06.74.17.22-.14.69.34.28-.23.16-.1.41-.43.74-.96,2.29-5.14,2.49-6.14h-1.41c-.69.84-.32.96-1.38,1.55-1.7.94-4.25.79-4.92-2.69h-1.5c.11,1.56.56,2.89,1.14,4.24.38.87,1.22,2.94,1.87,3.5Z"/>
      <path class="st42" d="M1.2,8.89C-.77,4.59,2.01.72,6,.7c3.95-.01,6.85,3.91,4.79,8.18-1.58,3.27-3.12,6.31-4.79,9.23L1.2,8.89ZM0,6.24c0,2.54,1.59,5.1,2.72,7.12.58,1.03.99,1.96,1.52,3.04.49.99.98,2.47,1.76,3.04.75-.55,1.24-2,1.68-2.88.54-1.08,1.03-2.05,1.6-3.2,1.1-2.23,2.72-4.43,2.72-7.12C12-1.65,0-1.59,0,6.24Z"/>
      <path class="st14" d="M5.73,4.49c2.38-.53,3.02,3.21.71,3.63-2.47.45-3.4-3.03-.71-3.63ZM5.28,4.17c-3.4,1.47-1.19,5.64,1.81,4.4.78-.32.9-.5,1.16-1.28.83-2.46-1.49-3.76-2.97-3.12Z"/>
      <path class="st43" d="M4.8,5.5c1.51-.77,3-.29,2.22,1.76-.8.35-1.28.35-2.12.06-.34-.87-.33-.74-.1-1.83ZM5.73,4.49c-2.69.6-1.76,4.08.71,3.63,2.31-.42,1.68-4.17-.71-3.63Z"/>
      <path class="st4" d="M4.8,5.5c-.22,1.09-.23.95.1,1.83.84.29,1.32.29,2.12-.06.77-2.06-.71-2.54-2.22-1.76Z"/>
    </g>
  </g>
  <g id="_圖層_x5F_6" data-name="圖層_x5F_6">
    <g id="_2130789200080">
      <path class="st8" d="M-.12,5.4c0,3.32,1.67,4.85,2.78,7.54.48,1.17,2.72,6.07,3.46,6.62l2.88-6.24c2.03-4.02,2.88-4.77,2.88-8.16C11.88,2.35,9.12.02,6.1-.12h-.54c-1.32.06-2.66.55-3.82,1.61C.92,2.24-.12,3.92-.12,5.4Z"/>
      <path class="st1" d="M5.87,17.86c.79-.82,3.82-7.63,4.64-9.27,1.92-3.86-.5-8-4.63-7.97C1.72.65-.48,4.69,1.33,8.5c1.46,3.08,3.01,6.42,4.54,9.36Z"/>
      <path class="st31" d="M5.91,16.86c.73-1,3.24-6.71,4.17-8.45,1.9-3.58-.45-7.4-4.19-7.34C2.27,1.13-.04,4.6,1.76,8.33c1.35,2.79,2.74,5.92,4.15,8.53Z"/>
      <path class="st1" d="M5.04,1.69C-1.22,3.24,1.39,12.04,7.46,10.2,12.34,8.71,10.89.25,5.04,1.69Z"/>
      <path class="st8" d="M4.94,3.91c-2.97,1.48-.86,5.53,2.04,4.26,2.69-1.17.94-5.75-2.04-4.26Z"/>
      <path class="st28" d="M5.44,4.14c-2.81.79-1.46,4.43,1.04,3.8,2.39-.6,1.6-4.55-1.04-3.8Z"/>
    </g>
  </g>
  <g id="_圖層_x5F_7" data-name="圖層_x5F_7">
    <g id="_2130789193744">
      <path class="st22" d="M8.57,5.95c-.16,1.88-1.17,3.19-3.11,2.76-2.51-.56-1.84-2.32-1.61-3.68-.77-.08-.09.62-.54-.3.88-.88,1.51-1.95,3.61-1.4,1.31.34,1.91,1.39,1.99,3.03-.16-.19-.27-.02-.36-.4ZM.55,6.35l.07,1.12c.39,1.71,4.71,10.04,5.38,10.78.68-.79,4.98-9.12,5.38-10.78l.06-1.12c-1.11-.9-.25-1.5-2.04-3.27-.8-.8-1.9-1.48-3.42-1.48-1.46,0-2.61.73-3.39,1.48-1.45,1.39-1.1,2.52-2.04,3.28Z"/>
      <path class="st19" d="M12,6.43c-.49.37-.19.37-.62,1.04-.4,1.66-4.7,9.99-5.38,10.78-.67-.74-4.99-9.07-5.38-10.78-.45-.69-.13-.67-.62-1.04,0,2.51,2.85,7.19,4.24,9.97.49.99.98,2.47,1.76,3.04.75-.55,1.24-2,1.68-2.88,1.34-2.67,4.32-7.74,4.32-10.13Z"/>
      <path class="st37" d="M0,6.43c.49.37.17.35.62,1.04l-.07-1.12C1.69.05,7.09-.22,9.76,2.48c1.15,1.16,1.33,1.89,1.68,3.87l-.06,1.12c.43-.68.13-.67.62-1.04,0-2.09-.69-3.17-1.7-4.25C6.44-1.95,0,1.13,0,6.43Z"/>
      <path class="st34" d="M5.41,4.58c-2.71,1.17-.71,4.35,1.42,3.45,1.98-.84.97-4.48-1.42-3.45Z"/>
      <path class="st47" d="M.55,6.35c.94-.76.59-1.89,2.04-3.28.78-.75,1.94-1.48,3.39-1.48,1.52,0,2.62.69,3.42,1.48,1.79,1.77.93,2.37,2.04,3.27-.35-1.98-.53-2.71-1.68-3.87C7.09-.22,1.69.05.55,6.35Z"/>
      <path class="st37" d="M5.41,4.58c2.39-1.03,3.41,2.6,1.42,3.45-2.13.91-4.13-2.27-1.42-3.45ZM3.86,5.02c-.24,1.36-.9,3.13,1.61,3.68,1.93.43,2.95-.88,3.11-2.76-.33-1.13-.91-1.93-2.11-2.11-1.3-.19-2.06.29-2.6,1.19Z"/>
      <path class="st47" d="M3.86,5.02c.54-.89,1.3-1.38,2.6-1.19,1.2.18,1.78.98,2.11,2.11.09.38.2.21.36.4-.08-1.63-.69-2.68-1.99-3.03-2.1-.55-2.73.52-3.61,1.4.45.91-.23.21.54.3Z"/>
    </g>
  </g>
  <g id="_圖層_x5F_8" data-name="圖層_x5F_8">
    <g id="_2130789187168">
      <path class="st20" d="M3.38,13.4c.41.97,2.05,4.27,2.62,4.87.55-.59,2.71-4.86,3.21-5.99-.34-.39-.29.03-.11-.78,0-.01.35-.77.37-.82.94-2.05,1.28-3.24,1.09-5.5l-1.46-.05c.19,2.27-.37,4.04-2.85,4.19-2.61.16-3.54-1.6-3.32-4.2l-1.5.12c-.23,2.69,1.02,6.19,2.23,7.97-.06.32.32.35-.29.2Z"/>
      <path class="st10" d="M5.42,3.96c3.22-.73,4.26,4.04,1.11,4.77-1.45.33-2.67-.65-2.89-1.82-.26-1.35.61-2.68,1.78-2.94ZM1,4.59c-.49.7-.37,1.31-.37,2.29.01,1.77,2.02,5.01,2.75,6.52.61.15.22.11.29-.2-1.21-1.77-2.46-5.28-2.23-7.97l1.5-.12c-.23,2.61.7,4.36,3.32,4.2,2.48-.15,3.05-1.92,2.85-4.19l1.46.05c.19,2.26-.15,3.45-1.09,5.5-.02.05-.37.81-.37.82-.19.81-.24.39.11.78.66-1.44,2.16-3.79,2.16-5.4,0-.98.12-1.58-.35-2.31-.49.41-.07.36-.47-.17-.21-.27-.18-.38-.36-.64-1.43-2.1-4.74-3.18-7.28-1.09-2.01,1.66-1.36,2.68-1.91,1.91Z"/>
      <path class="st27" d="M0,7.29c1.66,4.69,2.15,4.93,4.32,9.27.44.88.93,2.33,1.68,2.88.5-.36,4.06-7.31,4.7-8.74.57-1.26.84-2.13,1.3-3.4-.26-.28-.2-.17-.63-.42,0,1.61-1.51,3.96-2.16,5.4-.5,1.13-2.65,5.4-3.21,5.99-.56-.6-2.21-3.9-2.62-4.87-.73-1.51-2.74-4.75-2.75-6.52-.43.25-.37.14-.63.41Z"/>
      <path class="st25" d="M4.1,6.48c.13,2.38,4.14,2.36,3.83-.46-.24-2.25-3.98-2.33-3.83.46Z"/>
      <path class="st6" d="M0,7.29c.26-.27.2-.16.63-.41,0-.98-.12-1.59.37-2.29C1.36,2.72,3.57.84,6,.83c2.43,0,4.63,1.89,5.02,3.75.47.73.36,1.32.35,2.31.43.25.37.14.63.42,0-2.61-.26-3.43-1.47-4.87-.46-.54-.24-.34-.85-.83C7.09-.46,4.01-.17,1.61,2.33.27,3.73,0,4.64,0,7.29Z"/>
      <path class="st9" d="M1,4.59c.55.76-.1-.26,1.91-1.91,2.54-2.09,5.85-1.02,7.28,1.09.18.27.15.37.36.64.4.53-.02.58.47.17-.39-1.86-2.59-3.76-5.02-3.75-2.43,0-4.64,1.89-5,3.76Z"/>
      <path class="st7" d="M4.1,6.48c-.15-2.79,3.59-2.71,3.83-.46.31,2.82-3.7,2.84-3.83.46ZM5.42,3.96c-1.17.26-2.03,1.6-1.78,2.94.22,1.17,1.43,2.16,2.89,1.82,3.15-.72,2.11-5.5-1.11-4.77Z"/>
    </g>
  </g>
  <g id="_圖層_x5F_1" data-name="圖層_x5F_1">
    <path class="st40" d="M9.34,5.35c-.03,1.17.1,1.87-.43,2.8-1.41,2.45-4.81,2.55-6.29.38-1.63-2.39-.38-5.28,2.44-5.89,1.76-.38,1.64.54,2.14-1.19C-.82,1.33-.19,8.14,2.64,10.3c3,2.3,7.74.28,7.96-3.34.1-1.56.25-3.23-1.26-1.62Z"/>
    <path class="st40" d="M8.4,5.67c-.82.21-.93,1.03-1.52,1.7-.58.66-1.61.76-2.4.14-.89-.71-.48-1.8.16-2.37.64-.57,1.62-.79,1.67-1.69-2.46-.52-4.91,2.68-2.71,4.93,2.44,2.51,5.79-.86,4.8-2.71Z"/>
    <path class="st40" d="M10.54,2.7h-.17l-.17.08s-.42.14-.87,0c-.48-.16-.33-.34-.31-.94l.07-.16-.14-.18c-.66.02-.81.42-1.3.95-1.26,1.34-.1,1.18-1.86,2.85-1.59,1.51-.26,2.05.85.86.45-.49.73-.83,1.45-1.06,1.12-.36.67-.39,1.44-.92.69-.48.99-.42,1.02-1.48Z"/>
    <path class="st18" d="M41.89,5.22c-.02.59-.17.77.3.92.44.14.81.01.86,0l.17-.08-.11-.92-1.15-.08-.07.16Z"/>
    <path class="st40" d="M9.34,5.35c-.03,1.17.1,1.87-.43,2.8-1.41,2.45-4.81,2.55-6.29.38-1.63-2.39-.38-5.28,2.44-5.89,1.76-.38,1.64.54,2.14-1.19C-.82,1.33-.19,8.14,2.64,10.3c3,2.3,7.74.28,7.96-3.34.1-1.56.25-3.23-1.26-1.62Z"/>
    <path class="st40" d="M8.4,5.67c-.82.21-.93,1.03-1.52,1.7-.58.66-1.61.76-2.4.14-.89-.71-.48-1.8.16-2.37.64-.57,1.62-.79,1.67-1.69-2.46-.52-4.91,2.68-2.71,4.93,2.44,2.51,5.79-.86,4.8-2.71Z"/>
    <path class="st40" d="M10.54,2.7h-.17l-.17.08s-.42.14-.87,0c-.48-.16-.33-.34-.31-.94l.07-.16-.14-.18c-.66.02-.81.42-1.3.95-1.26,1.34-.1,1.18-1.86,2.85-1.59,1.51-.26,2.05.85.86.45-.49.73-.83,1.45-1.06,1.12-.36.67-.39,1.44-.92.69-.48.99-.42,1.02-1.48Z"/>
    <path class="st40" d="M9.34,5.35c-.03,1.17.1,1.87-.43,2.8-1.41,2.45-4.81,2.55-6.29.38-1.63-2.39-.38-5.28,2.44-5.89,1.76-.38,1.64.54,2.14-1.19C-.82,1.33-.19,8.14,2.64,10.3c3,2.3,7.74.28,7.96-3.34.1-1.56.25-3.23-1.26-1.62Z"/>
    <g id="_2130789153664">
      <path class="st33" d="M3.89,9.7h-.02v.12h-.02v.07h-.02v.02h-.17v.02h-.93v-.02h-.88v-.02h-.02v-.36h-.02v-1.11h.02v-.17h.02v-.05h1.83v.02h.14v.05h.02v.15h.02v.17h.02v.22h.02v.65h-.02v.24ZM1.78,5.65h.02v-.1h.02v-.02h.02v-.02h.02v-.02h.05v-.02h.09v-.02h.19v-.02h.19v-.02h1v.02h.12v.02h.07v.02h.05v.02h.05v.02h.05v.02h.05v.02h.02v.02h.02v.02h.02v.05h.02v.07h.02v.1h.02v.1h.02v.15h.02v.36h-.02v.31h-.02v.1h-.02v.05h-.02v.05h-.02v.02h-.02v.02h-.05v.02h-.07v.02h-.09v.02h-.12v.02h-.09v.02h-1.26v-.02h-.07v-.02h-.05v-.02h-.02v-.02h-.05v-.02h-.02v-.02h-.02v-.07h-.02v-.15h-.02v-.1h-.02v-.24h-.02v-.27h-.02v-.48ZM3.04,2.58h-.02v.02h-.02v.02h-.02v.02h-.02v.05h-.02v.02h-.02v.05h-.02v.05h-.02v.05h-.02v.05h-.02v.05h-.02v.07h-.02v.05h-.02v.05h-.02v.05h-.02v.05h-.02v.05h-.02v.07h-.02v.05h-.02v.02h-.02v.05h-.02v.07h-.02v.05h-.02v.05h-.02v.05h-.02v.05h-.02v.05h-.02v.05h-.02v.05h-.02v.05h-.02v.05h-.02v.05h-.02v.05h-.02v.05h-.02v.05h-.02v.05h-.02v.05h-.02v.05h-.02v.05h-.02v.05h-.02v.05h-.02v.05h-.02v.05h-.02v.05h-.02v.05h-.02v.05h-.02v.05h-.02v.05h-.02v.05h-.02v.05h-.02v.05h-.02v.05h-.02v.05h-.02v.05h-.02v.02h-.02v.05h-.02v.05h-.02v.05h-.02v.05h-.02v.05h-.02v.05h-.02v.05h-.02v.05h-.02v.05h-.02v.07h-.02v.05h-.02v.07h-.02v.05h-.02v.07h-.02v.05h-.02v.02h-.02v.05h-.02v.05h-.02v.02h-.02v.02h-.02v.02h-.02v.02h-.02v.02h-.02v.02h-.02v.02h-.02v.02h-.02v.02h-.02v.02h-.05v.12h-.02v.1h-.02v.22h-.02v3.75h.02v.19h.14v.02h1.4v.02h2.23v-.05h.02v-.12h.02v-2.73h-.02v-.39h-.02v-.31h-.02v-.46h-.02v-.15h-.02v-.1h-.02v-.05h-.02v-.05h-.02v-.05h-.02v-.05h-.02v-.05h-.02v-.05h-.02v-.07h-.02v-.05h-.02v-.05h-.02v-.05h-.02v-.05h-.02v-.02h-.02v-.05h-.02v-.05h-.02v-.05h-.02v-.05h-.02v-.05h-.02v-.05h-.02v-.07h-.02v-.05h-.02v-.05h-.02v-.05h-.02v-.05h-.02v-.05h-.02v-.05h-.02v-.05h-.02v-.05h-.02v-.05h-.02v-.07h-.02v-.05h-.02v-.05h-.02v-.07h-.02v-.05h-.02v-.07h-.02v-.05h-.02v-.05h-.02v-.05h-.02v-.05h-.02v-.05h-.02v-.05h-.02v-.07h-.02v-.05h-.02v-.02h-.02v-.05h-.02v-.07h-.02v-.05h-.02v-.07h-.02v-.05h-.02v-.07h-.02v-.05h-.02v-.05h-.02v-.07h-.02v-.05h-.02v-.05h-.02v-.07h-.02v-.05h-.02v-.07h-.02v-.05h-.02v-.07h-.02v-.07h-.02v-.1h-.02v-.07h-.02v-.07h-.02v-.1h-.02v-.05h-.02v-.07h-.02v-.07h-.02v-.1h-.02v-.02h-.02v.02Z"/>
      <path class="st33" d="M7.95,8.57h.02v-.29h.02v-.05h.05v-.02h1.61v.02h.26v.02h.07v.02h.02v.05h.02v.07h.02v.19h.02v1.31h-.02v.02h-.12v.02h-.14v.02h-.78v-.02h-.47v-.02h-.52v-.02h-.05v-.22h-.02v-1.11ZM7.88,5.79h.02v-.05h.02v-.05h.02v-.1h.02v-.05h.02v-.1h.05v-.02h.14v-.02h.24v-.02h.33v-.02h.36v-.02h.38v.02h.12v.02h.09v.02h.07v.02h.05v.02h.05v.02h.05v.02h.02v.02h.02v.02h.02v.02h.02v.05h.02v.1h.02v.97h-.02v.12h-.02v.1h-.02v.02h-.02v.02h-.02v.02h-.05v.02h-.05v.02h-.07v.02h-.07v.02h-.14v.02h-.17v.02h-1.04v-.02h-.14v-.02h-.05v-.02h-.02v-.02h-.02v-.02h-.02v-.02h-.02v-.05h-.02v-.05h-.02v-.02h-.02v-.07h-.02v-.1h-.02v-.14h-.02v-.22h-.02v-.1h-.02v-.43ZM9.11,2.48h-.02v.07h-.02v.05h-.02v.05h-.02v.05h-.02v.05h-.02v.05h-.02v.05h-.02v.07h-.02v.05h-.02v.07h-.02v.05h-.02v.07h-.02v.05h-.02v.05h-.02v.05h-.02v.05h-.02v.05h-.02v.05h-.02v.05h-.02v.05h-.02v.05h-.02v.05h-.02v.07h-.02v.05h-.02v.05h-.02v.05h-.02v.05h-.02v.05h-.02v.05h-.02v.05h-.02v.05h-.02v.05h-.02v.05h-.02v.05h-.02v.05h-.02v.05h-.02v.05h-.02v.05h-.02v.05h-.02v.07h-.02v.05h-.02v.05h-.02v.05h-.02v.05h-.02v.05h-.02v.05h-.02v.05h-.02v.05h-.02v.05h-.02v.05h-.02v.05h-.02v.05h-.02v.05h-.02v.05h-.02v.05h-.02v.05h-.02v.07h-.02v.05h-.02v.07h-.02v.05h-.02v.05h-.02v.05h-.02v.05h-.02v.05h-.02v.05h-.02v.05h-.02v.05h-.02v.05h-.02v.02h-.02v.05h-.02v.05h-.02v.05h-.02v.05h-.02v.05h-.02v.05h-.02v.05h-.02v.07h-.02v.12h-.02v.27h-.02v1.33h-.02v1.86h-.02v.72h.02v.02h3.58v-.02h.14v-.05h.02v-2.95h-.02v-1.06h-.02v-.24h-.02v-.05h-.02v-.02h-.02v-.05h-.02v-.02h-.02v-.05h-.02v-.02h-.02v-.05h-.02v-.05h-.02v-.02h-.02v-.05h-.02v-.05h-.02v-.05h-.02v-.05h-.02v-.05h-.02v-.02h-.02v-.05h-.02v-.05h-.02v-.05h-.02v-.05h-.02v-.05h-.02v-.05h-.02v-.05h-.02v-.05h-.02v-.05h-.02v-.05h-.02v-.05h-.02v-.05h-.02v-.05h-.02v-.05h-.02v-.05h-.02v-.05h-.02v-.05h-.02v-.02h-.02v-.07h-.02v-.05h-.02v-.05h-.02v-.05h-.02v-.07h-.02v-.05h-.02v-.05h-.02v-.07h-.02v-.05h-.02v-.05h-.02v-.07h-.02v-.05h-.02v-.05h-.02v-.05h-.02v-.05h-.02v-.05h-.02v-.07h-.02v-.05h-.02v-.07h-.02v-.05h-.02v-.05h-.02v-.07h-.02v-.05h-.02v-.05h-.02v-.05h-.02v-.07h-.02v-.05h-.02v-.05h-.02v-.1h-.02v-.07h-.02v-.07h-.02v-.07h-.02v-.1h-.02v-.07h-.02v-.07h-.02v-.07h-.02v-.07h-.02v-.07h-.02v-.07h-.02v-.05h-.02v-.05h-.02v.02Z"/>
      <path class="st29" d="M10.91,10.7h-.14v.02h-3.58v-.02h-.02v-.72h.02v-1.86h.02v-1.33h.02v-.27h.02v-.12h.02v-.07h.02v-.05h.02v-.05h.02v-.05h.02v-.05h.02v-.05h.02v-.05h.02v-.05h.02v-.02h.02v-.05h.02v-.05h.02v-.05h.02v-.05h.02v-.05h.02v-.05h.02v-.05h.02v-.05h.02v-.05h.02v-.07h.02v-.05h.02v-.07h.02v-.05h.02v-.05h.02v-.05h.02v-.05h.02v-.05h.02v-.05h.02v-.05h.02v-.05h.02v-.05h.02v-.05h.02v-.05h.02v-.05h.02v-.05h.02v-.05h.02v-.05h.02v-.05h.02v-.07h.02v-.05h.02v-.05h.02v-.05h.02v-.05h.02v-.05h.02v-.05h.02v-.05h.02v-.05h.02v-.05h.02v-.05h.02v-.05h.02v-.05h.02v-.05h.02v-.05h.02v-.05h.02v-.05h.02v-.07h.02v-.05h.02v-.05h.02v-.05h.02v-.05h.02v-.05h.02v-.05h.02v-.05h.02v-.05h.02v-.05h.02v-.05h.02v-.07h.02v-.05h.02v-.07h.02v-.05h.02v-.07h.02v-.05h.02v-.05h.02v-.05h.02v-.05h.02v-.05h.02v-.05h.02v-.07h.02v-.02h.02v.05h.02v.05h.02v.07h.02v.07h.02v.07h.02v.07h.02v.07h.02v.07h.02v.1h.02v.07h.02v.07h.02v.07h.02v.1h.02v.05h.02v.05h.02v.07h.02v.05h.02v.05h.02v.05h.02v.07h.02v.05h.02v.05h.02v.07h.02v.05h.02v.07h.02v.05h.02v.05h.02v.05h.02v.05h.02v.05h.02v.07h.02v.05h.02v.05h.02v.07h.02v.05h.02v.05h.02v.07h.02v.05h.02v.05h.02v.05h.02v.07h.02v.02h.02v.05h.02v.05h.02v.05h.02v.05h.02v.05h.02v.05h.02v.05h.02v.05h.02v.05h.02v.05h.02v.05h.02v.05h.02v.05h.02v.05h.02v.05h.02v.05h.02v.05h.02v.02h.02v.05h.02v.05h.02v.05h.02v.05h.02v.05h.02v.02h.02v.05h.02v.05h.02v.02h.02v.05h.02v.02h.02v.05h.02v.02h.02v.05h.02v.24h.02v1.06h.02v2.95h-.02v.05ZM.97,6.71h.02v-.22h.02v-.1h.02v-.12h.05v-.02h.02v-.02h.02v-.02h.02v-.02h.02v-.02h.02v-.02h.02v-.02h.02v-.02h.02v-.02h.02v-.02h.02v-.05h.02v-.05h.02v-.02h.02v-.05h.02v-.07h.02v-.05h.02v-.07h.02v-.05h.02v-.07h.02v-.05h.02v-.05h.02v-.05h.02v-.05h.02v-.05h.02v-.05h.02v-.05h.02v-.05h.02v-.05h.02v-.02h.02v-.05h.02v-.05h.02v-.05h.02v-.05h.02v-.05h.02v-.05h.02v-.05h.02v-.05h.02v-.05h.02v-.05h.02v-.05h.02v-.05h.02v-.05h.02v-.05h.02v-.05h.02v-.05h.02v-.05h.02v-.05h.02v-.05h.02v-.05h.02v-.05h.02v-.05h.02v-.05h.02v-.05h.02v-.05h.02v-.05h.02v-.05h.02v-.05h.02v-.05h.02v-.05h.02v-.05h.02v-.05h.02v-.07h.02v-.05h.02v-.02h.02v-.05h.02v-.07h.02v-.05h.02v-.05h.02v-.05h.02v-.05h.02v-.05h.02v-.07h.02v-.05h.02v-.05h.02v-.05h.02v-.05h.02v-.05h.02v-.02h.02v-.05h.02v-.02h.02v-.02h.02v-.02h.02v-.02h.02v.02h.02v.1h.02v.07h.02v.07h.02v.05h.02v.1h.02v.07h.02v.07h.02v.1h.02v.07h.02v.07h.02v.05h.02v.07h.02v.05h.02v.07h.02v.05h.02v.05h.02v.07h.02v.05h.02v.05h.02v.07h.02v.05h.02v.07h.02v.05h.02v.07h.02v.05h.02v.02h.02v.05h.02v.07h.02v.05h.02v.05h.02v.05h.02v.05h.02v.05h.02v.05h.02v.07h.02v.05h.02v.07h.02v.05h.02v.05h.02v.07h.02v.05h.02v.05h.02v.05h.02v.05h.02v.05h.02v.05h.02v.05h.02v.05h.02v.05h.02v.07h.02v.05h.02v.05h.02v.05h.02v.05h.02v.05h.02v.05h.02v.02h.02v.05h.02v.05h.02v.05h.02v.05h.02v.07h.02v.05h.02v.05h.02v.05h.02v.05h.02v.05h.02v.05h.02v.1h.02v.15h.02v.46h.02v.31h.02v.39h.02v2.73h-.02v.12h-.02v.05h-2.23v-.02h-1.4v-.02h-.14v-.19h-.02v-3.75ZM9.01.74h.02v.05h.02v.05h.02v.02h.02v.05h.02v.02h.02v.05h.02v.05h.02v.05h.02v.05h.02v.05h.02v.05h.02v.05h.02v.05h.02v.05h.02v.07h.02v.05h.02v.05h.02v.05h.02v.07h.02v.05h.02v.05h.02v.05h.02v.07h.02v.05h.02v.05h.02v.05h.02v.05h.02v.05h.02v.05h.02v.05h.02v.07h.02v.05h.02v.05h.02v.05h.02v.05h.02v.07h.02v.05h.02v.05h.02v.05h.02v.07h.02v.05h.02v.05h.02v.05h.02v.05h.02v.05h.02v.07h.02v.05h.02v.07h.02v.05h.02v.07h.02v.07h.02v.05h.02v.05h.02v.07h.02v.05h.02v.07h.02v.05h.02v.05h.02v.07h.02v.05h.02v.05h.02v.07h.02v.05h.02v.05h.02v.07h.02v.05h.02v.07h.02v.05h.02v.05h.02v.07h.02v.05h.02v.07h.02v.05h.02v.07h.02v.05h.02v.07h.02v.07h.02v.07h.02v.12h.02v.1h.02v.43h-.02v.07h-.02v.07h-.02v.05h-.02v.07h-.02v.05h-.02v.02h-.05v-.05h-.02v-.05h-.02v-.07h-.02v-.05h-.02v-.02h-.02v-.05h-.02v-.07h-.02v-.05h-.02v-.05h-.02v-.05h-.02v-.05h-.02v-.05h-.02v-.07h-.02v-.05h-.02v-.05h-.02v-.05h-.02v-.05h-.02v-.05h-.02v-.05h-.02v-.02h-.02v-.05h-.02v-.05h-.02v-.05h-.02v-.05h-.02v-.05h-.02v-.05h-.02v-.07h-.02v-.05h-.02v-.07h-.02v-.05h-.02v-.07h-.02v-.05h-.02v-.05h-.02v-.05h-.02v-.07h-.02v-.05h-.02v-.05h-.02v-.05h-.02v-.05h-.02v-.05h-.02v-.07h-.02v-.05h-.02v-.05h-.02v-.07h-.02v-.05h-.02v-.05h-.02v-.07h-.02v-.05h-.02v-.05h-.02v-.05h-.02v-.07h-.02v-.05h-.02v-.05h-.02v-.07h-.02v-.05h-.02v-.05h-.02v-.07h-.02v-.05h-.02v-.07h-.02v-.07h-.02v-.07h-.02v-.05h-.02v-.05h-.02v-.07h-.02v-.05h-.02v-.05h-.02v-.02h-.02v-.05h-.02v-.05h-.02v-.05h-.02v-.07h-.02v-.19h-.02v.19h-.02v.1h-.02v.05h-.02v.07h-.02v.05h-.02v.05h-.02v.05h-.02v.02h-.02v.05h-.02v.05h-.02v.05h-.02v.05h-.02v.05h-.02v.07h-.02v.05h-.02v.05h-.02v.05h-.02v.05h-.02v.05h-.02v.05h-.02v.05h-.02v.07h-.02v.05h-.02v.05h-.02v.05h-.02v.05h-.02v.05h-.02v.05h-.02v.05h-.02v.05h-.02v.05h-.02v.05h-.02v.05h-.02v.05h-.02v.05h-.02v.05h-.02v.05h-.02v.05h-.02v.05h-.02v.05h-.02v.05h-.02v.05h-.02v.07h-.02v.02h-.02v.07h-.02v.05h-.02v.05h-.02v.05h-.02v.07h-.02v.05h-.02v.05h-.02v.05h-.02v.05h-.02v.07h-.02v.05h-.02v.05h-.02v.05h-.02v.05h-.02v.05h-.02v.05h-.02v.07h-.02v.05h-.02v.05h-.02v.05h-.02v.07h-.02v.05h-.02v.05h-.02v.05h-.02v.05h-.02v.05h-.02v.05h-.02v.05h-.02v.05h-.02v.05h-.02v.05h-.02v.02h-.02v.07h-.02v.02h-.02v.05h-.02v.02h-.02v.05h-.02v.05h-.02v.05h-.02v.05h-.02v.02h-.02v.02h-.02v.02h-.07v.02h-.07v.02h-.09v.02h-.12v.02h-.09v.02h-.26v.02h-.52v-.02h-.24v-.02h-.14v-.02h-.09v-.02h-.09v.02h.07v.02h.02v.02h.14v.02h.14v.02h.12v.02h.17v.02h.43v-.02h.19v-.02h.12v-.02h.12v-.02h.09v-.02h.05v-.02h.05v-.02h.07v-.02h.05v-.02h.07v-.02h.07v-.02h.02v.58h-.02v.63h-.02v.58h-.17v-.02h-.71v.02h-.83v.02h-.33v.02h-.19v-.02h-.02v-.15h-.02v-.31h-.02v-.19h-.02v-.34h-.02v-.34h-.02v-.36h-.02v-.05h-.02v-.07h.02v-.02h.05v.02h.05v-.02h.02v.02h.05v-.02h-.05v-.02h-.02v-.02h-.02v-.05h-.02v-.05h-.02v-.05h-.02v-.02h-.02v-.05h-.02v-.05h-.02v-.05h-.02v-.05h-.02v-.05h-.02v-.05h-.02v-.05h-.02v-.05h-.02v-.05h-.02v-.05h-.02v-.05h-.02v-.05h-.02v-.07h-.02v-.05h-.02v-.05h-.02v-.05h-.02v-.07h-.02v-.05h-.02v-.05h-.02v-.05h-.02v-.07h-.02v-.05h-.02v-.05h-.02v-.05h-.02v-.05h-.02v-.05h-.02v-.05h-.02v-.07h-.02v-.05h-.02v-.05h-.02v-.05h-.02v-.05h-.02v-.07h-.02v-.05h-.02v-.05h-.02v-.05h-.02v-.07h-.02v-.05h-.02v-.05h-.02v-.05h-.02v-.05h-.02v-.05h-.02v-.05h-.02v-.05h-.02v-.07h-.02v-.05h-.02v-.05h-.02v-.07h-.02v-.05h-.02v-.05h-.02v-.07h-.02v-.05h-.02v-.05h-.02v-.05h-.02v-.05h-.02v-.05h-.02v-.05h-.02v-.05h-.02v-.05h-.02v-.05h-.02v-.07h-.02v-.07h-.02v-.05h-.02v-.05h-.02v-.07h-.02v-.05h-.02v-.05h-.02v-.07h-.02v-.07h-.02v-.05h-.02v-.05h-.02v-.07h-.02v-.05h-.02v-.07h-.02v-.14h-.02v-.02h-.02v.17h-.02v.07h-.02v.05h-.02v.05h-.02v.05h-.02v.05h-.02v.07h-.02v.05h-.02v.05h-.02v.05h-.02v.05h-.02v.05h-.02v.05h-.02v.05h-.02v.05h-.02v.07h-.02v.05h-.02v.05h-.02v.05h-.02v.05h-.02v.05h-.02v.05h-.02v.05h-.02v.05h-.02v.05h-.02v.05h-.02v.05h-.02v.05h-.02v.07h-.02v.02h-.02v.05h-.02v.07h-.02v.05h-.02v.02h-.02v.05h-.02v.05h-.02v.05h-.02v.05h-.02v.05h-.02v.05h-.02v.05h-.02v.05h-.02v.05h-.02v.05h-.02v.05h-.02v.05h-.02v.05h-.02v.05h-.02v.05h-.02v.05h-.02v.05h-.02v.05h-.02v.05h-.02v.05h-.02v.05h-.02v.05h-.02v.05h-.02v.07h-.02v.05h-.02v.05h-.02v.05h-.02v.05h-.02v.07h-.02v.05h-.02v.05h-.02v.05h-.02v.05h-.02v.05h-.02v.05h-.02v.05h-.02v.05h-.02v.02h-.02v.05h-.02v.02h-.02v.05h-.02v.02h-.02v.05h-.02v.02h-.02v.02h-.02v.02h-.02v.02h-.02v.05h-.02v-.24h-.02v-.27h.02v-.19h.02v-.12h.02v-.1h.02v-.12h.02v-.1h.02v-.1h.02v-.05h.02v-.07h.02v-.07h.02v-.05h.02v-.05h.02v-.05h.02v-.07h.02v-.05h.02v-.05h.02v-.05h.02v-.05h.02v-.05h.02v-.05h.02v-.05h.02v-.05h.02v-.05h.02v-.05h.02v-.05h.02v-.05h.02v-.05h.02v-.05h.02v-.05h.02v-.05h.02v-.05h.02v-.07h.02v-.05h.02v-.05h.02v-.05h.02v-.07h.02v-.05h.02v-.05h.02v-.05h.02v-.07h.02v-.05h.02v-.05h.02v-.05h.02v-.05h.02v-.05h.02v-.05h.02v-.05h.02v-.05h.02v-.05h.02v-.05h.02v-.05h.02v-.05h.02v-.07h.02v-.02h.02v-.05h.02v-.05h.02v-.02h.02v-.05h.02v-.05h.02v-.05h.02v-.05h.02v-.02h.02v-.05h.02v-.02h.02v-.05h.02v-.05h.02v-.05h.02v-.05h.02v-.07h.02v-.15h-.02v.12h-.02v.07h-.02v.05h-.02v.05h-.02v.05h-.02v.02h-.02v.05h-.02v.05h-.02v.02h-.02v.05h-.02v.05h-.02v.05h-.02v.02h-.02v.05h-.02v.05h-.02v.05h-.02v.02h-.02v.05h-.02v.05h-.02v.05h-.02v.05h-.02v.05h-.02v.05h-.02v.05h-.02v.02h-.02v.05h-.02v.05h-.02v.05h-.02v.05h-.02v.05h-.02v.02h-.02v.05h-.02v.05h-.02v.05h-.02v.05h-.02v.05h-.02v.02h-.02v.05h-.02v.07h-.02v.05h-.02v.05h-.02v.05h-.02v.05h-.02v.05h-.02v.05h-.02v.05h-.02v.05h-.02v.05h-.02v.02h-.02v.05h-.02v.02h-.02v.05h-.02v.05h-.02v.02h-.02v.05h-.02v.02h-.02v.05h-.02v.02h-.02v.02h-.02v.02h-.02v.02h-.02v.02h-.02v.02h-.02v.07h.02v-.02h.02v-.02h.02v-.02h.02v-.02h.05v-.02h.02v-.02h.02v.05h-.02v.07h-.02v.05h-.02v.05h-.02v.05h-.02v.07h-.02v.02h-.02v.07h-.02v.12h-.02v.1h-.02v.07h-.02v.07h-.02v.07h-.02v.07h-.05v-.07h-.02v-.19h-.02v-.82h-.02v-1.72h.02v-1.4h.02v-.46h.02v-.02h.02v-.02h.57v.02h3.63v.02h1.87v-.02h.66v-.02h.4v-.02h.28v-.02h.4v-.02h2.23v.02h.02v.19h.02v.41h.02v3.84h-.02v.1h-.02v.02h-.02v-.02h-.02v-.02h-.02v-.07h-.02v-.07h-.02v-.05h-.02v-.05h-.02v-.07h-.02v-.05h-.02v-.07h-.02v-.05h-.02v-.05h-.02v-.05h-.02v-.07h-.02v-.05h-.02v-.05h-.02v-.05h-.02v-.07h-.02v-.07h-.02v-.05h-.02v-.05h-.02v-.1h-.02v-.05h-.02v-.05h-.02v-.07h-.02v-.05h-.02v-.07h-.02v-.05h-.02v-.05h-.02v-.07h-.02v-.05h-.02v-.05h-.02v-.05h-.02v-.07h-.02v-.05h-.02v-.05h-.02v-.05h-.02v-.05h-.02v-.07h-.02v-.05h-.02v-.07h-.02v-.05h-.02v-.05h-.02v-.05h-.02v-.07h-.02v-.05h-.02v-.05h-.02v-.07h-.02v-.05h-.02v-.05h-.02v-.07h-.02v-.05h-.02v-.05h-.02v-.05h-.02v-.07h-.02v-.05h-.02v-.05h-.02v-.05h-.02v-.05h-.02v-.05h-.02v-.05h-.02v-.05h-.02v-.05h-.02v-.05h-.02v-.05h-.02v-.05h-.02v-.05h-.02v-.02h-.02v-.05h-.02v-.05h-.02v-.05h-.02v-.05h-.02v-.02h-.02v-.07h-.02v-.05h-.02v-.05h-.02v-.1h-.02v-.05h-.02v-.12h-.02v-.05h-.02v-.1h-.02v-.02h-.02v-.02h-.12v.05h.02v.05h.02v.05h.02v.05ZM10.06.33h-1.61v.02H.81v.65h-.02v3.07h.02v2.83h-.02v2.46h.02v1.35h.02v.15h2.73v-.02h3.49v.02h3.87v-.02h.14v-.02h.02v-.02h.02v-4.74h-.02v-.63h.02v-.97h.02V.67h-.02v-.27h-.02v-.07h-.09v-.02h-.92v.02Z"/>
      <polygon class="st15" points="5.1 .88 5.1 .91 5.08 .91 5.08 .93 5.05 .93 5.05 .98 5.03 .98 5.03 1.05 5 1.05 5 2.99 5.03 2.99 5.03 3.35 5.05 3.35 5.05 3.52 5.08 3.52 5.08 3.62 5.1 3.62 5.1 3.76 5.12 3.76 5.12 3.88 5.15 3.88 5.15 4.03 5.17 4.03 5.17 4.1 5.19 4.1 5.19 4.2 5.22 4.2 5.22 4.32 5.24 4.32 5.24 4.44 5.27 4.44 5.27 4.53 5.29 4.53 5.29 4.58 5.31 4.58 5.31 4.68 5.34 4.68 5.34 4.78 5.36 4.78 5.36 4.9 5.38 4.9 5.38 5.04 5.36 5.04 5.36 5.07 5.34 5.07 5.34 5.09 5.31 5.09 5.31 5.11 5.29 5.11 5.29 5.23 5.27 5.23 5.27 5.26 5.24 5.26 5.24 5.28 5.22 5.28 5.22 5.36 5.19 5.36 5.19 5.4 5.17 5.4 5.17 5.38 5.12 5.38 5.12 5.33 5.1 5.33 5.1 5.31 5.05 5.31 5.05 5.28 5.03 5.28 5.03 5.23 5 5.23 5 5.19 4.98 5.19 4.98 5.14 4.96 5.14 4.96 5.11 4.93 5.11 4.93 5.07 4.91 5.07 4.91 4.99 4.89 4.99 4.89 4.94 4.86 4.94 4.86 4.9 4.84 4.9 4.84 4.85 4.81 4.85 4.81 4.78 4.79 4.78 4.79 4.73 4.77 4.73 4.77 4.68 4.74 4.68 4.74 4.63 4.72 4.63 4.72 4.58 4.7 4.58 4.7 4.53 4.67 4.53 4.67 4.49 4.65 4.49 4.65 4.46 4.63 4.46 4.63 4.36 4.6 4.36 4.6 4.32 4.58 4.32 4.58 4.27 4.55 4.27 4.55 4.2 4.53 4.2 4.53 4.17 4.51 4.17 4.51 4.1 4.48 4.1 4.48 4.07 4.46 4.07 4.46 4 4.44 4 4.44 3.95 4.41 3.95 4.41 3.91 4.39 3.91 4.39 3.86 4.36 3.86 4.36 3.78 4.34 3.78 4.34 3.74 4.32 3.74 4.32 3.69 4.29 3.69 4.29 3.64 4.27 3.64 4.27 3.59 4.25 3.59 4.25 3.54 4.22 3.54 4.22 3.47 4.2 3.47 4.2 3.42 4.17 3.42 4.17 3.37 4.15 3.37 4.15 3.33 4.13 3.33 4.13 3.25 4.1 3.25 4.1 3.2 4.08 3.2 4.08 3.13 4.06 3.13 4.06 3.11 4.03 3.11 4.03 3.04 4.01 3.04 4.01 2.99 3.98 2.99 3.98 2.94 3.96 2.94 3.96 2.89 3.94 2.89 3.94 2.82 3.91 2.82 3.91 2.77 3.89 2.77 3.89 2.72 3.87 2.72 3.87 2.67 3.84 2.67 3.84 2.62 3.82 2.62 3.82 2.58 3.8 2.58 3.8 2.53 3.77 2.53 3.77 2.48 3.75 2.48 3.75 2.43 3.72 2.43 3.72 2.38 3.7 2.38 3.7 2.33 3.68 2.33 3.68 2.26 3.65 2.26 3.65 2.21 3.63 2.21 3.63 2.17 3.61 2.17 3.61 2.12 3.58 2.12 3.58 2.07 3.56 2.07 3.56 2.02 3.53 2.02 3.53 1.97 3.51 1.97 3.51 1.92 3.49 1.92 3.49 1.88 3.46 1.88 3.46 1.83 3.44 1.83 3.44 1.8 3.42 1.8 3.42 1.75 3.39 1.75 3.39 1.71 3.37 1.71 3.37 1.68 3.34 1.68 3.34 1.66 3.32 1.66 3.32 1.61 3.3 1.61 3.3 1.56 3.27 1.56 3.27 1.54 3.25 1.54 3.25 1.51 3.23 1.51 3.23 1.49 3.2 1.49 3.2 1.46 3.18 1.46 3.18 1.44 3.15 1.44 3.15 1.42 3.13 1.42 3.13 1.39 3.11 1.39 3.11 1.37 3.08 1.37 3.08 1.34 3.06 1.34 3.06 1.32 3.04 1.32 3.04 1.3 3.01 1.3 3.01 1.32 3.04 1.32 3.04 1.34 3.06 1.34 3.06 1.37 3.08 1.37 3.08 1.39 3.11 1.39 3.11 1.44 3.13 1.44 3.13 1.46 3.15 1.46 3.15 1.49 3.18 1.49 3.18 1.51 3.2 1.51 3.2 1.54 3.23 1.54 3.23 1.59 3.25 1.59 3.25 1.61 3.27 1.61 3.27 1.63 3.3 1.63 3.3 1.68 3.32 1.68 3.32 1.71 3.34 1.71 3.34 1.75 3.37 1.75 3.37 1.8 3.39 1.8 3.39 1.85 3.42 1.85 3.42 1.9 3.44 1.9 3.44 1.95 3.46 1.95 3.46 2 3.49 2 3.49 2.04 3.51 2.04 3.51 2.09 3.53 2.09 3.53 2.12 3.56 2.12 3.56 2.17 3.58 2.17 3.58 2.21 3.61 2.21 3.61 2.26 3.63 2.26 3.63 2.31 3.65 2.31 3.65 2.36 3.68 2.36 3.68 2.41 3.7 2.41 3.7 2.48 3.72 2.48 3.72 2.53 3.75 2.53 3.75 2.58 3.77 2.58 3.77 2.62 3.8 2.62 3.8 2.7 3.82 2.7 3.82 2.75 3.84 2.75 3.84 2.79 3.87 2.79 3.87 2.87 3.89 2.87 3.89 2.91 3.91 2.91 3.91 2.96 3.94 2.96 3.94 3.01 3.96 3.01 3.96 3.06 3.98 3.06 3.98 3.11 4.01 3.11 4.01 3.16 4.03 3.16 4.03 3.2 4.06 3.2 4.06 3.28 4.08 3.28 4.08 3.33 4.1 3.33 4.1 3.37 4.13 3.37 4.13 3.42 4.15 3.42 4.15 3.49 4.17 3.49 4.17 3.54 4.2 3.54 4.2 3.62 4.22 3.62 4.22 3.66 4.25 3.66 4.25 3.74 4.27 3.74 4.27 3.78 4.29 3.78 4.29 3.83 4.32 3.83 4.32 3.91 4.34 3.91 4.34 3.95 4.36 3.95 4.36 4 4.39 4 4.39 4.05 4.41 4.05 4.41 4.1 4.44 4.1 4.44 4.15 4.46 4.15 4.46 4.2 4.48 4.2 4.48 4.24 4.51 4.24 4.51 4.32 4.53 4.32 4.53 4.36 4.55 4.36 4.55 4.41 4.58 4.41 4.58 4.46 4.6 4.46 4.6 4.51 4.63 4.51 4.63 4.56 4.65 4.56 4.65 4.61 4.67 4.61 4.67 4.63 4.7 4.63 4.7 4.68 4.72 4.68 4.72 4.75 4.74 4.75 4.74 4.8 4.77 4.8 4.77 4.85 4.79 4.85 4.79 4.9 4.81 4.9 4.81 4.97 4.84 4.97 4.84 5.02 4.86 5.02 4.86 5.07 4.89 5.07 4.89 5.11 4.91 5.11 4.91 5.16 4.93 5.16 4.93 5.21 4.96 5.21 4.96 5.26 4.98 5.26 4.98 5.31 5 5.31 5 5.36 5.03 5.36 5.03 5.4 5.05 5.4 5.05 5.43 5.08 5.43 5.08 5.48 5.1 5.48 5.1 5.5 5.12 5.5 5.12 5.55 5.15 5.55 5.15 5.57 5.17 5.57 5.17 5.62 5.19 5.62 5.19 5.65 5.22 5.65 5.22 5.67 5.24 5.67 5.24 5.69 5.27 5.69 5.27 5.72 5.29 5.72 5.29 5.74 5.31 5.74 5.31 5.77 5.34 5.77 5.34 5.79 5.36 5.79 5.36 5.81 5.38 5.81 5.38 5.84 5.41 5.84 5.41 5.86 5.43 5.86 5.43 5.89 5.48 5.89 5.48 5.91 5.53 5.91 5.53 5.94 5.57 5.94 5.57 5.96 5.67 5.96 5.67 5.98 5.81 5.98 5.81 6.01 6.21 6.01 6.21 5.98 6.38 5.98 6.38 5.96 6.5 5.96 6.5 5.94 6.59 5.94 6.59 5.91 6.64 5.91 6.64 5.89 6.67 5.89 6.67 5.86 6.69 5.86 6.69 5.84 6.71 5.84 6.71 5.81 6.74 5.81 6.74 5.77 6.76 5.77 6.76 5.74 6.78 5.74 6.78 5.69 6.81 5.69 6.81 5.65 6.83 5.65 6.83 5.62 6.86 5.62 6.86 5.57 6.88 5.57 6.88 5.52 6.9 5.52 6.9 5.48 6.93 5.48 6.93 5.43 6.95 5.43 6.95 5.4 6.97 5.4 6.97 5.36 7 5.36 7 5.31 7.02 5.31 7.02 5.26 7.04 5.26 7.04 5.21 7.07 5.21 7.07 5.16 7.09 5.16 7.09 5.11 7.12 5.11 7.12 5.07 7.14 5.07 7.14 5.02 7.16 5.02 7.16 4.97 7.19 4.97 7.19 4.92 7.21 4.92 7.21 4.87 7.23 4.87 7.23 4.8 7.26 4.8 7.26 4.78 7.28 4.78 7.28 4.7 7.31 4.7 7.31 4.65 7.33 4.65 7.33 4.61 7.35 4.61 7.35 4.56 7.38 4.56 7.38 4.51 7.4 4.51 7.4 4.46 7.42 4.46 7.42 4.41 7.45 4.41 7.45 4.36 7.47 4.36 7.47 4.32 7.5 4.32 7.5 4.27 7.52 4.27 7.52 4.22 7.54 4.22 7.54 4.17 7.57 4.17 7.57 4.1 7.59 4.1 7.59 4.05 7.61 4.05 7.61 4 7.64 4 7.64 3.98 7.66 3.98 7.66 3.91 7.69 3.91 7.69 3.88 7.71 3.88 7.71 3.83 7.73 3.83 7.73 3.78 7.76 3.78 7.76 3.71 7.78 3.71 7.78 3.69 7.8 3.69 7.8 3.62 7.83 3.62 7.83 3.57 7.85 3.57 7.85 3.52 7.88 3.52 7.88 3.45 7.9 3.45 7.9 3.4 7.92 3.4 7.92 3.35 7.95 3.35 7.95 3.28 7.97 3.28 7.97 3.23 7.99 3.23 7.99 3.18 8.02 3.18 8.02 3.13 8.04 3.13 8.04 3.06 8.06 3.06 8.06 3.01 8.09 3.01 8.09 2.96 8.11 2.96 8.11 2.91 8.14 2.91 8.14 2.87 8.16 2.87 8.16 2.79 8.18 2.79 8.18 2.77 8.21 2.77 8.21 2.7 8.23 2.7 8.23 2.62 8.25 2.62 8.25 2.58 8.28 2.58 8.28 2.53 8.3 2.53 8.3 2.46 8.33 2.46 8.33 2.41 8.35 2.41 8.35 2.36 8.37 2.36 8.37 2.31 8.4 2.31 8.4 2.24 8.42 2.24 8.42 2.19 8.44 2.19 8.44 2.14 8.47 2.14 8.47 2.09 8.49 2.09 8.49 2.04 8.52 2.04 8.52 2 8.54 2 8.54 1.92 8.56 1.92 8.56 1.88 8.59 1.88 8.59 1.83 8.61 1.83 8.61 1.75 8.63 1.75 8.63 1.71 8.66 1.71 8.66 1.66 8.68 1.66 8.68 1.59 8.71 1.59 8.71 1.54 8.73 1.54 8.73 1.46 8.75 1.46 8.75 1.39 8.78 1.39 8.78 1.34 8.8 1.34 8.8 1.27 8.82 1.27 8.82 1.17 8.85 1.17 8.85 1.1 8.87 1.1 8.87 1.05 8.9 1.05 8.9 1.01 8.92 1.01 8.92 .98 8.94 .98 8.94 .96 8.97 .96 8.97 .93 9.01 .93 9.01 .91 9.04 .91 9.04 .88 9.11 .88 9.11 .86 9.08 .86 9.08 .84 9.06 .84 9.06 .79 9.04 .79 9.04 .74 9.01 .74 9.01 .79 8.82 .79 8.82 .76 8.73 .76 8.73 .79 8.59 .79 8.59 .81 8.3 .81 8.3 .84 7.04 .84 7.04 .86 5.17 .86 5.17 .88 5.1 .88"/>
      <polygon class="st24" points="5.1 .88 5.05 .88 5.05 .91 5.03 .91 5.03 .93 5 .93 5 .98 4.98 .98 4.98 2.84 5 2.84 5 1.05 5.03 1.05 5.03 .98 5.05 .98 5.05 .93 5.08 .93 5.08 .91 5.1 .91 5.1 .88 5.17 .88 5.17 .86 7.04 .86 7.04 .84 8.3 .84 8.3 .81 8.59 .81 8.59 .79 8.73 .79 8.73 .76 8.82 .76 8.82 .79 9.01 .79 9.01 .69 8.99 .69 8.99 .64 8.97 .64 8.97 .59 8.94 .59 8.94 .55 9.06 .55 9.06 .57 9.08 .57 9.08 .55 9.11 .55 9.11 .52 9.16 .52 9.16 .55 9.18 .55 9.18 .52 9.25 .52 9.25 .5 9.32 .5 9.32 .47 9.89 .47 9.89 .45 10.13 .45 10.13 .43 8.75 .43 8.75 .45 8.35 .45 8.35 .47 8.06 .47 8.06 .5 7.66 .5 7.66 .52 7 .52 7 .55 5.12 .55 5.12 .52 1.49 .52 1.49 .5 .92 .5 .92 .52 .9 .52 .9 .55 .88 .55 .88 1.01 .85 1.01 .85 2.41 .83 2.41 .83 4.12 .85 4.12 .85 4.94 .88 4.94 .88 5.14 .9 5.14 .9 5.21 .95 5.21 .95 5.14 .97 5.14 .97 5.07 1 5.07 1 4.99 1.02 4.99 1.02 4.92 1.04 4.92 1.04 4.82 1.07 4.82 1.07 4.7 1.09 4.7 1.09 4.63 1.11 4.63 1.11 4.61 1.14 4.61 1.14 4.53 1.16 4.53 1.16 4.49 1.19 4.49 1.19 4.44 1.21 4.44 1.21 4.39 1.23 4.39 1.23 4.32 1.26 4.32 1.26 4.27 1.23 4.27 1.23 4.29 1.21 4.29 1.21 4.32 1.16 4.32 1.16 4.34 1.14 4.34 1.14 4.36 1.11 4.36 1.11 4.39 1.09 4.39 1.09 4.41 1.07 4.41 1.07 4.34 1.09 4.34 1.09 4.32 1.11 4.32 1.11 4.29 1.14 4.29 1.14 4.27 1.16 4.27 1.16 4.24 1.19 4.24 1.19 4.22 1.21 4.22 1.21 4.2 1.23 4.2 1.23 4.15 1.26 4.15 1.26 4.12 1.28 4.12 1.28 4.07 1.3 4.07 1.3 4.05 1.33 4.05 1.33 4 1.35 4 1.35 3.95 1.38 3.95 1.38 3.93 1.4 3.93 1.4 3.88 1.42 3.88 1.42 3.86 1.45 3.86 1.45 3.81 1.47 3.81 1.47 3.76 1.49 3.76 1.49 3.71 1.52 3.71 1.52 3.66 1.54 3.66 1.54 3.62 1.57 3.62 1.57 3.57 1.59 3.57 1.59 3.52 1.61 3.52 1.61 3.47 1.64 3.47 1.64 3.42 1.66 3.42 1.66 3.35 1.68 3.35 1.68 3.3 1.71 3.3 1.71 3.28 1.73 3.28 1.73 3.23 1.75 3.23 1.75 3.18 1.78 3.18 1.78 3.13 1.8 3.13 1.8 3.08 1.83 3.08 1.83 3.04 1.85 3.04 1.85 3.01 1.87 3.01 1.87 2.96 1.9 2.96 1.9 2.91 1.92 2.91 1.92 2.87 1.94 2.87 1.94 2.82 1.97 2.82 1.97 2.77 1.99 2.77 1.99 2.75 2.02 2.75 2.02 2.7 2.04 2.7 2.04 2.65 2.06 2.65 2.06 2.6 2.09 2.6 2.09 2.55 2.11 2.55 2.11 2.5 2.13 2.5 2.13 2.46 2.16 2.46 2.16 2.41 2.18 2.41 2.18 2.38 2.21 2.38 2.21 2.33 2.23 2.33 2.23 2.29 2.25 2.29 2.25 2.24 2.28 2.24 2.28 2.21 2.3 2.21 2.3 2.17 2.32 2.17 2.32 2.12 2.35 2.12 2.35 2.07 2.37 2.07 2.37 2.04 2.4 2.04 2.4 2 2.42 2 2.42 1.95 2.44 1.95 2.44 1.92 2.47 1.92 2.47 1.88 2.49 1.88 2.49 1.83 2.51 1.83 2.51 1.78 2.54 1.78 2.54 1.71 2.56 1.71 2.56 1.56 2.54 1.56 2.54 1.51 2.51 1.51 2.51 1.49 2.49 1.49 2.49 1.46 2.47 1.46 2.47 1.42 2.44 1.42 2.44 1.39 2.42 1.39 2.42 1.37 2.4 1.37 2.4 1.34 2.37 1.34 2.37 1.32 2.35 1.32 2.35 1.3 2.32 1.3 2.32 1.27 2.3 1.27 2.3 1.25 2.28 1.25 2.28 1.22 2.25 1.22 2.25 1.2 2.23 1.2 2.23 1.17 2.21 1.17 2.21 1.15 2.18 1.15 2.18 1.13 2.16 1.13 2.16 1.1 2.13 1.1 2.13 1.08 2.11 1.08 2.11 1.05 2.06 1.05 2.06 1.03 2.04 1.03 2.04 1.01 1.99 1.01 1.99 .98 1.97 .98 1.97 .96 1.92 .96 1.92 .93 1.9 .93 1.9 .91 1.85 .91 1.85 .88 1.8 .88 1.8 .86 1.73 .86 1.73 .84 1.68 .84 1.68 .81 1.59 .81 1.59 .79 1.54 .79 1.54 .76 1.52 .76 1.52 .72 1.54 .72 1.54 .69 1.49 .69 1.49 .67 1.57 .67 1.57 .62 1.59 .62 1.59 .57 1.57 .57 1.57 .55 3.56 .55 3.56 .57 5.69 .57 5.69 .59 6.31 .59 6.31 .62 6.29 .62 6.29 .64 6.48 .64 6.48 .67 6.4 .67 6.4 .69 6.5 .69 6.5 .72 6.45 .72 6.45 .74 6.52 .74 6.52 .79 6.5 .79 6.5 .81 6.71 .81 6.71 .84 5.15 .84 5.15 .86 5.1 .86 5.1 .88"/>
      <polygon class="st23" points="9.27 1.17 9.3 1.17 9.3 1.2 9.32 1.2 9.32 1.25 9.35 1.25 9.35 1.3 9.37 1.3 9.37 1.34 9.39 1.34 9.39 1.39 9.42 1.39 9.42 1.42 9.44 1.42 9.44 1.46 9.46 1.46 9.46 1.51 9.49 1.51 9.49 1.56 9.51 1.56 9.51 1.61 9.54 1.61 9.54 1.66 9.56 1.66 9.56 1.71 9.58 1.71 9.58 1.75 9.61 1.75 9.61 1.8 9.63 1.8 9.63 1.85 9.65 1.85 9.65 1.9 9.68 1.9 9.68 1.95 9.7 1.95 9.7 2 9.73 2 9.73 2.07 9.75 2.07 9.75 2.12 9.77 2.12 9.77 2.17 9.8 2.17 9.8 2.21 9.82 2.21 9.82 2.29 9.84 2.29 9.84 2.33 9.87 2.33 9.87 2.38 9.89 2.38 9.89 2.46 9.92 2.46 9.92 2.5 9.94 2.5 9.94 2.55 9.96 2.55 9.96 2.62 9.99 2.62 9.99 2.67 10.01 2.67 10.01 2.72 10.03 2.72 10.03 2.77 10.06 2.77 10.06 2.84 10.08 2.84 10.08 2.89 10.1 2.89 10.1 2.96 10.13 2.96 10.13 3.01 10.15 3.01 10.15 3.06 10.18 3.06 10.18 3.11 10.2 3.11 10.2 3.16 10.22 3.16 10.22 3.23 10.25 3.23 10.25 3.28 10.27 3.28 10.27 3.33 10.29 3.33 10.29 3.37 10.32 3.37 10.32 3.45 10.34 3.45 10.34 3.49 10.37 3.49 10.37 3.54 10.39 3.54 10.39 3.62 10.41 3.62 10.41 3.66 10.44 3.66 10.44 3.74 10.46 3.74 10.46 3.78 10.48 3.78 10.48 3.83 10.51 3.83 10.51 3.93 10.53 3.93 10.53 3.98 10.56 3.98 10.56 4.03 10.58 4.03 10.58 4.1 10.6 4.1 10.6 4.17 10.63 4.17 10.63 4.22 10.65 4.22 10.65 4.27 10.67 4.27 10.67 4.32 10.7 4.32 10.7 4.39 10.72 4.39 10.72 4.44 10.75 4.44 10.75 4.49 10.77 4.49 10.77 4.53 10.79 4.53 10.79 4.61 10.82 4.61 10.82 4.65 10.84 4.65 10.84 4.73 10.86 4.73 10.86 4.78 10.89 4.78 10.89 4.82 10.91 4.82 10.91 4.9 10.94 4.9 10.94 4.97 10.96 4.97 10.96 4.99 10.98 4.99 10.98 5.02 11.01 5.02 11.01 4.99 11.03 4.99 11.03 4.9 11.05 4.9 11.05 1.05 11.03 1.05 11.03 .64 11.01 .64 11.01 .45 10.98 .45 10.98 .43 10.13 .43 10.13 .45 9.89 .45 9.89 .47 9.32 .47 9.32 .5 9.25 .5 9.25 .52 9.18 .52 9.18 .55 9.16 .55 9.16 .52 9.11 .52 9.11 .55 9.08 .55 9.08 .59 9.11 .59 9.11 .69 9.13 .69 9.13 .74 9.16 .74 9.16 .86 9.18 .86 9.18 .91 9.2 .91 9.2 1.01 9.23 1.01 9.23 1.05 9.25 1.05 9.25 1.1 9.27 1.1 9.27 1.17"/>
      <polygon class="st15" points="5.19 6.49 5.15 6.49 5.15 6.47 5.08 6.47 5.08 6.44 5 6.44 5 6.42 4.96 6.42 4.96 6.39 4.86 6.39 4.86 6.37 4.84 6.37 4.84 6.39 4.79 6.39 4.79 6.37 4.74 6.37 4.74 6.39 4.72 6.39 4.72 6.47 4.74 6.47 4.74 6.52 4.77 6.52 4.77 6.88 4.79 6.88 4.79 7.22 4.81 7.22 4.81 7.55 4.84 7.55 4.84 7.75 4.86 7.75 4.86 8.06 4.89 8.06 4.89 8.21 4.91 8.21 4.91 8.23 5.1 8.23 5.1 8.21 5.43 8.21 5.43 8.18 6.26 8.18 6.26 8.16 6.97 8.16 6.97 8.18 7.14 8.18 7.14 7.6 7.16 7.6 7.16 6.97 7.19 6.97 7.19 6.39 7.16 6.39 7.16 6.42 7.09 6.42 7.09 6.44 7.02 6.44 7.02 6.47 6.97 6.47 6.97 6.49 6.9 6.49 6.9 6.52 6.86 6.52 6.86 6.54 6.81 6.54 6.81 6.56 6.71 6.56 6.71 6.59 6.59 6.59 6.59 6.61 6.48 6.61 6.48 6.64 6.29 6.64 6.29 6.66 5.86 6.66 5.86 6.64 5.69 6.64 5.69 6.61 5.57 6.61 5.57 6.59 5.43 6.59 5.43 6.56 5.29 6.56 5.29 6.54 5.27 6.54 5.27 6.52 5.19 6.52 5.19 6.49"/>
      <polygon class="st38" points="8.04 8.23 7.99 8.23 7.99 8.28 7.97 8.28 7.97 8.57 7.95 8.57 7.95 9.68 7.97 9.68 7.97 9.9 8.02 9.9 8.02 9.92 8.54 9.92 8.54 9.95 9.01 9.95 9.01 9.97 9.8 9.97 9.8 9.95 9.94 9.95 9.94 9.92 10.06 9.92 10.06 9.9 10.08 9.9 10.08 8.59 10.06 8.59 10.06 8.4 10.03 8.4 10.03 8.33 10.01 8.33 10.01 8.28 9.99 8.28 9.99 8.26 9.92 8.26 9.92 8.23 9.65 8.23 9.65 8.21 8.04 8.21 8.04 8.23"/>
      <polygon class="st38" points="1.85 8.26 1.83 8.26 1.83 8.42 1.8 8.42 1.8 9.54 1.83 9.54 1.83 9.9 1.85 9.9 1.85 9.92 2.73 9.92 2.73 9.95 3.65 9.95 3.65 9.92 3.82 9.92 3.82 9.9 3.84 9.9 3.84 9.83 3.87 9.83 3.87 9.7 3.89 9.7 3.89 9.46 3.91 9.46 3.91 8.81 3.89 8.81 3.89 8.59 3.87 8.59 3.87 8.42 3.84 8.42 3.84 8.28 3.82 8.28 3.82 8.23 3.68 8.23 3.68 8.21 1.85 8.21 1.85 8.26"/>
      <polygon class="st38" points="9.11 5.36 8.75 5.36 8.75 5.38 8.42 5.38 8.42 5.4 8.18 5.4 8.18 5.43 8.04 5.43 8.04 5.45 7.99 5.45 7.99 5.55 7.97 5.55 7.97 5.6 7.95 5.6 7.95 5.69 7.92 5.69 7.92 5.74 7.9 5.74 7.9 5.79 7.88 5.79 7.88 6.23 7.9 6.23 7.9 6.32 7.92 6.32 7.92 6.54 7.95 6.54 7.95 6.68 7.97 6.68 7.97 6.78 7.99 6.78 7.99 6.85 8.02 6.85 8.02 6.88 8.04 6.88 8.04 6.93 8.06 6.93 8.06 6.97 8.09 6.97 8.09 7 8.11 7 8.11 7.02 8.14 7.02 8.14 7.05 8.16 7.05 8.16 7.07 8.21 7.07 8.21 7.1 8.35 7.1 8.35 7.12 9.39 7.12 9.39 7.1 9.56 7.1 9.56 7.07 9.7 7.07 9.7 7.05 9.77 7.05 9.77 7.02 9.84 7.02 9.84 7 9.89 7 9.89 6.97 9.94 6.97 9.94 6.95 9.96 6.95 9.96 6.93 9.99 6.93 9.99 6.9 10.01 6.9 10.01 6.81 10.03 6.81 10.03 6.68 10.06 6.68 10.06 5.72 10.03 5.72 10.03 5.62 10.01 5.62 10.01 5.57 9.99 5.57 9.99 5.55 9.96 5.55 9.96 5.52 9.94 5.52 9.94 5.5 9.92 5.5 9.92 5.48 9.87 5.48 9.87 5.45 9.82 5.45 9.82 5.43 9.77 5.43 9.77 5.4 9.7 5.4 9.7 5.38 9.61 5.38 9.61 5.36 9.49 5.36 9.49 5.33 9.11 5.33 9.11 5.36"/>
      <polygon class="st23" points="3.32 1.63 3.32 1.66 3.34 1.66 3.34 1.68 3.37 1.68 3.37 1.71 3.39 1.71 3.39 1.75 3.42 1.75 3.42 1.8 3.44 1.8 3.44 1.83 3.46 1.83 3.46 1.88 3.49 1.88 3.49 1.92 3.51 1.92 3.51 1.97 3.53 1.97 3.53 2.02 3.56 2.02 3.56 2.07 3.58 2.07 3.58 2.12 3.61 2.12 3.61 2.17 3.63 2.17 3.63 2.21 3.65 2.21 3.65 2.26 3.68 2.26 3.68 2.33 3.7 2.33 3.7 2.38 3.72 2.38 3.72 2.43 3.75 2.43 3.75 2.48 3.77 2.48 3.77 2.53 3.8 2.53 3.8 2.58 3.82 2.58 3.82 2.62 3.84 2.62 3.84 2.67 3.87 2.67 3.87 2.72 3.89 2.72 3.89 2.77 3.91 2.77 3.91 2.82 3.94 2.82 3.94 2.89 3.96 2.89 3.96 2.94 3.98 2.94 3.98 2.99 4.01 2.99 4.01 3.04 4.03 3.04 4.03 3.11 4.06 3.11 4.06 3.13 4.08 3.13 4.08 3.2 4.1 3.2 4.1 3.25 4.13 3.25 4.13 3.28 4.15 3.28 4.15 3.3 4.17 3.3 4.17 3.35 4.2 3.35 4.2 3.4 4.22 3.4 4.22 3.47 4.25 3.47 4.25 3.49 4.27 3.49 4.27 3.57 4.34 3.57 4.34 3.59 4.36 3.59 4.36 3.66 4.39 3.66 4.39 3.71 4.41 3.71 4.41 3.74 4.44 3.74 4.44 3.78 4.46 3.78 4.46 3.81 4.48 3.81 4.48 3.83 4.53 3.83 4.53 3.86 4.58 3.86 4.58 3.88 4.65 3.88 4.65 3.91 4.7 3.91 4.7 3.88 4.77 3.88 4.77 3.86 4.96 3.86 4.96 3.88 5.1 3.88 5.1 3.62 5.08 3.62 5.08 3.52 5.05 3.52 5.05 3.35 5.03 3.35 5.03 2.99 5 2.99 5 2.84 4.98 2.84 4.98 .98 5 .98 5 .93 5.03 .93 5.03 .91 5.05 .91 5.05 .88 5.1 .88 5.1 .86 5.15 .86 5.15 .84 6.71 .84 6.71 .81 6.5 .81 6.5 .79 6.52 .79 6.52 .74 6.45 .74 6.45 .72 6.5 .72 6.5 .69 6.4 .69 6.4 .67 6.48 .67 6.48 .64 6.29 .64 6.29 .62 6.31 .62 6.31 .59 5.69 .59 5.69 .57 4.81 .57 4.81 .59 5.03 .59 5.03 .62 5.08 .62 5.08 .64 5.12 .64 5.12 .74 5.1 .74 5.1 .79 5.08 .79 5.08 .81 5.05 .81 5.05 .84 5.03 .84 5.03 .86 4.96 .86 4.96 .88 4.91 .88 4.91 .91 4.86 .91 4.86 .93 4.84 .93 4.84 .96 4.81 .96 4.81 .98 4.77 .98 4.77 1.01 4.74 1.01 4.74 1.03 4.72 1.03 4.72 1.05 4.67 1.05 4.67 1.08 4.55 1.08 4.55 1.1 4.48 1.1 4.48 1.13 4.41 1.13 4.41 1.15 4.34 1.15 4.34 1.17 4.29 1.17 4.29 1.2 4.25 1.2 4.25 1.22 4.2 1.22 4.2 1.25 4.15 1.25 4.15 1.27 4.13 1.27 4.13 1.3 4.1 1.3 4.1 1.32 4.06 1.32 4.06 1.34 4.01 1.34 4.01 1.37 3.98 1.37 3.98 1.39 3.94 1.39 3.94 1.42 3.89 1.42 3.89 1.44 3.84 1.44 3.84 1.46 3.46 1.46 3.46 1.49 3.44 1.49 3.44 1.51 3.42 1.51 3.42 1.54 3.39 1.54 3.39 1.56 3.37 1.56 3.37 1.61 3.34 1.61 3.34 1.63 3.32 1.63"/>
      <polygon class="st38" points="2.4 5.4 2.21 5.4 2.21 5.43 2.02 5.43 2.02 5.45 1.92 5.45 1.92 5.48 1.87 5.48 1.87 5.5 1.85 5.5 1.85 5.52 1.83 5.52 1.83 5.55 1.8 5.55 1.8 5.65 1.78 5.65 1.78 6.13 1.8 6.13 1.8 6.39 1.83 6.39 1.83 6.64 1.85 6.64 1.85 6.73 1.87 6.73 1.87 6.88 1.9 6.88 1.9 6.95 1.92 6.95 1.92 6.97 1.94 6.97 1.94 7 1.99 7 1.99 7.02 2.02 7.02 2.02 7.05 2.06 7.05 2.06 7.07 2.13 7.07 2.13 7.1 3.39 7.1 3.39 7.07 3.49 7.07 3.49 7.05 3.61 7.05 3.61 7.02 3.7 7.02 3.7 7 3.77 7 3.77 6.97 3.82 6.97 3.82 6.95 3.84 6.95 3.84 6.93 3.87 6.93 3.87 6.88 3.89 6.88 3.89 6.83 3.91 6.83 3.91 6.73 3.94 6.73 3.94 6.42 3.96 6.42 3.96 6.06 3.94 6.06 3.94 5.91 3.91 5.91 3.91 5.81 3.89 5.81 3.89 5.72 3.87 5.72 3.87 5.65 3.84 5.65 3.84 5.6 3.82 5.6 3.82 5.57 3.8 5.57 3.8 5.55 3.77 5.55 3.77 5.52 3.72 5.52 3.72 5.5 3.68 5.5 3.68 5.48 3.63 5.48 3.63 5.45 3.58 5.45 3.58 5.43 3.51 5.43 3.51 5.4 3.39 5.4 3.39 5.38 2.4 5.38 2.4 5.4"/>
      <polygon class="st41" points="5.17 5.6 5.15 5.6 5.15 5.57 5.12 5.57 5.12 5.55 5.1 5.55 5.1 5.57 5.08 5.57 5.08 5.52 5.1 5.52 5.1 5.5 5.08 5.5 5.08 5.45 5.05 5.45 5.05 5.43 5.03 5.43 5.03 5.38 5 5.38 5 5.36 4.98 5.36 4.98 5.31 4.96 5.31 4.96 5.36 4.98 5.36 4.98 5.38 5 5.38 5 5.43 5.03 5.43 5.03 5.45 5.05 5.45 5.05 5.5 5.08 5.5 5.08 5.52 5.03 5.52 5.03 5.5 5 5.5 5 5.45 4.98 5.45 4.98 5.43 4.96 5.43 4.96 5.38 4.91 5.38 4.91 5.36 4.89 5.36 4.89 5.33 4.86 5.33 4.86 5.31 4.81 5.31 4.81 5.45 4.77 5.45 4.77 5.48 4.6 5.48 4.6 5.5 4.58 5.5 4.58 5.52 4.55 5.52 4.55 5.55 4.53 5.55 4.53 5.57 4.55 5.57 4.55 5.6 4.51 5.6 4.51 5.57 4.48 5.57 4.48 5.55 4.46 5.55 4.46 5.57 4.48 5.57 4.48 5.67 4.51 5.67 4.51 5.72 4.53 5.72 4.53 5.77 4.55 5.77 4.55 5.81 4.58 5.81 4.58 5.86 4.6 5.86 4.6 5.91 4.63 5.91 4.63 5.96 4.65 5.96 4.65 6.01 4.67 6.01 4.67 6.06 4.7 6.06 4.7 6.1 4.72 6.1 4.72 6.15 4.74 6.15 4.74 6.18 4.77 6.18 4.77 6.23 4.79 6.23 4.79 6.27 4.81 6.27 4.81 6.32 4.84 6.32 4.84 6.35 4.86 6.35 4.86 6.37 4.91 6.37 4.91 6.39 4.96 6.39 4.96 6.42 5 6.42 5 6.44 5.08 6.44 5.08 6.47 5.15 6.47 5.15 6.49 5.29 6.49 5.29 6.52 5.38 6.52 5.38 6.54 5.53 6.54 5.53 6.56 5.76 6.56 5.76 6.59 6.29 6.59 6.29 6.56 6.55 6.56 6.55 6.54 6.64 6.54 6.64 6.52 6.76 6.52 6.76 6.49 6.86 6.49 6.86 6.47 6.93 6.47 6.93 6.44 7 6.44 7 6.42 7.02 6.42 7.02 6.39 7.04 6.39 7.04 6.37 7.07 6.37 7.07 6.32 7.09 6.32 7.09 6.27 7.12 6.27 7.12 6.23 7.14 6.23 7.14 6.18 7.16 6.18 7.16 6.15 7.19 6.15 7.19 6.1 7.21 6.1 7.21 6.08 7.23 6.08 7.23 6.01 7.26 6.01 7.26 5.98 7.28 5.98 7.28 5.94 7.31 5.94 7.31 5.89 7.33 5.89 7.33 5.84 7.35 5.84 7.35 5.79 7.38 5.79 7.38 5.74 7.4 5.74 7.4 5.69 7.42 5.69 7.42 5.65 7.45 5.65 7.45 5.6 7.47 5.6 7.47 5.55 7.5 5.55 7.5 5.5 7.52 5.5 7.52 5.43 7.54 5.43 7.54 5.38 7.57 5.38 7.57 5.33 7.59 5.33 7.59 5.28 7.61 5.28 7.61 5.21 7.64 5.21 7.64 5.16 7.66 5.16 7.66 5.11 7.69 5.11 7.69 5.07 7.71 5.07 7.71 5.02 7.73 5.02 7.73 4.97 7.76 4.97 7.76 4.92 7.78 4.92 7.78 4.85 7.8 4.85 7.8 4.8 7.83 4.8 7.83 4.75 7.85 4.75 7.85 4.7 7.88 4.7 7.88 4.65 7.9 4.65 7.9 4.58 7.92 4.58 7.92 4.53 7.95 4.53 7.95 4.49 7.97 4.49 7.97 4.44 7.99 4.44 7.99 4.36 8.02 4.36 8.02 4.34 8.04 4.34 8.04 4.27 8.06 4.27 8.06 4.22 8.09 4.22 8.09 4.15 8.11 4.15 8.11 4.12 8.09 4.12 8.09 4.15 8.06 4.15 8.06 4.17 8.04 4.17 8.04 4.15 8.06 4.15 8.06 4.1 8.04 4.1 8.04 4.07 8.02 4.07 8.02 4.1 7.97 4.1 7.97 4.15 7.95 4.15 7.95 4.12 7.92 4.12 7.92 4.17 7.9 4.17 7.9 4.15 7.85 4.15 7.85 4.12 7.83 4.12 7.83 4.07 7.78 4.07 7.78 4.03 7.76 4.03 7.76 4.05 7.73 4.05 7.73 4.07 7.71 4.07 7.71 4.1 7.69 4.1 7.69 4.05 7.66 4.05 7.66 4.1 7.61 4.1 7.61 4.07 7.64 4.07 7.64 4.05 7.61 4.05 7.61 4.07 7.59 4.07 7.59 4.1 7.57 4.1 7.57 4.17 7.54 4.17 7.54 4.22 7.52 4.22 7.52 4.27 7.5 4.27 7.5 4.32 7.47 4.32 7.47 4.36 7.45 4.36 7.45 4.41 7.42 4.41 7.42 4.46 7.4 4.46 7.4 4.51 7.38 4.51 7.38 4.56 7.35 4.56 7.35 4.61 7.33 4.61 7.33 4.65 7.31 4.65 7.31 4.7 7.28 4.7 7.28 4.78 7.26 4.78 7.26 4.8 7.23 4.8 7.23 4.87 7.21 4.87 7.21 4.92 7.19 4.92 7.19 4.97 7.16 4.97 7.16 5.02 7.14 5.02 7.14 5.07 7.12 5.07 7.12 5.11 7.09 5.11 7.09 5.16 7.07 5.16 7.07 5.21 7.04 5.21 7.04 5.26 7.02 5.26 7.02 5.31 7 5.31 7 5.36 6.97 5.36 6.97 5.4 6.95 5.4 6.95 5.43 6.93 5.43 6.93 5.48 6.9 5.48 6.9 5.52 6.88 5.52 6.88 5.57 6.86 5.57 6.86 5.62 6.83 5.62 6.83 5.65 6.81 5.65 6.81 5.69 6.78 5.69 6.78 5.74 6.76 5.74 6.76 5.77 6.74 5.77 6.74 5.81 6.71 5.81 6.71 5.84 6.69 5.84 6.69 5.86 6.67 5.86 6.67 5.89 6.64 5.89 6.64 5.91 6.59 5.91 6.59 5.94 6.5 5.94 6.5 5.96 6.38 5.96 6.38 5.98 6.21 5.98 6.21 6.01 5.81 6.01 5.81 5.98 5.67 5.98 5.67 5.96 5.57 5.96 5.57 5.94 5.53 5.94 5.53 5.91 5.48 5.91 5.48 5.89 5.43 5.89 5.43 5.86 5.38 5.86 5.38 5.84 5.36 5.84 5.36 5.81 5.34 5.81 5.34 5.79 5.31 5.79 5.31 5.77 5.29 5.77 5.29 5.74 5.27 5.74 5.27 5.77 5.24 5.77 5.24 5.74 5.22 5.74 5.22 5.72 5.24 5.72 5.24 5.74 5.27 5.74 5.27 5.72 5.24 5.72 5.24 5.69 5.22 5.69 5.22 5.72 5.19 5.72 5.19 5.69 5.17 5.69 5.17 5.67 5.15 5.67 5.15 5.65 5.12 5.65 5.12 5.6 5.1 5.6 5.1 5.57 5.12 5.57 5.12 5.6 5.15 5.6 5.15 5.65 5.17 5.65 5.17 5.67 5.19 5.67 5.19 5.69 5.22 5.69 5.22 5.67 5.19 5.67 5.19 5.65 5.17 5.65 5.17 5.6"/>
      <polygon class="st33" points="2.54 1.54 2.56 1.54 2.56 1.37 2.59 1.37 2.59 1.34 2.61 1.34 2.61 1.27 2.63 1.27 2.63 1.15 2.61 1.15 2.61 1.08 2.59 1.08 2.59 1.05 2.56 1.05 2.56 1.03 2.51 1.03 2.51 1.01 2.47 1.01 2.47 .98 2.4 .98 2.4 .96 2.37 .96 2.37 .93 2.44 .93 2.44 .96 2.49 .96 2.49 .98 2.54 .98 2.54 1.01 2.59 1.01 2.59 1.03 2.63 1.03 2.63 1.05 2.7 1.05 2.7 1.08 2.75 1.08 2.75 1.1 2.77 1.1 2.77 1.13 2.82 1.13 2.82 1.15 2.87 1.15 2.87 1.17 2.89 1.17 2.89 1.2 2.94 1.2 2.94 1.22 2.96 1.22 2.96 1.25 2.99 1.25 2.99 1.27 3.01 1.27 3.01 1.3 3.06 1.3 3.06 1.32 3.08 1.32 3.08 1.34 3.11 1.34 3.11 1.37 3.13 1.37 3.13 1.39 3.15 1.39 3.15 1.42 3.18 1.42 3.18 1.44 3.2 1.44 3.2 1.49 3.23 1.49 3.23 1.51 3.25 1.51 3.25 1.54 3.27 1.54 3.27 1.56 3.3 1.56 3.3 1.61 3.32 1.61 3.32 1.63 3.34 1.63 3.34 1.61 3.37 1.61 3.37 1.56 3.39 1.56 3.39 1.54 3.42 1.54 3.42 1.51 3.44 1.51 3.44 1.49 3.46 1.49 3.46 1.46 3.84 1.46 3.84 1.44 3.89 1.44 3.89 1.42 3.94 1.42 3.94 1.39 3.98 1.39 3.98 1.37 4.01 1.37 4.01 1.34 4.06 1.34 4.06 1.32 4.1 1.32 4.1 1.3 4.13 1.3 4.13 1.27 4.15 1.27 4.15 1.25 4.2 1.25 4.2 1.22 4.25 1.22 4.25 1.2 4.29 1.2 4.29 1.17 4.34 1.17 4.34 1.15 4.41 1.15 4.41 1.13 4.48 1.13 4.48 1.1 4.55 1.1 4.55 1.08 4.67 1.08 4.67 1.05 4.72 1.05 4.72 1.03 4.74 1.03 4.74 1.01 4.77 1.01 4.77 .98 4.81 .98 4.81 .96 4.84 .96 4.84 .93 4.86 .93 4.86 .91 4.91 .91 4.91 .88 4.96 .88 4.96 .86 5.03 .86 5.03 .84 5.05 .84 5.05 .81 5.08 .81 5.08 .79 5.1 .79 5.1 .74 5.12 .74 5.12 .64 5.08 .64 5.08 .62 5.03 .62 5.03 .59 4.81 .59 4.81 .57 3.56 .57 3.56 .55 1.57 .55 1.57 .57 1.59 .57 1.59 .62 1.57 .62 1.57 .67 1.49 .67 1.49 .69 1.54 .69 1.54 .72 1.52 .72 1.52 .76 1.54 .76 1.54 .79 1.59 .79 1.59 .81 1.68 .81 1.68 .84 1.73 .84 1.73 .86 1.8 .86 1.8 .88 1.85 .88 1.85 .91 1.9 .91 1.9 .93 1.92 .93 1.92 .96 1.97 .96 1.97 .98 1.99 .98 1.99 1.01 2.04 1.01 2.04 1.03 2.06 1.03 2.06 1.05 2.11 1.05 2.11 1.08 2.13 1.08 2.13 1.1 2.16 1.1 2.16 1.13 2.18 1.13 2.18 1.15 2.21 1.15 2.21 1.17 2.23 1.17 2.23 1.2 2.25 1.2 2.25 1.22 2.28 1.22 2.28 1.25 2.3 1.25 2.3 1.27 2.32 1.27 2.32 1.3 2.35 1.3 2.35 1.32 2.37 1.32 2.37 1.34 2.4 1.34 2.4 1.37 2.42 1.37 2.42 1.39 2.44 1.39 2.44 1.42 2.47 1.42 2.47 1.46 2.49 1.46 2.49 1.49 2.51 1.49 2.51 1.51 2.54 1.51 2.54 1.54"/>
      <path class="st39" d="M4.32,3.88v-.05h-.02v-.05h-.02v-.05h-.02v-.07h-.02v-.05h-.02v-.07h-.02v-.05h-.02v-.07h-.02v-.05h-.02v-.05h-.02v-.05h-.02v-.07h-.02v-.05h-.02v-.05h-.02v-.05h-.02v-.05h-.02v-.05h-.02v-.05h-.02v-.05h-.02v-.07h-.02v-.05h-.02v-.05h-.02v-.07h-.02v-.05h-.02v-.05h-.02v-.05h-.02v-.07h-.02v-.05h-.02v-.05h-.02v-.05h-.02v-.05h-.02v-.05h-.02v-.05h-.02v-.02h-.02v-.05h-.02v-.05h-.02v-.05h-.02v-.05h-.02v-.05h-.02v-.05h-.02v-.05h-.02v-.05h-.02v-.02h-.02v-.05h-.02v-.02h-.02v-.02h-.02v-.05h-.02v-.02h-.02v-.02h-.02v-.02h-.02v-.02h-.02v-.05h-.02v-.02h-.02v-.02h-.02v-.02h-.02v-.05h-.02v-.02h-.02v-.02h-.02v-.02h-.05v-.02h-.02v-.02h-.05v-.02h-.05v-.02h-.02v-.02h-.05v-.02h-.07v-.02h-.05v-.02h-.05v-.02h-.05v-.02h-.05v-.02h-.07v.02h.02v.02h.07v.02h.05v.02h.05v.02h.02v.02h.02v.07h.02v.12h-.02v.07h-.02v.02h-.02v.17h-.02v.02h.02v.02h.02v.15h-.02v.07h-.02v.05h-.02v.05h-.02v.05h-.02v.05h-.02v.02h-.02v.05h-.02v.02h-.02v.05h-.02v.05h-.02v.05h-.02v.05h-.02v.02h-.02v.05h-.02v.05h-.02v.02h-.02v.07h-.02v.05h-.02v.05h-.02v.05h-.02v.05h-.02v.05h-.02v.05h-.02v.05h-.02v.02h.02v-.02h.02v-.02h.02v-.02h.02v-.02h.02v-.05h.02v-.05h.02v-.05h.02v-.05h.02v-.02h.02v.02h.02v-.02h.02v-.02h.07v-.02h.05v.02h.02v.05h.02v.02h.05v.02h.02v.05h-.02v.02h.02v-.02h.07v.02h.02v.02h.02v-.05h.02v.05h.02v-.05h.02v-.05h.02v-.05h.02v-.05h.02v-.07h.02v-.05h.02v-.05h.02v-.05h.02v-.05h.02v-.07h.02v-.17h.02v.02h.02v.14h.02v.07h.02v.05h.02v.07h.02v.05h.02v.05h.02v.07h.02v.07h.02v.05h.02v.05h.02v.07h.02v.05h.02v.05h.02v.07h.02v.07h.02v.05h.02v.05h.02v.05h.02v.05h.02v.05h.02v.05h.02v.05h.02v.05h.02v.05h.02v.07h.02v.05h.02v.05h.02v.07h.02v.05h.02v.05h.02v.07h.02v.05h.02v-.05h-.02v-.02h.02v.02h.02v.02h.05v-.02h.02v-.02h.05v-.02h.02v-.05h.24v.02h.05v.02h.02v.02h.02v.02h.02v.05h.02v.02h.02v-.07h.02ZM3.2,1.46v-.02h-.02v-.02h-.02v-.02h-.02v-.02h-.02v-.02h-.02v-.02h-.02v-.02h-.02v.02h.02v.02h.02v.02h.02v.02h.02v.02h.02v.02h.02v.02h.02ZM4.36,3.98v-.02h-.02v.02h-.02v-.02h-.02v.05h.05v-.02h.02Z"/>
      <path class="st39" d="M8.9,2.5h.02v-.05h.02v-.05h.02v-.07h.02v-.05h.02v-.1h.02v-.19h.02v.19h.02v.07h.02v.05h.02v.05h.02v.05h.02v.02h.02v.05h.02v.05h.02v.07h.02v.05h.02v.05h.02v.07h.02v.07h.02v.07h.02v.05h.02v.07h.02v.05h.02v.05h.07v.05h.02v-.05h.02v-.02h.02v-.02h.02v-.05h.02v-.02h.02v-.02h.17v-.02h.02v.02h.05v.02h.05v.05h.02v.02h.02v.05h.02v.02h.02v.02h.02v.05h.02v.02h.02v.05h.02v-.02h.02v.02h.02v-.05h-.02v-.05h-.02v-.07h-.02v-.05h-.02v-.07h-.02v-.05h-.02v-.05h-.02v-.05h-.02v-.05h-.02v-.05h-.02v-.07h-.02v-.05h-.02v-.05h-.02v-.05h-.02v-.07h-.02v-.05h-.02v-.05h-.02v-.05h-.02v-.05h-.02v-.07h-.02v-.05h-.02v-.05h-.02v-.05h-.02v-.05h-.02v-.05h-.02v-.05h-.02v-.05h-.02v-.07h-.02v-.05h-.02v-.05h-.02v-.05h-.02v-.07h-.02v-.05h-.02v-.05h-.02v-.05h-.02v-.07h-.02v-.05h-.02v-.05h-.02v-.05h-.02v-.05h-.02v-.05h-.02v-.05h-.02v-.05h-.02v-.05h-.02v-.05h-.02v-.02h-.02v-.02h-.07v.02h-.02v.02h-.05v.02h-.02v.02h-.02v.02h-.02v.05h-.02v.05h-.02v.07h-.02v.1h-.02v.07h-.02v.05h-.02v.07h-.02v.07h-.02v.05h-.02v.07h-.02v.05h-.02v.05h-.02v.07h-.02v.05h-.02v.05h-.02v.07h-.02v.05h-.02v.05h-.02v.05h-.02v.05h-.02v.05h-.02v.07h-.02v.05h-.02v.05h-.02v.05h-.02v.02h.02v-.02h.02v.02h.02v-.02h.02v.02h-.02v.02h.05v-.02h.05v-.02h.05v.02h.02v.02h.02v.02h.02v.02h.05v.02h.02v-.02h.02v.05h.02v.05h.02v-.05h.05v.02h-.02v.05h-.05v.02h.02v.02h-.02v.05h.02v-.05h.02v-.05h.02v-.05h.02v-.02h.02v-.05h.02v-.05h.02v-.02h.02v.02ZM8.85,2.6h-.02v.02h.02v-.02Z"/>
      <path class="st35" d="M5.29,5.74v.02h.02v.02h.02v.02h.02v.02h.02v.02h.02v-.02h-.02v-.02h-.02v-.02h-.02v-.02h-.02v-.02h-.02v-.02h-.02v-.02h-.02v-.02h-.02v-.02h-.02v-.02h-.02v.02h.02v.02h.02v.02h-.02v-.02h-.02v-.02h-.02v-.05h-.02v-.02h-.02v.02h.02v.05h.02v.02h.02v.02h.02v.02h.02v-.02h.02v.02h.02v.02h-.02v-.02h-.02v.02h.02v.02h.02v-.02h.02ZM5.17,5.6v-.02h-.02v-.02h-.02v-.05h-.02v-.02h-.02v.02h.02v.02h-.02v.05h.02v-.02h.02v.02h.02v.02h.02ZM5.03,5.38v-.02h-.02v-.05h-.02v-.05h-.02v-.05h-.02v-.05h-.02v-.05h-.02v-.05h-.02v-.05h-.02v-.05h-.02v-.07h-.02v-.05h-.02v-.05h-.02v-.05h-.02v-.07h-.02v-.05h-.02v-.02h-.02v-.05h-.02v-.05h-.02v-.05h-.02v-.05h-.02v-.05h-.02v-.05h-.02v-.07h-.02v-.05h-.02v-.05h-.02v-.05h-.02v-.05h-.02v-.05h-.02v-.02h-.02v.02h-.05v-.05h.02v.02h.02v-.07h-.02v-.02h-.02v.07h-.02v-.02h-.02v-.05h-.02v-.02h-.02v-.02h-.02v-.02h-.05v-.02h-.24v.05h-.02v.02h-.05v.02h-.02v.02h-.05v-.02h-.02v-.02h-.02v.02h.02v.1h.02v.05h.02v.05h.02v.05h.02v.05h.02v.05h.02v.07h.02v.05h.02v.05h.02v.05h.02v.07h.02v.05h.02v.05h.02v.05h.02v.05h.02v.07h.02v.05h.02v.05h.02v.05h.02v.05h.02v.05h.02v.05h.02v.07h.02v.05h.02v.05h.02v.05h.02v.07h.02v.05h.02v.05h.02v.05h.02v.07h.02v.05h.02v-.05h-.02v-.02h.02v.02h.02v.02h.05v-.02h-.02v-.02h.02v-.02h.02v-.02h.02v-.02h.17v-.02h.05v-.14h.05v.02h.02v.02h.02v.02h.05v.05h.02v.02h.02v.05h.02v.02h.05v-.02h-.02v-.05h-.02v-.02h-.02v-.05h-.02v-.02h-.02v-.05h.02v.05h.02v.02h.02ZM5.08,5.45v-.02h-.02v-.02h-.02v.02h.02v.02h.02Z"/>
      <polygon class="st41" points="10.48 3.98 10.46 3.98 10.46 3.95 10.44 3.95 10.44 3.93 10.41 3.93 10.41 3.95 10.44 3.95 10.44 4 10.41 4 10.41 3.98 10.39 3.98 10.39 3.95 10.37 3.95 10.37 3.93 10.27 3.93 10.27 3.95 10.18 3.95 10.18 3.98 10.06 3.98 10.06 4 9.96 4 9.96 4.05 9.94 4.05 9.94 4.07 9.92 4.07 9.92 4.03 9.89 4.03 9.89 4.12 9.92 4.12 9.92 4.17 9.94 4.17 9.94 4.24 9.96 4.24 9.96 4.29 9.99 4.29 9.99 4.34 10.01 4.34 10.01 4.39 10.03 4.39 10.03 4.46 10.06 4.46 10.06 4.51 10.08 4.51 10.08 4.58 10.1 4.58 10.1 4.63 10.13 4.63 10.13 4.7 10.15 4.7 10.15 4.75 10.18 4.75 10.18 4.8 10.2 4.8 10.2 4.85 10.22 4.85 10.22 4.9 10.25 4.9 10.25 4.94 10.27 4.94 10.27 4.99 10.29 4.99 10.29 5.02 10.32 5.02 10.32 5.07 10.34 5.07 10.34 5.11 10.37 5.11 10.37 5.16 10.39 5.16 10.39 5.21 10.41 5.21 10.41 5.26 10.44 5.26 10.44 5.31 10.46 5.31 10.46 5.38 10.48 5.38 10.48 5.43 10.51 5.43 10.51 5.48 10.53 5.48 10.53 5.52 10.56 5.52 10.56 5.57 10.58 5.57 10.58 5.62 10.6 5.62 10.6 5.69 10.63 5.69 10.63 5.74 10.65 5.74 10.65 5.77 10.67 5.77 10.67 5.81 10.7 5.81 10.7 5.89 10.72 5.89 10.72 5.94 10.75 5.94 10.75 5.98 10.79 5.98 10.79 5.96 10.82 5.96 10.82 5.91 10.84 5.91 10.84 5.84 10.86 5.84 10.86 5.79 10.89 5.79 10.89 5.72 10.91 5.72 10.91 5.65 10.94 5.65 10.94 5.21 10.91 5.21 10.91 5.11 10.89 5.11 10.89 4.99 10.86 4.99 10.86 4.92 10.84 4.92 10.84 4.85 10.82 4.85 10.82 4.78 10.79 4.78 10.79 4.73 10.77 4.73 10.77 4.65 10.75 4.65 10.75 4.61 10.72 4.61 10.72 4.53 10.7 4.53 10.7 4.49 10.67 4.49 10.67 4.41 10.65 4.41 10.65 4.36 10.63 4.36 10.63 4.32 10.6 4.32 10.6 4.24 10.58 4.24 10.58 4.2 10.56 4.2 10.56 4.12 10.53 4.12 10.53 4.07 10.51 4.07 10.51 4.03 10.48 4.03 10.48 3.98"/>
      <path class="st35" d="M8.85,2.6v-.02h.02v-.02h.02v-.07h-.02v.02h-.02v.05h-.02v.05h-.02v.02h-.02v.05h-.02v.05h-.02v.05h-.02v-.05h.02v-.02h-.02v-.02h.05v-.05h.02v-.02h-.05v.05h-.02v-.05h-.02v-.05h-.02v.02h-.02v-.02h-.05v-.02h-.02v-.02h-.02v-.02h-.02v-.02h-.05v.02h-.05v.02h-.05v-.02h.02v-.02h-.02v.02h-.02v-.02h-.02v.02h-.02v.05h-.02v.05h-.02v.05h-.02v.07h-.02v.07h-.02v.02h-.02v.07h-.02v.05h-.02v.05h-.02v.05h-.02v.05h-.02v.07h-.02v.05h-.02v.05h-.02v.05h-.02v.07h-.02v.05h-.02v.05h-.02v.07h-.02v.05h-.02v.05h-.02v.07h-.02v.02h-.02v.07h-.02v.05h-.02v.05h-.02v.02h-.02v.07h-.02v.02h-.02v.05h-.02v.02h.02v-.02h.02v.02h-.02v.02h.05v-.05h.02v.05h.02v-.02h.02v-.02h.02v-.02h.02v.05h.05v.05h.02v.02h.05v.02h.02v-.05h.02v.02h.02v-.05h.05v-.02h.02v.02h.02v.05h-.02v.02h.02v-.02h.02v-.02h.05v-.05h.02v-.05h.02v-.05h.02v-.05h.02v-.05h.02v-.05h.02v-.05h.02v-.05h.02v-.05h.02v-.05h.02v-.05h.02v-.05h.02v-.05h.02v-.05h.02v-.05h.02v-.05h.02v-.05h.02v-.07h.02v-.05h.02v-.05h.02v-.05h.02v-.05h.02v-.05h.02v-.05h.02v-.05h.02v-.07h.02v-.05h.02v-.05h.02v-.05h.02v-.07h.02ZM8.11,4.15h-.02v.02h.02v-.02Z"/>
      <path class="st35" d="M2.02,2.84v.02h-.02v.02h-.02v.05h-.02v.05h-.02v.05h-.02v.05h-.02v.07h-.02v.05h-.02v.05h-.02v.05h-.02v.07h-.02v.05h-.02v.05h-.02v.05h-.02v.07h-.02v.05h-.02v.05h-.02v.05h-.02v.05h-.02v.05h-.02v.05h-.02v.05h-.02v.05h-.02v.02h.02v.07h-.02v.02h.02v-.02h.02v-.05h.02v.05h.02v.02h.07v.02h.05v.05h.02v.02h.05v-.02h.02v-.05h.17v-.05h.02v-.02h.02v-.02h.02v-.02h.02v-.05h.05v-.05h.02v-.05h.02v-.02h.02v-.05h.02v-.07h.02v-.05h.02v-.02h.02v-.07h.02v-.05h.02v-.05h.02v-.05h.02v-.05h.02v-.05h.02v-.05h.02v-.05h.02v-.05h.02v-.05h.02v-.05h.02v-.05h.02v-.05h.02v-.07h.02v-.05h.02v-.05h.02v-.05h.02v-.1h-.02v.05h-.02v-.02h-.02v-.02h-.07v.02h-.02v-.02h.02v-.05h-.02v-.02h-.05v-.02h-.02v-.05h-.02v-.02h-.05v.02h-.07v.02h-.02v.02h-.02v-.02h-.02v.02h-.02v.05h-.02v.05h-.02v.05h-.02v.05h-.02v.02h-.02v.02h-.02v.02h-.02ZM2.04,4.03h-.02v.02h.02v-.02Z"/>
      <polygon class="st41" points="1.47 4 1.47 4.03 1.45 4.03 1.45 4.07 1.42 4.07 1.42 4.12 1.4 4.12 1.4 4.17 1.38 4.17 1.38 4.22 1.35 4.22 1.35 4.27 1.33 4.27 1.33 4.32 1.3 4.32 1.3 4.36 1.28 4.36 1.28 4.41 1.26 4.41 1.26 4.49 1.23 4.49 1.23 4.53 1.21 4.53 1.21 4.58 1.19 4.58 1.19 4.63 1.16 4.63 1.16 4.7 1.14 4.7 1.14 4.78 1.11 4.78 1.11 4.82 1.09 4.82 1.09 4.92 1.07 4.92 1.07 5.02 1.04 5.02 1.04 5.14 1.02 5.14 1.02 5.23 1 5.23 1 5.36 .97 5.36 .97 5.55 .95 5.55 .95 5.81 .97 5.81 .97 6.06 1 6.06 1 6.01 1.02 6.01 1.02 5.98 1.04 5.98 1.04 5.96 1.07 5.96 1.07 5.94 1.09 5.94 1.09 5.91 1.11 5.91 1.11 5.86 1.14 5.86 1.14 5.84 1.16 5.84 1.16 5.79 1.19 5.79 1.19 5.77 1.21 5.77 1.21 5.72 1.23 5.72 1.23 5.69 1.26 5.69 1.26 5.65 1.28 5.65 1.28 5.6 1.3 5.6 1.3 5.55 1.33 5.55 1.33 5.5 1.35 5.5 1.35 5.45 1.38 5.45 1.38 5.4 1.4 5.4 1.4 5.36 1.42 5.36 1.42 5.31 1.45 5.31 1.45 5.23 1.47 5.23 1.47 5.19 1.49 5.19 1.49 5.14 1.52 5.14 1.52 5.09 1.54 5.09 1.54 5.04 1.57 5.04 1.57 4.97 1.59 4.97 1.59 4.92 1.61 4.92 1.61 4.87 1.64 4.87 1.64 4.82 1.66 4.82 1.66 4.78 1.68 4.78 1.68 4.73 1.71 4.73 1.71 4.68 1.73 4.68 1.73 4.63 1.75 4.63 1.75 4.58 1.78 4.58 1.78 4.53 1.8 4.53 1.8 4.49 1.83 4.49 1.83 4.44 1.85 4.44 1.85 4.39 1.87 4.39 1.87 4.34 1.9 4.34 1.9 4.29 1.92 4.29 1.92 4.24 1.94 4.24 1.94 4.2 1.97 4.2 1.97 4.15 1.99 4.15 1.99 4.1 2.02 4.1 2.02 4.03 2.04 4.03 2.04 4 2.06 4 2.06 3.95 2.04 3.95 2.04 4 2.02 4 2.02 4.03 1.99 4.03 1.99 4.05 1.97 4.05 1.97 4.07 1.94 4.07 1.94 4.12 1.78 4.12 1.78 4.17 1.75 4.17 1.75 4.2 1.71 4.2 1.71 4.17 1.68 4.17 1.68 4.12 1.64 4.12 1.64 4.1 1.57 4.1 1.57 4.07 1.54 4.07 1.54 4.03 1.52 4.03 1.52 4.07 1.49 4.07 1.49 4.1 1.47 4.1 1.47 4.07 1.49 4.07 1.49 4 1.47 4"/>
      <polygon class="st24" points="5.1 3.76 5.1 3.88 4.96 3.88 4.96 3.86 4.77 3.86 4.77 3.88 4.7 3.88 4.7 3.91 4.65 3.91 4.65 3.88 4.58 3.88 4.58 3.86 4.53 3.86 4.53 3.83 4.48 3.83 4.48 3.81 4.46 3.81 4.46 3.78 4.44 3.78 4.44 3.74 4.41 3.74 4.41 3.71 4.39 3.71 4.39 3.66 4.36 3.66 4.36 3.59 4.34 3.59 4.34 3.57 4.27 3.57 4.27 3.49 4.25 3.49 4.25 3.47 4.22 3.47 4.22 3.4 4.2 3.4 4.2 3.35 4.17 3.35 4.17 3.3 4.15 3.3 4.15 3.28 4.13 3.28 4.13 3.33 4.15 3.33 4.15 3.37 4.17 3.37 4.17 3.42 4.2 3.42 4.2 3.47 4.22 3.47 4.22 3.54 4.25 3.54 4.25 3.59 4.27 3.59 4.27 3.64 4.29 3.64 4.29 3.69 4.32 3.69 4.32 3.74 4.34 3.74 4.34 3.78 4.36 3.78 4.36 3.86 4.39 3.86 4.39 3.91 4.41 3.91 4.41 3.95 4.44 3.95 4.44 4 4.46 4 4.46 4.07 4.48 4.07 4.48 4.1 4.51 4.1 4.51 4.17 4.53 4.17 4.53 4.2 4.55 4.2 4.55 4.27 4.58 4.27 4.58 4.32 4.6 4.32 4.6 4.36 4.63 4.36 4.63 4.46 4.65 4.46 4.65 4.49 4.67 4.49 4.67 4.53 4.7 4.53 4.7 4.58 4.72 4.58 4.72 4.63 4.74 4.63 4.74 4.68 4.77 4.68 4.77 4.73 4.79 4.73 4.79 4.78 4.81 4.78 4.81 4.85 4.84 4.85 4.84 4.9 4.86 4.9 4.86 4.94 4.89 4.94 4.89 4.99 4.91 4.99 4.91 5.07 4.93 5.07 4.93 5.11 4.96 5.11 4.96 5.14 4.98 5.14 4.98 5.19 5 5.19 5 5.23 5.03 5.23 5.03 5.28 5.05 5.28 5.05 5.31 5.1 5.31 5.1 5.33 5.12 5.33 5.12 5.38 5.17 5.38 5.17 5.4 5.19 5.4 5.19 5.36 5.22 5.36 5.22 5.28 5.24 5.28 5.24 5.26 5.27 5.26 5.27 5.23 5.29 5.23 5.29 5.11 5.31 5.11 5.31 5.09 5.34 5.09 5.34 5.07 5.36 5.07 5.36 5.04 5.38 5.04 5.38 4.9 5.36 4.9 5.36 4.78 5.34 4.78 5.34 4.68 5.31 4.68 5.31 4.58 5.29 4.58 5.29 4.53 5.27 4.53 5.27 4.44 5.24 4.44 5.24 4.32 5.22 4.32 5.22 4.2 5.19 4.2 5.19 4.1 5.17 4.1 5.17 4.03 5.15 4.03 5.15 3.88 5.12 3.88 5.12 3.76 5.1 3.76"/>
      <polygon class="st35" points="10.46 3.95 10.46 3.98 10.48 3.98 10.48 3.95 10.46 3.95 10.46 3.91 10.44 3.91 10.44 3.86 10.41 3.86 10.41 3.78 10.39 3.78 10.39 3.74 10.37 3.74 10.37 3.69 10.34 3.69 10.34 3.62 10.32 3.62 10.32 3.57 10.29 3.57 10.29 3.49 10.27 3.49 10.27 3.45 10.25 3.45 10.25 3.4 10.22 3.4 10.22 3.33 10.2 3.33 10.2 3.3 10.18 3.3 10.18 3.28 10.15 3.28 10.15 3.3 10.13 3.3 10.13 3.25 10.1 3.25 10.1 3.23 10.08 3.23 10.08 3.18 10.06 3.18 10.06 3.16 10.03 3.16 10.03 3.13 10.01 3.13 10.01 3.08 9.99 3.08 9.99 3.06 9.96 3.06 9.96 3.01 9.92 3.01 9.92 2.99 9.87 2.99 9.87 2.96 9.84 2.96 9.84 2.99 9.68 2.99 9.68 3.01 9.65 3.01 9.65 3.04 9.63 3.04 9.63 3.08 9.61 3.08 9.61 3.11 9.58 3.11 9.58 3.13 9.56 3.13 9.56 3.18 9.54 3.18 9.54 3.13 9.49 3.13 9.49 3.2 9.51 3.2 9.51 3.25 9.54 3.25 9.54 3.3 9.56 3.3 9.56 3.37 9.58 3.37 9.58 3.42 9.61 3.42 9.61 3.47 9.63 3.47 9.63 3.52 9.65 3.52 9.65 3.59 9.68 3.59 9.68 3.64 9.7 3.64 9.7 3.69 9.73 3.69 9.73 3.76 9.75 3.76 9.75 3.81 9.77 3.81 9.77 3.86 9.8 3.86 9.8 3.93 9.82 3.93 9.82 3.98 9.84 3.98 9.84 4.03 9.87 4.03 9.87 4.07 9.89 4.07 9.89 4.03 9.92 4.03 9.92 4.07 9.94 4.07 9.94 4.05 9.96 4.05 9.96 4 10.06 4 10.06 3.98 10.18 3.98 10.18 3.95 10.27 3.95 10.27 3.93 10.37 3.93 10.37 3.95 10.39 3.95 10.39 3.98 10.41 3.98 10.41 4 10.44 4 10.44 3.95 10.41 3.95 10.41 3.93 10.44 3.93 10.44 3.95 10.46 3.95"/>
    </g>
  </g>
  <g id="_x23_000000ff">
    <path d="M4.16.58c.23-.26.65-.48.92-.18.36.42.34,1.07.49,1.6.27.22.57.41.88.55.33-.04.65-.21.99-.23-.26.13-.52.26-.78.39.04.06.12.19.15.25.33-.23.66-.45.96-.72l-.14.02c.78-.35,1.67-.19,2.42.17,1.12.56,1.69,2.02,1.89,3.38.13,1.15,0,2.54-.81,3.31.5-1.12.77-2.42.48-3.67-.03-.15-.06-.3-.09-.45-.13-.5-.33-.97-.58-1.39-.62-.85-1.53-1.32-2.46-1.39.03.05.08.15.11.2.02.11.06.32.08.43-.03.51-.1,1.01-.18,1.5-.25.75.23,1.41.25,2.15.08,1.39-.56,2.82-1.59,3.47-.42.28-.91.34-1.39.39.14.5.16,1.03.33,1.52.25.35.71.32,1.04.16.55-.38.79-1.13,1.09-1.76.3-.08.58-.22.84-.42.71-.39,1.2-1.13,1.74-1.78-.19.44-.39.87-.56,1.32.28-.02.56-.05.84-.08-.35.15-.72.12-1.08.15-.46.38-.9.78-1.41,1.06-.4.2-.46.79-.75,1.14-.4.63-1.23.86-1.77.37-.5-.39-.17-1.32-.63-1.72-.42-.3-.71.28-1.05.47-.39,0-.8-.17-1.07-.51-.22-.25-.14-.65-.16-.97-1.11-.58-2.26-1.36-2.85-2.69-.46-1.01-.25-2.38.5-3.1.51-.47,1.16-.59,1.7-1,.67-.5,1.12-1.28,1.69-1.92M3.12,2.21c.09-.03.28-.09.38-.12.29.13.66.23.77.63.33,1.16-.98,2.42-1.85,1.74-.33-.25-.35-.77-.35-1.19.06-.08.17-.23.23-.31-.66.26-1.4.53-1.75,1.32-.36.58-.38,1.44-.08,2.05.28.95.96,1.61,1.64,2.14,1,.73,2.18,1.19,3.35,1.06,1.09-.14,2.03-1.16,2.34-2.41.19-.65.09-1.36.27-2.01.12-.55.38-1.14.13-1.69-.26-.2-.5-.47-.81-.54-.23.04-.41.25-.61.38-.07-.03-.2-.08-.27-.11.05.2.1.41.14.61-.35-.14-.65-.41-.85-.78-.29.18-.59.34-.9.47.02-.35.07-.7.15-1.04-.36-.01-.74-.08-1-.42.44-.09.89-.11,1.34-.15-.22-.53-.67-.76-1.11-.93-.49.27-.81.82-1.17,1.28M2.3,3.49c-.23-.07-.21.54.02.46,0,.41.43.6.72.55.67-.09,1.36-.93,1.12-1.77-.49-.98-1.82-.22-1.85.76M3.34,9.4c-.18.75.5,1.22,1.04,1.25.11-.18.23-.36.34-.55-.19-.24-.46-.35-.71-.46-.22-.08-.44-.16-.66-.25Z"/>
    <path d="M3.09,2.63c.27-.13.68-.12.81.26.27.83-.79,1.77-1.34,1.11-.29-.52.1-1.18.53-1.37Z"/>
    <path d="M5.86,4.06c.77-.34,1.69.43,1.68,1.41.04.96-.86,1.83-1.63,1.48-.48-.2-.89-.73-.91-1.35-.05-.68.35-1.31.86-1.54M5.99,4.21c-.82.19-1.11,1.58-.5,2.24.54.68,1.57.39,1.82-.49.35-.95-.51-2.06-1.32-1.74Z"/>
    <path d="M6,4.53c.54-.27,1.21.36,1.11,1.06,0,.83-.97,1.25-1.43.64-.48-.48-.27-1.49.31-1.7Z"/>
    <path d="M1.64,5.08c.45-.36,1.09.32.86.9-.16.5-.75.63-1.02.19-.29-.31-.17-.9.16-1.09Z"/>
    <path d="M11.09,5.23c.26-.36.46.27.42.54-.03.55-.19,1.34-.72,1.42-.33-.6-.1-1.49.31-1.96Z"/>
    <path d="M3.93,6.53c.39-.11.82.34.73.83-.04.55-.68.8-1,.41-.39-.34-.2-1.13.26-1.24Z"/>
    <path d="M9.02,8.72c.09-.02.26-.07.35-.09-.06.57-.41,1.04-.79,1.36-.34.18-.22-.29-.12-.49.15-.3.33-.57.56-.79Z"/>
  </g>
  <g id="_x23_fbc32fff">
    <path class="st52" d="M3.12,2.21c.36-.46.68-1.01,1.17-1.28-.23.42-.49.82-.8,1.16-.09.03-.28.09-.38.12Z"/>
    <path class="st52" d="M7.43,2.32c.05-.01.15-.04.2-.06l.14-.02c-.31.27-.64.49-.96.72-.04-.06-.12-.19-.15-.25.26-.13.52-.27.78-.39Z"/>
    <path class="st52" d="M.55,4.29c.35-.79,1.09-1.06,1.75-1.32-.06.08-.17.23-.23.31-.55.24-1.06.58-1.52,1.01Z"/>
    <path class="st52" d="M2.32,3.96c-.23.08-.25-.53-.02-.46.02.15.03.31.02.46Z"/>
    <path class="st52" d="M5.28,3.5c.19-.01.38-.02.58-.03-.03.41-.3.57-.61.59,0-.19.02-.38.03-.57Z"/>
    <path class="st52" d="M2.61,4.94c.66-.05,1.32.23,1.81.76.18.17.22.45.27.7-.78-.19-1.7-.56-2.08-1.46Z"/>
  </g>
  <g id="_x23_ec0202ff">
    <path class="st51" d="M4.29.93c.44.17.89.4,1.11.93-.45.04-.9.06-1.34.15.26.34.64.4,1,.42-.08.34-.13.69-.15,1.04.31-.13.61-.29.9-.47.2.37.5.64.85.78-.05-.2-.1-.41-.14-.61.07.03.2.08.27.11.2-.14.38-.35.61-.38.31.07.55.34.81.54-.21.53-.45,1.06-.48,1.66-.05.8-.12,1.59-.26,2.38-.41.63-1.17.51-1.62,1.08-.48.46-1.15.3-1.71.25-1.45-.19-2.66-1.28-3.66-2.47-.3-.61-.28-1.47.08-2.05.46-.44.97-.77,1.52-1.01,0,.42.01.93.35,1.19.87.68,2.17-.58,1.85-1.74-.1-.41-.48-.5-.77-.63.31-.34.57-.74.8-1.16M5.28,3.5c-.01.19-.03.38-.03.57.31-.03.58-.18.61-.59-.19,0-.38.02-.58.03M5.86,4.06c-.51.24-.92.87-.86,1.54.03.63.43,1.15.91,1.35.77.35,1.66-.52,1.63-1.48.02-.99-.91-1.75-1.68-1.41M2.61,4.94c.39.9,1.3,1.27,2.08,1.46-.06-.25-.09-.53-.27-.7-.49-.52-1.15-.81-1.81-.76M1.64,5.08c-.33.19-.45.78-.16,1.09.27.44.86.31,1.02-.19.23-.58-.41-1.26-.86-.9M3.93,6.53c-.46.11-.66.89-.26,1.24.32.38.96.14,1-.41.08-.48-.35-.94-.73-.83Z"/>
    <path class="st51" d="M8.59,2.41c.5.17,1.01.38,1.37.85.3.32.48.91.96.84,0-.12.02-.37.02-.5.25.43.46.89.58,1.39-.19-.05-.42-.28-.6-.08-.55.57-.73,1.57-.49,2.39-.25.43-.52.83-.79,1.24-.17-.13-.37-.37-.59-.2-.53.39-1,1.13-.85,1.92-.29.63-.54,1.38-1.09,1.76-.32.16-.79.19-1.04-.16-.16-.49-.18-1.02-.33-1.52.47-.05.96-.11,1.39-.39,1.04-.64,1.67-2.08,1.59-3.47-.02-.74-.51-1.4-.25-2.15.3.35.45.83.76,1.16.44.21.84-.38.7-.88-.1-.84-.66-1.44-1.27-1.79-.02-.11-.06-.32-.08-.43Z"/>
    <path class="st51" d="M3.34,9.4c.22.09.44.17.66.25.01.24.03.47.04.71.11.1.22.2.33.29-.54-.03-1.21-.5-1.04-1.25Z"/>
  </g>
  <g id="_x23_ffffffff">
    <path class="st49" d="M2.3,3.49c.03-.98,1.36-1.74,1.85-.76.24.84-.45,1.68-1.12,1.77-.29.05-.72-.14-.72-.55,0-.15,0-.31-.02-.46M3.09,2.63c-.42.19-.82.86-.53,1.37.55.66,1.6-.28,1.34-1.11-.13-.38-.54-.39-.81-.26Z"/>
    <path class="st49" d="M8.48,2.21c.93.07,1.84.54,2.46,1.39,0,.13-.02.38-.02.5-.48.07-.65-.53-.96-.84-.36-.46-.88-.68-1.37-.85-.03-.05-.08-.15-.11-.2Z"/>
    <path class="st49" d="M8.67,2.84c.61.35,1.17.94,1.27,1.79.14.5-.27,1.09-.7.88-.31-.33-.46-.81-.76-1.16.08-.5.16-1,.18-1.5Z"/>
    <path class="st49" d="M5.99,4.21c.81-.32,1.67.8,1.32,1.74-.25.88-1.28,1.18-1.82.49-.62-.66-.32-2.04.5-2.24M6,4.53c-.59.2-.79,1.22-.31,1.7.46.61,1.42.19,1.43-.64.09-.7-.57-1.33-1.11-1.06Z"/>
    <path class="st49" d="M10.93,4.91c.18-.2.41.04.6.08.03.15.07.3.09.45,0,.66-.09,1.4-.55,1.83-.18.21-.42.04-.63.01-.25-.81-.06-1.82.49-2.39M11.09,5.23c-.4.47-.63,1.36-.31,1.96.53-.08.7-.87.72-1.42.05-.27-.16-.9-.42-.54Z"/>
    <path class="st49" d="M7.46,7.48s.12-.12.16-.16c-.28.61-.65,1.23-1.22,1.48-.23.16-.42-.03-.56-.25.44-.57,1.2-.44,1.62-1.08Z"/>
    <path class="st49" d="M9.05,8.34c.22-.17.41.06.59.2-.19.44-.37.89-.6,1.31-.26.2-.54.34-.84.42-.16-.79.32-1.53.85-1.92M9.02,8.72c-.23.22-.41.49-.56.79-.11.2-.23.66.12.49.38-.32.73-.79.79-1.36-.09.02-.26.07-.35.09Z"/>
  </g>
  <g id="_x23_b8101cff">
    <path class="st50" d="M8.2,3.44c.25.56,0,1.14-.13,1.69-.17.65-.08,1.36-.27,2.01-.31,1.25-1.25,2.27-2.34,2.41-1.18.13-2.35-.34-3.35-1.06-.68-.53-1.36-1.19-1.64-2.14,1,1.19,2.22,2.28,3.66,2.47.57.05,1.23.21,1.71-.25.14.22.33.41.56.25.57-.24.94-.87,1.22-1.48-.04.04-.12.12-.16.16.14-.78.21-1.58.26-2.38.03-.6.27-1.13.48-1.66Z"/>
    <path class="st50" d="M11.62,5.45c.29,1.25.02,2.56-.48,3.67-.02.05-.05.14-.07.19-.28.03-.56.06-.84.08.17-.45.37-.88.56-1.32-.53.65-1.03,1.38-1.74,1.78.23-.42.41-.87.6-1.31.27-.41.55-.81.79-1.24.21.03.45.2.63-.01.46-.44.54-1.18.55-1.83Z"/>
    <path class="st50" d="M4.01,9.64c.25.11.52.22.71.46-.1.19-.22.37-.34.55-.11-.1-.22-.2-.33-.29-.01-.24-.03-.47-.04-.71Z"/>
  </g>
</svg>