<?xml version="1.0" encoding="UTF-8"?>
<svg id="_圖層_1" data-name="圖層_1" xmlns="http://www.w3.org/2000/svg" version="1.1" xmlns:xodm="http://www.corel.com/coreldraw/odm/2003" viewBox="0 0 12 19.68">
  <!-- Generator: Adobe Illustrator 29.6.1, SVG Export Plug-In . SVG Version: 2.1.1 Build 9)  -->
  <defs>
    <style>
      .st0 {
        fill: #4041b0;
      }

      .st0, .st1, .st2, .st3 {
        fill-rule: evenodd;
      }

      .st4 {
        fill: #eef1fc;
      }

      .st1 {
        fill: #3936d0;
      }

      .st5 {
        fill: #2223a9;
      }

      .st2 {
        fill: #37389a;
      }

      .st6 {
        fill: #efeeed;
      }

      .st3 {
        fill: #6465d4;
      }

      .st7 {
        fill: #989698;
      }
    </style>
  </defs>
  <g id="_圖層_x5F_2" data-name="圖層_x5F_2">
    <g id="_2134519165152">
      <path class="st1" d="M5.84,19.01c.69-1.39,8.35-15.43,5.27-11.9l.44-3.09c-.44-.26-.72-1.5-1.25-1.64C2.52-.38.58,3.4.11,6.95"/>
      <path class="st1" d="M11.6,7.17v-1.92c-.44-.26-1.79-3.81-2.32-3.96C1.5-1.48.62,3.76.15,7.31"/>
      <path class="st2" d="M12,6.49h-.58c.01,1.66-1.55,4.35-2.24,5.74-.5,1.13-2.58,5.32-3.18,5.98-.72-.75-1.8-3.23-2.36-4.36-.84-1.85-3.01-5.1-3.06-7.33H.04c.05,2.28,2.89,7.19,4.2,9.81.49.99.98,2.47,1.76,3.04.75-.55,1.24-2,1.68-2.88.54-1.08,1.03-2.05,1.6-3.2.83-1.67,2.68-4.64,2.72-6.8Z"/>
      <path class="st0" d="M.04,6.59h.54l.21-1.24C.93,2.94,3.34.77,6,.75c2.74-.02,4.88,2.18,5.29,4.58l.13,1.25h.58c0-2.41-.88-3.98-2.46-5.16C5.4-1.67.04,1.44.04,6.59Z"/>
      <path class="st3" d="M.79,5.35l.06.69c.47-3.55,6.1-7.52,9.82-1.39.32.52.17.44.61.7-.41-2.4-2.55-4.6-5.29-4.58C3.34.77.93,2.94.79,5.35Z"/>
    </g>
  </g>
  <g id="_x23_efeeedff">
    <path class="st6" d="M2.17,10.66c.01-1.97,0-5.83.1-7.79,2.58-.11,5.16-.05,7.73-.04,0,2.56.07,5.13-.06,7.7"/>
  </g>
  <g id="_x23_989698ff">
    <path class="st7" d="M2.02,2.69c2.7-.07,5.4-.03,8.1-.03,0,2.71,0,5.43,0,8.15-2.71.01-5.42.05-8.12-.03-.08-2.7-.03-5.39.02-8.09M2.3,3c-.1,1.73-.09,3.46-.1,5.19-.02.78-.03,1.56-.03,2.35,2.59,0,5.17,0,7.76,0-.04-.2-.13-.6-.18-.8.13-2.26.06-4.52.06-6.78-2.5,0-5.01-.06-7.52.04Z"/>
  </g>
  <g id="_x23_2223a9ff">
    <path class="st5" d="M4.63,4.17c.28-1.12,2.06-1.31,2.49-.2.44.86-.39,1.54-.9,2.11.51.06,1.02.11,1.53.16,0,.18-.02.54-.02.72-.47.02-.94.04-1.4.06,0,.68,0,1.37.02,2.05.75-.21,1.42-.62,1.92-1.23-.16-.16-.31-.33-.47-.49.48-.5.96-1,1.47-1.47.14.62.28,1.24.39,1.86-.56.54-.98,1.23-1.62,1.69-1.35.91-3.32.84-4.57-.23-.47-.44-.86-.95-1.21-1.48-.04-.62.16-1.23.28-1.84.49.45.95.93,1.41,1.42-.79.95.81,1.54,1.52,1.77.02-.69.02-1.37.02-2.05-.47-.02-.94-.04-1.4-.06,0-.18-.02-.54-.02-.72.51-.05,1.02-.1,1.53-.16-.44-.56-1.24-1.09-.97-1.92M5.59,3.64c-.13.33-.25.67-.35,1.01.2.5.91.75,1.2.17.44-.58-.44-.96-.85-1.18Z"/>
  </g>
  <g id="_x23_eef1fcff">
    <path class="st4" d="M5.59,3.64c.41.23,1.29.61.85,1.18-.29.57-.99.33-1.2-.17.1-.35.22-.68.35-1.01Z"/>
  </g>
</svg>