<?xml version="1.0" encoding="UTF-8"?>
<!DOCTYPE svg PUBLIC "-//W3C//DTD SVG 1.1//EN" "http://www.w3.org/Graphics/SVG/1.1/DTD/svg11.dtd">
<!-- Creator: CorelDRAW -->
<svg xmlns="http://www.w3.org/2000/svg" xml:space="preserve" width="4.2332mm" height="6.9426mm" version="1.1" style="shape-rendering:geometricPrecision; text-rendering:geometricPrecision; image-rendering:optimizeQuality; fill-rule:evenodd; clip-rule:evenodd"
viewBox="0 0 423320 694260"
 xmlns:xlink="http://www.w3.org/1999/xlink"
 xmlns:xodm="http://www.corel.com/coreldraw/odm/2003">
 <defs>
  <style type="text/css">
   <![CDATA[
    .fil31 {fill:#02AE4B}
    .fil33 {fill:#050C7B}
    .fil32 {fill:#1622A2}
    .fil27 {fill:#2E8228}
    .fil26 {fill:#2FB22C}
    .fil18 {fill:#353535}
    .fil28 {fill:#36982E}
    .fil19 {fill:#373737}
    .fil17 {fill:#3D3D3D}
    .fil14 {fill:#3F3F3F}
    .fil30 {fill:#41CB36}
    .fil16 {fill:#454545}
    .fil13 {fill:#6A6A6A}
    .fil12 {fill:#7B7B7B}
    .fil11 {fill:#8C8C8C}
    .fil3 {fill:#9A2E40}
    .fil8 {fill:#9B672F}
    .fil2 {fill:#B0364A}
    .fil34 {fill:#B4ACCC}
    .fil9 {fill:#B57837}
    .fil22 {fill:#C1A32D}
    .fil1 {fill:#CA2B3E}
    .fil7 {fill:#CB8429}
    .fil35 {fill:#CBD4EC}
    .fil6 {fill:#CF8F42}
    .fil0 {fill:#D04458}
    .fil5 {fill:#D4586D}
    .fil10 {fill:#D49858}
    .fil20 {fill:#DBDBDB}
    .fil15 {fill:#F0F0F0}
    .fil21 {fill:#F2F2F2}
    .fil29 {fill:#F6F6F6}
    .fil23 {fill:#FADD57}
    .fil4 {fill:#FEFEFE}
    .fil24 {fill:#FFD326}
    .fil25 {fill:#FFFFFE}
   ]]>
  </style>
 </defs>
 <g id="圖層_x0020_2" visibility="hidden">
  <metadata id="CorelCorpID_0Corel-Layer"/>
  <image id="marker-icon-2x-red.png" x="0" y="0" width="423320" height="694260" xlink:href="marker-icon-2x-s-5-copy_Images\marker-icon-2x-s-5-copy_ImgID1.png"/>
  <g id="_2135008302336">
   <path class="fil0" d="M27980 190890l-7410 43860c1830,78600 78060,191180 107770,256290 23280,3690 840,-28850 -7130,-45410 -27390,-56960 -56600,-118280 -68720,-183470l57640 1440c16600,48610 68550,78740 130070,64490 63510,-14720 73140,-49530 89990,-113610l44980 0c-40,45810 -10640,77090 -23520,113340l-32250 77060c-6370,30260 -7830,15070 4510,28960 24480,-49100 79270,-140110 78840,-199090l-4510 -44190c-15680,-9070 -10360,-6160 -21530,-24540 -131430,-216180 -329880,-76230 -346480,49100l-2250 -24230z"/>
   <path class="fil1" d="M128340 491040c19770,39700 57770,127210 83320,153790 21360,-23180 94450,-170960 112250,-210990 -12340,-13890 -10880,1300 -4510,-28960l32250 -77060c12880,-36250 23480,-67530 23520,-113340l-44980 0c-16850,64080 -26480,98890 -89990,113610 -61520,14250 -113470,-15880 -130070,-64490l-57640 -1440c12120,65190 41330,126510 68720,183470 7970,16560 30410,49100 7130,45410z"/>
   <path class="fil2" d="M189110 136780c-9300,1750 -43320,31670 -48170,37430 -39610,47080 -6850,151980 89550,134580 114460,-20660 77150,-194340 -41380,-172010z"/>
   <path class="fil3" d="M423320 234750l-20570 0c430,58980 -54360,149990 -78840,199090 -17800,40030 -90890,187810 -112250,210990 -25550,-26580 -63550,-114090 -83320,-153790 -29710,-65110 -105940,-177690 -107770,-256290l-20570 0c1610,79990 103260,251160 149570,343800 17440,34870 34570,87080 62090,107240 26490,-19410 43730,-70530 59260,-101600 19050,-38080 36320,-72330 56410,-112920 29120,-58800 94460,-160440 95990,-236520z"/>
   <path class="fil4" d="M189310 159990c-37950,15740 -56500,44030 -40160,88000 11110,29870 49330,52320 91730,36080 68270,-26140 35670,-160250 -51570,-124080z"/>
   <path class="fil2" d="M0 234750l20570 0 7410 -43860c4820,-85000 90090,-161390 183670,-162030 96790,-660 172240,76990 186590,161700l4510 44190 20570 0c0,-85150 -31200,-140390 -86670,-181950 -146040,-109410 -336650,450 -336650,181950z"/>
   <path class="fil5" d="M27980 190890l2250 24230c16600,-125330 215050,-265280 346480,-49100 11170,18380 5850,15470 21530,24540 -14350,-84710 -89800,-162360 -186590,-161700 -93580,640 -178850,77030 -183670,162030z"/>
  </g>
 </g>
 <g id="圖層_x0020_3" visibility="hidden">
  <metadata id="CorelCorpID_1Corel-Layer"/>
  <image id="marker-icon-2x-orange.png" x="0" y="0" width="423320" height="694260" xlink:href="marker-icon-2x-s-5-copy_Images\marker-icon-2x-s-5-copy_ImgID2.png"/>
  <g id="_2135008300224">
   <path class="fil6" d="M22520 248400l1650 13620c9700,55710 162500,351970 187490,380980 23860,-28690 167350,-308100 179900,-357000 -11690,-9430 -10080,20180 -8460,-26230 -26390,26370 -113980,278790 -151510,333090 -17290,25020 -4140,8620 -19930,21620 -27030,-22150 -33270,-49440 -49620,-84860 -35770,-77520 -102180,-207790 -111760,-282950l51320 150c22820,106940 197820,136760 228590,-31780l45510 0 1150 38740c76690,-43000 -125900,-322040 -290770,-142020 -13550,14800 -30810,31510 -39880,53680 -11440,27980 -7910,60670 -23680,82960z"/>
   <path class="fil7" d="M383100 259770l-6250 -5990 -1150 -38740 -45510 0c-30770,168540 -205770,138720 -228590,31780l-51320 -150c9580,75160 75990,205430 111760,282950 16350,35420 22590,62710 49620,84860 15790,-13000 2640,3400 19930,-21620 37530,-54300 125120,-306720 151510,-333090z"/>
   <path class="fil8" d="M194230 142580c-41930,10180 -73740,49570 -63600,100170 8170,40760 54150,75080 104950,61750 100190,-26310 66840,-188180 -41350,-161920z"/>
   <path class="fil8" d="M414850 177800c-3290,17430 1750,22080 -660,42350 -4250,35590 2550,21880 -17400,41870l-5230 23980c-12550,48900 -156040,328310 -179900,357000 -24990,-29010 -177790,-325270 -187490,-380980 -29190,-36190 -8520,-51040 -15700,-84220 -4140,6530 -6870,14060 -8470,22220l0 44260c4220,29610 14910,59940 22840,80010 34950,88350 76750,154280 121090,242970 16340,32690 41070,99000 67730,118530 27300,-20000 105300,-195740 126890,-237170 32280,-61980 77130,-129430 84770,-201090l0 -32110 -8470 -37620z"/>
   <path class="fil4" d="M188540 159460c-34990,14790 -56720,43000 -39850,88770 11220,30440 49420,52660 92520,36340 73110,-27680 34990,-162170 -52670,-125110z"/>
   <path class="fil9" d="M8470 177800c7180,33180 -13490,48030 15700,84220l-1650 -13620c-9580,-297190 413090,-281200 374270,13620 19950,-19990 13150,-6280 17400,-41870 2410,-20270 -2630,-24920 660,-42350 -1050,-47270 -36020,-89810 -68790,-117480 -153660,-129770 -335350,16550 -337590,117480z"/>
   <path class="fil10" d="M22520 248400c15770,-22290 12240,-54980 23680,-82960 9070,-22170 26330,-38880 39880,-53680 164870,-180020 367460,99020 290770,142020l6250 5990c-1620,46410 -3230,16800 8460,26230l5230 -23980c38820,-294820 -383850,-310810 -374270,-13620z"/>
  </g>
 </g>
 <g id="圖層_x0020_4" visibility="hidden">
  <metadata id="CorelCorpID_2Corel-Layer"/>
  <g id="_2135008298064">
   <path class="fil11" d="M112580 465790c29080,-12660 3720,-16760 -33860,-112220 -17480,-44400 -29490,-81090 -33410,-133440l47820 0c13430,23870 20620,109570 118780,110170 83660,520 90820,-50330 118280,-110170l48680 0c-5610,71950 -35820,138230 -66180,201870 -37130,77830 -22920,50380 -13390,63070 25340,-75500 106820,-176590 105680,-272810 -2820,-239240 -363670,-250450 -385720,-14940 -10960,116990 87620,207440 93320,268470z"/>
   <path class="fil12" d="M112580 465790c17070,31150 36270,59690 51750,88790 15900,29900 23390,62670 47330,88630 40900,-47470 47160,-102350 87640,-158140 -9530,-12690 -23740,14760 13390,-63070 30360,-63640 60570,-129920 66180,-201870l-48680 0c-27460,59840 -34620,110690 -118280,110170 -98160,-600 -105350,-86300 -118780,-110170l-47820 0c3920,52350 15930,89040 33410,133440 37580,95460 62940,99560 33860,112220z"/>
   <path class="fil13" d="M299300 485070c-40480,55790 -46740,110670 -87640,158140 -23940,-25960 -31430,-58730 -47330,-88630 -15480,-29100 -34680,-57640 -51750,-88790 -5700,-61030 -104280,-151480 -93320,-268470 22050,-235510 382900,-224300 385720,14940 1140,96220 -80340,197310 -105680,272810zm-299300 -264940c0,89760 55950,180010 95840,251290 20440,36510 34750,69170 53730,107130 17440,34870 34570,87080 62090,107240 26490,-19410 43730,-70530 59260,-101600 19050,-38080 36320,-72330 56410,-112920 38900,-78550 95990,-156330 95990,-251140 0,-278430 -423320,-276190 -423320,0z"/>
  </g>
 </g>
 <g id="圖層_x0020_5" visibility="hidden">
  <metadata id="CorelCorpID_3Corel-Layer"/>
  <g id="_2135132513840">
   <path class="fil14" d="M203620 160100c78900,-18520 100500,110630 23010,125250 -81760,15420 -119880,-102510 -23010,-125250zm-203620 60030c0,89760 55950,180010 95840,251290 20440,36510 34750,69170 53730,107130 17440,34870 34570,87080 62090,107240 26490,-19410 43730,-70530 59260,-101600 19050,-38080 36320,-72330 56410,-112920 38900,-78550 95990,-156330 95990,-251140 0,-278430 -423320,-276190 -423320,0z"/>
   <path class="fil15" d="M203620 160100c-96870,22740 -58750,140670 23010,125250 77490,-14620 55890,-143770 -23010,-125250z"/>
  </g>
  <g id="_2135132515280">
   <path class="fil16" d="M269170 493170c-4450,23290 -11980,35540 -21870,57740l-20530 40580c-1390,1890 -3250,3900 -4620,5600l-33070 -16820 -36330 -86050c-22800,-19460 -52640,-92540 -65890,-123300 -20520,-47630 -36360,-94570 -40320,-149740l52940 0c23480,122480 113520,127820 173470,94750 37650,-20770 24520,-24830 48770,-54520l49740 0c-7000,35420 -61620,182860 -87670,216580 -8880,11500 -4860,7040 -14620,15180zm-82950 -346230c52170,-22560 133870,23210 104710,110060 -9160,27270 -13390,33640 -40910,45080 -105870,44000 -183570,-103340 -63800,-155140zm25440 492050c59010,-102860 113390,-210130 169070,-325630 72560,-150480 -29630,-288950 -169080,-288520 -140860,440 -238830,136940 -169230,288760l169240 325390z"/>
   <path class="fil17" d="M152750 494220c6160,-11970 -10710,-15280 58980,-15250 1160,0 32750,2010 32990,2070 26090,6050 7770,-5090 24450,12130 9760,-8140 5740,-3680 14620,-15180 26050,-33720 80670,-181160 87670,-216580l-49740 0c-24250,29690 -11120,33750 -48770,54520 -59950,33070 -149990,27730 -173470,-94750l-52940 0c3960,55170 19800,102110 40320,149740 13250,30760 43090,103840 65890,123300z"/>
   <path class="fil18" d="M42420 313600c-69600,-151820 28370,-288320 169230,-288760 139450,-430 241640,138040 169080,288520 -55680,115500 -110060,222770 -169070,325630l-169240 -325390zm-42420 -93470c0,89760 55950,180010 95840,251290 20440,36510 34750,69170 53730,107130 17440,34870 34570,87080 62090,107240 26490,-19410 43730,-70530 59260,-101600 19050,-38080 36320,-72330 56410,-112920 38900,-78550 95990,-156330 95990,-251140 0,-278430 -423320,-276190 -423320,0z"/>
   <path class="fil19" d="M202170 158550c84080,-18870 106530,113280 24950,128170 -86980,15880 -119840,-106870 -24950,-128170zm-15950 -11610c-119770,51800 -42070,199140 63800,155140 27520,-11440 31750,-17810 40910,-45080 29160,-86850 -52540,-132620 -104710,-110060z"/>
   <path class="fil20" d="M169330 194000c53380,-27290 105690,-10300 78390,62200 -28130,12310 -45200,12350 -74690,2190 -11990,-30850 -11580,-26010 -3700,-64390zm32840 -35450c-94890,21300 -62030,144050 24950,128170 81580,-14890 59130,-147040 -24950,-128170z"/>
   <path class="fil21" d="M169330 194000c-7880,38380 -8290,33540 3700,64390 29490,10160 46560,10120 74690,-2190 27300,-72500 -25010,-89490 -78390,-62200z"/>
  </g>
 </g>
 <g id="圖層_x0020_6" visibility="hidden">
  <metadata id="CorelCorpID_4Corel-Layer"/>
  <image id="marker-icon-2x-gold.png" x="-4230" y="-4230" width="431780" height="702720" xlink:href="marker-icon-2x-s-5-copy_Images\marker-icon-2x-s-5-copy_ImgID3.png"/>
  <g id="_2135132511632">
   <path class="fil22" d="M-4230 190500c0,117180 58890,171210 98020,266030 17040,41290 95780,214210 122100,233490l101570 -220160c71620,-141880 101620,-168330 101620,-287830 0,-99110 -97470,-181450 -204010,-186260l-19190 0c-46600,2030 -93910,19330 -134700,56940 -28600,26370 -65410,85670 -65410,137790z"/>
   <path class="fil23" d="M206930 630080c27870,-28770 134870,-269090 163750,-327100 67890,-136340 -17640,-282140 -163250,-281090 -146740,1050 -224300,143490 -160630,277860 51410,108490 106100,226360 160130,330330z"/>
   <path class="fil24" d="M208360 594750c25630,-35350 114430,-236650 146940,-298030 66870,-126300 -16020,-261010 -147920,-258890 -127330,2040 -208740,124530 -145370,256110 47480,98580 96660,208870 146350,300810z"/>
   <path class="fil23" d="M177830 59780c-220800,54530 -128830,365100 85340,299960 172220,-52400 120970,-350880 -85340,-299960z"/>
   <path class="fil22" d="M174220 137920c-104660,52340 -30180,194970 71810,150400 94770,-41410 33160,-202880 -71810,-150400z"/>
   <path class="fil25" d="M192000 145890c-99130,27880 -51640,156290 36620,134220 84460,-21130 56400,-160380 -36620,-134220z"/>
  </g>
 </g>
 <g id="圖層_x0020_7" visibility="hidden">
  <metadata id="CorelCorpID_5Corel-Layer"/>
  <g id="_2135132507552">
   <path class="fil26" d="M302400 209750c-5560,66390 -41400,112460 -109540,97310 -88430,-19670 -64960,-81950 -56630,-129980 -27150,-2940 -3110,21750 -18910,-10470 31090,-31000 53420,-68920 127490,-49460 46040,12100 67290,49080 70250,106720 -5620,-6630 -9620,-600 -12660,-14120zm-282950 14120l2530 39520c13720,60170 165990,354220 189680,380310 24110,-27790 175830,-321770 189930,-380310l2280 -39520c-39000,-31640 -8690,-52760 -71830,-115320 -28370,-28120 -66980,-52210 -120700,-52320 -51380,-100 -92170,25690 -119750,52050 -51320,49070 -38940,88820 -72140,115590z"/>
   <path class="fil27" d="M423320 226690c-17210,13040 -6590,12880 -21730,36700 -14100,58540 -165820,352520 -189930,380310 -23690,-26090 -175960,-320140 -189680,-380310 -16010,-24230 -4620,-23500 -21980,-36700 0,88500 100400,253500 149570,351860 17440,34870 34570,87080 62090,107240 26490,-19410 43730,-70530 59260,-101600 47160,-94310 152400,-272940 152400,-357500z"/>
   <path class="fil28" d="M0 226690c17360,13200 5970,12470 21980,36700l-2530 -39520c40020,-222160 230520,-231680 325020,-136540 40600,40870 47080,66800 59400,136540l-2280 39520c15140,-23820 4520,-23660 21730,-36700 0,-73640 -24210,-111820 -59870,-149890 -136300,-145520 -363450,-36930 -363450,149890z"/>
   <path class="fil29" d="M190750 161640c-95720,41290 -25140,153570 50130,121540 70000,-29800 34360,-157980 -50130,-121540z"/>
   <path class="fil30" d="M19450 223870c33200,-26770 20820,-66520 72140,-115590 27580,-26360 68370,-52150 119750,-52050 53720,110 92330,24200 120700,52320 63140,62560 32830,83680 71830,115320 -12320,-69740 -18800,-95670 -59400,-136540 -94500,-95140 -285000,-85620 -325020,136540z"/>
   <path class="fil28" d="M190750 161640c84490,-36440 120130,91740 50130,121540 -75270,32030 -145850,-80250 -50130,-121540zm-54520 15440c-8330,48030 -31800,110310 56630,129980 68140,15150 103980,-30920 109540,-97310 -11750,-39870 -32270,-68220 -74590,-74520 -45780,-6820 -72550,10390 -91580,41850z"/>
   <path class="fil30" d="M136230 177080c19030,-31460 45800,-48670 91580,-41850 42320,6300 62840,34650 74590,74520 3040,13520 7040,7490 12660,14120 -2960,-57640 -24210,-94620 -70250,-106720 -74070,-19460 -96400,18460 -127490,49460 15800,32220 -8240,7530 18910,10470z"/>
  </g>
 </g>
 <g id="圖層_x0020_8">
  <metadata id="CorelCorpID_6Corel-Layer"/>
  <image id="marker-icon-2x.png" x="0" y="0" width="423320" height="694260" xlink:href="marker-icon-2x-s-5-copy_Images\marker-icon-2x-s-5-copy_ImgID4.png"/>
 </g>
 <g id="圖層_x0020_9" visibility="hidden">
  <metadata id="CorelCorpID_7Corel-Layer"/>
  <path class="fil31" d="M27320 167380c8130,43450 70800,71150 104840,102430 -4920,41190 -41490,97910 -53170,143100 107240,-28710 80640,-49650 136960,-83610 18260,7360 4220,350 18810,12180 68550,55610 18780,44960 115670,73380 -10760,-53670 -49180,-95960 -50160,-153130 25510,-10240 39950,-24640 61100,-39070 22750,-15510 39100,-20220 41110,-54020 -29000,-8750 -38930,-5740 -70980,-3780l-52250 1530c-38440,-2450 -24780,-90570 -63480,-132530 -19150,15750 -37900,95840 -47790,125440 -24050,8830 -114290,7120 -140660,8080z"/>
 </g>
 <g id="圖層_x0020_1">
  <metadata id="CorelCorpID_8Corel-Layer"/>
  <g id="_2135132551184">
   <path class="fil32" d="M289540 197340c620,5340 -2540,8590 -6060,12710 -8790,10280 -25620,12640 -39260,13560 -10560,700 -23060,660 -30360,-5860 -3500,-3120 -13310,-15700 -13340,-21090 21800,-4250 16710,-2920 42580,460 22850,2990 35760,-1180 46440,220zm67850 -13700c-4150,-3120 -73950,-1360 -85070,-1240l-75770 -20c-1500,30 -4080,-30 -5460,140 -3550,420 -1460,90 -3130,1100l2780 1200c-12690,3150 -10480,-140 -13160,7640 -1440,4170 -1610,1410 -2100,5730l3270 192020c280,6120 2010,5190 2230,13100l1060 -4200c940,-1770 670,-1030 1590,-2150 150,4690 1060,9000 1370,15040 11370,8960 2260,2910 6150,6410 2780,1200 5990,1250 10090,1320 -1830,1820 3100,2240 -4100,1920 8480,220 16930,210 25410,300 8530,100 14280,2170 23790,2230l106120 -40c5000,-110 7230,-1310 10890,-1860 4090,-620 8760,80 12750,-470 7570,-1040 16320,-8130 16990,-9810 180,-3920 -30,-8750 500,-12470 340,-2370 440,-1320 770,-4830 610,-6250 -480,-3090 1620,-5860l140 3250c270,-3080 90,-10860 580,-13420 750,-3970 2360,-3030 2830,-10370 620,-9520 230,-19050 1050,-27730l50 -114620c-610,-5940 -1980,-30190 -8100,-33340 -2790,-1440 -4910,-100 -7300,-2740 -3000,-3300 110,-190 -340,-1230l-100660 -3650c-10560,30 -25590,690 -35350,-590 18760,0 36140,-600 54830,-1660 7800,-450 52980,1120 53680,900z"/>
   <path class="fil32" d="M141160 45910l4050 2370c-6520,15050 -43380,17430 -56980,16660 -11360,-650 -11640,-2980 -17840,-6500l-1230 1080c-1540,-2810 -1680,-2550 -2300,-6010 -2490,1010 -1360,320 -2810,2170l-1870 -2240c-970,660 -480,440 -1480,920l-1340 -12330 -13310 -80c-1680,2050 -6590,4790 -7560,7280 0,20 -1110,148160 -20,158590l5560 40110c1170,3040 870,1790 900,5920 2980,70 6970,-110 9800,140 4120,380 3530,1830 11870,3570l13000 3410c30,90 20,170 20,280 0,110 -20,260 -20,280l0 1480c6500,3000 63890,1190 75770,570 7920,-17530 4440,-47560 6750,-54160 1140,-3270 630,1950 1350,-3850 270,-2120 60,-4600 390,-6860l2460 -15790c1000,-4930 440,-3330 1590,-2930l1470 -2000c-30,-50 -4170,-1820 1100,-5720 4740,-3520 52210,-5660 59620,-5700 -2790,-2200 -2640,-900 -5230,-2090 12660,-360 11230,-3380 18260,-3640 540,-9740 2630,1660 3360,-9220 330,-4980 -470,-10930 230,-15880 2420,-17190 2900,-71800 2600,-89950 -30,-30 -1480,-1640 -1490,-1650l-3320 -3360c-700,-660 -2110,-2180 -2200,-2250 -7160,-5350 -86310,-2950 -95600,-2680 -1880,3960 2450,-1240 -2510,4960 -2350,2940 110,1920 -3040,5100z"/>
   <path class="fil33" d="M167910 179990c-1150,-400 -590,-2000 -1590,2930l-2460 15790c-330,2260 -120,4740 -390,6860 -720,5800 -210,580 -1350,3850 -2310,6600 1170,36630 -6750,54160 -11880,620 -69270,2430 -75770,-570l0 -1480c0,-20 20,-170 20,-280 0,-110 10,-190 -20,-280l-13000 -3410c-8340,-1740 -7750,-3190 -11870,-3570 -2830,-250 -6820,-70 -9800,-140 -30,-4130 270,-2880 -900,-5920l-5560 -40110c-1090,-10430 20,-158570 20,-158590 970,-2490 5880,-5230 7560,-7280l13310 80 1340 12330c1000,-480 510,-260 1480,-920l1870 2240c1450,-1850 320,-1160 2810,-2170 620,3460 760,3200 2300,6010l1230 -1080c-1290,-5630 -3780,-9740 800,-14570 8150,-1630 62110,-30 69970,2040 3150,-3180 690,-2160 3040,-5100 4960,-6200 630,-1000 2510,-4960 9290,-270 88440,-2670 95600,2680 90,70 1500,1590 2200,2250l3320 3360c10,10 1460,1620 1490,1650 300,18150 -180,72760 -2600,89950 -700,4950 100,10900 -230,15880 -730,10880 -2820,-520 -3360,9220 -7030,260 -5600,3280 -18260,3640 2590,1190 2440,-110 5230,2090 -7410,40 -54880,2180 -59620,5700 -5270,3900 -1130,5670 -1100,5720 1870,-5140 1500,-4830 7680,-5560 14860,-1750 69250,-1710 84160,-1670 2740,-10280 1160,-102180 -170,-125010 -180,-3030 -310,-6250 -560,-9250 -360,-4340 -500,-5420 -2200,-7040 -11870,-7000 -93330,-4320 -112670,-4090 -16620,200 -106190,-710 -114410,1210 -3970,21120 -2600,151850 -2800,183580 -110,18850 -1190,42620 390,60970 14690,1910 130630,4880 135890,800 2640,-2690 1000,-43160 1040,-46820l2180 -45120z"/>
   <path class="fil33" d="M357390 183640c-700,220 -45880,-1350 -53680,-900 -18690,1060 -36070,1660 -54830,1660 9760,1280 24790,620 35350,590l100660 3650c450,1040 -2660,-2070 340,1230 2390,2640 4510,1300 7300,2740 6120,3150 7490,27400 8100,33340l-50 114620c-820,8680 -430,18210 -1050,27730 -470,7340 -2080,6400 -2830,10370 -490,2560 -310,10340 -580,13420l-140 -3250c-2100,2770 -1010,-390 -1620,5860 -330,3510 -430,2460 -770,4830 -530,3720 -320,8550 -500,12470 -670,1680 -9420,8770 -16990,9810 -3990,550 -8660,-150 -12750,470 -3660,550 -5890,1750 -10890,1860l-106120 40c-9510,-60 -15260,-2130 -23790,-2230 -8480,-90 -16930,-80 -25410,-300 7200,320 2270,-100 4100,-1920 -4100,-70 -7310,-120 -10090,-1320 -3890,-3500 5220,2550 -6150,-6410 -310,-6040 -1220,-10350 -1370,-15040 -920,1120 -650,380 -1590,2150l-1060 4200c-220,-7910 -1950,-6980 -2230,-13100l-3270 -192020c490,-4320 660,-1560 2100,-5730 2680,-7780 470,-4490 13160,-7640l-2780 -1200c-5360,-1140 -8140,0 -12250,1500 -6370,23930 -3670,92680 -3610,122280 40,21180 -2700,107330 4980,120800 5590,4730 146230,3550 171010,3220 9430,-120 18760,-520 28140,-850l25040 -3710c8400,-13200 4380,-211200 2160,-240180 -11290,-1630 -35610,-5230 -46040,-3040z"/>
   <path class="fil34" d="M200520 196660c30,5390 9840,17970 13340,21090 7300,6520 19800,6560 30360,5860 13640,-920 30470,-3280 39260,-13560 3520,-4120 6680,-7370 6060,-12710 -10680,-1400 -23590,2770 -46440,-220 -25870,-3380 -20780,-4710 -42580,-460z"/>
   <path class="fil35" d="M70390 58440c6200,3520 6480,5850 17840,6500 13600,770 50460,-1610 56980,-16660l-4050 -2370c-7860,-2070 -61820,-3670 -69970,-2040 -4580,4830 -2090,8940 -800,14570z"/>
  </g>
 </g>
 <g id="圖層_x0020_10">
  <metadata id="CorelCorpID_9Corel-Layer"/>
 </g>
 <g id="圖層_x0020_11">
  <metadata id="CorelCorpID_10Corel-Layer"/>
  <g id="_2135132525216">
  </g>
 </g>
</svg>
