<?xml version="1.0" encoding="UTF-8"?>
<svg id="_圖層_1" data-name="圖層_1" xmlns="http://www.w3.org/2000/svg" version="1.1" xmlns:xodm="http://www.corel.com/coreldraw/odm/2003" viewBox="0 0 12 19.68">
  <!-- Generator: Adobe Illustrator 29.6.1, SVG Export Plug-In . SVG Version: 2.1.1 Build 9)  -->
  <defs>
    <style>
      .st0 {
        fill: #d04458;
      }

      .st0, .st1, .st2, .st3, .st4, .st5, .st6, .st7, .st8, .st9, .st10, .st11, .st12, .st13, .st14, .st15, .st16, .st17, .st18, .st19, .st20, .st21, .st22, .st23, .st24, .st25, .st26, .st27, .st28, .st29, .st30, .st31, .st32, .st33, .st34, .st35, .st36, .st37, .st38, .st39 {
        fill-rule: evenodd;
      }

      .st0, .st1, .st2, .st3, .st4, .st5, .st6, .st7, .st8, .st9, .st10, .st11, .st12, .st13, .st15, .st16, .st17, .st18, .st20, .st23, .st24, .st25, .st27, .st28, .st29, .st31, .st32, .st33, .st34, .st35, .st36, .st37, .st38, .st39 {
        display: none;
      }

      .st1 {
        fill: #fadd57;
      }

      .st2 {
        fill: #ca2b3e;
      }

      .st3 {
        fill: #d49858;
      }

      .st4 {
        fill: #02ae4b;
      }

      .st5 {
        fill: #3d3d3d;
      }

      .st6 {
        fill: #d4586d;
      }

      .st7 {
        fill: #c1a32d;
      }

      .st8 {
        fill: #f2f2f2;
      }

      .st9 {
        fill: #cb8429;
      }

      .st40 {
        fill: #2325af;
      }

      .st10 {
        fill: #b57837;
      }

      .st11 {
        fill: #f0f0f0;
      }

      .st12 {
        fill: #fbfafb;
      }

      .st13 {
        fill: #2e8228;
      }

      .st14 {
        fill: #2e6d99;
      }

      .st15 {
        fill: #fefefe;
      }

      .st16 {
        fill: #454545;
      }

      .st17 {
        fill: #2fb22c;
      }

      .st18 {
        fill: #dbdbdb;
      }

      .st19 {
        fill: #4596d0;
      }

      .st20 {
        fill: #3f3f3f;
      }

      .st21 {
        fill: #3377a7;
      }

      .st22 {
        fill: #59a1d5;
      }

      .st23 {
        fill: #9b672f;
      }

      .st24 {
        fill: #fffffe;
      }

      .st25 {
        fill: #373737;
      }

      .st26 {
        fill: #367eae;
      }

      .st27 {
        fill: #b0364a;
      }

      .st41 {
        fill: #efeeed;
      }

      .st28 {
        fill: #ffd326;
      }

      .st29 {
        fill: #6a6a6a;
      }

      .st30 {
        fill: #fefeff;
      }

      .st31 {
        fill: #f6f6f6;
      }

      .st32 {
        fill: #8c8c8c;
      }

      .st42 {
        fill: #d2d6d9;
      }

      .st33 {
        fill: #36982e;
      }

      .st34 {
        fill: #f50100;
      }

      .st35 {
        fill: #353535;
      }

      .st43 {
        fill: #8989cf;
      }

      .st44 {
        fill: #2224b1;
      }

      .st36 {
        fill: #cf8f42;
      }

      .st37 {
        fill: #9a2e40;
      }

      .st38 {
        fill: #41cb36;
      }

      .st45 {
        fill: #989698;
      }

      .st39 {
        fill: #7b7b7b;
      }
    </style>
  </defs>
  <g id="_圖層_x5F_2" data-name="圖層_x5F_2">
    <g id="_2131036525840">
      <path class="st0" d="M.79,5.41l-.21,1.24c.05,2.23,2.21,5.42,3.05,7.26.66.1.02-.82-.2-1.29-.78-1.61-1.6-3.35-1.95-5.2l1.63.04c.47,1.38,1.94,2.23,3.69,1.83,1.8-.42,2.07-1.4,2.55-3.22h1.28c0,1.3-.3,2.19-.67,3.21l-.91,2.18c-.18.86-.22.43.13.82.69-1.39,2.25-3.97,2.23-5.64l-.13-1.25c-.44-.26-.29-.17-.61-.7C6.95-1.42,1.33,2.55.86,6.1l-.06-.69Z"/>
      <path class="st2" d="M3.64,13.92c.56,1.13,1.64,3.61,2.36,4.36.61-.66,2.68-4.85,3.18-5.98-.35-.39-.31.04-.13-.82l.91-2.18c.37-1.03.67-1.91.67-3.21h-1.28c-.48,1.82-.75,2.8-2.55,3.22-1.74.4-3.22-.45-3.69-1.83l-1.63-.04c.34,1.85,1.17,3.59,1.95,5.2.23.47.86,1.39.2,1.29Z"/>
      <path class="st27" d="M5.36,3.88c-.26.05-1.23.9-1.37,1.06-1.12,1.33-.19,4.31,2.54,3.81,3.24-.59,2.19-5.51-1.17-4.88Z"/>
      <path class="st37" d="M12,6.65h-.58c.01,1.67-1.54,4.25-2.23,5.64-.5,1.13-2.58,5.32-3.18,5.98-.72-.75-1.8-3.23-2.36-4.36-.84-1.85-3-5.04-3.05-7.26h-.58c.05,2.27,2.93,7.12,4.24,9.75.49.99.98,2.47,1.76,3.04.75-.55,1.24-2,1.68-2.88.54-1.08,1.03-2.05,1.6-3.2.83-1.67,2.68-4.55,2.72-6.7Z"/>
      <path class="st15" d="M5.37,4.54c-1.08.45-1.6,1.25-1.14,2.49.31.85,1.4,1.48,2.6,1.02,1.94-.74,1.01-4.54-1.46-3.52Z"/>
      <path class="st27" d="M0,6.65h.58l.21-1.24C.93,3,3.35.84,6,.82c2.74-.02,4.88,2.18,5.29,4.58l.13,1.25h.58c0-2.41-.88-3.98-2.46-5.16C5.4-1.6,0,1.51,0,6.65Z"/>
      <path class="st6" d="M.79,5.41l.06.69c.47-3.55,6.1-7.52,9.82-1.39.32.52.17.44.61.7-.41-2.4-2.55-4.6-5.29-4.58C3.35.84.93,3,.79,5.41Z"/>
    </g>
  </g>
  <g id="_圖層_x5F_3" data-name="圖層_x5F_3">
    <g id="_2131036579936">
      <path class="st36" d="M.64,7.04l.05.39c.27,1.58,4.61,9.98,5.31,10.8.68-.81,4.74-8.73,5.1-10.12-.33-.27-.29.57-.24-.74-.75.75-3.23,7.9-4.29,9.44-.49.71-.12.24-.56.61-.77-.63-.94-1.4-1.41-2.41-1.01-2.2-2.9-5.89-3.17-8.02h1.45c.65,3.04,5.61,3.88,6.48-.9h1.29l.03,1.1C12.86,5.97,7.11-1.93,2.44,3.17c-.38.42-.87.89-1.13,1.52-.32.79-.22,1.72-.67,2.35Z"/>
      <path class="st9" d="M10.86,7.36l-.18-.17-.03-1.1h-1.29c-.87,4.78-5.83,3.93-6.48.9h-1.45c.27,2.13,2.15,5.82,3.17,8.02.46,1,.64,1.78,1.41,2.41.45-.37.07.1.56-.61,1.06-1.54,3.55-8.69,4.29-9.44Z"/>
      <path class="st23" d="M5.51,4.04c-1.19.29-2.09,1.41-1.8,2.84.23,1.16,1.53,2.13,2.97,1.75,2.84-.75,1.89-5.33-1.17-4.59Z"/>
      <path class="st23" d="M11.76,5.04c-.09.49.05.63-.02,1.2-.12,1.01.07.62-.49,1.19l-.15.68c-.36,1.39-4.42,9.31-5.1,10.12-.71-.82-5.04-9.22-5.31-10.8-.83-1.03-.24-1.45-.45-2.39-.12.19-.19.4-.24.63v1.25c.12.84.42,1.7.65,2.27.99,2.5,2.18,4.37,3.43,6.89.46.93,1.16,2.81,1.92,3.36.77-.57,2.98-5.55,3.6-6.72.92-1.76,2.19-3.67,2.4-5.7v-.91l-.24-1.07Z"/>
      <path class="st15" d="M5.34,4.52c-.99.42-1.61,1.22-1.13,2.52.32.86,1.4,1.49,2.62,1.03,2.07-.78.99-4.6-1.49-3.55Z"/>
      <path class="st10" d="M.24,5.04c.2.94-.38,1.36.45,2.39l-.05-.39C.37-1.38,12.35-.93,11.25,7.43c.57-.57.37-.18.49-1.19.07-.57-.07-.71.02-1.2-.03-1.34-1.02-2.55-1.95-3.33C5.45-1.97.3,2.18.24,5.04Z"/>
      <path class="st3" d="M.64,7.04c.45-.63.35-1.56.67-2.35.26-.63.75-1.1,1.13-1.52C7.11-1.93,12.86,5.97,10.68,7.19l.18.17c-.05,1.32-.09.48.24.74l.15-.68C12.35-.93.37-1.38.64,7.04Z"/>
    </g>
  </g>
  <g id="_圖層_x5F_4" data-name="圖層_x5F_4">
    <g id="_2131036568800">
      <path class="st32" d="M3.19,13.2c.82-.36.11-.48-.96-3.18-.5-1.26-.84-2.3-.95-3.78h1.36c.38.68.58,3.11,3.37,3.12,2.37.01,2.57-1.43,3.35-3.12h1.38c-.16,2.04-1.02,3.92-1.88,5.72-1.05,2.21-.65,1.43-.38,1.79.72-2.14,3.03-5.01,3-7.73C11.4-.76,1.17-1.08.55,5.59c-.31,3.32,2.48,5.88,2.65,7.61Z"/>
      <path class="st39" d="M3.19,13.2c.48.88,1.03,1.69,1.47,2.52.45.85.66,1.78,1.34,2.51,1.16-1.35,1.34-2.9,2.48-4.48-.27-.36-.67.42.38-1.79.86-1.8,1.72-3.68,1.88-5.72h-1.38c-.78,1.7-.98,3.14-3.35,3.12-2.78-.02-2.99-2.45-3.37-3.12h-1.36c.11,1.48.45,2.52.95,3.78,1.07,2.71,1.78,2.82.96,3.18Z"/>
      <path class="st29" d="M8.48,13.75c-1.15,1.58-1.32,3.14-2.48,4.48-.68-.74-.89-1.66-1.34-2.51-.44-.82-.98-1.63-1.47-2.52-.16-1.73-2.96-4.29-2.65-7.61.63-6.68,10.85-6.36,10.93.42.03,2.73-2.28,5.59-3,7.73ZM0,6.24c0,2.54,1.59,5.1,2.72,7.12.58,1.03.99,1.96,1.52,3.04.49.99.98,2.47,1.76,3.04.75-.55,1.24-2,1.68-2.88.54-1.08,1.03-2.05,1.6-3.2,1.1-2.23,2.72-4.43,2.72-7.12C12-1.65,0-1.59,0,6.24Z"/>
    </g>
  </g>
  <g id="_圖層_x5F_5" data-name="圖層_x5F_5">
    <g id="_2131036564864">
      <path class="st20" d="M5.77,4.54c2.24-.52,2.85,3.14.65,3.55-2.32.44-3.4-2.91-.65-3.55ZM0,6.24c0,2.54,1.59,5.1,2.72,7.12.58,1.03.99,1.96,1.52,3.04.49.99.98,2.47,1.76,3.04.75-.55,1.24-2,1.68-2.88.54-1.08,1.03-2.05,1.6-3.2,1.1-2.23,2.72-4.43,2.72-7.12C12-1.65,0-1.59,0,6.24Z"/>
      <path class="st11" d="M5.77,4.54c-2.75.64-1.67,3.99.65,3.55,2.2-.41,1.58-4.08-.65-3.55Z"/>
    </g>
    <g id="_2134514676592">
      <path class="st16" d="M7.63,13.98c-.13.66-.34,1.01-.62,1.64l-.58,1.15c-.04.05-.09.11-.13.16l-.94-.48-1.03-2.44c-.65-.55-1.49-2.62-1.87-3.5-.58-1.35-1.03-2.68-1.14-4.24h1.5c.67,3.47,3.22,3.62,4.92,2.69,1.07-.59.7-.7,1.38-1.55h1.41c-.2,1-1.75,5.18-2.49,6.14-.25.33-.14.2-.41.43ZM5.28,4.17c1.48-.64,3.79.66,2.97,3.12-.26.77-.38.95-1.16,1.28-3,1.25-5.2-2.93-1.81-4.4ZM6,18.11c1.67-2.92,3.21-5.96,4.79-9.23C12.85,4.62,9.95.69,6,.7c-3.99.01-6.77,3.88-4.8,8.19l4.8,9.22Z"/>
      <path class="st5" d="M4.33,14.01c.17-.34-.3-.43,1.67-.43.03,0,.93.06.94.06.74.17.22-.14.69.34.28-.23.16-.1.41-.43.74-.96,2.29-5.14,2.49-6.14h-1.41c-.69.84-.32.96-1.38,1.55-1.7.94-4.25.79-4.92-2.69h-1.5c.11,1.56.56,2.89,1.14,4.24.38.87,1.22,2.94,1.87,3.5Z"/>
      <path class="st35" d="M1.2,8.89C-.77,4.59,2.01.72,6,.7c3.95-.01,6.85,3.91,4.79,8.18-1.58,3.27-3.12,6.31-4.79,9.23L1.2,8.89ZM0,6.24c0,2.54,1.59,5.1,2.72,7.12.58,1.03.99,1.96,1.52,3.04.49.99.98,2.47,1.76,3.04.75-.55,1.24-2,1.68-2.88.54-1.08,1.03-2.05,1.6-3.2,1.1-2.23,2.72-4.43,2.72-7.12C12-1.65,0-1.59,0,6.24Z"/>
      <path class="st25" d="M5.73,4.49c2.38-.53,3.02,3.21.71,3.63-2.47.45-3.4-3.03-.71-3.63ZM5.28,4.17c-3.4,1.47-1.19,5.64,1.81,4.4.78-.32.9-.5,1.16-1.28.83-2.46-1.49-3.76-2.97-3.12Z"/>
      <path class="st18" d="M4.8,5.5c1.51-.77,3-.29,2.22,1.76-.8.35-1.28.35-2.12.06-.34-.87-.33-.74-.1-1.83ZM5.73,4.49c-2.69.6-1.76,4.08.71,3.63,2.31-.42,1.68-4.17-.71-3.63Z"/>
      <path class="st8" d="M4.8,5.5c-.22,1.09-.23.95.1,1.83.84.29,1.32.29,2.12-.06.77-2.06-.71-2.54-2.22-1.76Z"/>
    </g>
  </g>
  <g id="_圖層_x5F_6" data-name="圖層_x5F_6">
    <g id="_2134514673568">
      <path class="st7" d="M-.12,5.4c0,3.32,1.67,4.85,2.78,7.54.48,1.17,2.72,6.07,3.46,6.62l2.88-6.24c2.03-4.02,2.88-4.77,2.88-8.16C11.88,2.35,9.12.02,6.1-.12h-.54c-1.32.06-2.66.55-3.82,1.61C.92,2.24-.12,3.92-.12,5.4Z"/>
      <path class="st1" d="M5.87,17.86c.79-.82,3.82-7.63,4.64-9.27,1.92-3.86-.5-8-4.63-7.97C1.72.65-.48,4.69,1.33,8.5c1.46,3.08,3.01,6.42,4.54,9.36Z"/>
      <path class="st28" d="M5.91,16.86c.73-1,3.24-6.71,4.17-8.45,1.9-3.58-.45-7.4-4.19-7.34C2.27,1.13-.04,4.6,1.76,8.33c1.35,2.79,2.74,5.92,4.15,8.53Z"/>
      <path class="st1" d="M5.04,1.69C-1.22,3.24,1.39,12.04,7.46,10.2,12.34,8.71,10.89.25,5.04,1.69Z"/>
      <path class="st7" d="M4.94,3.91c-2.97,1.48-.86,5.53,2.04,4.26,2.69-1.17.94-5.75-2.04-4.26Z"/>
      <path class="st24" d="M5.44,4.14c-2.81.79-1.46,4.43,1.04,3.8,2.39-.6,1.6-4.55-1.04-3.8Z"/>
    </g>
  </g>
  <g id="_圖層_x5F_7" data-name="圖層_x5F_7">
    <g id="_2134514669440">
      <path class="st17" d="M8.57,5.95c-.16,1.88-1.17,3.19-3.11,2.76-2.51-.56-1.84-2.32-1.61-3.68-.77-.08-.09.62-.54-.3.88-.88,1.51-1.95,3.61-1.4,1.31.34,1.91,1.39,1.99,3.03-.16-.19-.27-.02-.36-.4ZM.55,6.35l.07,1.12c.39,1.71,4.71,10.04,5.38,10.78.68-.79,4.98-9.12,5.38-10.78l.06-1.12c-1.11-.9-.25-1.5-2.04-3.27-.8-.8-1.9-1.48-3.42-1.48-1.46,0-2.61.73-3.39,1.48-1.45,1.39-1.1,2.52-2.04,3.28Z"/>
      <path class="st13" d="M12,6.43c-.49.37-.19.37-.62,1.04-.4,1.66-4.7,9.99-5.38,10.78-.67-.74-4.99-9.07-5.38-10.78-.45-.69-.13-.67-.62-1.04,0,2.51,2.85,7.19,4.24,9.97.49.99.98,2.47,1.76,3.04.75-.55,1.24-2,1.68-2.88,1.34-2.67,4.32-7.74,4.32-10.13Z"/>
      <path class="st33" d="M0,6.43c.49.37.17.35.62,1.04l-.07-1.12C1.69.05,7.09-.22,9.76,2.48c1.15,1.16,1.33,1.89,1.68,3.87l-.06,1.12c.43-.68.13-.67.62-1.04,0-2.09-.69-3.17-1.7-4.25C6.44-1.95,0,1.13,0,6.43Z"/>
      <path class="st31" d="M5.41,4.58c-2.71,1.17-.71,4.35,1.42,3.45,1.98-.84.97-4.48-1.42-3.45Z"/>
      <path class="st38" d="M.55,6.35c.94-.76.59-1.89,2.04-3.28.78-.75,1.94-1.48,3.39-1.48,1.52,0,2.62.69,3.42,1.48,1.79,1.77.93,2.37,2.04,3.27-.35-1.98-.53-2.71-1.68-3.87C7.09-.22,1.69.05.55,6.35Z"/>
      <path class="st33" d="M5.41,4.58c2.39-1.03,3.41,2.6,1.42,3.45-2.13.91-4.13-2.27-1.42-3.45ZM3.86,5.02c-.24,1.36-.9,3.13,1.61,3.68,1.93.43,2.95-.88,3.11-2.76-.33-1.13-.91-1.93-2.11-2.11-1.3-.19-2.06.29-2.6,1.19Z"/>
      <path class="st38" d="M3.86,5.02c.54-.89,1.3-1.38,2.6-1.19,1.2.18,1.78.98,2.11,2.11.09.38.2.21.36.4-.08-1.63-.69-2.68-1.99-3.03-2.1-.55-2.73.52-3.61,1.4.45.91-.23.21.54.3Z"/>
    </g>
  </g>
  <g id="_圖層_x5F_8" data-name="圖層_x5F_8">
    <g id="_2134514666752">
      <path class="st19" d="M2.94,13.06c.47,1.19,2.4,5.25,3.06,5.98.65-.72,3.17-5.97,3.75-7.36-.4-.48-.34.04-.12-.96,0-.01.41-.95.44-1.01,1.1-2.52,1.17-3.76.94-6.54l-1.38-.28c.23,2.79-.81-2.67-3.71-2.49-3.06.19-3.78,5.67-3.51,2.47l-1.42.32c-.27,3.3.87,7.44,2.28,9.62-.08.39.37.43-.34.25Z"/>
      <path class="st19" d="M5.42,3.96c3.22-.73,4.26,4.04,1.11,4.77-1.45.33-2.67-.65-2.89-1.82-.26-1.35.61-2.68,1.78-2.94ZM1,4.59c-.49.7-.37,1.31-.37,2.29.01,1.77,2.02,5.01,2.75,6.52.61.15.22.11.29-.2-1.21-1.77-2.46-5.28-2.23-7.97l1.5-.12c-.23,2.61.7,4.36,3.32,4.2,2.48-.15,3.05-1.92,2.85-4.19l1.46.05c.19,2.26-.15,3.45-1.09,5.5-.02.05-.37.81-.37.82-.19.81-.24.39.11.78.66-1.44,2.16-3.79,2.16-5.4,0-.98.12-1.58-.35-2.31-.49.41-.07.36-.47-.17-.21-.27-.18-.38-.36-.64-1.43-2.1-4.74-3.18-7.28-1.09-2.01,1.66-1.36,2.68-1.91,1.91Z"/>
      <path class="st14" d="M0,7.29c1.66,4.69,2.15,4.93,4.32,9.27.44.88.93,2.33,1.68,2.88.5-.36,4.06-7.31,4.7-8.74.57-1.26.84-2.13,1.3-3.4-.26-.28-.2-.17-.63-.42,0,1.61-1.51,3.96-2.16,5.4-.5,1.13-2.65,5.4-3.21,5.99-.56-.6-2.21-3.9-2.62-4.87-.73-1.51-2.74-4.75-2.75-6.52-.43.25-.37.14-.63.41Z"/>
      <path class="st30" d="M4.1,6.48c.13,2.38,4.14,2.36,3.83-.46-.24-2.25-3.98-2.33-3.83.46Z"/>
      <path class="st26" d="M0,7.29c.26-.27.2-.16.63-.41,0-.98-.12-1.59.37-2.29C1.36,2.72,3.57.84,6,.83c2.43,0,4.63,1.89,5.02,3.75.47.73.36,1.32.35,2.31.43.25.37.14.63.42,0-2.61-.26-3.43-1.47-4.87-.46-.54-.24-.34-.85-.83C7.09-.46,4.01-.17,1.61,2.33.27,3.73,0,4.64,0,7.29Z"/>
      <path class="st22" d="M1,4.59c.55.76-.1-.26,1.91-1.91,2.54-2.09,5.85-1.02,7.28,1.09.18.27.15.37.36.64.4.53-.02.58.47.17-.39-1.86-2.59-3.76-5.02-3.75-2.43,0-4.64,1.89-5,3.76Z"/>
      <path class="st21" d="M4.1,6.48c-.15-2.79,3.59-2.71,3.83-.46.31,2.82-3.7,2.84-3.83.46ZM5.42,3.96c-1.17.26-2.03,1.6-1.78,2.94.22,1.17,1.43,2.16,2.89,1.82,3.15-.72,2.11-5.5-1.11-4.77Z"/>
    </g>
  </g>
  <g id="_圖層_x5F_9" data-name="圖層_x5F_9">
    <path class="st4" d="M.77,4.74c.23,1.23,2.01,2.02,2.97,2.9-.14,1.17-1.18,2.78-1.51,4.06,3.04-.81,2.29-1.41,3.88-2.37.52.21.12,0,.53.35,1.94,1.58.53,1.27,3.28,2.08-.31-1.52-1.39-2.72-1.42-4.34.72-.29,1.13-.7,1.73-1.11.64-.44,1.11-.57,1.17-1.53-.82-.25-1.1-.16-2.01-.11l-1.48.04c-1.09-.07-.7-2.57-1.8-3.76-.54.45-1.07,2.72-1.35,3.56-.68.25-3.24.2-3.99.23Z"/>
  </g>
  <g id="_圖層_x5F_11" data-name="圖層_x5F_11">
    <path class="st34" d="M9.34,5.35c-.03,1.17.1,1.87-.43,2.8-1.41,2.45-4.81,2.55-6.29.38-1.63-2.39-.38-5.28,2.44-5.89,1.76-.38,1.64.54,2.14-1.19C-.82,1.33-.19,8.14,2.64,10.3c3,2.3,7.74.28,7.96-3.34.1-1.56.25-3.23-1.26-1.62Z"/>
    <path class="st34" d="M8.4,5.67c-.82.21-.93,1.03-1.52,1.7-.58.66-1.61.76-2.4.14-.89-.71-.48-1.8.16-2.37.64-.57,1.62-.79,1.67-1.69-2.46-.52-4.91,2.68-2.71,4.93,2.44,2.51,5.79-.86,4.8-2.71Z"/>
    <path class="st34" d="M10.54,2.7h-.17l-.17.08s-.42.14-.87,0c-.48-.16-.33-.34-.31-.94l.07-.16-.14-.18c-.66.02-.81.42-1.3.95-1.26,1.34-.1,1.18-1.86,2.85-1.59,1.51-.26,2.05.85.86.45-.49.73-.83,1.45-1.06,1.12-.36.67-.39,1.44-.92.69-.48.99-.42,1.02-1.48Z"/>
    <path class="st12" d="M41.89,5.22c-.02.59-.17.77.3.92.44.14.81.01.86,0l.17-.08-.11-.92-1.15-.08-.07.16Z"/>
    <path class="st34" d="M9.34,5.35c-.03,1.17.1,1.87-.43,2.8-1.41,2.45-4.81,2.55-6.29.38-1.63-2.39-.38-5.28,2.44-5.89,1.76-.38,1.64.54,2.14-1.19C-.82,1.33-.19,8.14,2.64,10.3c3,2.3,7.74.28,7.96-3.34.1-1.56.25-3.23-1.26-1.62Z"/>
    <path class="st34" d="M8.4,5.67c-.82.21-.93,1.03-1.52,1.7-.58.66-1.61.76-2.4.14-.89-.71-.48-1.8.16-2.37.64-.57,1.62-.79,1.67-1.69-2.46-.52-4.91,2.68-2.71,4.93,2.44,2.51,5.79-.86,4.8-2.71Z"/>
    <path class="st34" d="M10.54,2.7h-.17l-.17.08s-.42.14-.87,0c-.48-.16-.33-.34-.31-.94l.07-.16-.14-.18c-.66.02-.81.42-1.3.95-1.26,1.34-.1,1.18-1.86,2.85-1.59,1.51-.26,2.05.85.86.45-.49.73-.83,1.45-1.06,1.12-.36.67-.39,1.44-.92.69-.48.99-.42,1.02-1.48Z"/>
    <path class="st34" d="M9.34,5.35c-.03,1.17.1,1.87-.43,2.8-1.41,2.45-4.81,2.55-6.29.38-1.63-2.39-.38-5.28,2.44-5.89,1.76-.38,1.64.54,2.14-1.19C-.82,1.33-.19,8.14,2.64,10.3c3,2.3,7.74.28,7.96-3.34.1-1.56.25-3.23-1.26-1.62Z"/>
  </g>
  <path class="st42" d="M3.2,3.88c.51-.03,1.03-.02,1.55.01-.51.18-1.05.2-1.55-.01Z"/>
  <path class="st41" d="M2.08,10.57c.01-1.93,0-5.72.1-7.65,2.54-.11,5.08-.05,7.62-.04,0,2.52.07,5.04-.06,7.56"/>
  <g id="_x23_989698ff">
    <path class="st45" d="M2.02,2.77c2.63-.07,5.26-.03,7.89-.03,0,2.64,0,5.29,0,7.93-2.64.01-5.27.05-7.91-.03-.08-2.63-.03-5.25.02-7.88M2.29,3.07c-.1,1.68-.09,3.36-.1,5.05-.02.76-.03,1.52-.03,2.28,2.52,0,5.04,0,7.55,0-.04-.19-.13-.58-.17-.78.13-2.2.06-4.4.06-6.6-2.44,0-4.88-.06-7.32.04Z"/>
  </g>
  <g id="_x23_2325afff">
    <path class="st40" d="M2.67,3.47c1.26-.09,2.53-.09,3.8-.01.03.74.04,1.47.04,2.21-.52.03-1.03.06-1.55.08-.02.51-.03,1.01-.05,1.52-.75.02-1.51.01-2.26,0-.02-1.27-.03-2.53.01-3.79M3.2,3.88c.5.21,1.04.19,1.55.01-.51-.03-1.03-.04-1.55-.01Z"/>
  </g>
  <g id="_x23_8989cfff">
    <path class="st43" d="M5.37,6.19c1.17-.25,2.38-.18,3.57-.05-1.19.16-2.47.92-3.57.05Z"/>
  </g>
  <g id="_x23_2224b1ff">
    <path class="st44" d="M5.37,9.95c-.05-1.25-.04-2.51,0-3.76,1.1.87,2.38.12,3.57-.05l.24-.04c.06,1.29.06,2.58,0,3.87-1.27.05-2.54.06-3.8-.02Z"/>
  </g>
</svg>