<?xml version="1.0" encoding="UTF-8"?>
<!DOCTYPE svg PUBLIC "-//W3C//DTD SVG 1.1//EN" "http://www.w3.org/Graphics/SVG/1.1/DTD/svg11.dtd">
<!-- Creator: CorelDRAW -->
<svg xmlns="http://www.w3.org/2000/svg" xml:space="preserve" width="4.2332mm" height="6.9426mm" version="1.1" style="shape-rendering:geometricPrecision; text-rendering:geometricPrecision; image-rendering:optimizeQuality; fill-rule:evenodd; clip-rule:evenodd"
viewBox="0 0 423320 694260"
 xmlns:xlink="http://www.w3.org/1999/xlink"
 xmlns:xodm="http://www.corel.com/coreldraw/odm/2003">
 <defs>
  <style type="text/css">
   <![CDATA[
    .fil39 {fill:#0B0A02}
    .fil32 {fill:#2D83CB}
    .fil34 {fill:#2E6D99}
    .fil28 {fill:#2E8228}
    .fil27 {fill:#2FB22C}
    .fil38 {fill:#3377A7}
    .fil19 {fill:#353535}
    .fil36 {fill:#367EAE}
    .fil29 {fill:#36982E}
    .fil20 {fill:#373737}
    .fil40 {fill:#3C2B1C}
    .fil18 {fill:#3D3D3D}
    .fil15 {fill:#3F3F3F}
    .fil31 {fill:#41CB36}
    .fil17 {fill:#454545}
    .fil33 {fill:#4596D0}
    .fil37 {fill:#59A1D5}
    .fil13 {fill:#6A6A6A}
    .fil14 {fill:#6D6D6D}
    .fil12 {fill:#7B7B7B}
    .fil11 {fill:#8C8C8C}
    .fil3 {fill:#9A2E40}
    .fil8 {fill:#9B672F}
    .fil2 {fill:#B0364A}
    .fil9 {fill:#B57837}
    .fil23 {fill:#C1A32D}
    .fil1 {fill:#CA2B3E}
    .fil7 {fill:#CB8429}
    .fil6 {fill:#CF8F42}
    .fil0 {fill:#D04458}
    .fil5 {fill:#D4586D}
    .fil10 {fill:#D49858}
    .fil21 {fill:#DBDBDB}
    .fil16 {fill:#F0F0F0}
    .fil42 {fill:#F18600}
    .fil22 {fill:#F2F2F2}
    .fil30 {fill:#F6F6F6}
    .fil24 {fill:#FADD57}
    .fil43 {fill:#FDFDFD}
    .fil4 {fill:#FEFEFE}
    .fil35 {fill:#FEFEFF}
    .fil25 {fill:#FFD326}
    .fil41 {fill:#FFDF00}
    .fil26 {fill:#FFFFFE}
   ]]>
  </style>
 </defs>
 <g id="圖層_x0020_2" visibility="hidden">
  <metadata id="CorelCorpID_0Corel-Layer"/>
  <image id="marker-icon-2x-red.png" x="0" y="0" width="423320" height="694260" xlink:href="marker-icon-2x-hero_Images\marker-icon-2x-hero_ImgID1.png"/>
  <g id="_2130833879520">
   <path class="fil0" d="M27980 190890l-7410 43860c1830,78600 78060,191180 107770,256290 23280,3690 840,-28850 -7130,-45410 -27390,-56960 -56600,-118280 -68720,-183470l57640 1440c16600,48610 68550,78740 130070,64490 63510,-14720 73140,-49530 89990,-113610l44980 0c-40,45810 -10640,77090 -23520,113340l-32250 77060c-6370,30260 -7830,15070 4510,28960 24480,-49100 79270,-140110 78840,-199090l-4510 -44190c-15680,-9070 -10360,-6160 -21530,-24540 -131430,-216180 -329880,-76230 -346480,49100l-2250 -24230z"/>
   <path class="fil1" d="M128340 491040c19770,39700 57770,127210 83320,153790 21360,-23180 94450,-170960 112250,-210990 -12340,-13890 -10880,1300 -4510,-28960l32250 -77060c12880,-36250 23480,-67530 23520,-113340l-44980 0c-16850,64080 -26480,98890 -89990,113610 -61520,14250 -113470,-15880 -130070,-64490l-57640 -1440c12120,65190 41330,126510 68720,183470 7970,16560 30410,49100 7130,45410z"/>
   <path class="fil2" d="M189110 136780c-9300,1750 -43320,31670 -48170,37430 -39610,47080 -6850,151980 89550,134580 114460,-20660 77150,-194340 -41380,-172010z"/>
   <path class="fil3" d="M423320 234750l-20570 0c430,58980 -54360,149990 -78840,199090 -17800,40030 -90890,187810 -112250,210990 -25550,-26580 -63550,-114090 -83320,-153790 -29710,-65110 -105940,-177690 -107770,-256290l-20570 0c1610,79990 103260,251160 149570,343800 17440,34870 34570,87080 62090,107240 26490,-19410 43730,-70530 59260,-101600 19050,-38080 36320,-72330 56410,-112920 29120,-58800 94460,-160440 95990,-236520z"/>
   <path class="fil4" d="M189310 159990c-37950,15740 -56500,44030 -40160,88000 11110,29870 49330,52320 91730,36080 68270,-26140 35670,-160250 -51570,-124080z"/>
   <path class="fil2" d="M0 234750l20570 0 7410 -43860c4820,-85000 90090,-161390 183670,-162030 96790,-660 172240,76990 186590,161700l4510 44190 20570 0c0,-85150 -31200,-140390 -86670,-181950 -146040,-109410 -336650,450 -336650,181950z"/>
   <path class="fil5" d="M27980 190890l2250 24230c16600,-125330 215050,-265280 346480,-49100 11170,18380 5850,15470 21530,24540 -14350,-84710 -89800,-162360 -186590,-161700 -93580,640 -178850,77030 -183670,162030z"/>
  </g>
 </g>
 <g id="圖層_x0020_3" visibility="hidden">
  <metadata id="CorelCorpID_1Corel-Layer"/>
  <image id="marker-icon-2x-orange.png" x="0" y="0" width="423320" height="694260" xlink:href="marker-icon-2x-hero_Images\marker-icon-2x-hero_ImgID2.png"/>
  <g id="_2135145560624">
   <path class="fil6" d="M22520 248400l1650 13620c9700,55710 162500,351970 187490,380980 23860,-28690 167350,-308100 179900,-357000 -11690,-9430 -10080,20180 -8460,-26230 -26390,26370 -113980,278790 -151510,333090 -17290,25020 -4140,8620 -19930,21620 -27030,-22150 -33270,-49440 -49620,-84860 -35770,-77520 -102180,-207790 -111760,-282950l51320 150c22820,106940 197820,136760 228590,-31780l45510 0 1150 38740c76690,-43000 -125900,-322040 -290770,-142020 -13550,14800 -30810,31510 -39880,53680 -11440,27980 -7910,60670 -23680,82960z"/>
   <path class="fil7" d="M383100 259770l-6250 -5990 -1150 -38740 -45510 0c-30770,168540 -205770,138720 -228590,31780l-51320 -150c9580,75160 75990,205430 111760,282950 16350,35420 22590,62710 49620,84860 15790,-13000 2640,3400 19930,-21620 37530,-54300 125120,-306720 151510,-333090z"/>
   <path class="fil8" d="M194230 142580c-41930,10180 -73740,49570 -63600,100170 8170,40760 54150,75080 104950,61750 100190,-26310 66840,-188180 -41350,-161920z"/>
   <path class="fil8" d="M414850 177800c-3290,17430 1750,22080 -660,42350 -4250,35590 2550,21880 -17400,41870l-5230 23980c-12550,48900 -156040,328310 -179900,357000 -24990,-29010 -177790,-325270 -187490,-380980 -29190,-36190 -8520,-51040 -15700,-84220 -4140,6530 -6870,14060 -8470,22220l0 44260c4220,29610 14910,59940 22840,80010 34950,88350 76750,154280 121090,242970 16340,32690 41070,99000 67730,118530 27300,-20000 105300,-195740 126890,-237170 32280,-61980 77130,-129430 84770,-201090l0 -32110 -8470 -37620z"/>
   <path class="fil4" d="M188540 159460c-34990,14790 -56720,43000 -39850,88770 11220,30440 49420,52660 92520,36340 73110,-27680 34990,-162170 -52670,-125110z"/>
   <path class="fil9" d="M8470 177800c7180,33180 -13490,48030 15700,84220l-1650 -13620c-9580,-297190 413090,-281200 374270,13620 19950,-19990 13150,-6280 17400,-41870 2410,-20270 -2630,-24920 660,-42350 -1050,-47270 -36020,-89810 -68790,-117480 -153660,-129770 -335350,16550 -337590,117480z"/>
   <path class="fil10" d="M22520 248400c15770,-22290 12240,-54980 23680,-82960 9070,-22170 26330,-38880 39880,-53680 164870,-180020 367460,99020 290770,142020l6250 5990c-1620,46410 -3230,16800 8460,26230l5230 -23980c38820,-294820 -383850,-310810 -374270,-13620z"/>
  </g>
 </g>
 <g id="圖層_x0020_4" visibility="hidden">
  <metadata id="CorelCorpID_2Corel-Layer"/>
  <image id="marker-icon-2x-grey.png" x="0" y="0" width="423320" height="694260" xlink:href="marker-icon-2x-hero_Images\marker-icon-2x-hero_ImgID3.png"/>
  <g id="_2130887899936">
   <path class="fil11" d="M191740 139860c51850,-11410 95820,22820 103930,64190 24330,124150 -146710,139660 -166370,39350 -10920,-55650 27670,-95890 62440,-103540zm-79160 325930c29080,-12660 3720,-16760 -33860,-112220 -17480,-44400 -29490,-81090 -33410,-133440l47820 0c13430,23870 20620,109570 118780,110170 83660,520 90820,-50330 118280,-110170l48680 0c-5610,71950 -35820,138230 -66180,201870 -37130,77830 -22920,50380 -13390,63070 25340,-75500 106820,-176590 105680,-272810 -2820,-239240 -363670,-250450 -385720,-14940 -10960,116990 87620,207440 93320,268470z"/>
   <path class="fil12" d="M112580 465790c17070,31150 36270,59690 51750,88790 15900,29900 23390,62670 47330,88630 40900,-47470 47160,-102350 87640,-158140 -9530,-12690 -23740,14760 13390,-63070 30360,-63640 60570,-129920 66180,-201870l-48680 0c-27460,59840 -34620,110690 -118280,110170 -98160,-600 -105350,-86300 -118780,-110170l-47820 0c3920,52350 15930,89040 33410,133440 37580,95460 62940,99560 33860,112220z"/>
   <path class="fil13" d="M299300 485070c-40480,55790 -46740,110670 -87640,158140 -23940,-25960 -31430,-58730 -47330,-88630 -15480,-29100 -34680,-57640 -51750,-88790 -5700,-61030 -104280,-151480 -93320,-268470 22050,-235510 382900,-224300 385720,14940 1140,96220 -80340,197310 -105680,272810zm-299300 -264940c0,89760 55950,180010 95840,251290 20440,36510 34750,69170 53730,107130 17440,34870 34570,87080 62090,107240 26490,-19410 43730,-70530 59260,-101600 19050,-38080 36320,-72330 56410,-112920 38900,-78550 95990,-156330 95990,-251140 0,-278430 -423320,-276190 -423320,0z"/>
   <path class="fil4" d="M188990 159760c-90890,38050 -31020,156840 52360,124300 73200,-28570 33910,-160420 -52360,-124300z"/>
   <path class="fil14" d="M188990 159760c86270,-36120 125560,95730 52360,124300 -83380,32540 -143250,-86250 -52360,-124300zm2750 -19900c-34770,7650 -73360,47890 -62440,103540 19660,100310 190700,84800 166370,-39350 -8110,-41370 -52080,-75600 -103930,-64190z"/>
  </g>
 </g>
 <g id="圖層_x0020_5">
  <metadata id="CorelCorpID_3Corel-Layer"/>
  <g id="_2130887870704">
   <path class="fil15" d="M203620 160100c78900,-18520 100500,110630 23010,125250 -81760,15420 -119880,-102510 -23010,-125250zm-203620 60030c0,89760 55950,180010 95840,251290 20440,36510 34750,69170 53730,107130 17440,34870 34570,87080 62090,107240 26490,-19410 43730,-70530 59260,-101600 19050,-38080 36320,-72330 56410,-112920 38900,-78550 95990,-156330 95990,-251140 0,-278430 -423320,-276190 -423320,0z"/>
   <path class="fil16" d="M203620 160100c-96870,22740 -58750,140670 23010,125250 77490,-14620 55890,-143770 -23010,-125250z"/>
  </g>
  <g id="_2130887870128">
   <path class="fil17" d="M269170 493170c-4450,23290 -11980,35540 -21870,57740l-20530 40580c-1390,1890 -3250,3900 -4620,5600l-33070 -16820 -36330 -86050c-22800,-19460 -52640,-92540 -65890,-123300 -20520,-47630 -36360,-94570 -40320,-149740l52940 0c23480,122480 113520,127820 173470,94750 37650,-20770 24520,-24830 48770,-54520l49740 0c-7000,35420 -61620,182860 -87670,216580 -8880,11500 -4860,7040 -14620,15180zm-82950 -346230c52170,-22560 133870,23210 104710,110060 -9160,27270 -13390,33640 -40910,45080 -105870,44000 -183570,-103340 -63800,-155140zm25440 492050c59010,-102860 113390,-210130 169070,-325630 72560,-150480 -29630,-288950 -169080,-288520 -140860,440 -238830,136940 -169230,288760l169240 325390z"/>
   <path class="fil18" d="M152750 494220c6160,-11970 -10710,-15280 58980,-15250 1160,0 32750,2010 32990,2070 26090,6050 7770,-5090 24450,12130 9760,-8140 5740,-3680 14620,-15180 26050,-33720 80670,-181160 87670,-216580l-49740 0c-24250,29690 -11120,33750 -48770,54520 -59950,33070 -149990,27730 -173470,-94750l-52940 0c3960,55170 19800,102110 40320,149740 13250,30760 43090,103840 65890,123300z"/>
   <path class="fil19" d="M42420 313600c-69600,-151820 28370,-288320 169230,-288760 139450,-430 241640,138040 169080,288520 -55680,115500 -110060,222770 -169070,325630l-169240 -325390zm-42420 -93470c0,89760 55950,180010 95840,251290 20440,36510 34750,69170 53730,107130 17440,34870 34570,87080 62090,107240 26490,-19410 43730,-70530 59260,-101600 19050,-38080 36320,-72330 56410,-112920 38900,-78550 95990,-156330 95990,-251140 0,-278430 -423320,-276190 -423320,0z"/>
   <path class="fil20" d="M202170 158550c84080,-18870 106530,113280 24950,128170 -86980,15880 -119840,-106870 -24950,-128170zm-15950 -11610c-119770,51800 -42070,199140 63800,155140 27520,-11440 31750,-17810 40910,-45080 29160,-86850 -52540,-132620 -104710,-110060z"/>
   <path class="fil21" d="M169330 194000c53380,-27290 105690,-10300 78390,62200 -28130,12310 -45200,12350 -74690,2190 -11990,-30850 -11580,-26010 -3700,-64390zm32840 -35450c-94890,21300 -62030,144050 24950,128170 81580,-14890 59130,-147040 -24950,-128170z"/>
   <path class="fil22" d="M169330 194000c-7880,38380 -8290,33540 3700,64390 29490,10160 46560,10120 74690,-2190 27300,-72500 -25010,-89490 -78390,-62200z"/>
  </g>
 </g>
 <g id="圖層_x0020_6" visibility="hidden">
  <metadata id="CorelCorpID_4Corel-Layer"/>
  <image id="marker-icon-2x-gold.png" x="-4230" y="-4230" width="431780" height="702720" xlink:href="marker-icon-2x-hero_Images\marker-icon-2x-hero_ImgID4.png"/>
  <g id="_2130869704064">
   <path class="fil23" d="M-4230 190500c0,117180 58890,171210 98020,266030 17040,41290 95780,214210 122100,233490l101570 -220160c71620,-141880 101620,-168330 101620,-287830 0,-99110 -97470,-181450 -204010,-186260l-19190 0c-46600,2030 -93910,19330 -134700,56940 -28600,26370 -65410,85670 -65410,137790z"/>
   <path class="fil24" d="M206930 630080c27870,-28770 134870,-269090 163750,-327100 67890,-136340 -17640,-282140 -163250,-281090 -146740,1050 -224300,143490 -160630,277860 51410,108490 106100,226360 160130,330330z"/>
   <path class="fil25" d="M208360 594750c25630,-35350 114430,-236650 146940,-298030 66870,-126300 -16020,-261010 -147920,-258890 -127330,2040 -208740,124530 -145370,256110 47480,98580 96660,208870 146350,300810z"/>
   <path class="fil24" d="M177830 59780c-220800,54530 -128830,365100 85340,299960 172220,-52400 120970,-350880 -85340,-299960z"/>
   <path class="fil23" d="M174220 137920c-104660,52340 -30180,194970 71810,150400 94770,-41410 33160,-202880 -71810,-150400z"/>
   <path class="fil26" d="M192000 145890c-99130,27880 -51640,156290 36620,134220 84460,-21130 56400,-160380 -36620,-134220z"/>
  </g>
 </g>
 <g id="圖層_x0020_7" visibility="hidden">
  <metadata id="CorelCorpID_5Corel-Layer"/>
  <g id="_2130869665808">
   <path class="fil27" d="M302400 209750c-5560,66390 -41400,112460 -109540,97310 -88430,-19670 -64960,-81950 -56630,-129980 -27150,-2940 -3110,21750 -18910,-10470 31090,-31000 53420,-68920 127490,-49460 46040,12100 67290,49080 70250,106720 -5620,-6630 -9620,-600 -12660,-14120zm-282950 14120l2530 39520c13720,60170 165990,354220 189680,380310 24110,-27790 175830,-321770 189930,-380310l2280 -39520c-39000,-31640 -8690,-52760 -71830,-115320 -28370,-28120 -66980,-52210 -120700,-52320 -51380,-100 -92170,25690 -119750,52050 -51320,49070 -38940,88820 -72140,115590z"/>
   <path class="fil28" d="M423320 226690c-17210,13040 -6590,12880 -21730,36700 -14100,58540 -165820,352520 -189930,380310 -23690,-26090 -175960,-320140 -189680,-380310 -16010,-24230 -4620,-23500 -21980,-36700 0,88500 100400,253500 149570,351860 17440,34870 34570,87080 62090,107240 26490,-19410 43730,-70530 59260,-101600 47160,-94310 152400,-272940 152400,-357500z"/>
   <path class="fil29" d="M0 226690c17360,13200 5970,12470 21980,36700l-2530 -39520c40020,-222160 230520,-231680 325020,-136540 40600,40870 47080,66800 59400,136540l-2280 39520c15140,-23820 4520,-23660 21730,-36700 0,-73640 -24210,-111820 -59870,-149890 -136300,-145520 -363450,-36930 -363450,149890z"/>
   <path class="fil30" d="M190750 161640c-95720,41290 -25140,153570 50130,121540 70000,-29800 34360,-157980 -50130,-121540z"/>
   <path class="fil31" d="M19450 223870c33200,-26770 20820,-66520 72140,-115590 27580,-26360 68370,-52150 119750,-52050 53720,110 92330,24200 120700,52320 63140,62560 32830,83680 71830,115320 -12320,-69740 -18800,-95670 -59400,-136540 -94500,-95140 -285000,-85620 -325020,136540z"/>
   <path class="fil29" d="M190750 161640c84490,-36440 120130,91740 50130,121540 -75270,32030 -145850,-80250 -50130,-121540zm-54520 15440c-8330,48030 -31800,110310 56630,129980 68140,15150 103980,-30920 109540,-97310 -11750,-39870 -32270,-68220 -74590,-74520 -45780,-6820 -72550,10390 -91580,41850z"/>
   <path class="fil31" d="M136230 177080c19030,-31460 45800,-48670 91580,-41850 42320,6300 62840,34650 74590,74520 3040,13520 7040,7490 12660,14120 -2960,-57640 -24210,-94620 -70250,-106720 -74070,-19460 -96400,18460 -127490,49460 15800,32220 -8240,7530 18910,10470z"/>
  </g>
 </g>
 <g id="圖層_x0020_8" visibility="hidden">
  <metadata id="CorelCorpID_6Corel-Layer"/>
  <image id="marker-icon-2x.png" x="0" y="0" width="423320" height="694260" xlink:href="marker-icon-2x-hero_Images\marker-icon-2x-hero_ImgID5.png"/>
  <g id="_2130859636000">
   <path class="fil32" d="M119370 472780c14300,34180 72470,150660 92290,171740 19530,-20770 95570,-171290 113100,-211210 -12150,-13920 -10350,1150 -3750,-27560 90,-390 12390,-27270 13220,-29080 33220,-72300 45090,-114200 38420,-194050l-51420 -1720c6790,80030 -13190,142600 -100700,147790 -92190,5470 -125040,-56320 -116990,-148320l-52780 4260c-8100,94770 36040,218480 78800,281030 -2270,11120 11240,12430 -10190,7120z"/>
   <path class="fil33" d="M191370 139690c113610,-25690 150410,142690 39240,168200 -51290,11770 -94020,-23050 -101900,-64350 -9060,-47490 21560,-94550 62660,-103850zm-156160 22200c-17190,24850 -13130,46380 -12980,80870 430,62410 71310,176600 97140,230020 21430,5310 7920,4000 10190,-7120 -42760,-62550 -86900,-186260 -78800,-281030l52780 -4260c-8050,92000 24800,153790 116990,148320 87510,-5190 107490,-67760 100700,-147790l51420 1720c6670,79850 -5200,121750 -38420,194050 -830,1810 -13130,28690 -13220,29080 -6600,28710 -8400,13640 3750,27560 23150,-50780 76270,-133820 76330,-190550 150,-34740 4230,-55650 -12460,-81350 -17260,14560 -2380,12720 -16530,-6040 -7260,-9610 -6240,-13230 -12670,-22660 -50460,-74150 -167070,-112180 -256720,-38290 -70870,58400 -48150,94400 -67500,67470z"/>
   <path class="fil34" d="M0 257240c58660,165550 75840,173820 152400,326950 15530,31070 32770,82190 59260,101600 17550,-12850 143170,-257980 165800,-308320 20030,-44550 29740,-75110 45860,-119920 -9130,-9710 -7100,-5840 -22230,-14790 -60,56730 -53180,139770 -76330,190550 -17530,39920 -93570,190440 -113100,211210 -19820,-21080 -77990,-137560 -92290,-171740 -25830,-53420 -96710,-167610 -97140,-230020 -15200,8900 -12980,5010 -22230,14480z"/>
   <path class="fil35" d="M144490 228600c4590,83960 145880,83080 135100,-16330 -8610,-79320 -140480,-82050 -135100,16330z"/>
   <path class="fil36" d="M0 257240c9250,-9470 7030,-5580 22230,-14480 -150,-34490 -4210,-56020 12980,-80870 12690,-65980 90660,-132430 176430,-132760 85560,-320 163240,66820 176990,132280 16690,25700 12610,46610 12460,81350 15130,8950 13100,5080 22230,14790 0,-91920 -9250,-121110 -51960,-171730 -16140,-19120 -8340,-12100 -29950,-29310 -91310,-72700 -199810,-62490 -284490,25810 -47400,49420 -56920,81290 -56920,174920z"/>
   <path class="fil37" d="M35210 161890c19350,26930 -3370,-9070 67500,-67470 89650,-73890 206260,-35860 256720,38290 6430,9430 5410,13050 12670,22660 14150,18760 -730,20600 16530,6040 -13750,-65460 -91430,-132600 -176990,-132280 -85770,330 -163740,66780 -176430,132760z"/>
   <path class="fil38" d="M144490 228600c-5380,-98380 126490,-95650 135100,-16330 10780,99410 -130510,100290 -135100,16330zm46880 -88910c-41100,9300 -71720,56360 -62660,103850 7880,41300 50610,76120 101900,64350 111170,-25510 74370,-193890 -39240,-168200z"/>
  </g>
 </g>
 <g id="圖層_x0020_9" visibility="hidden">
  <metadata id="CorelCorpID_7Corel-Layer"/>
 </g>
 <g id="圖層_x0020_1">
  <metadata id="CorelCorpID_8Corel-Layer"/>
  <g id="_2130859641952">
   <path class="fil39" d="M77200 336810l-5700 -2410c3790,-3350 18360,-10550 24140,-13780 7080,-3950 6560,-2720 13420,580 3950,1900 8700,5050 12520,6420 1670,-2250 1110,-1600 5030,-1110 5860,730 12740,990 18630,980 13960,-30 32800,-2340 45990,-6150 2910,-840 19350,-5820 20540,-4980 2480,3750 -21030,16580 -25870,19260 -9160,5080 -21810,9760 -33340,12140 -14520,3000 -26650,3280 -41640,890 -8790,-1410 -29150,-6900 -33720,-11840zm242550 -25850l1270 20c4600,-270 24610,9960 28570,12250l3970 2770c-430,4670 -23970,13500 -30840,15320 -13830,3660 -26150,5020 -41390,3150 -13670,-1690 -24580,-5060 -36000,-10000 -6990,-3020 -27040,-13180 -29140,-16910 3190,-2340 18880,3270 24670,4460 8570,1750 20260,2080 29320,1940 9740,-150 18610,-1370 27300,-3950 4700,-1390 21380,-9070 22270,-9050zm-98970 -36350c-8340,14460 -5060,14410 -8230,21570 -80,-50 -5100,-12730 -6650,-14950 -2630,-3780 -7670,-8110 -9600,-12240 7080,3560 28940,420 29400,630 -1430,1740 -2000,-80 -4920,4990zm-150160 -125910l2070 -18120c270,130 36780,37040 39650,40290 29190,33020 45270,52360 70370,89600 1740,2570 33800,49830 27200,50090 -1010,650 -46730,8300 -52010,8760 -18410,1610 -37270,-340 -51970,-7650 -14920,-7400 -24670,-16860 -34450,-26170 -9210,-8770 -16520,-24390 -18900,-41710 -3220,-14890 650,-36910 4200,-51210 3450,-13930 6380,-20280 10720,-32490 910,-2550 2490,-10060 3120,-11390zm88800 840c9530,-1880 17770,9350 20340,16260 2550,6810 -3240,7950 -5790,11080 -1270,1560 -6720,9780 -8600,9860 -6630,280 -19270,-10680 -21000,-16120 -3100,-9820 7120,-19510 15050,-21080zm98920 -1950c7520,-1840 18350,10370 16680,21060 -640,4100 -6100,8710 -8540,10590 -1370,1050 -10700,6830 -12070,7020 -1650,220 -7510,-8270 -9110,-10000 -2680,-2900 -1950,-1910 -5530,-4150 -2460,-1540 -3540,-3020 -1440,-6120 5860,-8640 7950,-15470 20010,-18400zm22840 650l15860 16810c-2420,4490 -12540,15440 -16390,20650 -2100,2850 -5790,8300 -8350,10030 -1070,720 -13050,4290 -13990,3830l-3280 -7850 12340 -5620c7740,-4480 13180,-11070 14160,-20560 840,-8130 -1430,-8970 -3850,-13640 -2320,-1440 -4060,-5210 -9290,-7910 -13370,-6920 -28380,3280 -31940,14940 -720,-1240 4660,-16640 -4310,-28620 -5610,-7470 -11790,-10700 -24820,-10320 -12890,370 -17690,3400 -22880,12230 -2090,3550 -3420,8870 -4110,13520 -1090,7310 1770,8540 2670,14090 -3680,-5840 -1030,-5200 -7010,-10130 -3200,-2650 -5600,-5080 -10970,-6150 -11100,-2220 -19070,4690 -23210,10130 -5850,7670 -4510,19550 1100,26120 5950,6990 10650,9060 21800,12360l-3010 10220c-12910,-90 -17940,-7270 -23280,-13370 -2430,-2770 -16690,-18100 -16960,-19940 5860,-4170 13610,-19870 29620,-30460 8140,-5380 31360,-15250 41860,-17950 17020,-4380 35320,-450 50840,5210 6900,2520 14840,5790 20880,9190 9520,5360 10110,7360 16520,13190zm-75400 -23560c7000,-1750 16410,4650 18850,7670 7060,8740 6800,21560 6090,33470 -390,6500 -1940,7030 2480,9870 6090,3920 9450,7040 13180,13400 16640,28290 -4890,60680 -32890,63080 -17700,1520 -30190,-7300 -37010,-16280 -7390,-9720 -11530,-29180 -4500,-42120 4020,-7400 6570,-10620 11620,-15200 8520,-7720 4310,-5650 3430,-19350 -1110,-17290 4690,-31020 18750,-34540zm-83520 500l250 -240 390 -260c2310,-1160 10250,-8360 14030,-10920 15180,-10290 34420,-18100 53560,-21200 30490,-4940 60580,1820 82280,13700l290 270 370 30 9460 5760 50 50 380 360 280 180 19810 16940c1820,1110 5220,4970 6940,6700 1650,1670 6080,4480 4170,7740 -600,1020 -11590,15240 -11850,15390l-11760 -13630 -260 -230 -230 -260 -250 -250 -220 -270 -230 -290 -270 -220 -280 -240 -210 -240 -240 -290 -250 -230 -270 -240 -200 -260 -220 -300 -250 -250c-900,-370 -10640,-8790 -13970,-10870 -2110,-1310 -14830,-8320 -15550,-9030l0 -60 -430 -330c-780,-110 -9070,-3640 -11440,-4400 -13690,-4390 -27030,-5960 -41710,-5500 -22430,700 -32840,7090 -49370,14000l-16780 11700c-3500,4180 -8180,6700 -12260,12060 -3870,5070 -7300,7710 -8710,15610l-360 310 -9260 -10590c-1990,-1330 -5650,-4310 -5170,-7290l510 -930 50 130 450 -870 240 -200 470 -800 50 90 320 -740 350 -340 50 50 120 -320 390 -470 280 -180 680 -1070 90 120 290 -1230c-2070,3030 -3630,7410 -9050,7610 -1060,40 -5000,-740 -5380,-1090 -1770,-1590 -2620,-2560 -4620,-3870 -2320,-1520 -16290,-14290 -15950,-17560 -150,3650 30,4210 -900,7240 -460,1460 -340,2080 -670,3540 -340,1490 -750,1040 -1530,2490 -1450,2730 -2530,9330 -3500,12850 -2250,8210 -5510,16190 -7860,24910 -5270,19560 -7490,34020 -7440,57890 20,11280 3010,18060 5640,27030 3190,10830 4810,14420 9860,22710 10760,17650 33850,24580 35130,30280 -9840,1790 -13110,-740 -19420,-5760 -5640,-4500 -10100,-7270 -14730,-12100 -4490,-4680 -8430,-8970 -12370,-14700 -1790,-2590 -3510,-5490 -4970,-8440 -760,-1520 -3930,-9290 -4090,-8310l-120 290 260 380 -60 240 290 520c1400,8130 13120,24090 17470,28880 3660,4020 7440,7540 11930,11180 1470,1180 13220,9590 13250,9590l-28990 19700c2250,3320 30120,14410 36280,16490 28810,9760 58970,6440 85650,-7720 7620,-4040 17410,-9670 23910,-15100 1180,-980 6540,-6180 6680,-6270 1480,770 5630,4750 7480,6220 7960,6310 16380,10830 26040,14940 30330,12910 58470,14940 89340,2380 8420,-3420 30220,-15630 33870,-21290l-30210 -18590 -410 -150c-1600,-700 120,670 -3540,1310 -1520,270 -1410,1590 -3700,1230 -3070,-470 -6300,-2250 -8420,-3330 -20,-4810 1940,-5140 4700,-7380l19280 -16240c7120,-6190 14730,-19390 18100,-29280 5360,-15730 7120,-20390 4740,-40480 -710,-6020 -2790,-13840 -4070,-18490 -790,-2830 -2240,-6050 -2850,-9080 -500,-2480 -980,-7740 -1570,-9380 -1100,-490 -1380,1490 -2740,-3120 -1450,-4930 -4990,-13470 -7490,-17630 -870,-1470 -840,-3480 -2160,-6040 -840,-1620 -840,-5540 -1120,-6960 -280,-1410 -1580,-4710 -1670,-5880 -110,-1460 270,-6040 30,-7260l-430 -420 -1120 1210 -860 8260c410,12420 2580,12960 6980,22450 3230,6990 5910,13560 8430,21130 5160,15550 8690,32790 7440,50660 -1280,32920 -30260,58270 -49290,70340 -12360,7830 -28530,13150 -46660,13040 -7180,-50 -51240,-3470 -52570,-7300l-3190 1330c-3420,-10630 43330,-79520 49400,-88410 9740,-14260 19760,-26830 29790,-39510 3660,-4620 31600,-37170 31620,-37240l260 -430 230 -260 250 -250 240 -260 240 -260 240 -250 250 -250 2270 -2450 230 -260 250 -250 250 -260 220 -270 240 -250 240 -250 600 -620 240 -280 230 -250 240 -270 240 -270 240 -250 250 -250 250 -250 240 -250 250 -260 240 -240 250 -260 240 -250 240 -260 250 -250 240 -250 5120 -5490c-3720,3060 -7280,6320 -11010,9300 -4370,3500 -9780,5030 -14380,330 -7130,-7280 -13350,-13290 -20740,-20250 -4750,-4480 -17800,-14240 -23820,-17380 -8170,-4270 -16900,-7760 -29420,-11020 -13810,-3610 -22770,-4140 -37270,-4040 -7240,60 -12500,770 -18400,2260 -1450,360 -2730,660 -4110,1130 -2640,900 120,680 -1830,2060 -370,260 -6500,2880 -7180,3050 -3080,790 -3410,1950 -6750,3150 -5210,1860 -15940,7120 -20260,9800 -7830,4850 -17200,11330 -22650,17840l580 -420z"/>
   <path class="fil40" d="M106570 142560l15690 -17380 250 -240 390 -260 -390 260 -250 240 -580 420c5450,-6510 14820,-12990 22650,-17840 4320,-2680 15050,-7940 20260,-9800 3340,-1200 3670,-2360 6750,-3150 680,-170 6810,-2790 7180,-3050 1950,-1380 -810,-1160 1830,-2060 1380,-470 2660,-770 4110,-1130 5900,-1490 11160,-2200 18400,-2260 14500,-100 23460,430 37270,4040 12520,3260 21250,6750 29420,11020 6020,3140 19070,12900 23820,17380 7390,6960 13610,12970 20740,20250 4600,4700 10010,3170 14380,-330 3730,-2980 7290,-6240 11010,-9300l-5120 5490 -240 250 -250 250 -240 260 -240 250 -250 260 -240 240 -250 260 -240 250 -250 250 -250 250 -240 250 -240 270 -240 270 -230 250 -240 280 -600 620 -240 250 -240 250 -220 270 -250 260 -250 250 -230 260 -2270 2450 -250 250 -240 250 -240 260 -240 260 -250 250 -230 260 -260 430 260 -430 230 -260 250 -250 240 -260 240 -260 240 -250 250 -250 2270 -2450 230 -260 250 -250 250 -260 220 -270 240 -250 240 -250 600 -620 240 -280 230 -250 240 -270 240 -270 240 -250 250 -250 250 -250 240 -250 250 -260 240 -240 250 -260 240 -250 240 -260 250 -250 240 -250 9570 -8980 360 330 -670 4310 1120 -1210 430 420c240,1220 -140,5800 -30,7260 90,1170 1390,4470 1670,5880 280,1420 280,5340 1120,6960 1320,2560 1290,4570 2160,6040 2500,4160 6040,12700 7490,17630 1360,4610 1640,2630 2740,3120 590,1640 1070,6900 1570,9380 610,3030 2060,6250 2850,9080 1280,4650 3360,12470 4070,18490 2380,20090 620,24750 -4740,40480 -3370,9890 -10980,23090 -18100,29280l-19280 16240c-2760,2240 -4720,2570 -4700,7380 2120,1080 5350,2860 8420,3330 2290,360 2180,-960 3700,-1230 3660,-640 1940,-2010 3540,-1310l410 150 -410 -150c510,-2440 14250,-15100 17020,-18450 5230,-6340 10200,-11680 14510,-20510 8700,-17850 10790,-37280 8140,-59870 -2050,-17440 -9690,-40870 -16420,-53870 -6830,-13170 -4090,-12530 -3380,-28790 260,-5700 2010,-29800 -180,-33210 -5010,90 -15600,12580 -18400,15350 -2310,2290 -15600,16640 -16620,17150 -130,-20 -18910,-17380 -21950,-19770 -7270,-5720 -16510,-11440 -25620,-15860 -19860,-9650 -42380,-14880 -68680,-14420 -33890,590 -66750,14520 -90270,34550 -2810,2390 -20480,20530 -20760,20640 -3420,-350 -27290,-28190 -31210,-26780 -3430,940 -5450,35970 -6220,42080 -1520,12150 -7790,25310 -11190,37020 -3600,12390 -6680,27050 -7190,40990 -290,7980 1320,38190 5760,42060 160,-980 3330,6790 4090,8310 1460,2950 3180,5850 4970,8440 3940,5730 7880,10020 12370,14700 4630,4830 9090,7600 14730,12100 6310,5020 9580,7550 19420,5760 -1280,-5700 -24370,-12630 -35130,-30280 -5050,-8290 -6670,-11880 -9860,-22710 -2630,-8970 -5620,-15750 -5640,-27030 -50,-23870 2170,-38330 7440,-57890 2350,-8720 5610,-16700 7860,-24910 970,-3520 2050,-10120 3500,-12850 780,-1450 1190,-1000 1530,-2490 330,-1460 210,-2080 670,-3540 930,-3030 750,-3590 900,-7240 -340,3270 13630,16040 15950,17560 2000,1310 2850,2280 4620,3870 380,350 4320,1130 5380,1090 5420,-200 6980,-4580 9050,-7610l-290 1230zm-3540 4600l-510 930 510 -930zm-57650 120320l-290 -520 290 520zm-230 -760l-260 -380 260 380zm60650 -123210l680 -1070 -680 1070zm-670 650l390 -470 -390 470 -120 320 120 -320zm-840 1350l320 -740 350 -340 -350 340 -320 740zm-520 710l470 -800 -470 800zm-690 1070l450 -870 -450 870z"/>
   <path class="fil41" d="M335240 183840c10740,-2820 14200,23880 1620,25500 -12900,1660 -13180,-22480 -1620,-25500zm-77330 67320l-210 150 210 -150c280,90 9180,6770 11970,8320 4800,2670 8370,4360 13940,6430 11570,4320 22370,5360 34270,950 10390,-3850 19110,-8930 25850,-14640 3630,-3080 8030,-5970 11250,-9120 3270,-3210 7170,-7150 10440,-10080 1250,-17870 -2280,-35110 -7440,-50660 -2520,-7570 -5200,-14140 -8430,-21130 -4400,-9490 -6570,-10030 -6980,-22450 -430,660 100,7330 -1590,10590 -2120,4060 -13780,16390 -16950,20070 -7530,8750 -15000,17930 -22600,26820 -7180,8410 -15550,18060 -22180,27010 -3480,4700 -7410,8950 -10890,13700 -3150,4300 -7320,10380 -10660,14190z"/>
   <path class="fil41" d="M75920 195510c11500,-2960 25810,34370 3760,48280 -6220,3930 -14200,-13740 -14960,-21840 -960,-10130 3650,-24490 11200,-26440zm-23340 48280c14790,10190 27260,24450 52730,29700 20320,4190 37660,-5970 52250,-17880 2310,-1880 3680,-4420 5760,-2590l340 390 200 320 190 300 370 360 250 260 -250 -260 -370 -360 -190 -300 -200 -320 -340 -390c-3710,-8310 -37330,-43740 -45320,-53030 -7440,-8660 -16080,-16930 -23780,-25410 -3910,-4300 -7980,-8620 -11900,-12680 -2100,-2190 -3870,-4140 -5960,-6220 -2000,-1990 -5550,-3200 -5740,-6980 -630,1330 -2210,8840 -3120,11390 -4340,12210 -7270,18560 -10720,32490 -3550,14300 -7420,36320 -4200,51210z"/>
   <path class="fil42" d="M209910 310560c-3940,-180 -9710,-10370 -11960,-13420 -3630,-4910 -6990,-10000 -10700,-14640 -7130,-8910 -16020,-18970 -22580,-27850l-250 -260 -370 -360 -190 -300 -200 -320 -340 -390c-2080,-1830 -3450,710 -5760,2590 -14590,11910 -31930,22070 -52250,17880 -25470,-5250 -37940,-19510 -52730,-29700 2380,17320 9690,32940 18900,41710 9780,9310 19530,18770 34450,26170 14700,7310 33560,9260 51970,7650 5280,-460 51000,-8110 52010,-8760z"/>
   <path class="fil42" d="M257910 251160l-210 150 -40590 57790c1330,3830 45390,7250 52570,7300 18130,110 34300,-5210 46660,-13040 19030,-12070 48010,-37420 49290,-70340 -3270,2930 -7170,6870 -10440,10080 -3220,3150 -7620,6040 -11250,9120 -6740,5710 -15460,10790 -25850,14640 -11900,4410 -22700,3370 -34270,-950 -5570,-2070 -9140,-3760 -13940,-6430 -2790,-1550 -11690,-8230 -11970,-8320z"/>
   <path class="fil41" d="M206590 182090c16370,-2580 30520,10450 32050,24660 1900,17480 -9480,30520 -24620,32060 -39330,4000 -44270,-50920 -7430,-56720zm170 -41040c20430,-3230 23720,27130 5190,30070 -21450,3400 -23830,-27120 -5190,-30070zm-980 -16370c-14060,3520 -19860,17250 -18750,34540 880,13700 5090,11630 -3430,19350 -5050,4580 -7600,7800 -11620,15200 -7030,12940 -2890,32400 4500,42120 6820,8980 19310,17800 37010,16280 28000,-2400 49530,-34790 32890,-63080 -3730,-6360 -7090,-9480 -13180,-13400 -4420,-2840 -2870,-3370 -2480,-9870 710,-11910 970,-24730 -6090,-33470 -2440,-3020 -11850,-9420 -18850,-7670z"/>
   <path class="fil43" d="M334380 134860l-240 250 -250 250 -240 260 -240 250 -250 260 -240 240 -250 260 -240 250 -250 250 -250 250 -240 250 -240 270 -240 270 -230 250 -240 280 -600 620 -240 250 -240 250 -220 270 -250 260 -250 250 -230 260 -2270 2450 -250 250 -240 250 -240 260 -240 260 -250 250 -230 260 -260 430c-20,70 -27960,32620 -31620,37240 -10030,12680 -20050,25250 -29790,39510 -6070,8890 -52820,77780 -49400,88410l3190 -1330 40590 -57790 210 -150c3340,-3810 7510,-9890 10660,-14190 3480,-4750 7410,-9000 10890,-13700 6630,-8950 15000,-18600 22180,-27010 7600,-8890 15070,-18070 22600,-26820 3170,-3680 14830,-16010 16950,-20070 1690,-3260 1160,-9930 1590,-10590l860 -8260 670 -4310 -360 -330 -9570 8980z"/>
   <path class="fil43" d="M70620 148700c190,3780 3740,4990 5740,6980 2090,2080 3860,4030 5960,6220 3920,4060 7990,8380 11900,12680 7700,8480 16340,16750 23780,25410 7990,9290 41610,44720 45320,53030l340 390 200 320 190 300 370 360 250 260c6560,8880 15450,18940 22580,27850 3710,4640 7070,9730 10700,14640 2250,3050 8020,13240 11960,13420 6600,-260 -25460,-47520 -27200,-50090 -25100,-37240 -41180,-56580 -70370,-89600 -2870,-3250 -39380,-40160 -39650,-40290l-2070 18120z"/>
   <path class="fil41" d="M281180 148240c-6410,-5830 -7000,-7830 -16520,-13190 -6040,-3400 -13980,-6670 -20880,-9190 -15520,-5660 -33820,-9590 -50840,-5210 -10500,2700 -33720,12570 -41860,17950 -16010,10590 -23760,26290 -29620,30460 270,1840 14530,17170 16960,19940 5340,6100 10370,13280 23280,13370l3010 -10220c-11150,-3300 -15850,-5370 -21800,-12360 -5610,-6570 -6950,-18450 -1100,-26120 4140,-5440 12110,-12350 23210,-10130 5370,1070 7770,3500 10970,6150 5980,4930 3330,4290 7010,10130 -900,-5550 -3760,-6780 -2670,-14090 690,-4650 2020,-9970 4110,-13520 5190,-8830 9990,-11860 22880,-12230 13030,-380 19210,2850 24820,10320 8970,11980 3590,27380 4310,28620 3560,-11660 18570,-21860 31940,-14940 5230,2700 6970,6470 9290,7910l740 810 -220 -290 2620 -3000 500 260 -820 -1410 1600 1640 190 -180 -1110 -1480z"/>
   <path class="fil43" d="M122900 124680l-390 260 -250 240 -15690 17380 -90 -120 -680 1070 -280 180 -390 470 -120 320 -50 -50 -350 340 -320 740 -50 -90 -470 800 -240 200 -450 870 -50 -130 -510 930c-480,2980 3180,5960 5170,7290 4800,-550 8830,-8450 12880,-11030 4060,-2600 5470,-1470 9820,-2070 4410,-610 4750,-2190 7890,-4290l16780 -11700c7480,-10670 6830,-12640 20380,-18990 20860,-9770 43510,-12030 66340,-7540 8890,1750 25280,8110 30990,6500 -21700,-11880 -51790,-18640 -82280,-13700 -19140,3100 -38380,10910 -53560,21200 -3780,2560 -11720,9760 -14030,10920zm150530 -18120l-370 -30 370 30z"/>
   <path class="fil42" d="M349590 323230l2880 4000 -680 390c-1520,2190 -18380,1570 -23230,1720 -3520,100 -23270,540 -24970,-1050l16160 -17330 1270 20 -1270 -20c-890,-20 -17570,7660 -22270,9050 -8690,2580 -17560,3800 -27300,3950 -9060,140 -20750,-190 -29320,-1940 -5790,-1190 -21480,-6800 -24670,-4460 2100,3730 22150,13890 29140,16910 11420,4940 22330,8310 36000,10000 15240,1870 27560,510 41390,-3150 6870,-1820 30410,-10650 30840,-15320l-3970 -2770z"/>
   <path class="fil42" d="M77200 336810c4570,4940 24930,10430 33720,11840 14990,2390 27120,2110 41640,-890 11530,-2380 24180,-7060 33340,-12140 4840,-2680 28350,-15510 25870,-19260 -1190,-840 -17630,4140 -20540,4980 -13190,3810 -32030,6120 -45990,6150 -5890,10 -12770,-250 -18630,-980 -3920,-490 -3360,-1140 -5030,1110l4260 3340 -220 280c-6560,4150 -14430,4190 -22980,4680 -4860,270 -23170,1540 -25440,890z"/>
   <path class="fil41" d="M155060 126290c16530,-6910 26940,-13300 49370,-14000 14680,-460 28020,1110 41710,5500 2370,760 10660,4290 11440,4400 510,-1140 90,-2900 3160,-7320 1510,-2160 3430,-5380 5120,-6810 2060,-1730 6610,1380 8250,2100 1330,580 3330,530 4940,1040 760,240 3600,1210 3840,1120l50 50 -50 -50 -9460 -5760 -370 -30 -290 -270c-5710,1610 -22100,-4750 -30990,-6500 -22830,-4490 -45480,-2230 -66340,7540 -13550,6350 -12900,8320 -20380,18990zm128540 -13380l-280 -180 280 180zm-25590 9670l0 -60 0 60z"/>
   <path class="fil41" d="M203300 188420l-210 170c-60,3600 11110,7390 1300,21200 -1650,2320 -4730,6610 -9600,4800 -3390,-1250 -7520,-3450 -7750,-6980l180 -820 -180 820c-5880,14130 21640,39860 40170,18050 16520,-19430 -4170,-44660 -23910,-37240z"/>
   <path class="fil43" d="M75920 195510c-7550,1950 -12160,16310 -11200,26440 760,8100 8740,25770 14960,21840 22050,-13910 7740,-51240 -3760,-48280z"/>
   <path class="fil42" d="M258340 147590c-12060,2930 -14150,9760 -20010,18400 -2100,3100 -1020,4580 1440,6120 3580,2240 2850,1250 5530,4150 1600,1730 7460,10220 9110,10000 1370,-190 10700,-5970 12070,-7020 2440,-1880 7900,-6490 8540,-10590 1670,-10690 -9160,-22900 -16680,-21060z"/>
   <path class="fil42" d="M159420 149540c-7930,1570 -18150,11260 -15050,21080 1730,5440 14370,16400 21000,16120 1880,-80 7330,-8300 8600,-9860 2550,-3130 8340,-4270 5790,-11080 -2570,-6910 -10810,-18140 -20340,-16260z"/>
   <path class="fil39" d="M187040 207610l180 -820c520,-7580 9360,-16800 15870,-18200l210 -170c19740,-7420 40430,17810 23910,37240 -18530,21810 -46050,-3920 -40170,-18050zm19550 -25520c-36840,5800 -31900,60720 7430,56720 15140,-1540 26520,-14580 24620,-32060 -1530,-14210 -15680,-27240 -32050,-24660z"/>
   <path class="fil42" d="M257580 122190l430 330 0 60c720,710 13440,7720 15550,9030 3330,2080 13070,10500 13970,10870l250 250 220 300 200 260 270 240 250 230 240 290 210 240 280 240 270 220 230 290 220 270 250 250 230 260 260 230 -260 -230 -230 -260 -250 -250 -220 -270 -230 -290 -270 -220 -280 -240 -210 -240 -240 -290 -250 -230 -270 -240 -200 -260 -220 -300 -250 -250c270,-1070 6430,-5700 7830,-6890 1450,-1240 5950,-7550 8050,-5740l-19810 -16940 -280 -180 -380 -360 -50 -50c-240,90 -3080,-880 -3840,-1120 -1610,-510 -3610,-460 -4940,-1040 -1640,-720 -6190,-3830 -8250,-2100 -1690,1430 -3610,4650 -5120,6810 -3070,4420 -2650,6180 -3160,7320z"/>
   <path class="fil42" d="M277680 151890c2420,4670 4690,5510 3850,13640 -980,9490 -6420,16080 -14160,20560l-12340 5620 3280 7850c940,460 12920,-3110 13990,-3830 2560,-1730 6250,-7180 8350,-10030 3850,-5210 13970,-16160 16390,-20650l-15860 -16810 1110 1480 -190 180 -1600 -1640 820 1410 -500 -260 -2620 3000 220 290 -740 -810z"/>
   <path class="fil41" d="M77200 336810c2270,650 20580,-620 25440,-890 8550,-490 16420,-530 22980,-4680l220 -280 -4260 -3340c-3820,-1370 -8570,-4520 -12520,-6420 -6860,-3300 -6340,-4530 -13420,-580 -5780,3230 -20350,10430 -24140,13780l5700 2410z"/>
   <path class="fil41" d="M349590 323230c-3960,-2290 -23970,-12520 -28570,-12250l-1270 -20 -16160 17330c1700,1590 21450,1150 24970,1050 4850,-150 21710,470 23230,-1720l680 -390 -2880 -4000z"/>
   <path class="fil41" d="M287530 142480l250 250 220 300 200 260 270 240 250 230 240 290 210 240 280 240 270 220 230 290 220 270 250 250 230 260 260 230 11760 13630c260,-150 11250,-14370 11850,-15390 1910,-3260 -2520,-6070 -4170,-7740 -1720,-1730 -5120,-5590 -6940,-6700 -2100,-1810 -6600,4500 -8050,5740 -1400,1190 -7560,5820 -7830,6890z"/>
   <path class="fil39" d="M207800 146300c12990,-2490 14670,18570 2250,20060 -12080,1450 -15530,-17520 -2250,-20060zm-1040 -5250c-18640,2950 -16260,33470 5190,30070 18530,-2940 15240,-33300 -5190,-30070z"/>
   <path class="fil43" d="M187220 206790l-180 820c230,3530 4360,5730 7750,6980 4870,1810 7950,-2480 9600,-4800 9810,-13810 -1360,-17600 -1300,-21200l210 -170 -210 170c-6510,1400 -15350,10620 -15870,18200z"/>
   <path class="fil43" d="M335240 183840c-11560,3020 -11280,27160 1620,25500 12580,-1620 9120,-28320 -1620,-25500z"/>
   <path class="fil41" d="M207800 146300c-13280,2540 -9830,21510 2250,20060 12420,-1490 10740,-22550 -2250,-20060z"/>
   <path class="fil42" d="M212550 296180c3170,-7160 -110,-7110 8230,-21570 2920,-5070 3490,-3250 4920,-4990 -460,-210 -22320,2930 -29400,-630 1930,4130 6970,8460 9600,12240 1550,2220 6570,14900 6650,14950z"/>
   <path class="fil41" d="M107690 155380l9260 10590 360 -310c1410,-7900 4840,-10540 8710,-15610 4080,-5360 8760,-7880 12260,-12060 -3140,2100 -3480,3680 -7890,4290 -4350,600 -5760,-530 -9820,2070 -4050,2580 -8080,10480 -12880,11030z"/>
  </g>
 </g>
</svg>
