<?xml version="1.0" encoding="UTF-8"?>
<!DOCTYPE svg PUBLIC "-//W3C//DTD SVG 1.1//EN" "http://www.w3.org/Graphics/SVG/1.1/DTD/svg11.dtd">
<!-- Creator: CorelDRAW -->
<svg xmlns="http://www.w3.org/2000/svg" xml:space="preserve" width="4.2332mm" height="6.9426mm" version="1.1" style="shape-rendering:geometricPrecision; text-rendering:geometricPrecision; image-rendering:optimizeQuality; fill-rule:evenodd; clip-rule:evenodd"
viewBox="0 0 423320 694260"
 xmlns:xlink="http://www.w3.org/1999/xlink"
 xmlns:xodm="http://www.corel.com/coreldraw/odm/2003">
 <defs>
  <style type="text/css">
   <![CDATA[
    .fil40 {fill:#004E2B}
    .fil41 {fill:#009964}
    .fil43 {fill:#00E2AB}
    .fil42 {fill:#09B28A}
    .fil32 {fill:#2D83CB}
    .fil34 {fill:#2E6D99}
    .fil28 {fill:#2E8228}
    .fil27 {fill:#2FB22C}
    .fil38 {fill:#3377A7}
    .fil19 {fill:#353535}
    .fil36 {fill:#367EAE}
    .fil29 {fill:#36982E}
    .fil20 {fill:#373737}
    .fil18 {fill:#3D3D3D}
    .fil15 {fill:#3F3F3F}
    .fil31 {fill:#41CB36}
    .fil17 {fill:#454545}
    .fil33 {fill:#4596D0}
    .fil37 {fill:#59A1D5}
    .fil44 {fill:#64D0E7}
    .fil3 {fill:#9A2E40}
    .fil8 {fill:#9B672F}
    .fil2 {fill:#B0364A}
    .fil9 {fill:#B57837}
    .fil12 {fill:#C0BFBF}
    .fil23 {fill:#C1A32D}
    .fil14 {fill:#C1C0C0}
    .fil13 {fill:#C7C6C6}
    .fil1 {fill:#CA2B3E}
    .fil7 {fill:#CB8429}
    .fil11 {fill:#CECDCD}
    .fil6 {fill:#CF8F42}
    .fil0 {fill:#D04458}
    .fil5 {fill:#D4586D}
    .fil10 {fill:#D49858}
    .fil21 {fill:#DBDBDB}
    .fil16 {fill:#F0F0F0}
    .fil22 {fill:#F2F2F2}
    .fil30 {fill:#F6F6F6}
    .fil24 {fill:#FADD57}
    .fil46 {fill:#FD8F14}
    .fil45 {fill:#FEE801}
    .fil39 {fill:#FEFEF7}
    .fil4 {fill:#FEFEFE}
    .fil35 {fill:#FEFEFF}
    .fil47 {fill:#FFB801}
    .fil25 {fill:#FFD326}
    .fil26 {fill:#FFFFFE}
   ]]>
  </style>
 </defs>
 <g id="圖層_x0020_2" visibility="hidden">
  <metadata id="CorelCorpID_0Corel-Layer"/>
  <image id="marker-icon-2x-red.png" x="0" y="0" width="423320" height="694260" xlink:href="marker-icon-2x-s-1-railway_Images\marker-icon-2x-s-1-railway_ImgID1.png"/>
  <g id="_2130771321632">
   <path class="fil0" d="M27980 190890l-7410 43860c1830,78600 78060,191180 107770,256290 23280,3690 840,-28850 -7130,-45410 -27390,-56960 -56600,-118280 -68720,-183470l57640 1440c16600,48610 68550,78740 130070,64490 63510,-14720 73140,-49530 89990,-113610l44980 0c-40,45810 -10640,77090 -23520,113340l-32250 77060c-6370,30260 -7830,15070 4510,28960 24480,-49100 79270,-140110 78840,-199090l-4510 -44190c-15680,-9070 -10360,-6160 -21530,-24540 -131430,-216180 -329880,-76230 -346480,49100l-2250 -24230z"/>
   <path class="fil1" d="M128340 491040c19770,39700 57770,127210 83320,153790 21360,-23180 94450,-170960 112250,-210990 -12340,-13890 -10880,1300 -4510,-28960l32250 -77060c12880,-36250 23480,-67530 23520,-113340l-44980 0c-16850,64080 -26480,98890 -89990,113610 -61520,14250 -113470,-15880 -130070,-64490l-57640 -1440c12120,65190 41330,126510 68720,183470 7970,16560 30410,49100 7130,45410z"/>
   <path class="fil2" d="M189110 136780c-9300,1750 -43320,31670 -48170,37430 -39610,47080 -6850,151980 89550,134580 114460,-20660 77150,-194340 -41380,-172010z"/>
   <path class="fil3" d="M423320 234750l-20570 0c430,58980 -54360,149990 -78840,199090 -17800,40030 -90890,187810 -112250,210990 -25550,-26580 -63550,-114090 -83320,-153790 -29710,-65110 -105940,-177690 -107770,-256290l-20570 0c1610,79990 103260,251160 149570,343800 17440,34870 34570,87080 62090,107240 26490,-19410 43730,-70530 59260,-101600 19050,-38080 36320,-72330 56410,-112920 29120,-58800 94460,-160440 95990,-236520z"/>
   <path class="fil4" d="M189310 159990c-37950,15740 -56500,44030 -40160,88000 11110,29870 49330,52320 91730,36080 68270,-26140 35670,-160250 -51570,-124080z"/>
   <path class="fil2" d="M0 234750l20570 0 7410 -43860c4820,-85000 90090,-161390 183670,-162030 96790,-660 172240,76990 186590,161700l4510 44190 20570 0c0,-85150 -31200,-140390 -86670,-181950 -146040,-109410 -336650,450 -336650,181950z"/>
   <path class="fil5" d="M27980 190890l2250 24230c16600,-125330 215050,-265280 346480,-49100 11170,18380 5850,15470 21530,24540 -14350,-84710 -89800,-162360 -186590,-161700 -93580,640 -178850,77030 -183670,162030z"/>
  </g>
 </g>
 <g id="圖層_x0020_3" visibility="hidden">
  <metadata id="CorelCorpID_1Corel-Layer"/>
  <image id="marker-icon-2x-orange.png" x="0" y="0" width="423320" height="694260" xlink:href="marker-icon-2x-s-1-railway_Images\marker-icon-2x-s-1-railway_ImgID2.png"/>
  <g id="_2130864572704">
   <path class="fil6" d="M22520 248400l1650 13620c9700,55710 162500,351970 187490,380980 23860,-28690 167350,-308100 179900,-357000 -11690,-9430 -10080,20180 -8460,-26230 -26390,26370 -113980,278790 -151510,333090 -17290,25020 -4140,8620 -19930,21620 -27030,-22150 -33270,-49440 -49620,-84860 -35770,-77520 -102180,-207790 -111760,-282950l51320 150c22820,106940 197820,136760 228590,-31780l45510 0 1150 38740c76690,-43000 -125900,-322040 -290770,-142020 -13550,14800 -30810,31510 -39880,53680 -11440,27980 -7910,60670 -23680,82960z"/>
   <path class="fil7" d="M383100 259770l-6250 -5990 -1150 -38740 -45510 0c-30770,168540 -205770,138720 -228590,31780l-51320 -150c9580,75160 75990,205430 111760,282950 16350,35420 22590,62710 49620,84860 15790,-13000 2640,3400 19930,-21620 37530,-54300 125120,-306720 151510,-333090z"/>
   <path class="fil8" d="M194230 142580c-41930,10180 -73740,49570 -63600,100170 8170,40760 54150,75080 104950,61750 100190,-26310 66840,-188180 -41350,-161920z"/>
   <path class="fil8" d="M414850 177800c-3290,17430 1750,22080 -660,42350 -4250,35590 2550,21880 -17400,41870l-5230 23980c-12550,48900 -156040,328310 -179900,357000 -24990,-29010 -177790,-325270 -187490,-380980 -29190,-36190 -8520,-51040 -15700,-84220 -4140,6530 -6870,14060 -8470,22220l0 44260c4220,29610 14910,59940 22840,80010 34950,88350 76750,154280 121090,242970 16340,32690 41070,99000 67730,118530 27300,-20000 105300,-195740 126890,-237170 32280,-61980 77130,-129430 84770,-201090l0 -32110 -8470 -37620z"/>
   <path class="fil4" d="M188540 159460c-34990,14790 -56720,43000 -39850,88770 11220,30440 49420,52660 92520,36340 73110,-27680 34990,-162170 -52670,-125110z"/>
   <path class="fil9" d="M8470 177800c7180,33180 -13490,48030 15700,84220l-1650 -13620c-9580,-297190 413090,-281200 374270,13620 19950,-19990 13150,-6280 17400,-41870 2410,-20270 -2630,-24920 660,-42350 -1050,-47270 -36020,-89810 -68790,-117480 -153660,-129770 -335350,16550 -337590,117480z"/>
   <path class="fil10" d="M22520 248400c15770,-22290 12240,-54980 23680,-82960 9070,-22170 26330,-38880 39880,-53680 164870,-180020 367460,99020 290770,142020l6250 5990c-1620,46410 -3230,16800 8460,26230l5230 -23980c38820,-294820 -383850,-310810 -374270,-13620z"/>
  </g>
 </g>
 <g id="圖層_x0020_4">
  <metadata id="CorelCorpID_2Corel-Layer"/>
  <g id="_2130768602160">
   <path class="fil11" d="M191740 139860c51850,-11410 95820,22820 103930,64190 24330,124150 -146710,139660 -166370,39350 -10920,-55650 27670,-95890 62440,-103540zm-79160 325930c29080,-12660 3720,-16760 -33860,-112220 -17480,-44400 -29490,-81090 -33410,-133440l47820 0c13430,23870 20620,109570 118780,110170 83660,520 90820,-50330 118280,-110170l48680 0c-5610,71950 -35820,138230 -66180,201870 -37130,77830 -22920,50380 -13390,63070 25340,-75500 106820,-176590 105680,-272810 -2820,-239240 -363670,-250450 -385720,-14940 -10960,116990 87620,207440 93320,268470z"/>
   <path class="fil12" d="M299300 485070c-40480,55790 -46740,110670 -87640,158140 -23940,-25960 -31430,-58730 -47330,-88630 -15480,-29100 -34680,-57640 -51750,-88790 -5700,-61030 -104280,-151480 -93320,-268470 22050,-235510 382900,-224300 385720,14940 1140,96220 -80340,197310 -105680,272810zm-299300 -264940c0,89760 55950,180010 95840,251290 20440,36510 34750,69170 53730,107130 17440,34870 34570,87080 62090,107240 26490,-19410 43730,-70530 59260,-101600 19050,-38080 36320,-72330 56410,-112920 38900,-78550 95990,-156330 95990,-251140 0,-278430 -423320,-276190 -423320,0z"/>
   <path class="fil11" d="M160880 129080c-154140,64530 -52610,265990 88800,210810 124150,-48460 57510,-272070 -88800,-210810z"/>
   <path class="fil13" d="M112580 465790c17070,31150 36270,59690 51750,88790 15900,29900 23390,62670 47330,88630 40900,-47470 47160,-102350 87640,-158140 -9530,-12690 -23740,14760 13390,-63070 30360,-63640 60570,-129920 66180,-201870l-48680 0c-27460,59840 -34620,110690 -118280,110170 -98160,-600 -105350,-86300 -118780,-110170l-47820 0c3920,52350 15930,89040 33410,133440 37580,95460 62940,99560 33860,112220z"/>
   <path class="fil14" d="M165630 91750c174700,-65390 254260,173310 106030,225030 -168840,58910 -290080,-156140 -106030,-225030zm5570 -36020c-70410,13850 -148550,86700 -126440,187440 39810,181600 386170,153520 336900,-71240 -16420,-74890 -105460,-136860 -210460,-116200z"/>
  </g>
 </g>
 <g id="圖層_x0020_5" visibility="hidden">
  <metadata id="CorelCorpID_3Corel-Layer"/>
  <g id="_2130768665472">
   <path class="fil15" d="M203620 160100c78900,-18520 100500,110630 23010,125250 -81760,15420 -119880,-102510 -23010,-125250zm-203620 60030c0,89760 55950,180010 95840,251290 20440,36510 34750,69170 53730,107130 17440,34870 34570,87080 62090,107240 26490,-19410 43730,-70530 59260,-101600 19050,-38080 36320,-72330 56410,-112920 38900,-78550 95990,-156330 95990,-251140 0,-278430 -423320,-276190 -423320,0z"/>
   <path class="fil16" d="M203620 160100c-96870,22740 -58750,140670 23010,125250 77490,-14620 55890,-143770 -23010,-125250z"/>
  </g>
  <g id="_2130768666240">
   <path class="fil17" d="M269170 493170c-4450,23290 -11980,35540 -21870,57740l-20530 40580c-1390,1890 -3250,3900 -4620,5600l-33070 -16820 -36330 -86050c-22800,-19460 -52640,-92540 -65890,-123300 -20520,-47630 -36360,-94570 -40320,-149740l52940 0c23480,122480 113520,127820 173470,94750 37650,-20770 24520,-24830 48770,-54520l49740 0c-7000,35420 -61620,182860 -87670,216580 -8880,11500 -4860,7040 -14620,15180zm-82950 -346230c52170,-22560 133870,23210 104710,110060 -9160,27270 -13390,33640 -40910,45080 -105870,44000 -183570,-103340 -63800,-155140zm25440 492050c59010,-102860 113390,-210130 169070,-325630 72560,-150480 -29630,-288950 -169080,-288520 -140860,440 -238830,136940 -169230,288760l169240 325390z"/>
   <path class="fil18" d="M152750 494220c6160,-11970 -10710,-15280 58980,-15250 1160,0 32750,2010 32990,2070 26090,6050 7770,-5090 24450,12130 9760,-8140 5740,-3680 14620,-15180 26050,-33720 80670,-181160 87670,-216580l-49740 0c-24250,29690 -11120,33750 -48770,54520 -59950,33070 -149990,27730 -173470,-94750l-52940 0c3960,55170 19800,102110 40320,149740 13250,30760 43090,103840 65890,123300z"/>
   <path class="fil19" d="M42420 313600c-69600,-151820 28370,-288320 169230,-288760 139450,-430 241640,138040 169080,288520 -55680,115500 -110060,222770 -169070,325630l-169240 -325390zm-42420 -93470c0,89760 55950,180010 95840,251290 20440,36510 34750,69170 53730,107130 17440,34870 34570,87080 62090,107240 26490,-19410 43730,-70530 59260,-101600 19050,-38080 36320,-72330 56410,-112920 38900,-78550 95990,-156330 95990,-251140 0,-278430 -423320,-276190 -423320,0z"/>
   <path class="fil20" d="M202170 158550c84080,-18870 106530,113280 24950,128170 -86980,15880 -119840,-106870 -24950,-128170zm-15950 -11610c-119770,51800 -42070,199140 63800,155140 27520,-11440 31750,-17810 40910,-45080 29160,-86850 -52540,-132620 -104710,-110060z"/>
   <path class="fil21" d="M169330 194000c53380,-27290 105690,-10300 78390,62200 -28130,12310 -45200,12350 -74690,2190 -11990,-30850 -11580,-26010 -3700,-64390zm32840 -35450c-94890,21300 -62030,144050 24950,128170 81580,-14890 59130,-147040 -24950,-128170z"/>
   <path class="fil22" d="M169330 194000c-7880,38380 -8290,33540 3700,64390 29490,10160 46560,10120 74690,-2190 27300,-72500 -25010,-89490 -78390,-62200z"/>
  </g>
 </g>
 <g id="圖層_x0020_6" visibility="hidden">
  <metadata id="CorelCorpID_4Corel-Layer"/>
  <image id="marker-icon-2x-gold.png" x="-4230" y="-4230" width="431780" height="702720" xlink:href="marker-icon-2x-s-1-railway_Images\marker-icon-2x-s-1-railway_ImgID3.png"/>
  <g id="_2130768662112">
   <path class="fil23" d="M-4230 190500c0,117180 58890,171210 98020,266030 17040,41290 95780,214210 122100,233490l101570 -220160c71620,-141880 101620,-168330 101620,-287830 0,-99110 -97470,-181450 -204010,-186260l-19190 0c-46600,2030 -93910,19330 -134700,56940 -28600,26370 -65410,85670 -65410,137790z"/>
   <path class="fil24" d="M206930 630080c27870,-28770 134870,-269090 163750,-327100 67890,-136340 -17640,-282140 -163250,-281090 -146740,1050 -224300,143490 -160630,277860 51410,108490 106100,226360 160130,330330z"/>
   <path class="fil25" d="M208360 594750c25630,-35350 114430,-236650 146940,-298030 66870,-126300 -16020,-261010 -147920,-258890 -127330,2040 -208740,124530 -145370,256110 47480,98580 96660,208870 146350,300810z"/>
   <path class="fil24" d="M177830 59780c-220800,54530 -128830,365100 85340,299960 172220,-52400 120970,-350880 -85340,-299960z"/>
   <path class="fil23" d="M174220 137920c-104660,52340 -30180,194970 71810,150400 94770,-41410 33160,-202880 -71810,-150400z"/>
   <path class="fil26" d="M192000 145890c-99130,27880 -51640,156290 36620,134220 84460,-21130 56400,-160380 -36620,-134220z"/>
  </g>
 </g>
 <g id="圖層_x0020_7" visibility="hidden">
  <metadata id="CorelCorpID_5Corel-Layer"/>
  <g id="_2130768649632">
   <path class="fil27" d="M302400 209750c-5560,66390 -41400,112460 -109540,97310 -88430,-19670 -64960,-81950 -56630,-129980 -27150,-2940 -3110,21750 -18910,-10470 31090,-31000 53420,-68920 127490,-49460 46040,12100 67290,49080 70250,106720 -5620,-6630 -9620,-600 -12660,-14120zm-282950 14120l2530 39520c13720,60170 165990,354220 189680,380310 24110,-27790 175830,-321770 189930,-380310l2280 -39520c-39000,-31640 -8690,-52760 -71830,-115320 -28370,-28120 -66980,-52210 -120700,-52320 -51380,-100 -92170,25690 -119750,52050 -51320,49070 -38940,88820 -72140,115590z"/>
   <path class="fil28" d="M423320 226690c-17210,13040 -6590,12880 -21730,36700 -14100,58540 -165820,352520 -189930,380310 -23690,-26090 -175960,-320140 -189680,-380310 -16010,-24230 -4620,-23500 -21980,-36700 0,88500 100400,253500 149570,351860 17440,34870 34570,87080 62090,107240 26490,-19410 43730,-70530 59260,-101600 47160,-94310 152400,-272940 152400,-357500z"/>
   <path class="fil29" d="M0 226690c17360,13200 5970,12470 21980,36700l-2530 -39520c40020,-222160 230520,-231680 325020,-136540 40600,40870 47080,66800 59400,136540l-2280 39520c15140,-23820 4520,-23660 21730,-36700 0,-73640 -24210,-111820 -59870,-149890 -136300,-145520 -363450,-36930 -363450,149890z"/>
   <path class="fil30" d="M190750 161640c-95720,41290 -25140,153570 50130,121540 70000,-29800 34360,-157980 -50130,-121540z"/>
   <path class="fil31" d="M19450 223870c33200,-26770 20820,-66520 72140,-115590 27580,-26360 68370,-52150 119750,-52050 53720,110 92330,24200 120700,52320 63140,62560 32830,83680 71830,115320 -12320,-69740 -18800,-95670 -59400,-136540 -94500,-95140 -285000,-85620 -325020,136540z"/>
   <path class="fil29" d="M190750 161640c84490,-36440 120130,91740 50130,121540 -75270,32030 -145850,-80250 -50130,-121540zm-54520 15440c-8330,48030 -31800,110310 56630,129980 68140,15150 103980,-30920 109540,-97310 -11750,-39870 -32270,-68220 -74590,-74520 -45780,-6820 -72550,10390 -91580,41850z"/>
   <path class="fil31" d="M136230 177080c19030,-31460 45800,-48670 91580,-41850 42320,6300 62840,34650 74590,74520 3040,13520 7040,7490 12660,14120 -2960,-57640 -24210,-94620 -70250,-106720 -74070,-19460 -96400,18460 -127490,49460 15800,32220 -8240,7530 18910,10470z"/>
  </g>
 </g>
 <g id="圖層_x0020_8" visibility="hidden">
  <metadata id="CorelCorpID_6Corel-Layer"/>
  <image id="marker-icon-2x.png" x="0" y="0" width="423320" height="694260" xlink:href="marker-icon-2x-s-1-railway_Images\marker-icon-2x-s-1-railway_ImgID4.png"/>
  <g id="_2130768641184">
   <path class="fil32" d="M119370 472780c14300,34180 72470,150660 92290,171740 19530,-20770 95570,-171290 113100,-211210 -12150,-13920 -10350,1150 -3750,-27560 90,-390 12390,-27270 13220,-29080 33220,-72300 45090,-114200 38420,-194050l-51420 -1720c6790,80030 -13190,142600 -100700,147790 -92190,5470 -125040,-56320 -116990,-148320l-52780 4260c-8100,94770 36040,218480 78800,281030 -2270,11120 11240,12430 -10190,7120z"/>
   <path class="fil33" d="M191370 139690c113610,-25690 150410,142690 39240,168200 -51290,11770 -94020,-23050 -101900,-64350 -9060,-47490 21560,-94550 62660,-103850zm-156160 22200c-17190,24850 -13130,46380 -12980,80870 430,62410 71310,176600 97140,230020 21430,5310 7920,4000 10190,-7120 -42760,-62550 -86900,-186260 -78800,-281030l52780 -4260c-8050,92000 24800,153790 116990,148320 87510,-5190 107490,-67760 100700,-147790l51420 1720c6670,79850 -5200,121750 -38420,194050 -830,1810 -13130,28690 -13220,29080 -6600,28710 -8400,13640 3750,27560 23150,-50780 76270,-133820 76330,-190550 150,-34740 4230,-55650 -12460,-81350 -17260,14560 -2380,12720 -16530,-6040 -7260,-9610 -6240,-13230 -12670,-22660 -50460,-74150 -167070,-112180 -256720,-38290 -70870,58400 -48150,94400 -67500,67470z"/>
   <path class="fil34" d="M0 257240c58660,165550 75840,173820 152400,326950 15530,31070 32770,82190 59260,101600 17550,-12850 143170,-257980 165800,-308320 20030,-44550 29740,-75110 45860,-119920 -9130,-9710 -7100,-5840 -22230,-14790 -60,56730 -53180,139770 -76330,190550 -17530,39920 -93570,190440 -113100,211210 -19820,-21080 -77990,-137560 -92290,-171740 -25830,-53420 -96710,-167610 -97140,-230020 -15200,8900 -12980,5010 -22230,14480z"/>
   <path class="fil35" d="M144490 228600c4590,83960 145880,83080 135100,-16330 -8610,-79320 -140480,-82050 -135100,16330z"/>
   <path class="fil36" d="M0 257240c9250,-9470 7030,-5580 22230,-14480 -150,-34490 -4210,-56020 12980,-80870 12690,-65980 90660,-132430 176430,-132760 85560,-320 163240,66820 176990,132280 16690,25700 12610,46610 12460,81350 15130,8950 13100,5080 22230,14790 0,-91920 -9250,-121110 -51960,-171730 -16140,-19120 -8340,-12100 -29950,-29310 -91310,-72700 -199810,-62490 -284490,25810 -47400,49420 -56920,81290 -56920,174920z"/>
   <path class="fil37" d="M35210 161890c19350,26930 -3370,-9070 67500,-67470 89650,-73890 206260,-35860 256720,38290 6430,9430 5410,13050 12670,22660 14150,18760 -730,20600 16530,6040 -13750,-65460 -91430,-132600 -176990,-132280 -85770,330 -163740,66780 -176430,132760z"/>
   <path class="fil38" d="M144490 228600c-5380,-98380 126490,-95650 135100,-16330 10780,99410 -130510,100290 -135100,16330zm46880 -88910c-41100,9300 -71720,56360 -62660,103850 7880,41300 50610,76120 101900,64350 111170,-25510 74370,-193890 -39240,-168200z"/>
  </g>
 </g>
 <g id="圖層_x0020_9" visibility="hidden">
  <metadata id="CorelCorpID_7Corel-Layer"/>
 </g>
 <g id="圖層_x0020_1">
  <metadata id="CorelCorpID_8Corel-Layer"/>
  <g id="_2131042495856">
   <path class="fil39" d="M156160 327130l-640 0 0 3220 -640 0 0 1930 -640 0 0 640 -4510 0 0 640 -25070 0 0 -640 -23790 0 0 -640 -650 0 0 -9650 -640 0 0 -29580 640 0 0 -4500 650 0 0 -1280 49510 0 0 640 3860 0 0 1280 640 0 0 3860 640 0 0 4500 640 0 0 5790 650 0 0 17360 -650 0 0 6430zm-57220 -108020l640 0 0 -2580 640 0 0 -640 650 0 0 -640 640 0 0 -640 1280 0 0 -650 2580 0 0 -640 5140 0 0 -640 5140 0 0 -650 27010 0 0 650 3220 0 0 640 1930 0 0 640 1280 0 0 650 1290 0 0 640 1280 0 0 640 1290 0 0 640 640 0 0 650 650 0 0 640 640 0 0 1290 640 0 0 1920 640 0 0 2580 650 0 0 2570 640 0 0 3860 640 0 0 9640 -640 0 0 8360 -640 0 0 2570 -650 0 0 1290 -640 0 0 1290 -640 0 0 640 -640 0 0 640 -1290 0 0 650 -1930 0 0 640 -2570 0 0 640 -3220 0 0 640 -2570 0 0 650 -34080 0 0 -650 -1930 0 0 -640 -1280 0 0 -640 -650 0 0 -640 -1280 0 0 -650 -650 0 0 -640 -640 0 0 -1930 -640 0 0 -3860 -640 0 0 -2570 -650 0 0 -6430 -640 0 0 -7070 -640 0 0 -12860zm34080 -81670l-650 0 0 650 -640 0 0 640 -640 0 0 640 -650 0 0 1290 -640 0 0 640 -640 0 0 1290 -640 0 0 1280 -650 0 0 1290 -640 0 0 1290 -640 0 0 1280 -650 0 0 1930 -640 0 0 1290 -640 0 0 1280 -650 0 0 1290 -640 0 0 1280 -640 0 0 1290 -640 0 0 1930 -650 0 0 1290 -640 0 0 640 -640 0 0 1280 -650 0 0 1930 -640 0 0 1290 -640 0 0 1290 -650 0 0 1280 -640 0 0 1290 -640 0 0 1280 -650 0 0 1290 -640 0 0 1290 -640 0 0 1280 -640 0 0 1290 -650 0 0 1280 -640 0 0 1290 -640 0 0 1290 -650 0 0 1280 -640 0 0 1290 -640 0 0 1280 -650 0 0 1290 -640 0 0 1290 -640 0 0 1280 -640 0 0 1290 -650 0 0 1280 -640 0 0 1290 -640 0 0 1290 -650 0 0 1280 -640 0 0 1290 -640 0 0 1280 -650 0 0 1290 -640 0 0 1290 -640 0 0 1280 -640 0 0 1290 -650 0 0 1280 -640 0 0 1290 -640 0 0 1290 -650 0 0 640 -640 0 0 1290 -640 0 0 1280 -650 0 0 1290 -640 0 0 1280 -640 0 0 1290 -640 0 0 1290 -650 0 0 1280 -640 0 0 1290 -640 0 0 1280 -650 0 0 1930 -640 0 0 1290 -640 0 0 1930 -650 0 0 1280 -640 0 0 1930 -640 0 0 1290 -650 0 0 640 -640 0 0 1290 -640 0 0 1280 -640 0 0 650 -650 0 0 640 -640 0 0 640 -640 0 0 650 -650 0 0 640 -640 0 0 640 -640 0 0 650 -640 0 0 640 -650 0 0 640 -640 0 0 640 -1290 0 0 3220 -640 0 0 2570 -640 0 0 5790 -650 0 0 99670 650 0 0 5140 3860 0 0 640 37930 0 0 650 60450 0 0 -1290 640 0 0 -3220 640 0 0 -72660 -640 0 0 -10280 -640 0 0 -8360 -650 0 0 -12220 -640 0 0 -3860 -640 0 0 -2570 -650 0 0 -1290 -640 0 0 -1280 -640 0 0 -1290 -640 0 0 -1280 -650 0 0 -1290 -640 0 0 -1290 -640 0 0 -1930 -650 0 0 -1280 -640 0 0 -1290 -640 0 0 -1280 -650 0 0 -1290 -640 0 0 -640 -640 0 0 -1290 -640 0 0 -1290 -650 0 0 -1280 -640 0 0 -1290 -640 0 0 -1280 -650 0 0 -1290 -640 0 0 -1930 -640 0 0 -1280 -650 0 0 -1290 -640 0 0 -1290 -640 0 0 -1280 -640 0 0 -1290 -650 0 0 -1280 -640 0 0 -1290 -640 0 0 -1290 -650 0 0 -1280 -640 0 0 -1930 -640 0 0 -1290 -650 0 0 -1280 -640 0 0 -1930 -640 0 0 -1290 -650 0 0 -1930 -640 0 0 -1280 -640 0 0 -1290 -640 0 0 -1290 -650 0 0 -1280 -640 0 0 -1290 -640 0 0 -1280 -650 0 0 -1930 -640 0 0 -1290 -640 0 0 -640 -650 0 0 -1290 -640 0 0 -1930 -640 0 0 -1280 -640 0 0 -1930 -650 0 0 -1290 -640 0 0 -1930 -640 0 0 -1280 -650 0 0 -1290 -640 0 0 -1930 -640 0 0 -1280 -650 0 0 -1290 -640 0 0 -1930 -640 0 0 -1290 -640 0 0 -1920 -650 0 0 -1290 -640 0 0 -1930 -640 0 0 -1930 -650 0 0 -2570 -640 0 0 -1930 -640 0 0 -1930 -650 0 0 -2570 -640 0 0 -1290 -640 0 0 -1930 -640 0 0 -1920 -650 0 0 -2580 -640 0 0 -640 -640 0 0 640z"/>
   <path class="fil39" d="M266120 296910l640 0 0 -7720 650 0 0 -1280 1280 0 0 -640 43730 0 0 640 7070 0 0 640 1930 0 0 640 640 0 0 1290 650 0 0 1930 640 0 0 5140 640 0 0 34730 -640 0 0 640 -3220 0 0 640 -3850 0 0 650 -21220 0 0 -650 -12860 0 0 -640 -14150 0 0 -640 -1290 0 0 -5790 -640 0 0 -29580zm-1930 -73950l640 0 0 -1280 650 0 0 -1290 640 0 0 -2570 640 0 0 -1290 650 0 0 -2570 1280 0 0 -640 3860 0 0 -640 6430 0 0 -650 9000 0 0 -640 9650 0 0 -640 10290 0 0 640 3210 0 0 640 2570 0 0 650 1930 0 0 640 1290 0 0 640 1280 0 0 650 1290 0 0 640 640 0 0 640 650 0 0 640 640 0 0 650 640 0 0 1280 650 0 0 2570 640 0 0 25730 -640 0 0 3210 -650 0 0 2570 -640 0 0 650 -640 0 0 640 -650 0 0 640 -1280 0 0 650 -1290 0 0 640 -1930 0 0 640 -1930 0 0 640 -3850 0 0 650 -4510 0 0 640 -28290 0 0 -640 -3860 0 0 -650 -1280 0 0 -640 -650 0 0 -640 -640 0 0 -640 -640 0 0 -650 -640 0 0 -1280 -650 0 0 -1290 -640 0 0 -640 -640 0 0 -1930 -650 0 0 -2570 -640 0 0 -3860 -640 0 0 -5790 -650 0 0 -2570 -640 0 0 -11580zm33440 -88090l-650 0 0 1930 -640 0 0 1290 -640 0 0 1280 -640 0 0 1290 -650 0 0 1280 -640 0 0 1290 -640 0 0 1290 -650 0 0 1930 -640 0 0 1280 -640 0 0 1930 -640 0 0 1290 -650 0 0 1930 -640 0 0 1280 -640 0 0 1290 -650 0 0 1280 -640 0 0 1290 -640 0 0 1290 -650 0 0 1280 -640 0 0 1290 -640 0 0 1280 -650 0 0 1290 -640 0 0 1290 -640 0 0 1920 -640 0 0 1290 -650 0 0 1290 -640 0 0 1280 -640 0 0 1290 -650 0 0 1290 -640 0 0 1280 -640 0 0 1290 -650 0 0 1280 -640 0 0 1290 -640 0 0 1290 -640 0 0 1280 -650 0 0 1290 -640 0 0 1280 -640 0 0 1290 -650 0 0 1290 -640 0 0 1280 -640 0 0 1930 -650 0 0 1290 -640 0 0 1280 -640 0 0 1290 -640 0 0 1280 -650 0 0 1290 -640 0 0 1290 -640 0 0 1280 -650 0 0 1290 -640 0 0 1280 -640 0 0 1290 -650 0 0 1290 -640 0 0 1280 -640 0 0 1290 -640 0 0 1280 -650 0 0 1290 -640 0 0 1290 -640 0 0 1930 -650 0 0 1280 -640 0 0 1930 -640 0 0 1290 -650 0 0 1280 -640 0 0 1290 -640 0 0 1280 -640 0 0 1290 -650 0 0 1290 -640 0 0 1280 -640 0 0 1290 -650 0 0 1290 -640 0 0 640 -640 0 0 1280 -650 0 0 1290 -640 0 0 1290 -640 0 0 1280 -640 0 0 1290 -650 0 0 1280 -640 0 0 1290 -640 0 0 1930 -650 0 0 3210 -640 0 0 7080 -640 0 0 35360 -650 0 0 49520 -640 0 0 19290 640 0 0 640 97100 0 0 -640 3860 0 0 -1290 640 0 0 -78450 -640 0 0 -28290 -650 0 0 -6430 -640 0 0 -1290 -640 0 0 -640 -640 0 0 -1290 -650 0 0 -640 -640 0 0 -1280 -640 0 0 -650 -650 0 0 -1280 -640 0 0 -1290 -640 0 0 -640 -650 0 0 -1290 -640 0 0 -1280 -640 0 0 -1290 -640 0 0 -1290 -650 0 0 -1280 -640 0 0 -650 -640 0 0 -1280 -650 0 0 -1290 -640 0 0 -1280 -640 0 0 -1290 -650 0 0 -1290 -640 0 0 -1280 -640 0 0 -1290 -640 0 0 -1280 -650 0 0 -1290 -640 0 0 -1290 -640 0 0 -1280 -650 0 0 -1290 -640 0 0 -1280 -640 0 0 -1290 -650 0 0 -1290 -640 0 0 -1280 -640 0 0 -1290 -650 0 0 -640 -640 0 0 -1930 -640 0 0 -1290 -640 0 0 -1280 -650 0 0 -1290 -640 0 0 -1930 -640 0 0 -1280 -650 0 0 -1290 -640 0 0 -1930 -640 0 0 -1280 -650 0 0 -1290 -640 0 0 -1930 -640 0 0 -1290 -640 0 0 -1280 -650 0 0 -1290 -640 0 0 -1280 -640 0 0 -1290 -650 0 0 -1930 -640 0 0 -1280 -640 0 0 -1930 -650 0 0 -1290 -640 0 0 -1290 -640 0 0 -1930 -640 0 0 -1280 -650 0 0 -1290 -640 0 0 -1280 -640 0 0 -1930 -650 0 0 -1290 -640 0 0 -1280 -640 0 0 -2580 -650 0 0 -1930 -640 0 0 -1920 -640 0 0 -1930 -640 0 0 -2580 -650 0 0 -1920 -640 0 0 -1930 -640 0 0 -1930 -650 0 0 -1930 -640 0 0 -1930 -640 0 0 -1930 -650 0 0 -1290 -640 0 0 -1280 -640 0 0 640z"/>
   <path class="fil40" d="M346500 353500l-3860 0 0 640 -97100 0 0 -640 -640 0 0 -19290 640 0 0 -49520 650 0 0 -35360 640 0 0 -7080 640 0 0 -3210 650 0 0 -1930 640 0 0 -1290 640 0 0 -1280 650 0 0 -1290 640 0 0 -1280 640 0 0 -1290 640 0 0 -1290 650 0 0 -1280 640 0 0 -640 640 0 0 -1290 650 0 0 -1290 640 0 0 -1280 640 0 0 -1290 650 0 0 -1290 640 0 0 -1280 640 0 0 -1290 640 0 0 -1280 650 0 0 -1290 640 0 0 -1930 640 0 0 -1280 650 0 0 -1930 640 0 0 -1290 640 0 0 -1290 650 0 0 -1280 640 0 0 -1290 640 0 0 -1280 640 0 0 -1290 650 0 0 -1290 640 0 0 -1280 640 0 0 -1290 650 0 0 -1280 640 0 0 -1290 640 0 0 -1290 650 0 0 -1280 640 0 0 -1290 640 0 0 -1280 640 0 0 -1290 650 0 0 -1930 640 0 0 -1280 640 0 0 -1290 650 0 0 -1290 640 0 0 -1280 640 0 0 -1290 650 0 0 -1280 640 0 0 -1290 640 0 0 -1290 640 0 0 -1280 650 0 0 -1290 640 0 0 -1280 640 0 0 -1290 650 0 0 -1290 640 0 0 -1280 640 0 0 -1290 650 0 0 -1290 640 0 0 -1920 640 0 0 -1290 640 0 0 -1290 650 0 0 -1280 640 0 0 -1290 640 0 0 -1280 650 0 0 -1290 640 0 0 -1290 640 0 0 -1280 650 0 0 -1290 640 0 0 -1280 640 0 0 -1930 650 0 0 -1290 640 0 0 -1930 640 0 0 -1280 640 0 0 -1930 650 0 0 -1290 640 0 0 -1290 640 0 0 -1280 650 0 0 -1290 640 0 0 -1280 640 0 0 -1290 640 0 0 -1930 650 0 0 -640 640 0 0 1280 640 0 0 1290 650 0 0 1930 640 0 0 1930 640 0 0 1930 650 0 0 1930 640 0 0 1930 640 0 0 1920 650 0 0 2580 640 0 0 1930 640 0 0 1920 640 0 0 1930 650 0 0 2580 640 0 0 1280 640 0 0 1290 650 0 0 1930 640 0 0 1280 640 0 0 1290 650 0 0 1280 640 0 0 1930 640 0 0 1290 640 0 0 1290 650 0 0 1930 640 0 0 1280 640 0 0 1930 650 0 0 1290 640 0 0 1280 640 0 0 1290 650 0 0 1280 640 0 0 1290 640 0 0 1930 640 0 0 1290 650 0 0 1280 640 0 0 1930 640 0 0 1290 650 0 0 1280 640 0 0 1930 640 0 0 1290 650 0 0 1280 640 0 0 1290 640 0 0 1930 640 0 0 640 650 0 0 1290 640 0 0 1280 640 0 0 1290 650 0 0 1290 640 0 0 1280 640 0 0 1290 650 0 0 1280 640 0 0 1290 640 0 0 1290 650 0 0 1280 640 0 0 1290 640 0 0 1280 640 0 0 1290 650 0 0 1290 640 0 0 1280 640 0 0 1290 650 0 0 1280 640 0 0 650 640 0 0 1280 650 0 0 1290 640 0 0 1290 640 0 0 1280 640 0 0 1290 650 0 0 640 640 0 0 1290 640 0 0 1280 650 0 0 650 640 0 0 1280 640 0 0 640 650 0 0 1290 640 0 0 640 640 0 0 1290 640 0 0 6430 650 0 0 28290 640 0 0 78450 -640 0 0 1290zm-269430 -106100l650 0 0 -5790 640 0 0 -2570 640 0 0 -3220 1290 0 0 -640 640 0 0 -640 650 0 0 -640 640 0 0 -650 640 0 0 -640 640 0 0 -640 650 0 0 -650 640 0 0 -640 640 0 0 -640 650 0 0 -650 640 0 0 -1280 640 0 0 -1290 640 0 0 -640 650 0 0 -1290 640 0 0 -1930 640 0 0 -1280 650 0 0 -1930 640 0 0 -1290 640 0 0 -1930 650 0 0 -1280 640 0 0 -1290 640 0 0 -1280 650 0 0 -1290 640 0 0 -1290 640 0 0 -1280 640 0 0 -1290 650 0 0 -1280 640 0 0 -1290 640 0 0 -640 650 0 0 -1290 640 0 0 -1290 640 0 0 -1280 650 0 0 -1290 640 0 0 -1280 640 0 0 -1290 640 0 0 -1290 650 0 0 -1280 640 0 0 -1290 640 0 0 -1280 650 0 0 -1290 640 0 0 -1290 640 0 0 -1280 650 0 0 -1290 640 0 0 -1280 640 0 0 -1290 640 0 0 -1290 650 0 0 -1280 640 0 0 -1290 640 0 0 -1280 650 0 0 -1290 640 0 0 -1290 640 0 0 -1280 650 0 0 -1290 640 0 0 -1280 640 0 0 -1290 640 0 0 -1290 650 0 0 -1280 640 0 0 -1290 640 0 0 -1280 650 0 0 -1290 640 0 0 -1290 640 0 0 -1930 650 0 0 -1280 640 0 0 -640 640 0 0 -1290 650 0 0 -1930 640 0 0 -1290 640 0 0 -1280 640 0 0 -1290 650 0 0 -1280 640 0 0 -1290 640 0 0 -1930 650 0 0 -1280 640 0 0 -1290 640 0 0 -1290 650 0 0 -1280 640 0 0 -1290 640 0 0 -640 640 0 0 -1290 650 0 0 -640 640 0 0 -640 640 0 0 -650 650 0 0 -640 640 0 0 640 640 0 0 2580 650 0 0 1920 640 0 0 1930 640 0 0 1290 640 0 0 2570 650 0 0 1930 640 0 0 1930 640 0 0 2570 650 0 0 1930 640 0 0 1930 640 0 0 1290 650 0 0 1920 640 0 0 1290 640 0 0 1930 640 0 0 1290 650 0 0 1280 640 0 0 1930 640 0 0 1290 650 0 0 1280 640 0 0 1930 640 0 0 1290 650 0 0 1930 640 0 0 1280 640 0 0 1930 640 0 0 1290 650 0 0 640 640 0 0 1290 640 0 0 1930 650 0 0 1280 640 0 0 1290 640 0 0 1280 650 0 0 1290 640 0 0 1290 640 0 0 1280 640 0 0 1930 650 0 0 1290 640 0 0 1930 640 0 0 1280 650 0 0 1290 640 0 0 1930 640 0 0 1280 650 0 0 1290 640 0 0 1290 640 0 0 1280 650 0 0 1290 640 0 0 1280 640 0 0 1290 640 0 0 1290 650 0 0 1280 640 0 0 1930 640 0 0 1290 650 0 0 1280 640 0 0 1290 640 0 0 1280 650 0 0 1290 640 0 0 1290 640 0 0 640 640 0 0 1290 650 0 0 1280 640 0 0 1290 640 0 0 1280 650 0 0 1930 640 0 0 1290 640 0 0 1290 650 0 0 1280 640 0 0 1290 640 0 0 1280 640 0 0 1290 650 0 0 2570 640 0 0 3860 640 0 0 12220 650 0 0 8360 640 0 0 10280 640 0 0 72660 -640 0 0 3220 -640 0 0 1290 -60450 0 0 -650 -37930 0 0 -640 -3860 0 0 -5140 -650 0 0 -99670zm217990 -158830l640 0 0 1290 640 0 0 1290 640 0 0 640 650 0 0 1280 640 0 0 650 640 0 0 1280 650 0 0 1290 640 0 0 1290 640 0 0 1280 650 0 0 1290 640 0 0 1280 640 0 0 1290 650 0 0 1290 640 0 0 1280 640 0 0 1930 640 0 0 1290 650 0 0 1280 640 0 0 1290 640 0 0 1930 650 0 0 1280 640 0 0 1290 640 0 0 1290 650 0 0 1930 640 0 0 1280 640 0 0 1290 640 0 0 1280 650 0 0 1290 640 0 0 1290 640 0 0 1280 650 0 0 1290 640 0 0 1930 640 0 0 1280 650 0 0 1290 640 0 0 1290 640 0 0 1280 640 0 0 1930 650 0 0 1290 640 0 0 1280 640 0 0 1290 650 0 0 1930 640 0 0 1280 640 0 0 1290 650 0 0 1290 640 0 0 1280 640 0 0 1290 640 0 0 1930 650 0 0 1280 640 0 0 1930 640 0 0 1290 650 0 0 1930 640 0 0 1930 640 0 0 1280 650 0 0 1290 640 0 0 1930 640 0 0 1280 650 0 0 1930 640 0 0 1290 640 0 0 1280 640 0 0 1930 650 0 0 1290 640 0 0 1290 640 0 0 1920 650 0 0 1290 640 0 0 1290 640 0 0 1930 650 0 0 1280 640 0 0 1930 640 0 0 1290 640 0 0 1280 650 0 0 1930 640 0 0 1290 640 0 0 1930 650 0 0 1280 640 0 0 1930 640 0 0 1290 650 0 0 1930 640 0 0 1930 640 0 0 1920 640 0 0 3220 650 0 0 2570 640 0 0 11580 -640 0 0 1920 -650 0 0 1930 -640 0 0 1290 -640 0 0 1930 -640 0 0 1290 -650 0 0 640 -1280 0 0 -1290 -650 0 0 -1280 -640 0 0 -1930 -640 0 0 -1290 -650 0 0 -640 -640 0 0 -1290 -640 0 0 -1930 -640 0 0 -1280 -650 0 0 -1290 -640 0 0 -1280 -640 0 0 -1290 -650 0 0 -1290 -640 0 0 -1930 -640 0 0 -1280 -650 0 0 -1290 -640 0 0 -1280 -640 0 0 -1290 -640 0 0 -1290 -650 0 0 -1280 -640 0 0 -650 -640 0 0 -1280 -650 0 0 -1290 -640 0 0 -1280 -640 0 0 -1290 -650 0 0 -1290 -640 0 0 -1280 -640 0 0 -1930 -650 0 0 -1290 -640 0 0 -1930 -640 0 0 -1280 -640 0 0 -1930 -650 0 0 -1290 -640 0 0 -1280 -640 0 0 -1290 -650 0 0 -1930 -640 0 0 -1280 -640 0 0 -1290 -650 0 0 -1290 -640 0 0 -1280 -640 0 0 -1290 -640 0 0 -1930 -650 0 0 -1280 -640 0 0 -1290 -640 0 0 -1930 -650 0 0 -1280 -640 0 0 -1290 -640 0 0 -1930 -650 0 0 -1290 -640 0 0 -1280 -640 0 0 -1290 -640 0 0 -1930 -650 0 0 -1280 -640 0 0 -1290 -640 0 0 -1930 -650 0 0 -1280 -640 0 0 -1290 -640 0 0 -1930 -650 0 0 -1280 -640 0 0 -1930 -640 0 0 -1930 -640 0 0 -1930 -650 0 0 -1290 -640 0 0 -1280 -640 0 0 -1930 -650 0 0 -1290 -640 0 0 -1280 -640 0 0 -650 -650 0 0 -1280 -640 0 0 -1290 -640 0 0 -1290 -650 0 0 -1930 -640 0 0 -5140 -640 0 0 5140 -640 0 0 2580 -650 0 0 1280 -640 0 0 1930 -640 0 0 1290 -650 0 0 1280 -640 0 0 1290 -640 0 0 640 -640 0 0 1290 -650 0 0 1290 -640 0 0 1280 -640 0 0 1290 -650 0 0 1280 -640 0 0 1930 -640 0 0 1290 -650 0 0 1280 -640 0 0 1290 -640 0 0 1290 -650 0 0 1280 -640 0 0 1290 -640 0 0 1280 -640 0 0 1930 -650 0 0 1290 -640 0 0 1290 -640 0 0 1280 -650 0 0 1290 -640 0 0 1280 -640 0 0 1290 -650 0 0 1290 -640 0 0 1280 -640 0 0 1290 -640 0 0 1280 -650 0 0 1290 -640 0 0 1290 -640 0 0 1280 -650 0 0 1290 -640 0 0 1280 -640 0 0 1290 -650 0 0 1290 -640 0 0 1280 -640 0 0 1290 -640 0 0 1280 -650 0 0 1930 -640 0 0 650 -640 0 0 1930 -650 0 0 1280 -640 0 0 1290 -640 0 0 1280 -650 0 0 1930 -640 0 0 1290 -640 0 0 1280 -640 0 0 1290 -650 0 0 1290 -640 0 0 1930 -640 0 0 1280 -650 0 0 1290 -640 0 0 1280 -640 0 0 1290 -650 0 0 1290 -640 0 0 1280 -640 0 0 1930 -640 0 0 1290 -650 0 0 1280 -640 0 0 1290 -640 0 0 1930 -650 0 0 1280 -640 0 0 1290 -640 0 0 1290 -650 0 0 1280 -640 0 0 1290 -640 0 0 1280 -640 0 0 1290 -650 0 0 1290 -640 0 0 1280 -640 0 0 1290 -650 0 0 640 -640 0 0 1930 -640 0 0 640 -650 0 0 1290 -640 0 0 640 -640 0 0 1290 -650 0 0 1280 -640 0 0 1290 -640 0 0 1290 -640 0 0 640 -650 0 0 640 -640 0 0 650 -1930 0 0 640 -1930 0 0 640 -2570 0 0 640 -3220 0 0 650 -2570 0 0 640 -7070 0 0 640 -14150 0 0 -640 -6430 0 0 -640 -3850 0 0 -650 -2580 0 0 -640 -2570 0 0 640 1930 0 0 650 640 0 0 640 3860 0 0 640 3860 0 0 650 3210 0 0 640 4510 0 0 640 11570 0 0 -640 5140 0 0 -640 3220 0 0 -650 3210 0 0 -640 2580 0 0 -640 1280 0 0 -650 1290 0 0 -640 1930 0 0 -640 1280 0 0 -640 1930 0 0 -650 1930 0 0 -640 640 0 0 15430 -640 0 0 16720 -640 0 0 15430 -4500 0 0 -640 -19290 0 0 640 -22510 0 0 650 -9000 0 0 640 -5150 0 0 -640 -640 0 0 -3860 -640 0 0 -8360 -640 0 0 -5150 -650 0 0 -9000 -640 0 0 -9000 -640 0 0 -9650 -650 0 0 -1280 -640 0 0 -1930 640 0 0 -640 1290 0 0 640 1290 0 0 -640 640 0 0 640 1280 0 0 -640 -1280 0 0 -650 -640 0 0 -640 -650 0 0 -1290 -640 0 0 -1280 -640 0 0 -1290 -650 0 0 -640 -640 0 0 -1290 -640 0 0 -1280 -650 0 0 -1290 -640 0 0 -1280 -640 0 0 -1290 -640 0 0 -1290 -650 0 0 -1280 -640 0 0 -1290 -640 0 0 -1290 -650 0 0 -1280 -640 0 0 -1290 -640 0 0 -1280 -650 0 0 -1930 -640 0 0 -1290 -640 0 0 -1280 -640 0 0 -1290 -650 0 0 -1930 -640 0 0 -1290 -640 0 0 -1280 -650 0 0 -1290 -640 0 0 -1930 -640 0 0 -1280 -650 0 0 -1290 -640 0 0 -1280 -640 0 0 -1290 -640 0 0 -1290 -650 0 0 -1280 -640 0 0 -1930 -640 0 0 -1290 -650 0 0 -1280 -640 0 0 -1290 -640 0 0 -1290 -650 0 0 -1920 -640 0 0 -1290 -640 0 0 -1290 -650 0 0 -1280 -640 0 0 -1930 -640 0 0 -1290 -640 0 0 -1280 -650 0 0 -1290 -640 0 0 -1290 -640 0 0 -1280 -650 0 0 -1290 -640 0 0 -1280 -640 0 0 -1930 -650 0 0 -1290 -640 0 0 -1290 -640 0 0 -1920 -640 0 0 -1290 -650 0 0 -1290 -640 0 0 -1930 -640 0 0 -1280 -650 0 0 -1290 -640 0 0 -1280 -640 0 0 -1290 -650 0 0 -1290 -640 0 0 -1280 -640 0 0 -1290 -640 0 0 -1280 -650 0 0 -1290 -640 0 0 -1930 -640 0 0 -1930 -650 0 0 -1280 -640 0 0 -1290 -640 0 0 -1930 -650 0 0 -1280 -640 0 0 -1290 -640 0 0 -1930 -640 0 0 -1930 -650 0 0 -1280 -640 0 0 -1290 -640 0 0 -1930 -650 0 0 -1290 -640 0 0 -1930 -640 0 0 -3850 -650 0 0 -650 -640 0 0 4500 -640 0 0 1930 -640 0 0 1290 -650 0 0 1290 -640 0 0 1280 -640 0 0 1290 -650 0 0 1930 -640 0 0 1280 -640 0 0 1290 -650 0 0 1290 -640 0 0 1280 -640 0 0 1290 -640 0 0 1280 -650 0 0 1290 -640 0 0 1290 -640 0 0 1920 -650 0 0 1290 -640 0 0 1290 -640 0 0 1280 -650 0 0 1290 -640 0 0 1280 -640 0 0 1290 -650 0 0 1290 -640 0 0 1280 -640 0 0 1290 -640 0 0 1280 -650 0 0 1290 -640 0 0 1290 -640 0 0 1930 -650 0 0 640 -640 0 0 1280 -640 0 0 1930 -650 0 0 1290 -640 0 0 640 -640 0 0 1290 -640 0 0 1290 -650 0 0 1280 -640 0 0 1290 -640 0 0 1280 -650 0 0 1290 -640 0 0 1290 -640 0 0 1280 -650 0 0 1290 -640 0 0 1280 -640 0 0 1290 -640 0 0 1290 -650 0 0 1280 -640 0 0 1290 -640 0 0 1280 -650 0 0 1290 -640 0 0 1290 -640 0 0 1280 -650 0 0 1290 -640 0 0 1280 -640 0 0 1290 -640 0 0 1290 -650 0 0 1280 -640 0 0 1930 -640 0 0 1290 -650 0 0 1280 -640 0 0 1290 -640 0 0 1280 -650 0 0 1930 -640 0 0 1290 -640 0 0 1290 -650 0 0 1280 -640 0 0 1290 -640 0 0 1280 -640 0 0 1290 -650 0 0 1290 -640 0 0 1280 -640 0 0 640 -650 0 0 1290 -640 0 0 640 -640 0 0 1290 -640 0 0 640 -650 0 0 1290 -640 0 0 640 -640 0 0 650 -650 0 0 640 -640 0 0 640 -640 0 0 1290 -650 0 0 -6430 -640 0 0 -7080 640 0 0 -5140 650 0 0 -3220 640 0 0 -2570 640 0 0 -3210 650 0 0 -2570 640 0 0 -2580 640 0 0 -1280 650 0 0 -1930 640 0 0 -1930 640 0 0 -1290 640 0 0 -1280 650 0 0 -1290 640 0 0 -1930 640 0 0 -1280 650 0 0 -1290 640 0 0 -1290 640 0 0 -1280 640 0 0 -1290 650 0 0 -1280 640 0 0 -1290 640 0 0 -1290 650 0 0 -1280 640 0 0 -1290 640 0 0 -1280 650 0 0 -1290 640 0 0 -1290 640 0 0 -1280 650 0 0 -1290 640 0 0 -1280 640 0 0 -1290 640 0 0 -1930 650 0 0 -1290 640 0 0 -1280 640 0 0 -1290 650 0 0 -1930 640 0 0 -1280 640 0 0 -1290 650 0 0 -1280 640 0 0 -1930 640 0 0 -1290 640 0 0 -1290 650 0 0 -1280 640 0 0 -1290 640 0 0 -1280 650 0 0 -1290 640 0 0 -1290 640 0 0 -1280 650 0 0 -1290 640 0 0 -1280 640 0 0 -1290 640 0 0 -1290 650 0 0 -1920 640 0 0 -650 640 0 0 -1280 650 0 0 -1290 640 0 0 -640 640 0 0 -1290 650 0 0 -1290 640 0 0 -1280 640 0 0 -1290 640 0 0 -640 650 0 0 -1290 640 0 0 -640 640 0 0 -1290 650 0 0 -1280 640 0 0 -1290 640 0 0 -1280 650 0 0 -1930 640 0 0 -3860 -640 0 0 3210 -650 0 0 1930 -640 0 0 1290 -640 0 0 1290 -650 0 0 1280 -640 0 0 640 -640 0 0 1290 -650 0 0 1290 -640 0 0 640 -640 0 0 1290 -640 0 0 1280 -650 0 0 1290 -640 0 0 640 -640 0 0 1290 -650 0 0 1280 -640 0 0 1290 -640 0 0 640 -650 0 0 1290 -640 0 0 1280 -640 0 0 1290 -640 0 0 1290 -650 0 0 1280 -640 0 0 1290 -640 0 0 1280 -650 0 0 650 -640 0 0 1280 -640 0 0 1290 -650 0 0 1290 -640 0 0 1280 -640 0 0 1290 -640 0 0 640 -650 0 0 1290 -640 0 0 1280 -640 0 0 1290 -650 0 0 1280 -640 0 0 1290 -640 0 0 640 -650 0 0 1290 -640 0 0 1930 -640 0 0 1280 -640 0 0 1290 -650 0 0 1290 -640 0 0 1280 -640 0 0 1290 -650 0 0 1280 -640 0 0 1290 -640 0 0 1290 -650 0 0 1280 -640 0 0 650 -640 0 0 1280 -650 0 0 650 -640 0 0 1280 -640 0 0 1290 -640 0 0 640 -650 0 0 1290 -640 0 0 640 -640 0 0 1290 -650 0 0 640 -640 0 0 640 -640 0 0 640 -640 0 0 650 -650 0 0 640 -640 0 0 640 -640 0 0 1930 640 0 0 -640 640 0 0 -640 650 0 0 -650 640 0 0 -640 1280 0 0 -640 650 0 0 -650 640 0 0 1290 -640 0 0 1930 -650 0 0 1290 -640 0 0 1280 -640 0 0 1290 -640 0 0 1930 -650 0 0 640 -640 0 0 1930 -640 0 0 3210 -650 0 0 2580 -640 0 0 1920 -640 0 0 1930 -650 0 0 1930 -640 0 0 1930 -1290 0 0 -1930 -640 0 0 -5140 -640 0 0 -21860 -640 0 0 -45660 640 0 0 -37290 640 0 0 -12220 640 0 0 -640 650 0 0 -650 15430 0 0 650 98380 0 0 640 50800 0 0 -640 18000 0 0 -650 10940 0 0 -640 7710 0 0 -640 10930 0 0 -650 60450 0 0 650 640 0 0 5140 640 0 0 10930 650 0 0 102240 -650 0 0 2570 -640 0 0 650 -640 0 0 -650 -650 0 0 -640 -640 0 0 -1930 -640 0 0 -1930 -650 0 0 -1280 -640 0 0 -1290 -640 0 0 -1930 -640 0 0 -1280 -650 0 0 -1930 -640 0 0 -1290 -640 0 0 -1280 -650 0 0 -1290 -640 0 0 -1930 -640 0 0 -1290 -650 0 0 -1280 -640 0 0 -1290 -640 0 0 -1930 -640 0 0 -1930 -650 0 0 -1280 -640 0 0 -1290 -640 0 0 -2570 -650 0 0 -1290 -640 0 0 -1280 -640 0 0 -1930 -650 0 0 -1290 -640 0 0 -1930 -640 0 0 -1280 -640 0 0 -1290 -650 0 0 -1930 -640 0 0 -1280 -640 0 0 -1290 -650 0 0 -1290 -640 0 0 -1920 -640 0 0 -1290 -650 0 0 -1290 -640 0 0 -1280 -640 0 0 -1290 -650 0 0 -1930 -640 0 0 -1280 -640 0 0 -1930 -640 0 0 -1290 -650 0 0 -1280 -640 0 0 -1290 -640 0 0 -1930 -650 0 0 -1290 -640 0 0 -1280 -640 0 0 -1930 -650 0 0 -1290 -640 0 0 -1280 -640 0 0 -1930 -640 0 0 -1290 -650 0 0 -1280 -640 0 0 -1290 -640 0 0 -1930 -650 0 0 -1290 -640 0 0 -1280 -640 0 0 -1290 -650 0 0 -1280 -640 0 0 -1290 -640 0 0 -1290 -640 0 0 -1280 -650 0 0 -1290 -640 0 0 -1280 -640 0 0 -1290 -650 0 0 -1290 -640 0 0 -1280 -640 0 0 -640 -650 0 0 -1290 -640 0 0 -1290 -640 0 0 -1280 -640 0 0 -1290 -650 0 0 -640 -640 0 0 -1930 -640 0 0 -1290 -650 0 0 -1280 -640 0 0 -2580 -640 0 0 -1280 -650 0 0 -3220 -640 0 0 -1280 -640 0 0 -2570 -650 0 0 -650 -640 0 0 -640 -3210 0 0 1290 640 0 0 1280 640 0 0 1290 650 0 0 1280zm28290 -10930l-43730 0 0 650 -207050 0 0 17360 -640 0 0 81660 640 0 0 75230 -640 0 0 65590 640 0 0 36010 650 0 0 3860 73940 0 0 -650 94530 0 0 650 104810 0 0 -650 3860 0 0 -640 640 0 0 -640 640 0 0 -126030 -640 0 0 -16720 640 0 0 -25720 640 0 0 -100950 -640 0 0 -7080 -640 0 0 -1930 -2570 0 0 -640 -25080 0 0 640z"/>
   <polygon class="fil41" points="188960,92430 188960,93070 188320,93070 188320,93720 187670,93720 187670,95000 187030,95000 187030,96930 186390,96930 186390,148370 187030,148370 187030,158020 187670,158020 187670,162520 188320,162520 188320,165090 188960,165090 188960,168950 189600,168950 189600,172170 190240,172170 190240,176020 190890,176020 190890,177950 191530,177950 191530,180530 192170,180530 192170,183740 192820,183740 192820,186960 193460,186960 193460,189530 194100,189530 194100,190810 194750,190810 194750,193390 195390,193390 195390,195960 196030,195960 196030,199170 196680,199170 196680,203030 196030,203030 196030,203670 195390,203670 195390,204320 194750,204320 194750,204960 194100,204960 194100,208170 193460,208170 193460,208820 192820,208820 192820,209460 192170,209460 192170,211390 191530,211390 191530,212680 190890,212680 190890,212030 189600,212030 189600,210750 188960,210750 188960,210100 187670,210100 187670,209460 187030,209460 187030,208170 186390,208170 186390,206890 185740,206890 185740,205600 185100,205600 185100,204960 184460,204960 184460,203670 183810,203670 183810,201740 183170,201740 183170,200460 182530,200460 182530,199170 181890,199170 181890,197890 181240,197890 181240,195960 180600,195960 180600,194670 179960,194670 179960,193390 179310,193390 179310,192100 178670,192100 178670,190810 178030,190810 178030,189530 177380,189530 177380,188240 176740,188240 176740,187600 176100,187600 176100,185030 175460,185030 175460,183740 174810,183740 174810,182450 174170,182450 174170,180530 173530,180530 173530,179880 172880,179880 172880,177950 172240,177950 172240,177310 171600,177310 171600,175380 170950,175380 170950,174100 170310,174100 170310,172810 169670,172810 169670,171520 169030,171520 169030,169590 168380,169590 168380,168310 167740,168310 167740,167020 167100,167020 167100,165740 166450,165740 166450,164450 165810,164450 165810,163160 165170,163160 165170,161230 164520,161230 164520,159950 163880,159950 163880,158660 163240,158660 163240,157380 162600,157380 162600,155450 161950,155450 161950,154160 161310,154160 161310,152230 160670,152230 160670,151590 160020,151590 160020,149660 159380,149660 159380,148370 158740,148370 158740,147090 158090,147090 158090,145800 157450,145800 157450,143870 156810,143870 156810,142590 156160,142590 156160,141300 155520,141300 155520,140020 154880,140020 154880,138730 154240,138730 154240,137440 153590,137440 153590,136160 152950,136160 152950,134870 152310,134870 152310,133590 151660,133590 151660,132300 151020,132300 151020,131010 150380,131010 150380,129080 149730,129080 149730,127800 149090,127800 149090,126510 148450,126510 148450,125230 147810,125230 147810,123940 147160,123940 147160,122650 146520,122650 146520,121370 145880,121370 145880,120080 145230,120080 145230,118800 144590,118800 144590,117510 143950,117510 143950,116870 143300,116870 143300,115580 142660,115580 142660,114290 142020,114290 142020,113650 141380,113650 141380,113010 140730,113010 140730,111720 140090,111720 140090,110440 139450,110440 139450,109790 138800,109790 138800,109150 138160,109150 138160,108510 137520,108510 137520,107860 136870,107860 136870,107220 136230,107220 136230,106580 135590,106580 135590,105940 134950,105940 134950,105290 134300,105290 134300,104650 133660,104650 133660,104010 133020,104010 133020,103360 132370,103360 132370,104010 133020,104010 133020,104650 133660,104650 133660,105290 134300,105290 134300,105940 134950,105940 134950,107220 135590,107220 135590,107860 136230,107860 136230,108510 136870,108510 136870,109150 137520,109150 137520,109790 138160,109790 138160,111080 138800,111080 138800,111720 139450,111720 139450,112370 140090,112370 140090,113650 140730,113650 140730,114290 141380,114290 141380,115580 142020,115580 142020,116870 142660,116870 142660,118150 143300,118150 143300,119440 143950,119440 143950,120720 144590,120720 144590,122010 145230,122010 145230,123300 145880,123300 145880,124580 146520,124580 146520,125230 147160,125230 147160,126510 147810,126510 147810,127800 148450,127800 148450,129080 149090,129080 149090,130370 149730,130370 149730,131660 150380,131660 150380,132940 151020,132940 151020,134870 151660,134870 151660,136160 152310,136160 152310,137440 152950,137440 152950,138730 153590,138730 153590,140660 154240,140660 154240,141940 154880,141940 154880,143230 155520,143230 155520,145160 156160,145160 156160,146450 156810,146450 156810,147730 157450,147730 157450,149020 158090,149020 158090,150300 158740,150300 158740,151590 159380,151590 159380,152880 160020,152880 160020,154160 160670,154160 160670,156090 161310,156090 161310,157380 161950,157380 161950,158660 162600,158660 162600,159950 163240,159950 163240,161880 163880,161880 163880,163160 164520,163160 164520,165090 165170,165090 165170,166380 165810,166380 165810,168310 166450,168310 166450,169590 167100,169590 167100,170880 167740,170880 167740,172810 168380,172810 168380,174100 169030,174100 169030,175380 169670,175380 169670,176670 170310,176670 170310,177950 170950,177950 170950,179240 171600,179240 171600,180530 172240,180530 172240,181810 172880,181810 172880,183740 173530,183740 173530,185030 174170,185030 174170,186310 174810,186310 174810,187600 175460,187600 175460,188880 176100,188880 176100,190170 176740,190170 176740,191460 177380,191460 177380,192100 178030,192100 178030,193390 178670,193390 178670,195310 179310,195310 179310,196600 179960,196600 179960,197890 180600,197890 180600,199170 181240,199170 181240,201100 181890,201100 181890,202390 182530,202390 182530,203670 183170,203670 183170,204960 183810,204960 183810,206250 184460,206250 184460,207530 185100,207530 185100,208820 185740,208820 185740,210100 186390,210100 186390,211390 187030,211390 187030,212680 187670,212680 187670,213320 188320,213320 188320,214610 188960,214610 188960,215250 189600,215250 189600,216530 190240,216530 190240,217180 190890,217180 190890,218460 191530,218460 191530,219110 192170,219110 192170,219750 192820,219750 192820,220390 193460,220390 193460,221030 194100,221030 194100,221680 194750,221680 194750,222320 195390,222320 195390,222960 196030,222960 196030,223610 196680,223610 196680,224250 197320,224250 197320,224890 197960,224890 197960,225540 199250,225540 199250,226180 200530,226180 200530,226820 201820,226820 201820,227470 204390,227470 204390,228110 208250,228110 208250,228750 219180,228750 219180,228110 223680,228110 223680,227470 226900,227470 226900,226820 229470,226820 229470,226180 230750,226180 230750,225540 231400,225540 231400,224890 232040,224890 232040,224250 232680,224250 232680,223610 233330,223610 233330,222320 233970,222320 233970,221680 234610,221680 234610,220390 235260,220390 235260,219110 235900,219110 235900,218460 236540,218460 236540,217180 237190,217180 237190,215890 237830,215890 237830,214610 238470,214610 238470,213320 239110,213320 239110,212680 239760,212680 239760,211390 240400,211390 240400,210100 241040,210100 241040,208820 241690,208820 241690,207530 242330,207530 242330,206250 242970,206250 242970,204960 243610,204960 243610,203670 244260,203670 244260,202390 244900,202390 244900,201100 245540,201100 245540,199820 246190,199820 246190,198530 246830,198530 246830,196600 247470,196600 247470,195960 248120,195960 248120,194030 248760,194030 248760,192740 249400,192740 249400,191460 250050,191460 250050,190170 250690,190170 250690,188880 251330,188880 251330,187600 251970,187600 251970,186310 252620,186310 252620,185030 253260,185030 253260,183740 253900,183740 253900,182450 254550,182450 254550,181170 255190,181170 255190,179880 255830,179880 255830,177950 256480,177950 256480,176670 257120,176670 257120,175380 257760,175380 257760,174740 258400,174740 258400,172810 259050,172810 259050,172170 259690,172170 259690,170880 260330,170880 260330,169590 260980,169590 260980,167660 261620,167660 261620,167020 262260,167020 262260,165090 262910,165090 262910,163810 263550,163810 263550,162520 264190,162520 264190,160590 264830,160590 264830,159310 265480,159310 265480,158020 266120,158020 266120,156090 266760,156090 266760,154800 267410,154800 267410,153520 268050,153520 268050,152230 268690,152230 268690,150300 269340,150300 269340,149020 269980,149020 269980,147730 270620,147730 270620,146450 271260,146450 271260,145160 271910,145160 271910,143230 272550,143230 272550,142590 273190,142590 273190,140660 273840,140660 273840,138730 274480,138730 274480,137440 275120,137440 275120,136160 275770,136160 275770,134230 276410,134230 276410,132940 277050,132940 277050,131660 277690,131660 277690,130370 278340,130370 278340,128440 278980,128440 278980,127150 279620,127150 279620,125870 280270,125870 280270,124580 280910,124580 280910,123300 281550,123300 281550,122010 282200,122010 282200,120080 282840,120080 282840,118800 283480,118800 283480,117510 284120,117510 284120,115580 284770,115580 284770,114290 285410,114290 285410,113010 286050,113010 286050,111080 286700,111080 286700,109790 287340,109790 287340,107860 287980,107860 287980,105940 288630,105940 288630,104650 289270,104650 289270,102720 289910,102720 289910,100150 290560,100150 290560,98220 291200,98220 291200,96930 291840,96930 291840,95650 292480,95650 292480,95000 293130,95000 293130,94360 293770,94360 293770,93720 295060,93720 295060,93070 295700,93070 295700,92430 297630,92430 297630,91790 296980,91790 296980,91150 296340,91150 296340,89860 295700,89860 295700,88570 295060,88570 295060,89860 289910,89860 289910,89220 287340,89220 287340,89860 283480,89860 283480,90500 275770,90500 275770,91150 241690,91150 241690,91790 190890,91790 190890,92430 "/>
   <polygon class="fil42" points="188960,92430 187670,92430 187670,93070 187030,93070 187030,93720 186390,93720 186390,95000 185740,95000 185740,144520 186390,144520 186390,96930 187030,96930 187030,95000 187670,95000 187670,93720 188320,93720 188320,93070 188960,93070 188960,92430 190890,92430 190890,91790 241690,91790 241690,91150 275770,91150 275770,90500 283480,90500 283480,89860 287340,89860 287340,89220 289910,89220 289910,89860 295060,89860 295060,87290 294410,87290 294410,86000 293770,86000 293770,84720 293130,84720 293130,83430 296340,83430 296340,84070 296980,84070 296980,83430 297630,83430 297630,82790 298910,82790 298910,83430 299560,83430 299560,82790 301490,82790 301490,82140 303420,82140 303420,81500 318850,81500 318850,80860 325280,80860 325280,80210 287980,80210 287980,80860 277050,80860 277050,81500 269340,81500 269340,82140 258400,82140 258400,82790 240400,82790 240400,83430 189600,83430 189600,82790 91220,82790 91220,82140 75790,82140 75790,82790 75140,82790 75140,83430 74500,83430 74500,95650 73860,95650 73860,132940 73220,132940 73220,178600 73860,178600 73860,200460 74500,200460 74500,205600 75140,205600 75140,207530 76430,207530 76430,205600 77070,205600 77070,203670 77720,203670 77720,201740 78360,201740 78360,199820 79000,199820 79000,197240 79650,197240 79650,194030 80290,194030 80290,192100 80930,192100 80930,191460 81580,191460 81580,189530 82220,189530 82220,188240 82860,188240 82860,186960 83500,186960 83500,185670 84150,185670 84150,183740 84790,183740 84790,182450 84150,182450 84150,183100 83500,183100 83500,183740 82220,183740 82220,184380 81580,184380 81580,185030 80930,185030 80930,185670 80290,185670 80290,186310 79650,186310 79650,184380 80290,184380 80290,183740 80930,183740 80930,183100 81580,183100 81580,182450 82220,182450 82220,181810 82860,181810 82860,181170 83500,181170 83500,180530 84150,180530 84150,179240 84790,179240 84790,178600 85430,178600 85430,177310 86080,177310 86080,176670 86720,176670 86720,175380 87360,175380 87360,174100 88000,174100 88000,173450 88650,173450 88650,172170 89290,172170 89290,171520 89930,171520 89930,170240 90580,170240 90580,168950 91220,168950 91220,167660 91860,167660 91860,166380 92510,166380 92510,165090 93150,165090 93150,163810 93790,163810 93790,162520 94440,162520 94440,161230 95080,161230 95080,159950 95720,159950 95720,158020 96360,158020 96360,156730 97010,156730 97010,156090 97650,156090 97650,154800 98290,154800 98290,153520 98940,153520 98940,152230 99580,152230 99580,150950 100220,150950 100220,149660 100870,149660 100870,149020 101510,149020 101510,147730 102150,147730 102150,146450 102790,146450 102790,145160 103440,145160 103440,143870 104080,143870 104080,142590 104720,142590 104720,141940 105370,141940 105370,140660 106010,140660 106010,139370 106650,139370 106650,138090 107300,138090 107300,136800 107940,136800 107940,135510 108580,135510 108580,134230 109220,134230 109220,132940 109870,132940 109870,132300 110510,132300 110510,131010 111150,131010 111150,129730 111800,129730 111800,128440 112440,128440 112440,127800 113080,127800 113080,126510 113730,126510 113730,125230 114370,125230 114370,123940 115010,123940 115010,123300 115650,123300 115650,122010 116300,122010 116300,120720 116940,120720 116940,120080 117580,120080 117580,118800 118230,118800 118230,117510 118870,117510 118870,116220 119510,116220 119510,114290 120160,114290 120160,110440 119510,110440 119510,109150 118870,109150 118870,108510 118230,108510 118230,107860 117580,107860 117580,106580 116940,106580 116940,105940 116300,105940 116300,105290 115650,105290 115650,104650 115010,104650 115010,104010 114370,104010 114370,103360 113730,103360 113730,102720 113080,102720 113080,102080 112440,102080 112440,101430 111800,101430 111800,100790 111150,100790 111150,100150 110510,100150 110510,99510 109870,99510 109870,98860 109220,98860 109220,98220 108580,98220 108580,97580 107940,97580 107940,96930 106650,96930 106650,96290 106010,96290 106010,95650 104720,95650 104720,95000 104080,95000 104080,94360 102790,94360 102790,93720 102150,93720 102150,93070 100870,93070 100870,92430 99580,92430 99580,91790 97650,91790 97650,91150 96360,91150 96360,90500 93790,90500 93790,89860 92510,89860 92510,89220 91860,89220 91860,87930 92510,87930 92510,87290 91220,87290 91220,86650 93150,86650 93150,85360 93790,85360 93790,84070 93150,84070 93150,83430 147160,83430 147160,84070 205030,84070 205030,84720 221750,84720 221750,85360 221110,85360 221110,86000 226250,86000 226250,86650 224320,86650 224320,87290 226900,87290 226900,87930 225610,87930 225610,88570 227540,88570 227540,89860 226900,89860 226900,90500 232680,90500 232680,91150 190240,91150 190240,91790 188960,91790 "/>
   <polygon class="fil43" points="302130,100150 302770,100150 302770,100790 303420,100790 303420,102080 304060,102080 304060,103360 304700,103360 304700,104650 305340,104650 305340,105940 305990,105940 305990,106580 306630,106580 306630,107860 307270,107860 307270,109150 307920,109150 307920,110440 308560,110440 308560,111720 309200,111720 309200,113010 309850,113010 309850,114290 310490,114290 310490,115580 311130,115580 311130,116870 311770,116870 311770,118150 312420,118150 312420,119440 313060,119440 313060,120720 313700,120720 313700,122010 314350,122010 314350,123940 314990,123940 314990,125230 315630,125230 315630,126510 316280,126510 316280,127800 316920,127800 316920,129730 317560,129730 317560,131010 318200,131010 318200,132300 318850,132300 318850,134230 319490,134230 319490,135510 320130,135510 320130,136800 320780,136800 320780,138730 321420,138730 321420,140020 322060,140020 322060,141300 322710,141300 322710,142590 323350,142590 323350,144520 323990,144520 323990,145800 324630,145800 324630,147730 325280,147730 325280,149020 325920,149020 325920,150300 326560,150300 326560,151590 327210,151590 327210,152880 327850,152880 327850,154800 328490,154800 328490,156090 329140,156090 329140,157380 329780,157380 329780,158660 330420,158660 330420,160590 331070,160590 331070,161880 331710,161880 331710,163160 332350,163160 332350,165090 332990,165090 332990,166380 333640,166380 333640,168310 334280,168310 334280,169590 334920,169590 334920,170880 335570,170880 335570,173450 336210,173450 336210,174740 336850,174740 336850,176020 337500,176020 337500,177950 338140,177950 338140,179880 338780,179880 338780,181170 339420,181170 339420,182450 340070,182450 340070,183740 340710,183740 340710,185670 341350,185670 341350,186960 342000,186960 342000,188240 342640,188240 342640,189530 343280,189530 343280,191460 343930,191460 343930,192740 344570,192740 344570,194670 345210,194670 345210,195960 345850,195960 345850,197240 346500,197240 346500,199170 347140,199170 347140,201100 347780,201100 347780,201740 348430,201740 348430,202390 349070,202390 349070,201740 349710,201740 349710,199170 350360,199170 350360,96930 349710,96930 349710,86000 349070,86000 349070,80860 348430,80860 348430,80210 325280,80210 325280,80860 318850,80860 318850,81500 303420,81500 303420,82140 301490,82140 301490,82790 299560,82790 299560,83430 298910,83430 298910,82790 297630,82790 297630,83430 296980,83430 296980,84720 297630,84720 297630,87290 298270,87290 298270,88570 298910,88570 298910,91790 299560,91790 299560,93070 300200,93070 300200,95650 300840,95650 300840,96930 301490,96930 301490,98220 302130,98220 "/>
   <polygon class="fil41" points="191530,241610 190240,241610 190240,240970 188320,240970 188320,240330 186390,240330 186390,239680 185100,239680 185100,239040 182530,239040 182530,238400 181890,238400 181890,239040 180600,239040 180600,238400 179310,238400 179310,239040 178670,239040 178670,240970 179310,240970 179310,242250 179960,242250 179960,251900 180600,251900 180600,260900 181240,260900 181240,269900 181890,269900 181890,275050 182530,275050 182530,283410 183170,283410 183170,287270 183810,287270 183810,287910 188960,287910 188960,287270 197960,287270 197960,286620 220470,286620 220470,285980 239760,285980 239760,286620 244260,286620 244260,271190 244900,271190 244900,254470 245540,254470 245540,239040 244900,239040 244900,239680 242970,239680 242970,240330 241040,240330 241040,240970 239760,240970 239760,241610 237830,241610 237830,242250 236540,242250 236540,242900 235260,242900 235260,243540 232680,243540 232680,244180 229470,244180 229470,244830 226250,244830 226250,245470 221110,245470 221110,246110 209540,246110 209540,245470 205030,245470 205030,244830 201820,244830 201820,244180 197960,244180 197960,243540 194100,243540 194100,242900 193460,242900 193460,242250 191530,242250 "/>
   <polygon class="fil44" points="268690,287910 267410,287910 267410,289190 266760,289190 266760,296910 266120,296910 266120,326490 266760,326490 266760,332280 268050,332280 268050,332920 282200,332920 282200,333560 295060,333560 295060,334210 316280,334210 316280,333560 320130,333560 320130,332920 323350,332920 323350,332280 323990,332280 323990,297550 323350,297550 323350,292410 322710,292410 322710,290480 322060,290480 322060,289190 321420,289190 321420,288550 319490,288550 319490,287910 312420,287910 312420,287270 268690,287270 "/>
   <polygon class="fil44" points="100870,288550 100220,288550 100220,293050 99580,293050 99580,322630 100220,322630 100220,332280 100870,332280 100870,332920 124660,332920 124660,333560 149730,333560 149730,332920 154240,332920 154240,332280 154880,332280 154880,330350 155520,330350 155520,327130 156160,327130 156160,320700 156810,320700 156810,303340 156160,303340 156160,297550 155520,297550 155520,293050 154880,293050 154880,289190 154240,289190 154240,287910 150380,287910 150380,287270 100870,287270 "/>
   <polygon class="fil44" points="297630,211390 287980,211390 287980,212030 278980,212030 278980,212680 272550,212680 272550,213320 268690,213320 268690,213960 267410,213960 267410,216530 266760,216530 266760,217820 266120,217820 266120,220390 265480,220390 265480,221680 264830,221680 264830,222960 264190,222960 264190,234540 264830,234540 264830,237110 265480,237110 265480,242900 266120,242900 266120,246760 266760,246760 266760,249330 267410,249330 267410,251260 268050,251260 268050,251900 268690,251900 268690,253190 269340,253190 269340,254470 269980,254470 269980,255120 270620,255120 270620,255760 271260,255760 271260,256400 271910,256400 271910,257040 273190,257040 273190,257690 277050,257690 277050,258330 305340,258330 305340,257690 309850,257690 309850,257040 313700,257040 313700,256400 315630,256400 315630,255760 317560,255760 317560,255120 318850,255120 318850,254470 320130,254470 320130,253830 320780,253830 320780,253190 321420,253190 321420,252540 322060,252540 322060,249970 322710,249970 322710,246760 323350,246760 323350,221030 322710,221030 322710,218460 322060,218460 322060,217180 321420,217180 321420,216530 320780,216530 320780,215890 320130,215890 320130,215250 319490,215250 319490,214610 318200,214610 318200,213960 316920,213960 316920,213320 315630,213320 315630,212680 313700,212680 313700,212030 311130,212030 311130,211390 307920,211390 307920,210750 297630,210750 "/>
   <polygon class="fil43" points="140730,112370 140730,113010 141380,113010 141380,113650 142020,113650 142020,114290 142660,114290 142660,115580 143300,115580 143300,116870 143950,116870 143950,117510 144590,117510 144590,118800 145230,118800 145230,120080 145880,120080 145880,121370 146520,121370 146520,122650 147160,122650 147160,123940 147810,123940 147810,125230 148450,125230 148450,126510 149090,126510 149090,127800 149730,127800 149730,129080 150380,129080 150380,131010 151020,131010 151020,132300 151660,132300 151660,133590 152310,133590 152310,134870 152950,134870 152950,136160 153590,136160 153590,137440 154240,137440 154240,138730 154880,138730 154880,140020 155520,140020 155520,141300 156160,141300 156160,142590 156810,142590 156810,143870 157450,143870 157450,145800 158090,145800 158090,147090 158740,147090 158740,148370 159380,148370 159380,149660 160020,149660 160020,151590 160670,151590 160670,152230 161310,152230 161310,154160 161950,154160 161950,155450 162600,155450 162600,156090 163240,156090 163240,156730 163880,156730 163880,158020 164520,158020 164520,159310 165170,159310 165170,161230 165810,161230 165810,161880 166450,161880 166450,163810 168380,163810 168380,164450 169030,164450 169030,166380 169670,166380 169670,167660 170310,167660 170310,168310 170950,168310 170950,169590 171600,169590 171600,170240 172240,170240 172240,170880 173530,170880 173530,171520 174810,171520 174810,172170 176740,172170 176740,172810 178030,172810 178030,172170 179960,172170 179960,171520 185100,171520 185100,172170 188960,172170 188960,165090 188320,165090 188320,162520 187670,162520 187670,158020 187030,158020 187030,148370 186390,148370 186390,144520 185740,144520 185740,95000 186390,95000 186390,93720 187030,93720 187030,93070 187670,93070 187670,92430 188960,92430 188960,91790 190240,91790 190240,91150 232680,91150 232680,90500 226900,90500 226900,89860 227540,89860 227540,88570 225610,88570 225610,87930 226900,87930 226900,87290 224320,87290 224320,86650 226250,86650 226250,86000 221110,86000 221110,85360 221750,85360 221750,84720 205030,84720 205030,84070 181240,84070 181240,84720 187030,84720 187030,85360 188320,85360 188320,86000 189600,86000 189600,88570 188960,88570 188960,89860 188320,89860 188320,90500 187670,90500 187670,91150 187030,91150 187030,91790 185100,91790 185100,92430 183810,92430 183810,93070 182530,93070 182530,93720 181890,93720 181890,94360 181240,94360 181240,95000 179960,95000 179960,95650 179310,95650 179310,96290 178670,96290 178670,96930 177380,96930 177380,97580 174170,97580 174170,98220 172240,98220 172240,98860 170310,98860 170310,99510 168380,99510 168380,100150 167100,100150 167100,100790 165810,100790 165810,101430 164520,101430 164520,102080 163240,102080 163240,102720 162600,102720 162600,103360 161950,103360 161950,104010 160670,104010 160670,104650 159380,104650 159380,105290 158740,105290 158740,105940 157450,105940 157450,106580 156160,106580 156160,107220 154880,107220 154880,107860 144590,107860 144590,108510 143950,108510 143950,109150 143300,109150 143300,109790 142660,109790 142660,110440 142020,110440 142020,111720 141380,111720 141380,112370 "/>
   <polygon class="fil44" points="115650,212680 110510,212680 110510,213320 105370,213320 105370,213960 102790,213960 102790,214610 101510,214610 101510,215250 100870,215250 100870,215890 100220,215890 100220,216530 99580,216530 99580,219110 98940,219110 98940,231970 99580,231970 99580,239040 100220,239040 100220,245470 100870,245470 100870,248040 101510,248040 101510,251900 102150,251900 102150,253830 102790,253830 102790,254470 103440,254470 103440,255120 104720,255120 104720,255760 105370,255760 105370,256400 106650,256400 106650,257040 108580,257040 108580,257690 142660,257690 142660,257040 145230,257040 145230,256400 148450,256400 148450,255760 151020,255760 151020,255120 152950,255120 152950,254470 154240,254470 154240,253830 154880,253830 154880,253190 155520,253190 155520,251900 156160,251900 156160,250610 156810,250610 156810,248040 157450,248040 157450,239680 158090,239680 158090,230040 157450,230040 157450,226180 156810,226180 156810,223610 156160,223610 156160,221030 155520,221030 155520,219110 154880,219110 154880,217820 154240,217820 154240,217180 153590,217180 153590,216530 152950,216530 152950,215890 151660,215890 151660,215250 150380,215250 150380,214610 149090,214610 149090,213960 147810,213960 147810,213320 145880,213320 145880,212680 142660,212680 142660,212030 115650,212030 "/>
   <polygon class="fil45" points="190890,217820 190240,217820 190240,217180 189600,217180 189600,216530 188960,216530 188960,217180 188320,217180 188320,215890 188960,215890 188960,215250 188320,215250 188320,213960 187670,213960 187670,213320 187030,213320 187030,212030 186390,212030 186390,211390 185740,211390 185740,210100 185100,210100 185100,211390 185740,211390 185740,212030 186390,212030 186390,213320 187030,213320 187030,213960 187670,213960 187670,215250 188320,215250 188320,215890 187030,215890 187030,215250 186390,215250 186390,213960 185740,213960 185740,213320 185100,213320 185100,212030 183810,212030 183810,211390 183170,211390 183170,210750 182530,210750 182530,210100 181240,210100 181240,213960 179960,213960 179960,214610 175460,214610 175460,215250 174810,215250 174810,215890 174170,215890 174170,216530 173530,216530 173530,217180 174170,217180 174170,217820 172880,217820 172880,217180 172240,217180 172240,216530 171600,216530 171600,217180 172240,217180 172240,219750 172880,219750 172880,221030 173530,221030 173530,222320 174170,222320 174170,223610 174810,223610 174810,224890 175460,224890 175460,226180 176100,226180 176100,227470 176740,227470 176740,228750 177380,228750 177380,230040 178030,230040 178030,231320 178670,231320 178670,232610 179310,232610 179310,233250 179960,233250 179960,234540 180600,234540 180600,235820 181240,235820 181240,237110 181890,237110 181890,237750 182530,237750 182530,238400 183810,238400 183810,239040 185100,239040 185100,239680 186390,239680 186390,240330 188320,240330 188320,240970 190240,240970 190240,241610 194100,241610 194100,242250 196680,242250 196680,242900 200530,242900 200530,243540 206960,243540 206960,244180 221110,244180 221110,243540 228180,243540 228180,242900 230750,242900 230750,242250 233970,242250 233970,241610 236540,241610 236540,240970 238470,240970 238470,240330 240400,240330 240400,239680 241040,239680 241040,239040 241690,239040 241690,238400 242330,238400 242330,237110 242970,237110 242970,235820 243610,235820 243610,234540 244260,234540 244260,233250 244900,233250 244900,232610 245540,232610 245540,231320 246190,231320 246190,230680 246830,230680 246830,228750 247470,228750 247470,228110 248120,228110 248120,226820 248760,226820 248760,225540 249400,225540 249400,224250 250050,224250 250050,222960 250690,222960 250690,221680 251330,221680 251330,220390 251970,220390 251970,219110 252620,219110 252620,217820 253260,217820 253260,216530 253900,216530 253900,215250 254550,215250 254550,213320 255190,213320 255190,212030 255830,212030 255830,210750 256480,210750 256480,209460 257120,209460 257120,207530 257760,207530 257760,206250 258400,206250 258400,204960 259050,204960 259050,203670 259690,203670 259690,202390 260330,202390 260330,201100 260980,201100 260980,199820 261620,199820 261620,197890 262260,197890 262260,196600 262910,196600 262910,195310 263550,195310 263550,194030 264190,194030 264190,192740 264830,192740 264830,190810 265480,190810 265480,189530 266120,189530 266120,188240 266760,188240 266760,186960 267410,186960 267410,185030 268050,185030 268050,184380 268690,184380 268690,182450 269340,182450 269340,181170 269980,181170 269980,179240 270620,179240 270620,178600 269980,178600 269980,179240 269340,179240 269340,179880 268690,179880 268690,179240 269340,179240 269340,177950 268690,177950 268690,177310 268050,177310 268050,177950 266760,177950 266760,179240 266120,179240 266120,178600 265480,178600 265480,179880 264830,179880 264830,179240 263550,179240 263550,178600 262910,178600 262910,177310 261620,177310 261620,176020 260980,176020 260980,176670 260330,176670 260330,177310 259690,177310 259690,177950 259050,177950 259050,176670 258400,176670 258400,177950 257120,177950 257120,177310 257760,177310 257760,176670 257120,176670 257120,177310 256480,177310 256480,177950 255830,177950 255830,179880 255190,179880 255190,181170 254550,181170 254550,182450 253900,182450 253900,183740 253260,183740 253260,185030 252620,185030 252620,186310 251970,186310 251970,187600 251330,187600 251330,188880 250690,188880 250690,190170 250050,190170 250050,191460 249400,191460 249400,192740 248760,192740 248760,194030 248120,194030 248120,195960 247470,195960 247470,196600 246830,196600 246830,198530 246190,198530 246190,199820 245540,199820 245540,201100 244900,201100 244900,202390 244260,202390 244260,203670 243610,203670 243610,204960 242970,204960 242970,206250 242330,206250 242330,207530 241690,207530 241690,208820 241040,208820 241040,210100 240400,210100 240400,211390 239760,211390 239760,212680 239110,212680 239110,213320 238470,213320 238470,214610 237830,214610 237830,215890 237190,215890 237190,217180 236540,217180 236540,218460 235900,218460 235900,219110 235260,219110 235260,220390 234610,220390 234610,221680 233970,221680 233970,222320 233330,222320 233330,223610 232680,223610 232680,224250 232040,224250 232040,224890 231400,224890 231400,225540 230750,225540 230750,226180 229470,226180 229470,226820 226900,226820 226900,227470 223680,227470 223680,228110 219180,228110 219180,228750 208250,228750 208250,228110 204390,228110 204390,227470 201820,227470 201820,226820 200530,226820 200530,226180 199250,226180 199250,225540 197960,225540 197960,224890 196680,224890 196680,224250 196030,224250 196030,223610 195390,223610 195390,222960 194750,222960 194750,222320 194100,222320 194100,221680 193460,221680 193460,222320 192820,222320 192820,221680 192170,221680 192170,221030 192820,221030 192820,221680 193460,221680 193460,221030 192820,221030 192820,220390 192170,220390 192170,221030 191530,221030 191530,220390 190890,220390 190890,219750 190240,219750 190240,219110 189600,219110 189600,217820 188960,217820 188960,217180 189600,217180 189600,217820 190240,217820 190240,219110 190890,219110 190890,219750 191530,219750 191530,220390 192170,220390 192170,219750 191530,219750 191530,219110 190890,219110 "/>
   <polygon class="fil39" points="119510,109790 120160,109790 120160,105290 120800,105290 120800,104650 121440,104650 121440,102720 122090,102720 122090,99510 121440,99510 121440,97580 120800,97580 120800,96930 120160,96930 120160,96290 118870,96290 118870,95650 117580,95650 117580,95000 115650,95000 115650,94360 115010,94360 115010,93720 116940,93720 116940,94360 118230,94360 118230,95000 119510,95000 119510,95650 120800,95650 120800,96290 122090,96290 122090,96930 124010,96930 124010,97580 125300,97580 125300,98220 125940,98220 125940,98860 127230,98860 127230,99510 128520,99510 128520,100150 129160,100150 129160,100790 130440,100790 130440,101430 131090,101430 131090,102080 131730,102080 131730,102720 132370,102720 132370,103360 133660,103360 133660,104010 134300,104010 134300,104650 134950,104650 134950,105290 135590,105290 135590,105940 136230,105940 136230,106580 136870,106580 136870,107220 137520,107220 137520,108510 138160,108510 138160,109150 138800,109150 138800,109790 139450,109790 139450,110440 140090,110440 140090,111720 140730,111720 140730,112370 141380,112370 141380,111720 142020,111720 142020,110440 142660,110440 142660,109790 143300,109790 143300,109150 143950,109150 143950,108510 144590,108510 144590,107860 154880,107860 154880,107220 156160,107220 156160,106580 157450,106580 157450,105940 158740,105940 158740,105290 159380,105290 159380,104650 160670,104650 160670,104010 161950,104010 161950,103360 162600,103360 162600,102720 163240,102720 163240,102080 164520,102080 164520,101430 165810,101430 165810,100790 167100,100790 167100,100150 168380,100150 168380,99510 170310,99510 170310,98860 172240,98860 172240,98220 174170,98220 174170,97580 177380,97580 177380,96930 178670,96930 178670,96290 179310,96290 179310,95650 179960,95650 179960,95000 181240,95000 181240,94360 181890,94360 181890,93720 182530,93720 182530,93070 183810,93070 183810,92430 185100,92430 185100,91790 187030,91790 187030,91150 187670,91150 187670,90500 188320,90500 188320,89860 188960,89860 188960,88570 189600,88570 189600,86000 188320,86000 188320,85360 187030,85360 187030,84720 181240,84720 181240,84070 147160,84070 147160,83430 93150,83430 93150,84070 93790,84070 93790,85360 93150,85360 93150,86650 91220,86650 91220,87290 92510,87290 92510,87930 91860,87930 91860,89220 92510,89220 92510,89860 93790,89860 93790,90500 96360,90500 96360,91150 97650,91150 97650,91790 99580,91790 99580,92430 100870,92430 100870,93070 102150,93070 102150,93720 102790,93720 102790,94360 104080,94360 104080,95000 104720,95000 104720,95650 106010,95650 106010,96290 106650,96290 106650,96930 107940,96930 107940,97580 108580,97580 108580,98220 109220,98220 109220,98860 109870,98860 109870,99510 110510,99510 110510,100150 111150,100150 111150,100790 111800,100790 111800,101430 112440,101430 112440,102080 113080,102080 113080,102720 113730,102720 113730,103360 114370,103360 114370,104010 115010,104010 115010,104650 115650,104650 115650,105290 116300,105290 116300,105940 116940,105940 116940,106580 117580,106580 117580,107860 118230,107860 118230,108510 118870,108510 118870,109150 119510,109150 "/>
   <path class="fil46" d="M167740 172170l0 -1290 -640 0 0 -1290 -650 0 0 -1280 -640 0 0 -1930 -640 0 0 -1290 -650 0 0 -1930 -640 0 0 -1280 -640 0 0 -1930 -640 0 0 -1290 -650 0 0 -1280 -640 0 0 -1290 -640 0 0 -1930 -650 0 0 -1280 -640 0 0 -1290 -640 0 0 -1290 -650 0 0 -1280 -640 0 0 -1290 -640 0 0 -1280 -650 0 0 -1290 -640 0 0 -1930 -640 0 0 -1290 -640 0 0 -1280 -650 0 0 -1930 -640 0 0 -1290 -640 0 0 -1280 -650 0 0 -1290 -640 0 0 -1930 -640 0 0 -1280 -650 0 0 -1290 -640 0 0 -1290 -640 0 0 -1280 -640 0 0 -1290 -650 0 0 -1280 -640 0 0 -650 -640 0 0 -1280 -650 0 0 -1290 -640 0 0 -1290 -640 0 0 -1280 -650 0 0 -1290 -640 0 0 -1280 -640 0 0 -1290 -640 0 0 -1290 -650 0 0 -640 -640 0 0 -1280 -640 0 0 -650 -650 0 0 -640 -640 0 0 -1290 -640 0 0 -640 -650 0 0 -640 -640 0 0 -650 -640 0 0 -640 -640 0 0 -1280 -650 0 0 -650 -640 0 0 -640 -640 0 0 -640 -650 0 0 -1290 -640 0 0 -640 -640 0 0 -650 -650 0 0 -640 -1280 0 0 -640 -640 0 0 -640 -1290 0 0 -650 -1290 0 0 -640 -640 0 0 -640 -1290 0 0 -650 -1920 0 0 -640 -1290 0 0 -640 -1290 0 0 -650 -1280 0 0 -640 -1290 0 0 -640 -1930 0 0 640 640 0 0 640 1930 0 0 650 1290 0 0 640 1290 0 0 640 640 0 0 650 640 0 0 1930 650 0 0 3210 -650 0 0 1930 -640 0 0 640 -640 0 0 4500 -650 0 0 650 650 0 0 640 640 0 0 3860 -640 0 0 1930 -650 0 0 1280 -640 0 0 1290 -640 0 0 1280 -650 0 0 1290 -640 0 0 640 -640 0 0 1290 -650 0 0 640 -640 0 0 1290 -640 0 0 1280 -640 0 0 1290 -650 0 0 1290 -640 0 0 640 -640 0 0 1290 -650 0 0 1280 -640 0 0 650 -640 0 0 1920 -650 0 0 1290 -640 0 0 1290 -640 0 0 1280 -640 0 0 1290 -650 0 0 1280 -640 0 0 1290 -640 0 0 1290 -650 0 0 640 650 0 0 -640 640 0 0 -650 640 0 0 -640 650 0 0 -640 640 0 0 -1290 640 0 0 -1280 640 0 0 -1290 650 0 0 -1290 640 0 0 -640 640 0 0 640 650 0 0 -640 640 0 0 -640 1930 0 0 -650 1280 0 0 650 650 0 0 1280 640 0 0 650 1290 0 0 640 640 0 0 1290 -640 0 0 640 640 0 0 -640 1930 0 0 640 640 0 0 640 650 0 0 -1280 640 0 0 1280 640 0 0 -1280 640 0 0 -1290 650 0 0 -1290 640 0 0 -1280 640 0 0 -1930 650 0 0 -1290 640 0 0 -1280 640 0 0 -1290 650 0 0 -1290 640 0 0 -1930 640 0 0 -4500 640 0 0 650 650 0 0 3850 640 0 0 1930 640 0 0 1290 650 0 0 1930 640 0 0 1290 640 0 0 1280 650 0 0 1930 640 0 0 1930 640 0 0 1290 640 0 0 1280 650 0 0 1930 640 0 0 1290 640 0 0 1280 650 0 0 1930 640 0 0 1930 640 0 0 1290 650 0 0 1280 640 0 0 1290 640 0 0 1280 640 0 0 1290 650 0 0 1290 640 0 0 1280 640 0 0 1290 650 0 0 1280 640 0 0 1930 640 0 0 1290 650 0 0 1290 640 0 0 1920 640 0 0 1290 640 0 0 1290 650 0 0 1930 640 0 0 1280 640 0 0 -1280 -640 0 0 -650 640 0 0 650 650 0 0 640 1280 0 0 -640 650 0 0 -650 1280 0 0 -640 640 0 0 -1290 6440 0 0 650 1280 0 0 640 640 0 0 640 650 0 0 650 640 0 0 1280 640 0 0 650 650 0 0 -1930 640 0zm-30220 -64310l0 -640 -650 0 0 -640 -640 0 0 -640 -640 0 0 -650 -640 0 0 -640 -650 0 0 -640 -640 0 0 -650 -640 0 0 650 640 0 0 640 640 0 0 640 650 0 0 650 640 0 0 640 640 0 0 640 640 0 0 640 650 0zm31510 66880l0 -640 -650 0 0 640 -640 0 0 -640 -640 0 0 1280 1280 0 0 -640 650 0z"/>
   <path class="fil46" d="M291840 135510l640 0 0 -1280 650 0 0 -1290 640 0 0 -1930 640 0 0 -1280 650 0 0 -2580 640 0 0 -5140 640 0 0 5140 640 0 0 1930 650 0 0 1290 640 0 0 1290 640 0 0 1280 650 0 0 650 640 0 0 1280 640 0 0 1290 650 0 0 1930 640 0 0 1280 640 0 0 1290 650 0 0 1930 640 0 0 1930 640 0 0 1930 640 0 0 1280 650 0 0 1930 640 0 0 1290 640 0 0 1280 1930 0 0 1290 650 0 0 -1290 640 0 0 -640 640 0 0 -640 640 0 0 -1290 650 0 0 -640 640 0 0 -650 4500 0 0 -640 640 0 0 640 1290 0 0 650 1290 0 0 1280 640 0 0 650 640 0 0 1280 650 0 0 650 640 0 0 640 640 0 0 1280 640 0 0 650 650 0 0 1280 640 0 0 -640 640 0 0 640 650 0 0 -1280 -650 0 0 -1290 -640 0 0 -1930 -640 0 0 -1280 -650 0 0 -1930 -640 0 0 -1290 -640 0 0 -1280 -640 0 0 -1290 -650 0 0 -1290 -640 0 0 -1280 -640 0 0 -1930 -650 0 0 -1290 -640 0 0 -1280 -640 0 0 -1290 -650 0 0 -1930 -640 0 0 -1280 -640 0 0 -1290 -640 0 0 -1290 -650 0 0 -1280 -640 0 0 -1930 -640 0 0 -1290 -650 0 0 -1280 -640 0 0 -1290 -640 0 0 -1290 -650 0 0 -1280 -640 0 0 -1290 -640 0 0 -1280 -640 0 0 -1930 -650 0 0 -1290 -640 0 0 -1290 -640 0 0 -1280 -650 0 0 -1930 -640 0 0 -1290 -640 0 0 -1280 -650 0 0 -1290 -640 0 0 -1930 -640 0 0 -1280 -640 0 0 -1290 -650 0 0 -1290 -640 0 0 -1280 -640 0 0 -1290 -650 0 0 -1280 -640 0 0 -1290 -640 0 0 -1290 -650 0 0 -1280 -640 0 0 -650 -640 0 0 -640 -1930 0 0 640 -640 0 0 650 -1290 0 0 640 -640 0 0 640 -650 0 0 650 -640 0 0 1280 -640 0 0 1290 -640 0 0 1930 -650 0 0 2570 -640 0 0 1930 -640 0 0 1290 -650 0 0 1920 -640 0 0 1930 -640 0 0 1290 -650 0 0 1930 -640 0 0 1280 -640 0 0 1290 -650 0 0 1930 -640 0 0 1290 -640 0 0 1280 -640 0 0 1930 -650 0 0 1290 -640 0 0 1280 -640 0 0 1290 -650 0 0 1280 -640 0 0 1290 -640 0 0 1930 -650 0 0 1290 -640 0 0 1280 -640 0 0 1290 -640 0 0 640 640 0 0 -640 640 0 0 640 640 0 0 -640 650 0 0 640 -650 0 0 640 1290 0 0 -640 1290 0 0 -640 1280 0 0 640 650 0 0 640 640 0 0 650 640 0 0 640 1290 0 0 640 640 0 0 -640 640 0 0 1290 650 0 0 1280 640 0 0 -1280 1290 0 0 640 -650 0 0 1290 -1280 0 0 640 640 0 0 640 -640 0 0 1290 640 0 0 -1290 640 0 0 -1280 650 0 0 -1290 640 0 0 -640 640 0 0 -1290 650 0 0 -1290 640 0 0 -640 640 0 0 640zm-1280 2580l-650 0 0 640 650 0 0 -640z"/>
   <path class="fil47" d="M194100 221680l0 640 650 0 0 640 640 0 0 650 640 0 0 640 650 0 0 640 640 0 0 -640 -640 0 0 -640 -650 0 0 -650 -640 0 0 -640 -640 0 0 -640 -650 0 0 -650 -640 0 0 -640 -640 0 0 -640 -650 0 0 -640 -640 0 0 -650 -640 0 0 650 640 0 0 640 640 0 0 640 -640 0 0 -640 -640 0 0 -640 -650 0 0 -1290 -640 0 0 -640 -640 0 0 640 640 0 0 1290 640 0 0 640 650 0 0 640 640 0 0 640 640 0 0 -640 650 0 0 640 640 0 0 650 -640 0 0 -650 -650 0 0 650 650 0 0 640 640 0 0 -640 640 0zm-3210 -3860l0 -640 -650 0 0 -650 -640 0 0 -1280 -640 0 0 -640 -640 0 0 640 640 0 0 640 -640 0 0 1290 640 0 0 -650 640 0 0 650 640 0 0 640 650 0zm-3860 -5790l0 -640 -640 0 0 -1290 -650 0 0 -1280 -640 0 0 -1290 -640 0 0 -1280 -650 0 0 -1290 -640 0 0 -1290 -640 0 0 -1280 -640 0 0 -1290 -650 0 0 -1930 -640 0 0 -1280 -640 0 0 -1290 -650 0 0 -1290 -640 0 0 -1920 -640 0 0 -1290 -650 0 0 -640 -640 0 0 -1290 -640 0 0 -1290 -640 0 0 -1280 -650 0 0 -1290 -640 0 0 -1280 -640 0 0 -1290 -650 0 0 -1930 -640 0 0 -1280 -640 0 0 -1290 -650 0 0 -1290 -640 0 0 -1280 -640 0 0 -1290 -640 0 0 -640 -650 0 0 640 -1280 0 0 -1280 640 0 0 640 640 0 0 -1930 -640 0 0 -640 -640 0 0 1930 -650 0 0 -650 -640 0 0 -1280 -640 0 0 -650 -650 0 0 -640 -640 0 0 -640 -1280 0 0 -650 -6440 0 0 1290 -640 0 0 640 -1280 0 0 650 -650 0 0 640 -1280 0 0 -640 -650 0 0 -650 -640 0 0 650 640 0 0 2570 650 0 0 1280 640 0 0 1290 640 0 0 1290 650 0 0 1280 640 0 0 1290 640 0 0 1930 640 0 0 1280 650 0 0 1290 640 0 0 1290 640 0 0 1920 650 0 0 1290 640 0 0 1290 640 0 0 1280 650 0 0 1290 640 0 0 1930 640 0 0 1280 650 0 0 1290 640 0 0 1290 640 0 0 1280 640 0 0 1290 650 0 0 1280 640 0 0 1930 640 0 0 1290 650 0 0 1280 640 0 0 1290 640 0 0 1930 650 0 0 1290 640 0 0 1280 640 0 0 1290 640 0 0 1930 650 0 0 1280 640 0 0 -1280 -640 0 0 -650 640 0 0 650 640 0 0 640 1290 0 0 -640 -640 0 0 -650 640 0 0 -640 640 0 0 -640 650 0 0 -640 4500 0 0 -650 1280 0 0 -3860 1290 0 0 650 640 0 0 640 640 0 0 640 1290 0 0 1290 640 0 0 640 650 0 0 1290 640 0 0 640 1290 0 0 -640 -650 0 0 -1290 -640 0 0 -640 -640 0 0 -1290 -650 0 0 -640 -640 0 0 -1290 640 0 0 1290 650 0 0 640 640 0zm1290 1930l0 -640 -650 0 0 -640 -640 0 0 640 640 0 0 640 650 0z"/>
   <polygon class="fil45" points="334920,174740 334280,174740 334280,174100 333640,174100 333640,173450 332990,173450 332990,174100 333640,174100 333640,175380 332990,175380 332990,174740 332350,174740 332350,174100 331710,174100 331710,173450 329140,173450 329140,174100 326560,174100 326560,174740 323350,174740 323350,175380 320780,175380 320780,176670 320130,176670 320130,177310 319490,177310 319490,176020 318850,176020 318850,178600 319490,178600 319490,179880 320130,179880 320130,181810 320780,181810 320780,183100 321420,183100 321420,184380 322060,184380 322060,185670 322710,185670 322710,187600 323350,187600 323350,188880 323990,188880 323990,190810 324630,190810 324630,192100 325280,192100 325280,194030 325920,194030 325920,195310 326560,195310 326560,196600 327210,196600 327210,197890 327850,197890 327850,199170 328490,199170 328490,200460 329140,200460 329140,201740 329780,201740 329780,202390 330420,202390 330420,203670 331070,203670 331070,204960 331710,204960 331710,206250 332350,206250 332350,207530 332990,207530 332990,208820 333640,208820 333640,210100 334280,210100 334280,212030 334920,212030 334920,213320 335570,213320 335570,214610 336210,214610 336210,215890 336850,215890 336850,217180 337500,217180 337500,218460 338140,218460 338140,220390 338780,220390 338780,221680 339420,221680 339420,222320 340070,222320 340070,223610 340710,223610 340710,225540 341350,225540 341350,226820 342000,226820 342000,228110 343280,228110 343280,227470 343930,227470 343930,226180 344570,226180 344570,224250 345210,224250 345210,222960 345850,222960 345850,221030 346500,221030 346500,219110 347140,219110 347140,207530 346500,207530 346500,204960 345850,204960 345850,201740 345210,201740 345210,199820 344570,199820 344570,197890 343930,197890 343930,195960 343280,195960 343280,194670 342640,194670 342640,192740 342000,192740 342000,191460 341350,191460 341350,189530 340710,189530 340710,188240 340070,188240 340070,186310 339420,186310 339420,185030 338780,185030 338780,183740 338140,183740 338140,181810 337500,181810 337500,180530 336850,180530 336850,178600 336210,178600 336210,177310 335570,177310 335570,176020 334920,176020 "/>
   <path class="fil47" d="M290560 138090l0 -650 640 0 0 -640 640 0 0 -1930 -640 0 0 640 -640 0 0 1290 -650 0 0 1290 -640 0 0 640 -640 0 0 1290 -650 0 0 1280 -640 0 0 1290 -640 0 0 -1290 640 0 0 -640 -640 0 0 -640 1280 0 0 -1290 650 0 0 -640 -1290 0 0 1280 -640 0 0 -1280 -650 0 0 -1290 -640 0 0 640 -640 0 0 -640 -1290 0 0 -640 -640 0 0 -650 -640 0 0 -640 -650 0 0 -640 -1280 0 0 640 -1290 0 0 640 -1290 0 0 -640 650 0 0 -640 -650 0 0 640 -640 0 0 -640 -640 0 0 640 -640 0 0 1290 -650 0 0 1280 -640 0 0 1290 -640 0 0 1930 -650 0 0 1930 -640 0 0 640 -640 0 0 1930 -650 0 0 1290 -640 0 0 1280 -640 0 0 1290 -640 0 0 1280 -650 0 0 1930 -640 0 0 1290 -640 0 0 1280 -650 0 0 1290 -640 0 0 1930 -640 0 0 1290 -650 0 0 1280 -640 0 0 1930 -640 0 0 1290 -640 0 0 1280 -650 0 0 1930 -640 0 0 640 -640 0 0 1930 -650 0 0 1290 -640 0 0 1290 -640 0 0 640 -650 0 0 1930 -640 0 0 640 -640 0 0 1290 -640 0 0 640 640 0 0 -640 640 0 0 640 -640 0 0 640 1280 0 0 -1280 650 0 0 1280 640 0 0 -640 640 0 0 -640 650 0 0 -650 640 0 0 1290 1290 0 0 1290 640 0 0 640 1280 0 0 640 650 0 0 -1280 640 0 0 640 640 0 0 -1290 1290 0 0 -640 640 0 0 640 650 0 0 1290 -650 0 0 640 650 0 0 -640 640 0 0 -640 1280 0 0 -1290 650 0 0 -1290 640 0 0 -1280 640 0 0 -1290 650 0 0 -1280 640 0 0 -1290 640 0 0 -1290 650 0 0 -1280 640 0 0 -1290 640 0 0 -1280 640 0 0 -1290 650 0 0 -1290 640 0 0 -1280 640 0 0 -1290 650 0 0 -1280 640 0 0 -1290 640 0 0 -1290 650 0 0 -1930 640 0 0 -1280 640 0 0 -1290 640 0 0 -1280 650 0 0 -1290 640 0 0 -1290 640 0 0 -1280 650 0 0 -1290 640 0 0 -1930 640 0 0 -1280 650 0 0 -1290 640 0 0 -1280 640 0 0 -1930 650 0zm-19940 41150l-640 0 0 640 640 0 0 -640z"/>
   <path class="fil47" d="M105370 144520l0 640 -650 0 0 640 -640 0 0 1290 -640 0 0 1280 -650 0 0 1290 -640 0 0 1290 -640 0 0 1930 -640 0 0 1280 -650 0 0 1290 -640 0 0 1280 -640 0 0 1930 -650 0 0 1290 -640 0 0 1280 -640 0 0 1290 -650 0 0 1930 -640 0 0 1290 -640 0 0 1280 -640 0 0 1290 -650 0 0 1280 -640 0 0 1290 -640 0 0 1290 -650 0 0 1280 -640 0 0 1290 -640 0 0 640 640 0 0 1930 -640 0 0 640 640 0 0 -640 640 0 0 -1290 650 0 0 1290 640 0 0 640 1930 0 0 650 1280 0 0 1280 650 0 0 650 1280 0 0 -650 650 0 0 -1280 4500 0 0 -1290 640 0 0 -640 640 0 0 -650 650 0 0 -640 640 0 0 -1280 1290 0 0 -1290 640 0 0 -1290 640 0 0 -640 640 0 0 -1290 650 0 0 -1930 640 0 0 -1280 640 0 0 -640 650 0 0 -1930 640 0 0 -1290 640 0 0 -1290 650 0 0 -1280 640 0 0 -1290 640 0 0 -1280 640 0 0 -1290 650 0 0 -1290 640 0 0 -1280 640 0 0 -1290 650 0 0 -1280 640 0 0 -1290 640 0 0 -1290 650 0 0 -1920 640 0 0 -1290 640 0 0 -1290 650 0 0 -1280 640 0 0 -2570 -640 0 0 1280 -650 0 0 -640 -640 0 0 -640 -1930 0 0 640 -640 0 0 -640 640 0 0 -1290 -640 0 0 -640 -1290 0 0 -650 -640 0 0 -1280 -650 0 0 -650 -1280 0 0 650 -1930 0 0 640 -640 0 0 640 -650 0 0 -640 -640 0 0 640 -640 0 0 1290 -650 0 0 1290 -640 0 0 1280 -640 0 0 1290 -640 0 0 640 -650 0 0 640 -640 0 0 650 -640 0zm640 31500l-640 0 0 650 640 0 0 -650z"/>
   <polygon class="fil45" points="90580,175380 90580,176020 89930,176020 89930,177310 89290,177310 89290,178600 88650,178600 88650,179880 88000,179880 88000,181170 87360,181170 87360,182450 86720,182450 86720,183740 86080,183740 86080,185030 85430,185030 85430,186310 84790,186310 84790,188240 84150,188240 84150,189530 83500,189530 83500,190810 82860,190810 82860,192100 82220,192100 82220,194030 81580,194030 81580,195960 80930,195960 80930,197240 80290,197240 80290,199820 79650,199820 79650,202390 79000,202390 79000,205600 78360,205600 78360,208170 77720,208170 77720,211390 77070,211390 77070,216530 76430,216530 76430,223610 77070,223610 77070,230040 77720,230040 77720,228750 78360,228750 78360,228110 79000,228110 79000,227470 79650,227470 79650,226820 80290,226820 80290,226180 80930,226180 80930,224890 81580,224890 81580,224250 82220,224250 82220,222960 82860,222960 82860,222320 83500,222320 83500,221030 84150,221030 84150,220390 84790,220390 84790,219110 85430,219110 85430,217820 86080,217820 86080,216530 86720,216530 86720,215250 87360,215250 87360,213960 88000,213960 88000,212680 88650,212680 88650,211390 89290,211390 89290,210100 89930,210100 89930,208170 90580,208170 90580,206890 91220,206890 91220,205600 91860,205600 91860,204320 92510,204320 92510,203030 93150,203030 93150,201100 93790,201100 93790,199820 94440,199820 94440,198530 95080,198530 95080,197240 95720,197240 95720,195960 96360,195960 96360,194670 97010,194670 97010,193390 97650,193390 97650,192100 98290,192100 98290,190810 98940,190810 98940,189530 99580,189530 99580,188240 100220,188240 100220,186960 100870,186960 100870,185670 101510,185670 101510,184380 102150,184380 102150,183100 102790,183100 102790,181810 103440,181810 103440,180530 104080,180530 104080,179240 104720,179240 104720,177950 105370,177950 105370,176020 106010,176020 106010,175380 106650,175380 106650,174100 106010,174100 106010,175380 105370,175380 105370,176020 104720,176020 104720,176670 104080,176670 104080,177310 103440,177310 103440,178600 98940,178600 98940,179880 98290,179880 98290,180530 97010,180530 97010,179880 96360,179880 96360,178600 95080,178600 95080,177950 93150,177950 93150,177310 92510,177310 92510,176020 91860,176020 91860,177310 91220,177310 91220,177950 90580,177950 90580,177310 91220,177310 91220,175380 "/>
   <polygon class="fil42" points="188960,168950 188960,172170 185100,172170 185100,171520 179960,171520 179960,172170 178030,172170 178030,172810 176740,172810 176740,172170 174810,172170 174810,171520 173530,171520 173530,170880 172240,170880 172240,170240 171600,170240 171600,169590 170950,169590 170950,168310 170310,168310 170310,167660 169670,167660 169670,166380 169030,166380 169030,164450 168380,164450 168380,163810 166450,163810 166450,161880 165810,161880 165810,161230 165170,161230 165170,159310 164520,159310 164520,158020 163880,158020 163880,156730 163240,156730 163240,156090 162600,156090 162600,157380 163240,157380 163240,158660 163880,158660 163880,159950 164520,159950 164520,161230 165170,161230 165170,163160 165810,163160 165810,164450 166450,164450 166450,165740 167100,165740 167100,167020 167740,167020 167740,168310 168380,168310 168380,169590 169030,169590 169030,171520 169670,171520 169670,172810 170310,172810 170310,174100 170950,174100 170950,175380 171600,175380 171600,177310 172240,177310 172240,177950 172880,177950 172880,179880 173530,179880 173530,180530 174170,180530 174170,182450 174810,182450 174810,183740 175460,183740 175460,185030 176100,185030 176100,187600 176740,187600 176740,188240 177380,188240 177380,189530 178030,189530 178030,190810 178670,190810 178670,192100 179310,192100 179310,193390 179960,193390 179960,194670 180600,194670 180600,195960 181240,195960 181240,197890 181890,197890 181890,199170 182530,199170 182530,200460 183170,200460 183170,201740 183810,201740 183810,203670 184460,203670 184460,204960 185100,204960 185100,205600 185740,205600 185740,206890 186390,206890 186390,208170 187030,208170 187030,209460 187670,209460 187670,210100 188960,210100 188960,210750 189600,210750 189600,212030 190890,212030 190890,212680 191530,212680 191530,211390 192170,211390 192170,209460 192820,209460 192820,208820 193460,208820 193460,208170 194100,208170 194100,204960 194750,204960 194750,204320 195390,204320 195390,203670 196030,203670 196030,203030 196680,203030 196680,199170 196030,199170 196030,195960 195390,195960 195390,193390 194750,193390 194750,190810 194100,190810 194100,189530 193460,189530 193460,186960 192820,186960 192820,183740 192170,183740 192170,180530 191530,180530 191530,177950 190890,177950 190890,176020 190240,176020 190240,172170 189600,172170 189600,168950 "/>
   <polygon class="fil47" points="334280,174100 334280,174740 334920,174740 334920,174100 334280,174100 334280,172810 333640,172810 333640,171520 332990,171520 332990,169590 332350,169590 332350,168310 331710,168310 331710,167020 331070,167020 331070,165090 330420,165090 330420,163810 329780,163810 329780,161880 329140,161880 329140,160590 328490,160590 328490,159310 327850,159310 327850,157380 327210,157380 327210,156730 326560,156730 326560,156090 325920,156090 325920,156730 325280,156730 325280,155450 324630,155450 324630,154800 323990,154800 323990,153520 323350,153520 323350,152880 322710,152880 322710,152230 322060,152230 322060,150950 321420,150950 321420,150300 320780,150300 320780,149020 319490,149020 319490,148370 318200,148370 318200,147730 317560,147730 317560,148370 313060,148370 313060,149020 312420,149020 312420,149660 311770,149660 311770,150950 311130,150950 311130,151590 310490,151590 310490,152230 309850,152230 309850,153520 309200,153520 309200,152230 307920,152230 307920,154160 308560,154160 308560,155450 309200,155450 309200,156730 309850,156730 309850,158660 310490,158660 310490,159950 311130,159950 311130,161230 311770,161230 311770,162520 312420,162520 312420,164450 313060,164450 313060,165740 313700,165740 313700,167020 314350,167020 314350,168950 314990,168950 314990,170240 315630,170240 315630,171520 316280,171520 316280,173450 316920,173450 316920,174740 317560,174740 317560,176020 318200,176020 318200,177310 318850,177310 318850,176020 319490,176020 319490,177310 320130,177310 320130,176670 320780,176670 320780,175380 323350,175380 323350,174740 326560,174740 326560,174100 329140,174100 329140,173450 331710,173450 331710,174100 332350,174100 332350,174740 332990,174740 332990,175380 333640,175380 333640,174100 332990,174100 332990,173450 333640,173450 333640,174100 "/>
  </g>
 </g>
</svg>
